<svg xmlns="http://www.w3.org/2000/svg" viewBox="0 0 449.34 166.41"><defs><style>.cls-1{fill:#1b1918;fill-rule:evenodd;}</style></defs><g id="Layer_2" data-name="Layer 2"><g id="Layer_1-2" data-name="Layer 1"><path class="cls-1" d="M48.84,166.41H19.54V146.84h9.77q0,9.78,19.53,9.78t19.54-9.78V58.74q0-9.8-19.54-9.8t-19.53,9.8v58.73q0,9.8,19.53,9.79V137Q0,137,0,117.47V58.74Q0,39.16,48.84,39.16T97.69,58.74v88.1Q97.69,166.4,48.84,166.41Z"/><path class="cls-1" d="M117.22,78.32h48.85v9.79q-19.55,0-19.55,9.79v19.57q0,9.8,19.55,9.79t19.53-9.79V58.74q0-9.8-19.53-9.8t-19.55,9.8h-9.76V39.16h29.31q48.84,0,48.84,19.58v58.73q0,19.58-48.84,19.57t-48.85-19.57Z"/><path class="cls-1" d="M302.82,58.74q0-9.8-19.54-9.8V39.16h48.84v78.31q0,19.58-48.84,19.57t-48.84-19.57V19.58Q234.44,0,283.28,0h29.31V19.58h-9.77q0-9.78-19.54-9.79t-19.53,9.79v97.89q0,9.8,19.53,9.79t19.54-9.79Z"/><path class="cls-1" d="M351.66,78.32H400.5v9.79Q381,88.11,381,97.9v19.57q0,9.8,19.53,9.79T420,117.47V58.74q0-9.8-19.54-9.8T381,58.74H371.2V39.16h29.3q48.84,0,48.84,19.58v58.73q0,19.58-48.84,19.57t-48.84-19.57Z"/></g></g></svg>