<svg xmlns="http://www.w3.org/2000/svg" xmlns:xlink="http://www.w3.org/1999/xlink" xml:space="preserve" version="1.1" style="shape-rendering:geometricPrecision;text-rendering:geometricPrecision;image-rendering:optimizeQuality;" viewBox="0 0 50800 63500" x="0px" y="0px" fill-rule="evenodd" clip-rule="evenodd"><defs><style type="text/css">
   
    .fil0 {fill:black}
   
  </style></defs><g><path class="fil0" d="M39640 31728c152,-410 536,-1050 830,-1284l166 580c-257,221 -731,579 -996,704zm-1449 -1943c-334,-313 -318,-482 -463,-1102 336,-300 871,-690 1336,-815 -86,430 -446,974 -676,1429 -28,54 -103,198 -117,231 -99,241 -11,-20 -80,257zm2392 1954l262 -197 1422 3680c350,939 1002,3182 1023,4139 31,1354 76,2897 -929,3880l-125 108c-492,513 -267,766 -948,1061 -386,167 -153,60 -451,258 -438,291 -511,64 -915,372 -404,307 -300,395 -991,422 987,-968 1843,-2166 1970,-3626 55,-633 -64,-1129 -141,-1737 -245,-1929 -959,-3783 -1419,-6133 31,-16 81,-72 96,-41l314 -58c345,-97 494,-487 1069,-740 -204,674 -899,1639 -939,2121 527,36 878,-292 1186,-557 123,24 521,310 619,-302 -629,-144 -966,318 -1488,557 151,-361 297,-658 459,-1022 174,-387 394,-568 421,-1151 -499,42 -1085,491 -1196,861 -300,-213 -434,444 -180,-537l-213 448c-23,32 -46,60 -69,89l-1338 -3467 864 -774c570,-441 546,-266 823,-311l127 -47c-2,-3 112,-470 -636,-37 -367,213 -313,297 -653,478 133,-649 654,-1092 692,-1877 -782,-19 -698,283 -1365,540l1259 -1829 1183 3782c-314,163 -618,256 -817,541 295,-264 104,-170 612,-209 -160,536 -528,770 -724,1119 -260,464 -73,299 7,396 310,308 64,88 1016,-478 129,125 65,-15 113,278zm-3094 -3696c-123,-434 -202,-678 -264,-1200 715,-134 973,-574 1633,-756 -4,503 -266,727 -497,1072 -132,197 -194,307 -324,493 -214,304 -101,259 -548,391zm10287 -13957c-47,-377 -14,-320 197,-552 221,-243 270,-290 654,-403 -162,654 -182,869 -851,955zm-42534 -3608c-129,808 92,104 -596,589l-1082 1145c-242,306 -184,373 -555,522 44,-213 99,-424 531,-954 -37,-13 -67,-26 -76,-31l-110 -86c561,-1501 1849,-3061 3477,-3448 -144,292 -2,143 -282,416 -242,236 8,-4 -277,211 -873,655 -620,1101 -1227,1576l197 60zm6937 -2568c187,-343 165,-183 411,-407 181,-167 128,-325 169,-274l1337 49c-174,484 -144,612 -739,651 -393,26 -788,36 -1178,-19zm-6937 2568c-11,-539 -123,-64 369,-652 85,-102 79,-113 161,-212 418,-505 1529,-1735 2020,-1988 1079,-557 4299,-592 4730,-424l-289 160c-502,339 108,-245 -96,101l-181 567c-1176,32 -2201,616 -3125,848 238,-467 396,-537 743,-763l-218 -387c-136,310 198,27 -397,603 -310,301 -317,922 -2084,1459 132,-911 1244,-1447 1275,-1970 -1165,561 -1326,2708 -2908,2658zm18543 -2824l-391 42 305 -366c418,-358 876,-252 1418,-296l-282 390c-206,262 -142,108 -219,493 496,36 474,109 771,-245l-194 -30c-19,-7 -60,-22 -80,-31l-179 -115c849,-485 781,-466 1781,-691 318,-72 455,-59 648,88 -1014,320 -1097,1191 -155,936 -92,-276 -68,-172 -310,-254 -14,-5 -54,-10 -78,-21l814 -886 4916 -1052c1565,-427 3483,-599 5125,-906 2091,-392 4316,-800 6363,96 336,148 620,431 943,554 1526,583 1593,793 2119,999 -2165,-1674 -4678,-2715 -7507,-2240 -1560,262 -2754,462 -4274,754 -1243,238 -4432,631 -5408,944 -338,108 -675,206 -1055,260l-3084 707c-512,64 -1630,-109 -2215,-36l-3632 146c-481,42 -6542,-619 -7244,-307l3021 99c550,78 175,10 382,164 -28,16 -67,10 -84,47 -17,37 -64,34 -88,40 -96,23 -228,47 -325,57 -1060,105 -2269,-63 -3298,-142 -841,-65 -3182,63 -3853,265 -740,222 -1132,573 -1901,908 -1237,539 -2295,1593 -2933,2579 -295,455 -631,1306 -826,1848 -213,589 -361,1634 -926,1904 20,22 56,22 62,61 54,328 275,42 -15,814l-224 706c-9,25 -26,53 -34,78 -302,912 60,3737 742,4736 284,417 851,1086 1272,1426 1839,1488 1864,871 3925,1467 611,176 2928,-488 3471,-1021 179,-175 165,-121 257,-350l-2140 832c-1430,446 -1125,252 -2587,23 -1762,-275 -2811,-964 -3862,-2364 -1331,-1772 -1166,-5426 185,-7453 210,-315 403,-495 669,-853 1419,-1915 4720,-2766 5336,-3231 207,-157 294,-209 526,-306 1128,-471 2762,-835 3989,-633 3849,636 7985,165 12023,346 2071,93 3889,2 5869,-169 687,-59 1935,-270 2587,-433l5629 -620c1345,-13 1604,205 2649,539 1309,418 2123,808 2848,1859 23,33 134,202 139,212l182 414c15,33 65,125 82,157l745 1241c355,710 819,2313 772,3116 -21,360 -155,490 -163,603 -26,338 57,543 -101,1238 -119,525 -187,738 -391,1139 -344,677 -860,1286 -1242,1938 -751,1279 -2166,2015 -3795,2447 -997,264 -1522,505 -2666,504 -836,0 -2100,-580 -2518,-538 -118,1420 2175,9400 2719,10794 499,1283 1829,7085 1822,8402 -3,521 -132,984 -257,1419 -181,628 -291,760 -551,1206 -521,-182 -149,53 -490,-361 391,1078 -695,901 -1008,1439 179,-183 336,-201 562,-18 -2035,966 -5023,1354 -7315,1638 -1210,150 -2627,386 -3886,571 -1353,198 -2764,262 -4198,399 -2115,200 -6296,788 -8277,312 -1356,-326 -2602,-240 -3939,-511 -1303,-265 -1996,-1104 -2833,-1746 23,-14 59,-62 68,-42l273 -212c-446,-168 -156,-32 -439,-366l-378 -447c-463,-1056 -718,-3499 -603,-4688 202,-2090 803,-3846 1160,-5867 323,-1825 1085,-3638 1543,-5504 197,-798 1433,-5149 1073,-5732 -360,172 -231,565 -384,1199 -375,1565 -363,2344 -898,4266 -235,847 -474,1723 -738,2667l-790 2731c-566,2515 -1778,6516 -1173,8953 200,804 406,2025 926,2579 -226,391 -183,74 -201,577 557,406 -177,-345 1237,843 1759,1477 2915,981 5087,1347l1772 339c1643,145 7995,-466 10030,-618 2461,-185 6632,-1034 9304,-1369 1787,-225 3483,-875 5176,-1282 1397,-337 1596,-1091 2328,-1982 711,-866 882,-2009 816,-3384 -151,-3142 -1446,-5429 -2367,-8288l-568 -1667c-269,-888 -1448,-4212 -1528,-4835 -71,-558 154,-1367 -438,-1543 -13,27 -36,36 -39,81 -32,543 161,1587 325,2050l-1201 740c-720,374 -513,-54 -535,-69 330,-186 859,-614 935,-970 -647,689 -626,787 -1077,968 -35,-233 -137,-429 70,-540l581 -366c421,-311 461,-142 790,-350 -55,-818 -1130,371 -1492,484 -259,-299 -362,-572 -374,-996 572,-357 206,102 749,-515 318,-362 440,-310 747,-766 -885,108 -873,921 -1475,1145 -92,-123 -76,43 -203,-346 -63,-193 -36,-212 -70,-405 -68,-390 -119,-558 -148,-1011 891,215 1295,371 2355,494 562,66 2558,-417 3208,-700 1314,-571 1374,-524 2634,-1491 757,-581 1813,-2431 2205,-3405 97,-242 44,-93 94,-260l375 -1709c132,-481 321,-543 629,-800 68,-56 231,-224 376,-342 125,-101 266,-183 408,-287 33,765 -228,1448 -662,2023l-160 188c-324,493 -294,730 -743,1494 -168,286 -70,-4 -62,114l86 214c10,25 34,74 44,113 -376,162 -364,258 -473,559 -99,274 -94,-205 -70,276 224,-877 2002,-2258 2095,-3156 -222,324 -324,162 -346,164 169,-562 260,-559 522,-1053 244,-460 -36,-197 165,-623 33,-69 63,-44 141,-84l-251 -80c43,-249 61,-464 102,-703l141 -565c196,-523 124,-877 159,-1460 46,-769 -228,-1945 -69,-2694 -206,168 -170,177 -355,166 103,261 48,77 127,405l-333 671c12,-790 -83,-326 290,-476 163,224 220,123 167,744 -183,111 -15,51 -257,101 -329,67 134,-153 -193,17 429,547 352,1430 291,2342 -905,-94 -667,155 -1411,215 236,-537 1082,-970 1088,-1280 -19,-11 -94,-445 -762,131 17,6 48,-13 54,7 44,147 160,5 325,112 -397,197 -956,680 -953,1278l723 -103c-318,535 -582,353 -561,1171 519,-173 382,68 452,131 -180,112 -166,92 -329,258l-464 364c246,-2326 -1123,-5197 -2851,-6636 -821,-684 -3823,-1440 -4947,-1380 -811,43 -673,109 -1228,276 -381,115 -1143,28 -1589,43 -2018,68 -3706,625 -5754,774 -102,-162 -90,-74 -117,-251 -548,728 -3219,490 -3992,478 -1387,-22 -2903,-238 -4340,-138 -2221,153 -6405,207 -8438,-274 152,-261 291,-401 459,-685l3629 -131 237 611c332,-175 53,31 289,-179 -459,-188 -255,84 -260,-374l1970 -67c-297,402 -669,385 -668,926 287,20 449,3 643,-131 13,-10 283,-310 306,-352l-688 319c282,-603 588,-909 1295,-819 -143,150 -99,174 -355,254 475,-67 95,-173 844,-261 -188,508 -515,355 -557,906l519 77c-32,-346 129,-13 -76,-200 -10,-9 -44,-34 -55,-43l-141 -69c205,-202 328,-395 527,-645l1858 -82c-270,606 -450,278 -482,805 522,83 432,100 654,-213z"/><path class="fil0" d="M7747 11937c470,-216 561,-444 1251,-443 11,-4 471,-443 867,-618 520,-230 778,-229 1369,-196 365,-121 -309,-236 1213,-639 2968,-786 7831,733 11942,730 2352,-2 497,319 3402,-167 1071,-179 2159,-309 3246,-502 2880,-512 3463,-786 6614,-899 1951,-70 4636,919 5650,1858 572,529 913,1764 965,2831 94,1944 -1375,3818 -2773,4780 -1112,765 -1280,931 -2398,1372 -2165,852 -3165,-146 -4699,688 -433,235 -834,529 -955,1049l591 -432c-213,676 -18,2049 185,2806 309,1156 878,4420 1265,5176 713,1392 1196,3357 1601,4856 201,744 1197,4856 1145,5400 -28,289 -97,419 -185,629 -139,330 -75,283 -166,653 -81,327 -380,812 -560,1089 -581,894 -1502,1799 -2528,2302 -2098,1027 -4455,1302 -6584,1607 -999,143 -2080,45 -3033,167 -3803,490 -8341,594 -11910,-598 -486,-162 -741,-183 -1131,-509 -361,-303 -165,-266 -619,-528l-304 -183c-2299,-1964 -1297,-4848 -1044,-7790 82,-951 325,-1851 521,-2758 388,-1792 759,-3619 1243,-5336 180,-637 511,-1780 755,-2417 414,-1086 1765,-4065 1222,-5072 -1162,-2153 -4889,851 -7901,-183 -714,-244 -1352,-379 -1721,-1599 -155,-514 -150,-939 -54,-1460 274,-1486 -241,-691 -181,-1360 401,-974 1080,-1804 1833,-2413l2536 -1813c-416,-130 34,-10 -232,22 -328,39 -117,122 -438,-100zm-3732 2932c255,-281 140,-283 468,-566l529 -567c78,150 137,-32 100,283 -25,216 42,7 -103,221 -394,584 -533,431 -1081,1496 -11,22 -30,50 -42,72l-315 826c-143,671 -191,951 297,1211 -47,1113 118,1402 570,2143 1276,2092 5272,788 6557,592 1292,-197 3268,-870 2510,2128 -388,1537 -1059,2654 -1448,4191 -353,1394 -865,2938 -1126,4399 -230,1288 -489,1589 -764,3476 -57,387 -192,783 -249,1117 -145,841 -124,1632 -275,2449 -979,5290 1243,5466 1460,6425 1158,-496 -380,283 2436,1100 566,164 1111,198 1668,324 2348,534 2630,607 5538,468 3221,-154 8051,-325 11086,-1036 3803,-891 3830,-1770 5428,-2662 -11,-184 -82,-256 17,-437 211,-386 1734,-1356 1173,-3858 -650,-2898 -1501,-6968 -2769,-9655 -281,-595 -985,-4363 -1213,-5144 -169,-578 -465,-2137 -117,-2699 118,-191 167,-207 411,-307 906,-373 1512,-148 2209,-64 1740,211 5018,-1813 6117,-3106 570,-672 724,-1229 1137,-2030 789,-1530 226,-3969 -601,-4806 -638,-645 -3225,-1763 -4258,-1920 -2595,-396 -8342,830 -11046,1279 -2543,423 -2832,470 -5696,161 -848,-92 -1785,-304 -2701,-351 -2649,-138 -5000,-997 -8344,-131 -1879,486 -2033,750 -3232,1355 -436,219 -2482,1514 -2884,1923 -194,197 -114,177 -328,382 -416,399 -940,785 -1119,1318z"/><path class="fil0" d="M42725 6598c343,-174 592,-344 949,-535l889 -240c513,104 148,48 320,205 -136,207 -22,72 -192,215 -101,85 -713,423 -466,711 62,72 -177,309 716,-87 347,-153 451,-124 943,-121 -433,515 -982,295 -1071,1164 522,-12 376,-98 822,-135 324,-27 622,7 982,-24 -170,400 -1466,1361 -394,1465l1297 -246c-150,516 -391,364 -769,881 -392,536 104,766 643,520l-493 -194c299,-856 973,-515 793,-1281 -640,-159 -790,185 -1629,85 190,-858 656,-441 842,-1188 -749,-506 -1142,71 -1730,-239l1066 -776c186,-324 27,-43 -15,-162 -25,-12 -62,-61 -76,-36l-695 -10c-355,47 -580,141 -920,215 208,-305 -111,-22 262,-308 81,-62 251,-130 361,-200 -131,-249 -210,-400 -329,-587 -970,-24 -1593,485 -2106,908z"/><path class="fil0" d="M42220 40078c330,-264 412,-678 431,-1138 -677,-81 -644,208 -1088,450 81,-686 873,-1759 883,-2465 -872,-84 -650,471 -1395,688l826 -1551c383,-632 28,-454 8,-488 -384,-81 -733,413 -1182,637 190,-311 378,-479 417,-892 -186,303 -733,817 -667,1129 368,185 527,-69 1172,-556 -53,675 -681,1067 -815,1858 839,312 601,-159 1368,-549 -187,1179 -1049,1989 -1118,2628 951,-2 239,-575 1433,-666l-273 915z"/><path class="fil0" d="M42220 40078c-248,303 -903,1358 -891,1698 782,-41 310,-439 1136,-674 -142,464 -427,1061 -685,1449l-692 1235c695,-58 1666,-1649 1724,-1838 -356,-152 -178,74 -474,-118 121,-332 127,-356 316,-633 506,-745 216,-457 173,-562 -465,-120 -575,366 -1060,609 184,-380 449,-693 453,-1166z"/><path class="fil0" d="M37876 5664c94,-162 -70,-103 156,-173 455,-141 78,-4 234,115l-390 58zm0 0c-95,152 -7,72 -150,209 -101,97 -219,158 -269,199 -282,228 -261,226 -294,678 1354,22 1480,-1129 2721,-1219 -342,447 -824,627 -774,1280 440,42 165,83 488,-124 -103,-210 -157,-35 -134,-283 13,-138 190,-318 276,-399 145,-135 178,-147 337,-251l399 -313c-1067,-566 -1796,907 -3004,1086 238,-823 528,-329 1095,-986 -443,-382 -480,-354 -923,71l232 52z"/><path class="fil0" d="M28125 34565c-12,-24 -265,-12 -9,-368 151,-211 272,-155 377,-224 388,-257 71,-383 616,-500 146,494 -475,1271 -984,1092zm410 -962c-11,29 -58,16 -77,59 -53,127 -344,-61 -589,380 -753,1354 1491,1090 1560,-546 -253,-271 -217,-335 -583,-444l-311 551z"/><path class="fil0" d="M34153 29827c17,26 222,-141 120,371 -78,388 -835,673 -1109,385 -354,-372 424,-980 989,-756zm-24 -421c-524,98 -801,87 -1064,558 -252,452 -262,918 287,1005 691,109 1820,-705 777,-1563z"/><path class="fil0" d="M8395 12762c24,-24 59,-94 70,-72 14,26 292,-436 539,-443 970,339 486,1152 -308,1357 110,-422 120,-296 182,-629 -839,125 -482,1457 431,638 1062,-952 -7,-1658 -188,-1669 -560,138 -585,255 -726,818z"/><path class="fil0" d="M30116 27751c99,-587 318,-539 1017,-643 -128,283 -85,339 -401,525 -321,188 -249,117 -616,118zm843 -908c-702,38 -1186,273 -1013,1088 712,277 1336,-287 1533,-891l-370 -605c-45,38 -59,50 -62,81l-88 327z"/><path class="fil0" d="M36927 13658l453 -156c27,-9 58,-20 84,-29l391 -141c-176,185 -363,397 -581,434 -697,117 -135,46 -347,-108zm-177 320c749,204 1461,-411 1573,-887 -831,-280 -1679,-80 -1573,887z"/><path class="fil0" d="M8519 17884c97,-262 45,-125 206,-300l122 -107c16,-16 37,-43 54,-59 326,-300 275,-267 698,-122 -66,294 -106,403 -384,568 -342,204 -417,176 -696,20zm1382 -587l-301 -320c-196,24 -900,195 -1001,260 -585,375 -305,1606 787,793 291,-217 422,-345 515,-733z"/><path class="fil0" d="M20243 43786c1184,-481 733,1396 3,655 -322,-328 -4,-653 -3,-655zm149 -495c-200,223 -441,674 -538,994 992,1609 2251,-504 538,-994z"/><path class="fil0" d="M33308 37170c-195,-335 -144,-104 -91,-624l578 -37c-230,559 -167,466 -487,661zm-239 411c528,-54 971,-641 1007,-1234 -188,-147 -425,-415 -946,46 -57,51 -103,99 -123,175 -3,10 13,847 62,1013z"/><path class="fil0" d="M12843 15419c162,-367 -249,-180 349,-322 268,-63 407,74 433,87 -97,208 -79,286 -305,357 -542,171 -469,-117 -477,-122zm-250 117c555,632 1265,150 1418,-445 -382,-369 -439,-232 -1149,-266 -169,241 -269,368 -269,711z"/><path class="fil0" d="M13405 11127c45,439 108,506 514,690 -217,-756 239,626 -120,-254 -96,-236 -96,218 -82,-322l809 23c-123,500 -242,304 -443,732 501,-22 594,-213 775,-568 -262,-535 -921,-703 -1453,-301z"/><path class="fil0" d="M33919 7407c366,24 517,99 464,-240 -11,-71 -426,22 157,-486 347,-302 1031,-400 881,-865 -553,67 -71,-55 -420,250 -380,331 -1120,520 -1082,1341z"/><path class="fil0" d="M17625 40972l171 540c59,304 9,217 -104,527 -340,-43 -413,-446 -770,26 170,387 808,725 1267,-667l-564 -426z"/><path class="fil0" d="M14108 44352c447,203 1327,58 414,-656 -236,63 -198,46 -379,105l-328 142c103,183 -51,253 293,409z"/><path class="fil0" d="M42114 5553l481 79c-241,661 -823,228 -804,1335l468 -74c-7,-277 -86,-7 -130,-480 322,-219 539,-374 775,-619 -48,-58 -200,-251 -283,-294 -565,-298 -507,53 -507,53z"/><path class="fil0" d="M40281 12954l189 439c437,-71 581,-243 646,-674l-280 -365c-343,181 -349,340 -555,600z"/><path class="fil0" d="M48094 10607c-603,267 -1100,773 -1171,1542l482 -70c90,-327 109,139 -28,-183l-144 -289c285,-193 765,-661 861,-1000z"/><path class="fil0" d="M31967 7381c-4,-23 -21,-84 -24,-67 -7,38 -123,-30 -82,-219 76,-348 610,-67 901,-1102 -547,267 -24,52 -451,451 -163,152 -414,247 -560,380 -335,305 -530,859 216,557z"/><path class="fil0" d="M29530 7552l-266 -182c-13,-9 -45,-33 -67,-51 439,-384 512,-282 737,-870 -443,271 -99,144 -485,420 -319,229 -203,-28 -434,395 -365,666 202,455 515,288z"/><path class="fil0" d="M15151 7906c308,138 585,10 874,-117 -203,-109 -59,40 -554,-3l378 -330c-401,40 -604,74 -698,450z"/><path class="fil0" d="M39178 30888c293,-547 -238,341 55,-607 140,-453 204,-190 255,-605 -384,570 -776,1008 -310,1212z"/><path class="fil0" d="M48094 10607l271 -204c-93,-239 190,-348 -418,-303 55,429 -129,-403 67,151 44,125 76,-54 80,356z"/><path class="fil0" d="M40102 32460c274,-194 375,-310 481,-721 -245,257 -303,329 -481,721z"/><path class="fil0" d="M42114 5553l-582 304c219,1 221,33 365,-53 307,-185 114,-81 217,-251z"/><path class="fil0" d="M11175 45117c0,48 138,173 97,-15 -26,-120 -95,-261 -97,15z"/><polygon class="fil0" points="23785,7654 23990,7546 "/><polygon class="fil0" points="40102,32460 39956,32654 "/></g><text x="0" y="50815" fill="#000000" font-size="5px" font-weight="bold" font-family="'Helvetica Neue', Helvetica, Arial-Unicode, Arial, Sans-serif">Created by Alex Muravev</text><text x="0" y="50820" fill="#000000" font-size="5px" font-weight="bold" font-family="'Helvetica Neue', Helvetica, Arial-Unicode, Arial, Sans-serif">from the Noun Project</text></svg>