<svg xmlns="http://www.w3.org/2000/svg" xmlns:xlink="http://www.w3.org/1999/xlink" xml:space="preserve" version="1.1" style="shape-rendering:geometricPrecision;text-rendering:geometricPrecision;image-rendering:optimizeQuality;" viewBox="0 0 50800 63500" x="0px" y="0px" fill-rule="evenodd" clip-rule="evenodd"><defs><style type="text/css">
   
    .fil0 {fill:black}
   
  </style></defs><g><path class="fil0" d="M34126 44941l3739 -1339c547,-64 -110,34 400,45 409,9 949,-342 1346,-450 -441,311 -1835,870 -2481,1132 -490,199 -932,302 -1491,416 -422,85 -1096,381 -1513,196zm7168 -3042c292,-297 723,-525 1169,-627 -274,243 -705,512 -1169,627zm2093 -4316c-185,296 -100,264 -396,17 103,-78 -170,-126 204,-109 280,12 38,-34 192,92zm-3385 277c548,-85 1864,-303 2298,-67 -526,288 -1699,176 -2033,647 -242,342 153,182 -753,307 -133,19 -154,0 -280,51 -243,98 -41,-1 -186,151 152,93 58,110 365,114 168,3 1598,-268 2419,-263 205,2 360,35 532,37l322 -205c-270,-128 -356,-96 -747,-101 -380,-5 -765,0 -1147,0 624,-370 1537,-439 2377,-386l-131 2136c-563,-3 -790,180 -1213,448 -642,409 -686,88 -1153,421 -1579,1127 -5784,2658 -7770,2896l-315 -261 -6123 996c697,172 2706,-250 3602,-359 2703,-328 4365,-184 7095,-1320 589,-246 2580,-1219 2850,-1107 -767,896 -7105,3198 -9262,3638 -905,184 -1672,395 -2675,477l-3261 -68c-4022,-71 -4755,-27 -8555,-1052 -876,-237 -1632,-638 -2464,-807l-4585 -1922 -2716 -2012c-322,-279 -557,-553 -877,-803 -699,-548 -548,-1560 -502,-2706 16,-409 294,-2398 474,-2772 868,220 1186,865 1433,1453 228,540 689,1510 1092,1843 368,305 1752,601 2303,625 1072,48 1725,-353 2632,-329 1190,32 2512,499 3538,901 284,112 834,144 1216,256 2674,785 3597,-839 5095,-61 378,196 723,218 1049,423 1144,719 1547,1071 3283,1159 3197,161 3613,-1357 4378,-1535 468,-108 3860,797 4865,858 450,27 1028,102 1400,-52 145,-60 923,-456 970,-503 256,-251 280,-665 494,-976 191,-278 97,-192 385,-345 189,-100 293,-135 508,-160 -152,98 -206,76 -227,335zm-2958 -9101c304,-237 1086,-297 1439,-105 -199,230 -946,543 -1439,105zm-1492 -3c-21,-393 4,-391 291,-504 242,205 101,30 202,297l-493 207zm3774 -312c8,-181 175,-158 133,-20 -51,169 -135,79 -133,20zm-2818 -25c76,-520 765,-812 1053,-529 186,184 106,453 -152,530 -87,26 -768,4 -901,-1zm-1426 655c409,-100 432,-135 970,-205 621,-82 561,-153 888,206l-413 174c-829,211 -3083,788 -3625,802 212,-536 700,-805 1072,-1156l92 372c9,17 36,49 58,70 91,-677 632,-1160 1314,-1236 -169,495 -280,404 -356,973zm8633 314l741 -224c-16,1297 -1010,1692 -2200,2221l-738 184c-476,57 -1144,215 -1594,316l-6170 1151c1969,157 6082,-1056 7667,-1128 -789,955 -4953,2089 -6035,2277 -4275,742 -7207,890 -11517,719 -1240,-49 -2881,-16 -4002,-257 -1364,-293 -4702,-906 -6014,-1348 -494,-167 -379,-76 -179,-438 -794,43 -309,-433 -428,-1664 -545,414 -182,1279 -69,1836l-3183 -907c-418,-215 -180,-195 -384,-362 -17,-14 -42,-34 -61,-47 -82,-52 -131,-48 -229,-81 -1119,-380 -506,-330 -1724,-562 -303,-57 -1053,-560 -1104,-686 -70,-881 61,-1896 331,-2587 698,226 1002,377 1912,451 800,65 1308,-55 2043,254 991,416 670,533 1643,1826 245,326 256,301 720,439 2206,655 1568,-1229 3486,-550 1916,679 1206,-339 2724,109 505,148 424,26 839,296 773,-340 2240,37 3137,143 3177,375 4185,107 7155,-17 2109,-87 4158,-826 6245,-1236l2433 -592c474,-314 1578,-615 2894,-1413 824,-500 1510,-1212 2459,-398l-78 1832 -579 269c-160,121 -48,26 -141,174zm-5646 -1660c189,-64 353,-118 596,-3 247,117 348,299 460,509l-654 87 -402 -593zm-3018 127c389,-366 245,-53 261,-41l-261 41zm9890 629c537,-125 614,-395 1309,-443 758,-52 910,91 1238,508 -2,977 31,1000 265,1850 116,420 67,411 284,768 802,1327 -686,1176 -970,1933 -411,1446 1109,1368 -777,2848 -3136,2461 -5484,281 -6876,1530 -735,660 -401,1876 -2627,1804l-4536 -843c-609,-188 -1135,2 -1508,454 -263,318 -313,256 -697,458 -706,372 -563,468 -1553,547 -1374,110 -2562,14 -3753,-666l-1440 -772c-1569,-731 -1877,-31 -3453,144 -2360,263 -5192,-1617 -7186,-1292 -1525,249 -2234,535 -3820,-38 -767,-278 -1030,-871 -1415,-1734 -131,-293 -176,-658 -289,-875 -104,-199 -1054,-932 -1204,-986 -422,-151 -1244,-213 -1818,-400 -766,-250 -693,-334 -1024,-1083 -314,-709 -312,-1018 54,-1677 461,-827 2129,-1824 2753,-1444 -109,109 82,17 -244,172 -343,164 -590,146 -671,742 509,-116 368,-606 1207,-477l14 569c-820,37 -1494,272 -1540,970 416,-198 987,-1101 1613,-582 -154,428 -695,90 -901,834 340,-115 961,-782 1644,-22 -278,350 -341,100 -527,641 417,-178 528,-523 968,-499 95,5 1005,218 1214,268 -97,210 -29,152 -188,282 -326,267 -651,59 -954,727 1083,-303 1118,-1268 2562,-159l-539 294c-268,158 -366,148 -318,468 328,-28 1336,-1197 2653,-237 -379,195 -973,484 -1054,937 359,-133 1349,-1403 2642,-402 -404,188 -728,322 -781,871 1083,-566 357,-1298 4540,-24 -431,364 -1233,417 -1258,1121 782,-318 1344,-1566 2673,-822 -264,433 -339,220 -511,781 757,-310 1029,-1059 2265,-466l-198 230c-62,58 -163,128 -224,193 -174,188 -222,331 -253,651 729,-324 457,-1244 2459,-974 -64,64 -270,222 -335,314 -43,61 -84,-14 -106,227 -47,514 61,235 121,316l105 -119c9,-13 32,-48 43,-64l223 -297c491,-368 1394,-469 2090,-315 -3,486 -415,103 -583,912 383,-126 848,-630 1169,-891 2190,139 4974,-83 7142,-289 1689,-160 4275,-787 4748,-830 216,-19 953,241 1545,-114 -248,-156 49,30 -202,-103l-190 -107c916,-471 1492,-221 3331,-1380 987,-621 1726,-1199 2952,-1756 1824,-828 1536,-443 2503,-598l151 -48c-68,-50 -44,-80 -199,-132l-848 -30c-353,37 -677,176 -1083,197l58 -2289c545,-388 1075,-350 1596,5 -766,69 -1249,157 -1481,713zm-3941 -776c-300,255 -777,526 -1270,555l-630 -696c635,-112 749,-435 1156,-294 314,228 318,347 744,435zm-4837 7c135,-396 134,-550 607,-511 11,460 -130,492 -607,511zm1772 -251l-550 -16c30,-171 100,-698 548,-572 445,125 6,547 2,588zm-2197 157c-182,-106 -52,16 -249,-187 62,-338 375,-475 785,-592 -171,421 -260,586 -536,779zm2892 -388c-13,-207 -63,-189 112,-404 202,-245 175,-235 517,-118 -20,442 -157,569 -629,522zm2370 475c-47,-257 5,-131 -245,-399l-116 -125c71,-59 32,-81 202,-152 84,-36 161,-60 259,-71 400,-47 269,68 595,-9l902 -401c-179,643 -996,888 -1597,1157zm-1179 -1154c119,-385 48,-239 330,-510 392,48 697,202 718,615l-499 244 -549 -349zm-3029 315c155,-387 255,-351 813,-310 -85,135 -187,281 -330,382 -309,219 -305,130 -483,-72zm1481 -34l-148 -276c253,-198 185,-185 520,-180 -19,331 -51,342 -372,456zm1068 -429c69,-234 -194,-95 269,-246 -87,419 101,137 -269,246zm2607 -55c56,-131 21,-143 137,-281 142,-171 44,-81 241,-136 -74,386 -20,347 -378,417zm-1213 -476c351,-29 276,-110 317,224l-317 -224zm2373 555c141,-345 371,-543 589,-789 -93,339 -274,622 -589,789zm-1464 -239c-219,-382 -22,-580 387,-667 -47,406 -153,443 -387,667zm857 -688c13,-104 20,-33 84,-32 226,5 2,-273 30,22 10,101 -142,236 -114,10zm852 -16c-36,-412 -10,-483 415,-451 -685,688 -490,937 -1010,1086 15,-520 100,-590 595,-635zm-1173 -429c96,-289 165,-344 504,-430 -78,408 -86,429 -504,430zm237 -792c-161,170 -507,429 -611,590 -233,358 -40,431 -655,569l-160 -415c-399,61 -325,133 -586,325 -308,227 -213,127 -675,182 -272,337 -166,437 -736,506 -284,35 -333,-11 -595,43 -213,44 -195,90 -473,139l-333 -492 4824 -1447zm397 -128c193,-195 992,-672 1096,-186 46,214 -171,375 -344,458 -146,71 -480,115 -662,132l-90 -404zm1420 -53l-132 -431c196,126 231,216 132,431zm-20936 3550c-565,-39 -596,496 -1331,708 -498,144 -1389,93 -1798,296 -190,94 -325,254 -618,427 -333,196 -331,272 -560,488 -1238,1162 -2194,137 -3314,274 -806,98 -872,616 -1304,790 -1327,536 -2096,-1010 -2478,-1658 -210,-356 -851,-682 -1248,-843 -628,-257 -2892,106 -3533,-680 -373,-456 -302,-976 -499,-1586 -349,-1087 -1514,-260 -1906,-2300 -141,-735 57,-1207 478,-1495 493,-338 953,-571 1352,-255 -255,598 -731,449 -990,1132 584,-192 716,-558 1227,-793 249,341 658,455 1132,744l255 203c-305,321 -598,142 -637,695l268 108c490,-432 -31,-861 1525,-425 -269,616 -657,442 -476,969 437,-143 43,18 374,-348 491,-542 1383,9 1844,367 -84,535 -339,325 -116,719 360,-139 102,-13 421,-401 416,-6 800,164 1139,320l-171 494c679,-135 336,-616 2053,-273 138,27 1921,575 1985,611 -100,337 -178,270 -227,384 -214,504 17,330 53,387 410,-294 -29,-172 398,-480 511,-368 1159,63 1896,244 920,227 1377,186 2226,305 358,50 466,190 466,190 10,-20 37,41 57,59 743,-180 3305,150 4311,149 1126,-1 2942,-231 4033,-452 1275,-258 2608,-427 3878,-659 643,-118 429,90 1010,72 270,-8 692,-100 1036,-133 502,-48 1369,-377 1799,-171 -90,256 -148,245 -391,442 -242,195 -176,173 -600,249 -1066,192 -513,253 -1104,576 -335,-268 -547,-795 -1053,-426 165,279 444,206 786,735 -467,904 -1017,535 -2044,675 -14,-24 -30,-61 -35,-75l-70 -229c-488,264 -1618,1302 -1794,1940l1584 -1574c24,14 54,36 70,44 702,375 889,-166 1556,164 -187,378 -180,195 -523,473 -382,309 -1204,1375 -1208,1378 -1670,354 -7759,822 -9206,209 196,-377 9,-229 349,-414 -180,-136 -211,-20 -98,-287l1222 -1633c310,-373 381,-131 538,-710 -550,263 -1569,1629 -1914,2173l-451 854c-1353,-78 -418,-648 -65,-1057 209,-241 313,-454 575,-686 311,-276 444,-263 500,-583 -331,51 -1143,578 -1408,731l112 294c-163,103 -2,32 -249,94l-187 24c-399,109 -661,445 -782,828 23,-17 54,-40 70,-51 334,-239 409,-357 784,-352 -103,266 -165,402 -401,630l-945 -71 -321 -372c-349,355 -332,474 -1502,121 331,-564 1290,-1286 2214,-1149 -395,835 -603,685 -181,995 230,-319 247,-983 967,-1210 483,-152 1135,-497 1195,-933zm12967 -17443c-493,11 -247,-82 -313,-130 73,-361 426,-290 638,0 -145,101 284,116 -325,130zm847 -434c72,198 114,40 -8,276 -228,-144 -62,103 -85,-160 -31,-367 -96,88 93,-116zm-12404 -3769c1454,-180 3009,-626 4412,-317 10,19 16,49 20,62l190 470c274,-117 44,25 205,-157 689,-778 493,-17 694,394 10,2 -132,210 309,3 316,-148 -50,-303 578,-328 89,167 51,168 91,259 113,251 -28,29 136,208 419,-299 945,-267 1347,12l-125 82c-407,249 -387,231 -834,289 -304,39 -860,192 -977,197 1009,114 1452,-287 2258,45 -346,409 -1361,594 -1913,628 -803,50 -439,-29 -622,125 681,257 1971,-104 2602,-341 1671,-627 1368,-780 1960,-208 6,6 161,119 173,127 -410,71 -2689,382 -2957,629 1676,159 3743,-850 4257,3 -211,451 -524,530 -991,637l-1043 191c-354,96 -177,89 -268,157 632,24 1825,-142 2344,-385 363,-170 189,-67 340,-474 415,175 738,363 1022,699 -672,283 -1607,467 -2493,440 -548,387 -273,178 -936,392 281,252 182,62 726,138 529,786 1797,682 2402,96 -2,-465 -40,-250 -168,-600 981,-146 1162,-69 1691,494 -347,302 -1546,507 -2001,557 -660,72 -445,72 -628,249 1101,-38 2389,-446 3251,-406 126,167 230,257 341,546 -1468,1012 -1863,245 -2658,704 1547,379 2844,-369 3256,-419 -12,1054 -1141,900 -1866,1141 -276,92 -195,97 -294,171 664,34 974,-41 1542,-180 629,-155 675,-361 1120,-570 305,182 907,642 1051,1044 -429,225 -195,-40 -620,113 -180,65 -332,156 -612,229 -1222,321 -3973,346 -4405,563 1523,206 4659,-274 5952,-690 122,102 173,170 273,248 136,107 167,71 305,218 142,151 193,351 368,579 270,352 545,762 813,1185 160,252 587,998 712,1285 124,286 88,377 240,702 509,1088 973,2778 135,3668 -189,202 -375,324 -548,501 -182,188 -260,312 -452,492 -1595,1498 -6097,2564 -8408,3261 -511,153 -941,281 -1503,383 -6409,1158 -6904,1754 -13875,973 -2293,-257 -5220,-1330 -6287,-1468 -1376,-179 -2002,-136 -3034,-834 -786,-532 -2465,-1142 -3894,-1994 -615,-367 -565,-537 -636,-1032 -527,-457 -502,-845 -369,-1689 598,-3805 2378,-7043 5471,-9226 488,-345 789,-637 1292,-915 1910,-1055 2169,-1138 4318,-1981 1154,-453 5870,-1532 7009,-989 16,-19 34,-51 42,-64l169 -322zm10574 19780c255,-238 409,-247 783,-375 299,-102 512,-158 831,-222l4705 -1473c2139,-832 2585,-1125 4069,-2763 593,-656 243,-192 475,-996 439,-1524 -1512,-5000 -2234,-5865l-1871 -2226c-502,-556 -1129,-990 -1693,-1457l-363 -485c-28,-202 -368,-75 -864,-387 -522,-328 -271,-252 -466,-683 -620,-128 -1346,-579 -1894,-953 -1169,-798 -2520,-1226 -2747,-1455 -644,-650 -814,-290 -2119,-606 -800,-193 -418,-109 -1093,-57 -536,-258 -295,-306 -1050,-341 -846,-40 -2961,-386 -3558,-73 -848,445 -2407,427 -3380,469 -666,29 -553,157 -1043,274 -711,169 -1473,198 -2213,391 -747,194 -1274,313 -1982,541 -1728,555 -2253,930 -3602,1544 -1216,553 -3006,1904 -3859,2760 -210,212 -377,329 -647,613l-1088 1434c-834,1313 -2091,3966 -2250,5506 -199,1929 -139,893 -6,2332 -671,248 -1435,643 -1708,1326 -287,720 125,1925 521,2351 235,253 630,413 943,629 428,296 417,507 501,1013 40,238 572,898 -162,2213 -847,-123 -1145,-218 -2313,535 -579,373 -1081,850 -1303,1629 -228,794 217,1726 608,2221 266,336 1030,549 1537,669 139,33 217,36 351,82 401,140 44,12 236,128 -371,771 -579,171 -586,1256l-47 3528c-30,534 2162,2206 2668,2574 2690,1954 2547,1356 4676,2472 906,475 1706,556 2644,916 1808,694 3663,1040 5658,1372 2345,390 4548,101 6882,298 991,83 4723,-695 6255,-917 1978,-288 3902,-896 5501,-1633 844,-389 3761,-1987 4459,-2620l-67 -596c-643,-64 -479,258 -1107,257 335,-354 734,-288 1241,-500 75,-643 -52,-1079 28,-1671 61,-450 199,-782 236,-1327 1483,-377 4294,-1690 3703,-3281 -366,-985 -45,-1023 542,-1504 1047,-859 501,-984 229,-1570 -951,-2050 387,-2318 -1453,-3385 -772,-447 -869,-488 -1813,-426 -217,-552 -36,-457 -1153,-888 112,-391 1667,-2181 208,-3489 -552,237 -293,384 -813,654 -1624,846 -6370,2283 -7943,2237z"/><path class="fil0" d="M38674 40392c694,-40 1937,-233 2584,-132 -1175,393 -6145,1842 -7088,1841 292,-336 573,-234 724,-721 -385,89 -642,395 -1175,597 -1453,551 -4110,749 -4614,964 2513,67 7895,-1263 10459,-1952 627,-168 2747,-539 3177,-977 -408,-5 -636,86 -955,16 -454,-100 -587,-87 -1110,-68l-1681 148c-528,101 -264,69 -321,284z"/><path class="fil0" d="M15365 10151c205,-144 673,-362 1003,-195 -241,230 -578,237 -1003,195zm1412 -337c459,-165 183,-2 234,75l-234 -75zm-1989 458c55,47 -52,252 781,197l2148 -365c18,4 47,22 62,28 402,155 -213,-23 155,86 191,-234 565,-661 639,-870 -516,-582 -1626,-318 -2045,-112 -525,258 -41,302 -869,512 -465,117 -724,49 -871,524z"/><path class="fil0" d="M15971 13843c199,-374 357,-373 857,-478l247 328c11,-16 46,38 68,57 403,-274 1027,-374 1519,-264 -63,236 104,342 -554,501l-1564 149c-635,-91 -524,-230 -573,-293zm-286 210c780,764 2991,210 3371,-420 -221,-722 -562,-361 -996,-610 -28,-16 -177,-153 -181,-156 -904,44 -2292,213 -2194,1186z"/><path class="fil0" d="M23868 10167c150,-324 332,-423 653,-232 172,102 -105,-18 187,120 566,-250 693,-680 1059,-204 -249,467 -1627,436 -1899,316zm-596 -142c-6,-408 168,-415 498,-279 -166,280 -90,360 -498,279zm2881 -174c-738,-912 -294,-381 -2181,-454 -601,-24 -1564,126 -920,850 443,500 2797,398 3101,-396z"/><path class="fil0" d="M25530 14754c735,-215 399,79 1011,3 537,-67 625,-138 1218,-78 -347,541 -1891,762 -2229,75zm-406 -70c23,1333 2774,675 3284,210 -184,-696 -762,-617 -1494,-591 -766,28 -1337,-86 -1790,381z"/><path class="fil0" d="M44339 32191c469,-201 999,-76 1351,-355 -559,-53 -1183,-41 -1681,31 -320,46 -491,69 -780,176 -894,331 441,52 -1284,514 -544,146 -164,135 -492,335 -627,380 -1059,-116 -1293,545l2204 -416 -384 -165c875,-345 2570,-333 3001,-525 -247,-153 -250,-113 -642,-140z"/><path class="fil0" d="M26709 7015l264 -35c438,52 412,165 667,-96 268,-275 -160,9 219,-236 455,110 472,72 623,367 -291,191 -970,248 -1349,212 -541,-52 -308,-17 -424,-212zm-426 120c-913,-118 106,-254 -805,-353 -114,668 362,683 1541,695 634,6 1574,78 1911,-462 -366,-769 -2202,-962 -2587,-28l-60 148z"/><path class="fil0" d="M34578 15418c151,-252 -424,-276 432,-292 549,-10 344,126 398,188 -175,152 -172,108 -401,101 -312,-9 -85,-97 -429,3zm5 -405c-441,-70 -240,-106 -539,78 -472,593 2348,1072 3057,328 -77,-477 -346,-617 -865,-657 330,409 293,91 479,552 -67,54 -50,154 -454,188 -234,20 -467,-19 -648,-53 17,-25 45,-91 55,-72 10,22 72,-84 108,-131 151,-199 165,-149 169,-601 -881,-153 -1016,42 -1362,368z"/><path class="fil0" d="M33821 11757c90,-84 -38,-60 269,-195 729,-320 652,17 676,75 -312,243 -535,161 -945,120zm-1012 -330c613,-363 704,80 749,142 -551,236 -623,55 -749,-142zm-442 -125c158,867 276,-108 722,1201 18,-24 40,-93 47,-77l186 -370c781,-32 1189,31 1777,-310 -50,-1214 -2150,-652 -2732,-444z"/><path class="fil0" d="M35543 23278c994,-36 2374,-372 3382,-593 667,-146 2877,-399 3188,-746 -476,-216 -5931,1050 -6570,1339z"/><path class="fil0" d="M38667 19528c1001,-22 2354,-197 3335,-375 584,-107 1026,-178 1562,-325 584,-160 1050,-112 935,-703 -728,79 47,56 -663,355l-4479 876c-537,101 -396,2 -690,172z"/><path class="fil0" d="M37913 17844c1191,-3 5163,-21 5867,-639 -137,-104 232,-101 -227,-71l-2560 384c-846,75 -2468,-26 -3080,326z"/><path class="fil0" d="M24856 18150c33,13 81,-7 101,32 31,63 327,-7 568,179 -112,428 -207,309 -712,267 -80,-125 -312,-812 -1224,-249 194,586 2495,1118 2262,-246 -208,-176 -859,-524 -995,17z"/><path class="fil0" d="M37193 14695c1653,35 2852,-99 4424,-337 1211,-183 1098,-185 1154,-515 -527,-272 -55,48 -1127,236l-4451 616z"/><path class="fil0" d="M38431 30371c1293,-551 1181,-374 2789,-1172 432,-214 2440,-1168 2644,-1522 -743,34 -794,315 -1421,645l-3746 1831c-338,168 -180,101 -266,218z"/><path class="fil0" d="M43715 29388l-5997 1993c883,-41 2346,-561 3166,-839 450,-153 2344,-723 2683,-996 122,-98 80,-71 148,-158z"/><path class="fil0" d="M42477 19729c214,298 140,36 181,396 -1083,567 -2785,754 -3969,1145 1102,32 1552,-257 2502,-417 762,-128 1850,-260 1863,-1016l-577 -108z"/><path class="fil0" d="M39894 16496c848,38 3337,-146 3156,-1295 -625,169 -80,285 -561,558 -227,129 -573,195 -792,255 -544,148 -1406,217 -1803,482z"/><path class="fil0" d="M28890 29850c336,-197 96,56 391,-405l1824 -2073c295,-253 124,41 317,-303 -632,127 -2234,1808 -2532,2781z"/><path class="fil0" d="M26290 29980c302,-272 595,-859 917,-1242 482,-571 830,-680 1003,-1134 -611,212 -975,718 -1341,1215 -402,547 -789,1041 -823,1665 486,-130 347,-125 244,-504z"/><path class="fil0" d="M39218 39474c185,317 1108,51 1987,8 846,-42 520,-101 610,-218 -463,-188 -2220,-36 -2597,210z"/><path class="fil0" d="M44034 31281c413,282 1035,-86 2106,-43 703,29 294,87 691,-25 19,-5 50,-25 75,-37 -25,-16 -62,-70 -76,-46 -13,23 -58,-35 -77,-42 -566,-208 -2442,-162 -2719,193z"/><path class="fil0" d="M40086 34286c415,-19 878,-219 1433,-245 611,-29 998,40 1468,-213 -586,-38 -1204,-87 -1791,-32 -252,24 -511,78 -734,127 -447,99 -366,20 -376,363z"/><path class="fil0" d="M27562 30210c520,-36 231,-205 368,-531 186,-447 1376,-1665 1466,-1928 -445,67 -768,579 -1117,1009 -238,294 -724,944 -717,1450z"/><path class="fil0" d="M45055 29285c517,202 481,-461 1715,-310 485,59 227,143 546,-5 -211,-324 -820,-335 -1247,-278 -447,60 -906,182 -1014,593z"/><path class="fil0" d="M28754 45512c653,15 2553,-53 2943,-326 -488,-276 -2381,137 -2943,326z"/><path class="fil0" d="M41936 35204c745,-380 503,-170 979,-308 448,-129 162,-55 297,-149 -359,-207 -593,-89 -1070,-68 -381,16 -538,-32 -865,173 273,457 -13,-39 536,242 13,6 51,71 61,50 10,-22 41,41 62,60z"/><path class="fil0" d="M30065 30185c173,-195 168,-377 371,-633 406,-516 1412,-1381 1503,-1605 -522,185 -2182,1743 -1874,2238z"/><path class="fil0" d="M20004 33414c-48,-416 50,-1625 -24,-1765 -336,109 -339,516 -330,893 23,989 260,820 354,872z"/><path class="fil0" d="M31583 40889c784,86 1167,-59 1847,-117 521,-44 1471,-89 1943,-189 -1137,-353 -2847,363 -3790,306z"/><path class="fil0" d="M14902 32712c-364,-960 -235,-897 72,-1751 -283,132 -221,20 -398,379 -97,198 -124,352 -131,575 -27,882 215,814 457,797z"/><path class="fil0" d="M16329 33580c-31,-462 -101,-773 -53,-1251 37,-381 171,-792 27,-989 -267,502 -482,1867 26,2240z"/><path class="fil0" d="M11911 32301c-218,-618 -139,-948 -46,-1537 -176,104 -130,-116 -220,338 -147,743 -143,1128 246,1445 331,-128 284,-125 474,-354 -261,-79 -112,16 -454,108z"/><path class="fil0" d="M37153 34852c281,139 1701,-202 1808,-291 -455,-104 -1014,-111 -1474,50 -490,171 -120,-56 -334,241z"/><path class="fil0" d="M22922 31802c-257,153 -163,-76 -275,377 -97,389 35,1165 255,1495l20 -1872z"/><path class="fil0" d="M9797 30447c38,-794 -193,-589 12,-1570 -648,297 -333,1300 -12,1570z"/><path class="fil0" d="M24586 29397c385,-204 49,57 338,-316 276,-356 585,-601 758,-982 -440,159 -1025,763 -1096,1298z"/><path class="fil0" d="M18554 31578c-214,124 -106,-139 -290,314l-108 864c32,305 24,176 178,315l220 -1493z"/><path class="fil0" d="M25404 36138c21,5 53,15 63,14l120 -9c264,-99 532,-348 634,-591 -542,-4 -913,171 -817,586z"/><path class="fil0" d="M8106 30978c92,-194 186,-428 282,-686 357,-959 93,-598 36,-662 -195,324 -501,983 -318,1348z"/><path class="fil0" d="M14825 26245c285,-97 118,-32 236,-112 -154,-118 241,-107 -338,-153 -516,-41 -533,304 -549,574l651 -309z"/><path class="fil0" d="M7279 29819c222,-159 480,-712 305,-1014 -435,106 -332,523 -305,1014z"/><path class="fil0" d="M31003 33678c142,-154 86,-21 138,-297 46,-243 82,-652 -25,-819 -291,299 -328,715 -113,1116z"/><path class="fil0" d="M21613 32103c-240,124 -89,-113 -288,203 -121,191 -94,816 46,1078l242 -1281z"/><path class="fil0" d="M25399 30284c-245,-458 673,-1079 896,-1640 -310,173 -572,582 -754,845 -506,733 -401,765 -142,795z"/><path class="fil0" d="M34416 32493c283,-258 475,-660 481,-918 -299,138 -317,68 -448,418 -111,295 -75,232 -33,500z"/><path class="fil0" d="M6536 23322l1052 -322c-68,-65 45,-239 -575,-77 -389,102 -351,82 -477,399z"/><path class="fil0" d="M27574 35671c-532,12 -805,395 -555,786l555 -786z"/><path class="fil0" d="M14388 34855c402,-58 659,-154 892,-477 -492,44 -791,13 -892,477z"/><path class="fil0" d="M17444 27100c474,-54 171,27 479,-185 131,-90 112,-81 189,-152 15,-14 47,-29 57,-69 11,-42 38,-49 55,-75 -591,2 -689,-2 -780,481z"/><path class="fil0" d="M31945 29842c352,-187 636,-597 809,-859 -377,46 -721,457 -809,859z"/><path class="fil0" d="M29551 33609c16,-24 37,-54 45,-73l105 -527c4,-65 13,-191 9,-250 -17,-225 -15,-97 -65,-186 -310,331 -180,656 -94,1036z"/><path class="fil0" d="M24708 32666c-256,302 -215,653 0,1002l78 -800c-24,-219 -11,-89 -78,-202z"/><path class="fil0" d="M32847 27013l528 65c-144,316 -82,144 -205,359 299,-131 414,-103 431,-575l-754 151z"/><path class="fil0" d="M33109 32072c-235,78 -301,72 -374,311 -112,370 57,376 106,404l268 -715z"/><path class="fil0" d="M34637 31071c121,45 1139,-62 1425,-217 -453,55 -1155,-13 -1425,217z"/><path class="fil0" d="M19388 27147c382,31 339,-31 392,-399 -320,82 -369,79 -392,399z"/><path class="fil0" d="M8634 29296c102,-131 121,224 136,-231 20,-616 12,-142 -136,-320 0,0 -250,53 0,551z"/><path class="fil0" d="M10780 31037c28,-315 174,-745 60,-954 -192,329 -77,571 -60,954z"/><path class="fil0" d="M24287 30187c91,-115 14,21 110,-173 147,-299 155,-331 100,-466 -159,201 -285,433 -210,639z"/></g><text x="0" y="50815" fill="#000000" font-size="5px" font-weight="bold" font-family="'Helvetica Neue', Helvetica, Arial-Unicode, Arial, Sans-serif">Created by Alex Muravev</text><text x="0" y="50820" fill="#000000" font-size="5px" font-weight="bold" font-family="'Helvetica Neue', Helvetica, Arial-Unicode, Arial, Sans-serif">from the Noun Project</text></svg>