<?xml version="1.0" encoding="UTF-8"?>
<svg id="katman_2" data-name="katman 2" xmlns="http://www.w3.org/2000/svg" viewBox="0 0 85 85">
  <defs>
    <style>
      .cls-1 {
        fill: none;
        stroke: #1d1d1b;
        stroke-miterlimit: 10;
        stroke-width: 3px;
      }
    </style>
  </defs>
  <g id="katman_1" data-name="katman 1">
    <g>
      <g>
        <path d="M44.67,15.78c-.61-.03-1.29.16-1.84.57-1.4,1.05-1.61,2.7-1.47,3.86.02.17.05.33.08.49-.09.01-.17.02-.25.03-.5.09-1.04.25-1.57.59-.52.33-1.03.89-1.23,1.62-.22.81.07,1.61.47,2.15s.89.91,1.37,1.21c.4.25.79.45,1.12.6-.07.89-.18,2.61-.19,4.36-.31,1.31-.22,2.61.25,3.71.49,1.15,1.43,2.11,2.69,2.44h0c.19.05.39.05.59,0,5.36-1.43,8.01-6.18,8.31-10.18.38-.18.86-.43,1.34-.76.5-.34,1.02-.75,1.42-1.32.4-.57.69-1.4.47-2.24-.2-.75-.73-1.34-1.29-1.65-.56-.31-1.13-.42-1.64-.45h0c.03-.13.06-.26.08-.4.1-.6.14-1.28-.05-1.99-.19-.71-.67-1.45-1.45-1.89-.78-.45-1.66-.49-2.38-.31-.72.19-1.3.56-1.78.94-.16.13-.31.26-.45.39-.11-.16-.24-.33-.37-.49-.4-.46-.91-.93-1.65-1.17-.18-.06-.38-.09-.59-.1h0ZM44.44,18.01s.08.01.14.03c.12.04.37.21.61.49.48.55.83,1.36.83,1.36.16.38.51.64.92.69.41.05.81-.14,1.05-.47,0,0,.49-.67,1.14-1.19.33-.26.68-.45.95-.53.27-.07.43-.07.68.08.25.15.33.27.39.53s.07.63,0,1.03c-.13.79-.49,1.51-.49,1.51h0c-.2.39-.15.86.12,1.2.27.34.72.5,1.14.4,0,0,.62-.13,1.21-.09.3.02.56.09.7.17.14.08.17.09.21.27h0c.02.09.03.13-.13.35-.15.22-.48.51-.85.76-.74.5-1.57.83-1.57.83-.44.17-.73.59-.73,1.05,0,3.09-1.99,7.31-6.35,8.65-.39-.19-.71-.53-.93-1.05-.27-.64-.35-1.5-.11-2.4.03-.09.04-.19.04-.29,0-2.13.24-5.13.24-5.13.04-.51-.27-.99-.75-1.16,0,0-.78-.28-1.46-.71-.34-.21-.64-.47-.77-.65-.13-.18-.11-.17-.1-.22h0c.03-.13.08-.19.25-.3.17-.11.47-.21.79-.28.63-.12,1.27-.08,1.27-.08h0c.41.03.79-.16,1.02-.49.23-.34.25-.77.07-1.13,0,0-.29-.6-.38-1.31s-.04-1.29.58-1.76c.14-.1.21-.14.25-.15h0Z"/>
        <path d="M47.23,24.48c-.62-.07-1.18.37-1.25.99-1.09,9.51-4.22,12.88-7.86,16.27s-7.92,6.8-10.22,15.38c-.08.29-.04.6.11.85.15.26.4.45.69.53.29.08.6.04.86-.11.26-.15.45-.4.53-.69,2.16-8.07,5.83-10.83,9.57-14.31,3.74-3.48,7.43-7.7,8.57-17.67h0c.03-.3-.05-.59-.24-.83-.19-.23-.46-.39-.75-.42h0Z"/>
        <path d="M60.2,30.63c-1.11,0-2.17.16-2.95.37-1.56.42-4.24,1.43-6.57,2.85-1.17.71-2.25,1.52-3.04,2.48-.79.97-1.33,2.2-1.03,3.5,0,.01,0,.03.01.04.67,2.52,3.6,3.64,6.31,2.91.56-.15,1.71-.4,2.27-.51.83.55,2.77,1.73,5.06,2.34.91.25,1.95,0,2.48-.64.53-.65.59-1.36.59-1.98,0-.27-.02-.53-.04-.78.21,0,.43,0,.65,0,.61-.03,1.28-.13,1.93-.45s1.29-.95,1.52-1.81c.27-1.01-.28-1.98-.91-2.53-.63-.55-1.37-.91-2.11-1.2-.17-.07-.34-.13-.51-.19.15-.18.3-.38.41-.63.27-.58.28-1.43-.1-2.08-.76-1.31-2.22-1.62-3.49-1.69-.16,0-.32-.01-.48-.01h0ZM59.81,32.9c.25-.01.5-.01.73,0,.95.05,1.55.35,1.67.57,0,0,0,0,0,.01-.03.05-.16.23-.38.39-.44.33-1.04.57-1.04.57h0c-.47.18-.77.65-.73,1.15.04.51.41.92.91,1.02,0,0,1.35.26,2.56.74.61.24,1.17.55,1.45.79.28.25.23.2.21.25-.05.2-.11.25-.34.37-.23.11-.63.2-1.05.22-.85.04-1.7-.14-1.7-.14h0c-.39-.09-.8.04-1.07.33s-.37.71-.25,1.09c0,0,.27,1,.27,1.74,0,.29-.05.45-.07.51-.03-.01-.03-.02-.16-.05-2.53-.68-4.74-2.28-4.74-2.28-.26-.19-.58-.26-.89-.2,0,0-1.95.4-2.87.65-1.77.47-3.26-.29-3.54-1.29-.09-.44.05-.91.58-1.55.53-.65,1.43-1.36,2.47-1.99,2.07-1.27,4.71-2.26,5.99-2.6h0c.48-.13,1.23-.25,1.98-.29h0Z"/>
        <path d="M58.28,35.78c-5.16.59-8.85,1.14-11.1,3.39-3.02,3.02-6.68,8.94-16.36,11.54-.29.08-.53.27-.68.53-.15.26-.19.57-.11.86.08.29.27.54.53.69.26.15.57.19.86.11,10.39-2.78,14.8-9.55,17.37-12.12,1.44-1.44,4.67-2.16,9.76-2.74h0c.3-.03.57-.18.76-.42.19-.23.27-.53.24-.83-.03-.3-.19-.57-.42-.75-.23-.19-.53-.27-.83-.24h0Z"/>
        <path d="M50.06,40.73c-.4,0-.77.21-.98.56-2.19,3.79-9.06,12.4-22.83,16.09h0c-.6.16-.96.78-.8,1.38.08.29.27.53.53.69.26.15.57.19.86.11,14.43-3.86,21.73-12.86,24.2-17.14.15-.26.19-.57.11-.86-.08-.29-.27-.53-.53-.68-.17-.1-.37-.15-.56-.15h0Z"/>
        <path d="M52.7,43.85c-.73.03-1.41.15-1.94.29-4.69,1.26-8.75,5.17-8.75,5.17h0c-.38.35-.46.92-.21,1.37.25.45.78.67,1.28.54,2.16-.58,3.15-.39,3.77-.08.62.32,1.04.94,1.81,1.71.85.85,1.46,1.33,2.15,1.59s1.23.3,2.23.57c.75.2,1.7,0,2.16-.58s.51-1.17.51-1.67c0-.11,0-.22-.01-.32.07,0,.14,0,.21,0,.49-.02,1.03-.1,1.58-.37.55-.27,1.1-.82,1.3-1.55.23-.88-.25-1.74-.77-2.19-.51-.45-1.11-.73-1.68-.96-.02,0-.04-.01-.06-.02.05-.07.09-.15.13-.23.23-.5.24-1.27-.09-1.83h0c-.65-1.12-1.86-1.36-2.87-1.42-.25-.01-.5-.02-.75,0h0ZM52.79,46.11c.18,0,.36,0,.53,0,.43.03.72.13.89.2-.02.01-.03.03-.05.04-.29.22-.72.39-.72.39h0c-.48.18-.78.65-.73,1.15.04.51.41.92.91,1.01,0,0,1,.2,1.9.55.45.18.85.4,1.02.55-.01,0-.01,0-.03.02-.12.06-.39.12-.69.14-.6.03-1.22-.1-1.22-.1h0c-.39-.09-.8.04-1.07.33-.27.29-.37.71-.25,1.09,0,0,.2.74.19,1.24,0,.02,0,.03,0,.04-.98-.26-1.56-.35-1.84-.46-.31-.12-.58-.29-1.36-1.07h0c-.54-.54-1.15-1.49-2.38-2.12-.4-.2-.86-.35-1.37-.43,1.4-.94,3.12-1.92,4.84-2.38.34-.09.9-.18,1.44-.21h0Z"/>
        <path d="M42.08,31.45c-.41,0-.78.21-.98.56-3.53,6.11-7.14,8.6-10.7,11.98-3.48,3.3-6.76,7.45-9.18,16.1-.38.12-.88.29-1.39.52-.52.23-1.07.52-1.56.91-.49.4-.99.95-1.08,1.76-.18,1.6.66,3.03,1.75,4.09,1.09,1.06,2.51,1.83,4.04,1.83.77,0,1.36-.36,1.83-.75.47-.39.87-.84,1.21-1.28.4-.53.68-.97.87-1.31,8.82-2.51,16.47-8.87,21.83-14.66h0c.2-.22.31-.51.3-.81-.01-.3-.14-.58-.36-.79-.46-.42-1.17-.4-1.59.06-5.29,5.71-12.88,11.91-21.22,14.14h0c-.3.08-.56.29-.71.57,0,0-.39.72-.92,1.43-.27.35-.57.69-.83.9-.26.21-.44.24-.41.24-.68,0-1.72-.47-2.47-1.2-.75-.73-1.15-1.63-1.08-2.22h0c0,.06.01-.07.26-.26s.64-.42,1.06-.61c.83-.37,1.67-.58,1.67-.58.4-.1.71-.41.81-.8,2.35-8.76,5.33-12.44,8.73-15.67,3.4-3.23,7.37-6.03,11.1-12.49h0c.31-.54.13-1.23-.41-1.54-.17-.1-.37-.15-.56-.15h0ZM54.92,40.22c-.4,0-.78.21-.98.56-.53.91-1.34,2.14-2.37,3.54h0c-.37.5-.27,1.21.23,1.58.24.18.54.25.84.21.3-.04.56-.2.74-.44,1.08-1.45,1.93-2.74,2.52-3.75.15-.26.19-.57.11-.86-.08-.29-.27-.53-.53-.69-.17-.1-.37-.15-.56-.15h0Z"/>
        <path d="M31.99,27.8c-.11,0-.22.03-.33.06-.73.19-1.28.75-1.54,1.3-.27.55-.34,1.09-.37,1.58,0,.07,0,.14,0,.21-.11,0-.21-.01-.33,0-.5,0-1.09.04-1.67.51-.58.47-.78,1.41-.58,2.16h0s0,0,0,0c.27,1,.31,1.54.57,2.23.26.69.73,1.3,1.59,2.15.77.77,1.39,1.19,1.71,1.81.32.62.5,1.61-.08,3.77h0c-.13.49.09,1.02.54,1.27.45.25,1.01.17,1.37-.21,0,0,3.91-4.06,5.17-8.74.19-.71.34-1.68.28-2.69-.06-1.01-.3-2.22-1.42-2.87h0c-.57-.33-1.33-.33-1.83-.09-.09.04-.16.09-.23.13,0-.02-.01-.04-.02-.06-.23-.58-.51-1.17-.96-1.68-.4-.45-1.11-.88-1.87-.83h0ZM32.16,30.12c.15.17.38.58.55,1.02.35.89.55,1.9.55,1.9h0c.1.49.51.87,1.02.91.51.04.97-.26,1.15-.73,0,0,.17-.43.39-.72.01-.02.03-.03.04-.05.08.17.18.45.2.89.04.68-.08,1.52-.21,1.97h0c-.46,1.72-1.44,3.44-2.38,4.84-.09-.51-.23-.97-.43-1.37-.63-1.23-1.58-1.84-2.12-2.38-.78-.78-.96-1.05-1.08-1.36-.11-.29-.2-.86-.46-1.84.01,0,.03,0,.04,0,.5,0,1.24.19,1.24.19h0c.38.12.8.02,1.09-.25.29-.27.42-.68.34-1.07,0,0-.13-.62-.1-1.22.01-.3.08-.57.14-.69.01-.02,0-.02.01-.03h0Z"/>
        <path d="M35.7,19.88c-.12,0-.24.03-.37.06-.83.22-1.45.85-1.76,1.49-.31.63-.41,1.29-.43,1.88-.01.2,0,.39,0,.58-.23-.02-.46-.04-.7-.04-.6,0-1.29.05-1.93.57-.64.52-.87,1.55-.63,2.43.35,1.29.4,1.97.71,2.8.11.28.32.51.59.63.27.12.58.13.86.03.58-.22.87-.87.65-1.46-.17-.44-.26-1.17-.64-2.58-.01-.06-.02-.08-.03-.11.09-.02.23-.05.43-.05.7,0,1.65.26,1.65.26h0c.38.11.8.02,1.09-.26.29-.27.42-.68.33-1.07,0,0-.17-.82-.13-1.62.02-.4.1-.78.21-.99.1-.21.14-.25.32-.3.03,0-.04-.07.19.19s.53.8.76,1.38c.46,1.17.71,2.45.71,2.45.09.5.51.87,1.01.91.51.04.98-.26,1.15-.73,0,0,.23-.58.54-.99h0c.18-.24.25-.54.21-.84-.04-.29-.2-.56-.44-.74-.25-.17-.55-.23-.84-.17-.08-.24-.16-.47-.25-.72-.28-.71-.63-1.44-1.16-2.04-.47-.53-1.25-1.01-2.1-.95h0Z"/>
        <path d="M61.99,38.83h-.14c-.35.01-.67.18-.88.46-.21.28-.27.65-.17.98.03.08.28,1.06.27,1.77,0,.27-.05.41-.07.47-.03-.01-.03-.02-.17-.05-1.52-.41-2.94-1.15-3.82-1.69h0c-.35-.21-.78-.22-1.14-.02-2.81,1.58-4.89,3.54-4.89,3.54-.38.35-.47.92-.21,1.37.25.45.78.67,1.28.54,2.16-.58,3.15-.39,3.77-.08.62.32,1.04.94,1.81,1.71.85.85,1.46,1.33,2.15,1.59.69.26,1.23.3,2.23.57.75.2,1.7,0,2.16-.58.47-.58.51-1.17.51-1.67,0-.11,0-.22-.01-.32.07,0,.14,0,.21,0,.49-.02,1.03-.1,1.58-.37.55-.27,1.1-.82,1.3-1.55.24-.88-.25-1.74-.77-2.19-.51-.45-1.11-.73-1.68-.96-.02,0-.04-.01-.06-.02.05-.07.09-.15.13-.23.23-.5.24-1.27-.09-1.83h0s0,0,0,0c-.1-.17-.22-.33-.35-.47h0c-.42-.43-.93-.65-1.43-.79h0c-.08-.02-.16-.03-.24-.04-.51-.02-.91-.09-1.06-.12-.07-.01-.14-.02-.21-.02h0ZM56.45,43.04c.98.55,2.3,1.19,3.81,1.59.9.24,1.92.03,2.46-.61.02-.03.04-.05.06-.08.24.05.95.21,1.71.51.45.18.85.41,1.02.55-.01,0-.01,0-.03.02-.12.06-.39.12-.69.14-.6.03-1.22-.1-1.22-.1h0c-.39-.09-.8.04-1.07.33-.27.29-.37.71-.25,1.09,0,0,.2.74.19,1.24,0,.02,0,.03,0,.04-.98-.26-1.56-.35-1.84-.46-.31-.12-.58-.29-1.36-1.07-.54-.54-1.15-1.5-2.38-2.12-.41-.21-.88-.35-1.4-.44.31-.21.65-.42,1-.63h0Z"/>
        <path d="M57.34,19.24c-.69-.01-1.35.21-1.92.52-.76.41-1.42.99-2,1.6-.25.27-.36.64-.29,1,.07.36.31.66.65.81.2.09.23.1.28.31.02.09.03.13-.13.35-.15.22-.48.51-.85.76-.74.5-1.57.83-1.57.83h0c-.44.17-.72.59-.72,1.05,0,1.72-.63,3.84-1.93,5.56h0c-.1.14-.18.3-.21.47-.27,1.45-.43,2.72-.52,3.68h0c-.05.46.2.91.61,1.11.42.21.92.14,1.27-.17.61-.56,1.43-1.11,2.31-1.62h0c.07-.04.14-.09.2-.14.96-.87,1.72-1.14,2.53-1.24.1-.01.19-.04.29-.07.99-.41,1.9-.71,2.5-.87h0c.97-.26,3.08-.4,3.93-.05.34.14.72.11,1.03-.09.5-.31,1.03-.67,1.84-1.14.89-.51,1.48-1.47,1.39-2.34-.09-.88-.59-1.47-1.06-1.95-.25-.25-.51-.47-.76-.67.2-.19.41-.39.62-.62.45-.5.9-1.1,1.15-1.84.25-.74.26-1.7-.21-2.52h0c-.1-.18-.23-.34-.37-.49h0c-.73-.74-1.75-.81-2.59-.69-.85.12-1.67.43-2.42.77-.18.08-.34.17-.51.25,0-.32-.05-.65-.18-.99-.23-.64-.85-1.27-1.64-1.49-.24-.06-.47-.09-.71-.1h0ZM57.28,21.5c.07,0,.12,0,.18.02.16.04.08,0,.11.08.03.09.06.36.01.68-.09.63-.39,1.31-.39,1.31h0c-.21.46-.09,1,.3,1.33.39.33.94.36,1.36.07,0,0,1.16-.78,2.45-1.37.65-.29,1.32-.53,1.81-.59.49-.07.65.02.67.04,0,0,0,0,.02.03.13.23.13.37.03.67-.1.3-.36.69-.69,1.05-.65.72-1.48,1.26-1.48,1.26h0c-.34.21-.54.59-.52.99.01.4.24.76.59.95,0,0,1.02.57,1.62,1.18.3.31.42.6.42.59,0,0,.16-.09-.27.16-.63.36-1.07.65-1.46.89-1.71-.49-3.59-.18-4.8.15-.7.19-1.62.5-2.64.91-1.11.17-2.33.66-3.5,1.69-.13.08-.27.16-.4.24.04-.23.08-.47.12-.7,1.33-1.85,2.04-3.96,2.19-5.93.38-.18.86-.43,1.34-.76.5-.34,1.02-.75,1.42-1.32.4-.57.69-1.4.47-2.24h0c-.07-.28-.19-.52-.34-.75.2-.16.41-.3.59-.4.34-.18.6-.25.79-.25h0Z"/>
      </g>
      <circle class="cls-1" cx="42.5" cy="42.5" r="41"/>
    </g>
  </g>
</svg>