<svg xmlns="http://www.w3.org/2000/svg" xmlns:xlink="http://www.w3.org/1999/xlink" xml:space="preserve" version="1.1" style="shape-rendering:geometricPrecision;text-rendering:geometricPrecision;image-rendering:optimizeQuality;" viewBox="0 0 508000 635000" x="0px" y="0px" fill-rule="evenodd" clip-rule="evenodd"><g><path d="M219660 482390c-3330,1990 -4310,5960 -4180,10210l-7860 -550 10900 -11410 1140 1750zm87690 -39240c-840,7630 -5890,10420 -12390,13620l1140 -7980 11250 -5640zm-590 -40430c650,-7420 2330,-8020 7610,-12250 2490,-2000 8220,-6660 10440,-7050l-2310 12830c-2310,10580 -3150,450 -5920,8630 -910,2700 -1500,9660 -2470,13350 -990,3770 -2350,7370 -3310,11440l-5880 1600c1720,1680 3850,790 5220,3300 -1730,4310 -7900,8590 -12340,10060 300,-4510 1100,-4790 1750,-8680 640,-3890 -400,-4120 110,-6770 1190,-6130 7090,-3100 7540,-10140l-5500 3100c1260,-6380 410,-10460 5730,-15140 4590,-4040 9620,-4860 9500,-10610 -5820,310 -3150,3600 -10170,6330zm40570 -152920c-5800,2860 80,340 -3790,5570 -910,1220 -2480,2100 -3830,3020 -340,-6040 -290,-5960 3560,-9970 -1220,-6180 -90,2840 -2630,-3990 2650,-1970 3780,-3460 4580,-6750 -2280,-1100 -1980,290 -3650,-100 -4620,-15250 1500,-7540 8490,-16170 3330,18950 4080,22800 570,42090 -1070,5830 -1780,3250 -3620,8560 -3190,9190 -7300,41080 -9140,48050 -1510,5760 -870,2390 -1220,8210 -390,6440 -1220,3040 -3050,7530 -2200,5430 -5660,31520 -6910,39280 -7370,3770 -420,3530 -6280,7870l-10330 5990c1390,-7550 1650,-13940 7550,-18730 3950,-3210 13310,-7410 9330,-12490 -3250,1070 -5700,6720 -10330,8680 950,-7290 1060,-10890 6010,-15790 6360,-6310 8200,-6230 750,-11220 1750,-15470 11740,-4120 7460,-21870 -2160,-8940 5780,-18460 5270,-24450 -380,-4420 50,-9130 2090,-14240 4080,-10240 810,-4030 550,-11110 -300,-8270 14180,-12090 8570,-17970zm-36050 91890l8060 -4220c-540,10140 -4180,12870 -11580,18450 -7420,5590 -11080,6980 -18410,11590 1300,760 1790,680 5270,-1160 19110,-10100 7150,-2930 18430,-7350 -260,1470 -830,5150 -1310,6540 -1950,5610 530,630 -2820,3850 -3130,3000 -3370,5170 -6080,7310 -2090,1670 -6210,3220 -8730,4750 -5280,3190 -2190,3240 -3870,7170 6810,-2130 14880,-12370 19570,-12930 -6170,17600 990,15280 -16700,22580 -14910,6160 -9260,5650 -11440,8800 -2540,3670 -9650,2980 -12190,6630 4480,-1140 12430,-4630 16950,-6520 4490,-1870 12400,-6440 16030,-7530 -380,7110 -110,7940 -5710,12350 -9730,7650 -5390,3640 -6020,7700l7750 -3250c-2140,17280 -19910,14220 -21720,24970 5610,-2860 11220,-7740 17330,-9900 -400,2050 -2440,14070 -2610,14530 -1300,3500 -5000,3800 -7830,6460 2720,1750 2750,230 6610,-1350 -480,5720 -680,10290 -5490,12620 -5110,-2860 850,-2790 -8760,-6220 -19860,-7090 -14360,-2750 -23790,-3060 -4560,-150 -7080,-1090 -12380,-810 -7760,410 -15590,2760 -23160,4630 -11150,2760 -10170,2120 -18860,8900 -500,-4730 -4370,-15240 -5820,-21850 -960,-4400 -1980,-7460 -2540,-12090 -1050,-8750 -2350,-4760 -5040,-6680 -130,-17710 -5740,-35250 -9950,-53100 -1160,-4910 -980,-10300 -2240,-14600 -6960,-23820 -20720,-66940 -22860,-87770 -1610,-15630 -970,-42010 5030,-56330 4250,1340 7730,4480 13990,5830 19470,4210 31580,6700 51980,8550 -250,3770 -5360,11950 -8370,24200 4000,-1130 3180,-3780 7830,-12250 7950,-14440 4400,-11240 31930,-11030 -3000,4460 -12050,18780 -11230,23270 4440,-460 3220,340 5390,-5170 2670,-6780 6510,-11350 9780,-18100 6520,-620 15540,-560 21620,-1990 7130,-1680 31270,-7040 35720,-10040l15160 -7100c3450,5820 4170,11150 5570,18070l-15510 10760c6630,-1400 11470,-6490 16150,-7380 1040,12030 3290,10960 -3070,16190 -2520,2060 -10000,7850 -11060,10190 7810,-2250 10050,-7360 16120,-9870 -910,7930 -12040,11640 -16810,17780 6140,-1650 10820,-7340 16140,-10890 160,7520 -610,6400 -5980,10260 -7160,5130 -27320,17610 -29420,20640l34420 -18690c-750,4550 -990,1120 -1280,5110 -370,5180 2510,4100 -8690,12550 -3930,2970 -14590,8720 -17090,12030 -2810,3710 1040,990 -3440,4360 -7210,5420 -29810,13470 -32850,17230 3380,1530 41480,-20200 46340,-23890 3240,-2450 10610,-8060 14000,-9750l-3380 16050 -6350 120c5280,5060 -7860,9280 -14640,14840l4350 -280c250,20 680,140 880,160l-12600 12920c11260,-4990 19130,-13080 27110,-21210 -6040,34170 -12800,19420 -23710,34850 5590,-1690 10440,-6280 15560,-8560l-7680 7130zm36080 -133010c1540,4930 3390,7050 -370,10890 -2240,2300 -5860,4830 -8570,5670l-2120 -8780 11060 -7780zm-68320 -52370c-3640,10300 -18980,43630 -24750,52030l-19400 -1610c4440,-17630 17670,-30670 23310,-46730l20840 -3690zm-89260 -7910c-4890,-790 -4690,130 -6930,-3920l6930 3920zm29880 333990c2090,-720 6540,-5750 6050,-9110 -9150,-1360 -15540,18540 -26780,15650 -4300,-1100 -5090,-2460 -12020,-3760 -3870,-8250 -2880,-15440 -4180,-23700 -2130,-13480 -6580,-31470 -12390,-43620 -4110,-8620 2300,-3780 -1200,-11070 -2580,-5380 -3100,-4180 -2130,-10420 -130,-50 -380,-40 -410,100 -180,830 -2360,150 -2890,-2200 -1460,-6550 1440,-4580 -4640,-26660l-23420 -100600c-3790,-24970 -1900,-44880 7710,-68750 6190,-15380 7580,-33060 9630,-39760 640,-2110 1780,-5350 2490,-7460 1890,-5640 3690,-10160 4950,-16380 6500,5640 11610,7380 17200,11850 1740,1390 710,760 1730,1620 11600,9680 31620,8610 46000,9240 6130,270 7520,1990 12230,2390 5590,470 8800,-1430 15160,80 -3670,11170 -4230,3230 -7860,9020 -1350,2150 -4630,11860 -6080,15210 -3860,8910 -15210,18100 -13210,27900 5740,2010 7500,-1580 13140,-1750 2700,-80 4760,940 6960,1220 2670,330 4130,-280 7460,-130 1880,3370 -1800,2060 2340,4830 4390,-3570 780,-5700 9720,-6830 260,-14870 9130,-26840 14990,-39750 4710,-10390 1270,-6580 2730,-13990 8740,-3590 17030,-3780 26650,-9210 6680,-3760 6340,-600 10670,-4860 1800,-1770 7320,-7940 8660,-8560 -920,3320 490,6140 1570,9550l-5670 2460c3580,10500 -6310,9860 -11260,16640 6970,-380 14630,-8070 17470,-13970 7240,22680 1700,14090 -8590,26490 6610,-860 6760,-3910 12190,-5610 5820,12380 7030,23270 11210,35590 -2230,3050 -6690,7920 -11200,9330 -2200,-16970 2560,-5530 6140,-15300l-9090 2820c-5900,-9620 5840,-5860 4700,-13920 -3630,40 -5400,3360 -8190,5980 -13080,-1210 -40000,-8050 -52460,-5650 -4480,860 -4270,2010 -4920,4660 5010,5560 9740,-4010 28930,1410 23560,6660 9870,2720 18580,7220 3070,1580 3150,20 6180,2440 -490,5270 -5300,6310 -10390,8210 -6520,2420 -2070,-480 -6130,3960 -3270,3570 -1640,2540 -6710,3330 -5520,870 -10580,2200 -15910,3070 -9950,1640 -8650,-1450 -15380,4350 -4600,1900 -40810,450 -49310,-530 -2730,-310 -12530,-1930 -14260,-1780 -9430,780 -16500,-1960 -26490,-3370 -3070,-430 -9730,-2710 -12890,-3810 -4540,-1570 -9040,-2860 -9460,-7620 2800,-2470 9460,-3320 13500,-6290 7130,-5250 29180,-7710 38800,-8180 6280,-310 17260,1850 19270,-3290 -7590,-5060 -59050,3680 -71390,9230 -5820,2610 -6360,1470 -8080,8600 -2320,9570 -4340,19950 -5220,29810 -1420,15890 2630,42190 7650,57560 1280,3930 11890,42190 12070,47090 190,5400 260,-250 -2800,4970l14060 45360c1400,5270 1070,11130 2680,17410 2540,9920 7050,21430 9020,31320 4960,25000 2090,13570 9440,28570l740 1590c11920,-3170 22150,-10240 34680,-11490 6030,-610 6430,970 12970,-230 17860,-3280 11500,250 24200,3610 4470,1180 7360,1100 12270,3240 15730,6830 6100,-3980 23090,-13000 -790,2140 -1840,4070 -2530,6220 -820,2580 -1140,5350 600,7620 3170,-3010 1710,-3940 3280,-8620 980,1430 620,-610 900,2590 210,2360 190,1620 -400,3680 -540,1910 -1610,3600 -2880,5070 -5840,6710 -4240,2780 -3700,9620l-6790 2880c340,-5530 3150,-8580 1580,-11010 -6890,2150 -940,8980 -8680,13260 -14710,8130 -44580,7990 -60580,7630 1910,-6270 7380,-9260 5510,-13690 -6880,1820 -4130,14850 -12610,13010 -850,-3360 1520,-7110 1430,-10630zm70990 -339100c3660,-6710 9590,-13640 13750,-21170 3060,-5540 5120,-4200 9720,-100 5520,4930 2190,6440 5350,11260 -7930,1580 -7330,9440 -28820,10010zm-121180 -15890l1430 8320 -6290 -3590 4860 -4730zm32410 1970l1050 7280c4410,-1380 1100,290 2460,-3830 0,0 560,-1970 770,-2620 460,-1390 500,-760 930,-2540 1380,-5730 -1110,-7390 230,-11180l730 2870c1280,6310 -230,4420 2600,6610 1680,-2100 470,-540 1400,-5530 440,-2400 300,-1910 1220,-4420 1790,5270 -2630,3450 2000,7000l1160 -3830c200,-880 220,-2310 590,-3840 6690,-3240 53810,-4630 59670,-1830 2330,2500 -17480,28610 -21340,38830 -9180,110 -25690,-1020 -34400,-3090 -5200,-1240 -10860,-1790 -15840,-3190 -14890,-4190 -12350,-350 -12280,-6650 2850,4620 -750,2620 4870,3680 -430,-3510 -3180,-19090 -4730,-20600 -2140,2860 -2240,4890 300,12310 -2510,4460 -620,220 -3300,3880 -590,810 -1140,2130 -2020,3570l-14320 -5270 150 -13370c8490,-4850 19570,-4590 29070,-6320l1440 11200 -2410 880zm65950 13250c2130,-3000 2300,-5540 4400,-9020 4480,-7440 3170,-910 10150,-15550 2010,-4220 3420,-4470 4970,-6770 1460,-2150 -80,290 1060,-3990l6480 -12530c1920,-3000 3590,-5070 5550,-7840 2760,-3890 1790,-4870 4270,-8200 4100,670 11280,5760 15200,8160 -7060,11860 -5900,5390 -9260,13360 -2020,690 -1920,-680 -3850,-150 -1220,4160 1080,1730 -1370,5450 -1530,2320 -2620,-1560 -2090,6730 -2960,-2240 -1030,-1840 -4900,-1440l1290 8950c-1400,-4160 -770,-3440 -4570,-2460 -610,3500 610,7510 -80,10360 -400,1620 -2790,4780 -3790,7120 -130,-220 -190,-590 -230,-730l-410 -1370c-50,-150 -130,-500 -180,-640l-1380 -2450 -4670 8880c4340,-860 2140,-300 5680,-2830 -2880,11130 -6800,13240 -17850,15180l-4420 -8220zm40180 -66960c3200,-5260 3900,-2430 6030,-9850 11860,-1450 1360,-1440 8500,-2440 2870,3460 5470,6960 10000,7620 -480,-2410 -6330,-8640 -8660,-11340l6840 -5990c1040,1280 8590,12080 9420,13960 -1990,2730 -7100,4910 -9800,7820 -2790,3000 -5810,6220 -9110,9130l-13220 -8910zm40310 -30350c540,710 170,-100 1300,2000 650,1230 540,1020 1040,2330l3820 11920c-4240,2780 -4930,4360 -10620,5050 -3880,-4680 -6180,-10790 -9280,-15610l13740 -5690zm42380 -16850c6270,-1840 6410,-1270 12210,-2320 3540,-630 7880,-3130 11310,-4320 3560,-1240 7310,-2300 11100,-3280 5040,-1310 18330,-7470 21920,-4890 1000,7000 -1040,-2580 -930,7740 40,3340 800,6000 850,8420 -2940,1930 -14630,4120 -18300,4360 -3860,-2320 0,-1190 -5330,-3440l1350 4990 -8080 2750c-2790,-3630 -60,-2760 -3550,-5660l-750 1540c-660,2820 -10,-970 -300,2000 -410,4300 2240,2470 -4540,5460l-1550 -1730c-990,-1060 280,-170 -990,-1180 -2280,-1800 -580,-1020 -3250,-610 -70,210 -180,520 -180,620l1370 4080 -5570 2300 -3340 -4100 -1200 3050c-100,260 -90,630 -200,890l-710 1490c-760,900 -4490,1960 -5710,2390l-4870 -3570 -20 6240 -6360 1620c-1300,-5640 280,-4460 -3260,-5260 -2300,4810 1490,2420 -1170,7380 -4700,-2160 -2330,-3960 -7380,-4060 -10,4490 250,2240 2620,6110 -9740,800 -2490,910 -8100,2700 -2330,-2900 -3730,-11750 -4720,-15840 3850,-5590 1770,-2580 1670,-4540 -10,-190 -110,-300 -110,-460l36070 -10870zm-80400 82810c2670,-9930 10860,-16330 14840,-21990 1560,-2230 1220,-2590 2370,-4270 7830,-11400 32670,-21520 46080,-25700 7850,-2450 14380,-4680 22330,-6640 5280,-1300 5490,-3020 9380,-5160 1570,-870 8890,-3570 10560,-3900 5570,-1090 5660,-130 12100,-2510 3580,-1310 7260,-2470 10810,-3780 4880,-1810 16850,-4910 19880,-7850l-9630 -20980c-8990,-1030 -93280,24610 -103990,30170 -21420,11140 -38880,28170 -51670,49010 -3440,5610 -8610,16560 -12770,20640 -13710,-4640 -50810,-4100 -66000,-850 -11500,2460 -34590,6460 -44130,11640 -1530,830 -4230,2700 -5610,3350 -4440,2100 -3350,10 -6630,2290l-14870 53460c-2070,8050 -3780,20080 -8530,26040 -6200,7800 -6350,33710 -6940,44630 -980,17770 4530,7740 2710,21640 -380,2900 -350,3310 110,6690 660,4810 1890,9320 3050,13980 4280,17230 9680,35340 14330,52750 1520,5690 1730,9760 2990,14970l10240 39800c1430,9410 3500,19110 6760,28220 2310,6440 1590,8290 2800,13880 640,2950 3460,8980 4650,12300 2560,7060 -630,6070 1860,13570 1700,5130 3380,6280 3810,11700 740,9310 7220,15250 16190,16160 11380,1150 27240,5460 43570,4960 14060,-440 30860,-2370 43660,-8050 13000,-5760 3390,7020 21190,-10020 9750,-9320 3630,-3840 8620,-26080 2090,-9320 2870,-19090 5050,-28440 2100,-8980 5660,-18680 7550,-27070 1990,-8870 2030,-18990 4350,-29220 4120,-18160 9480,-35690 12820,-54130 3730,-20500 5870,-35380 13690,-54750 7160,-17710 1220,-23030 -390,-28900l-19740 -81820c-1490,-6390 -2970,-22420 -7050,-26500 -2990,-2970 -5880,-4030 -8980,-7800 -4570,-5540 -6480,-3430 -11420,-5440z"/><path d="M311280 341690l-19610 11590c-4380,2640 -17440,8440 -18810,11450 3260,2180 8500,-5030 18600,-10630 6630,-3680 14970,-7270 19820,-12410z"/><path d="M182010 136540c1370,-1590 1430,-1830 1240,-6190 -170,-3840 40,-4040 -1620,-6920 -4880,840 -3360,190 -2040,5460 930,3720 190,5030 2420,7650z"/><path d="M245430 492380c2770,-3010 980,-3240 3330,-6460 3290,-4510 2990,-400 3980,-7430 -3450,1300 -4260,2260 -6370,6130 -1970,3620 -2880,5110 -940,7760z"/><path d="M277870 485090c2100,-2500 1640,-3290 3690,-6680 2080,-3430 3060,-2270 640,-5490 -2840,1210 -5580,8430 -5620,8710 -650,5430 -30,1740 1290,3460z"/><path d="M235390 490680c2210,-1450 2490,-2370 4430,-4790 2650,-3310 2810,-2310 980,-5450 -2460,1020 -2210,1580 -4200,4540 -4650,6920 -1540,5020 -1210,5700z"/><path d="M273860 147720c890,-440 1290,-750 1670,-940 5310,-2610 4920,-1560 6200,-8190 -5880,2660 -1650,1930 -4700,4370 -2670,2140 -4300,-1420 -3170,4760z"/><path d="M267260 486200c4150,-1600 5500,-5230 6560,-9570 -5140,850 -5840,4230 -6560,9570z"/><path d="M187270 134970c1080,-2150 1810,-7310 -990,-10100 -2880,3050 -3260,7780 990,10100z"/><path d="M256620 487390c2350,-2280 5020,-6520 5340,-10080 -3230,680 -2150,490 -4490,3900 -2610,3820 -2790,2790 -850,6180z"/><path d="M201880 129370l-1770 -7770c-3750,2720 -1880,3870 -1410,8450l3180 -680z"/><path d="M442960 30480c490,-2850 1630,-350 -540,-4010 -2500,-4210 -560,-2480 -4070,-1870 1810,4430 370,5780 4610,5880z"/><path d="M325420 188630c4600,-1500 7020,-1550 7090,-6560 -3290,1300 -5720,3680 -7090,6560z"/><path d="M435620 32540c2070,-3390 2090,-1730 -50,-5100 -380,660 -1480,-660 -1180,2700 290,3250 -720,270 1230,2400z"/><path d="M290240 388620l-3260 850c2300,1390 1490,960 3260,-850z"/></g></svg>