<svg xmlns="http://www.w3.org/2000/svg" xmlns:xlink="http://www.w3.org/1999/xlink" xml:space="preserve" version="1.1" style="shape-rendering:geometricPrecision;text-rendering:geometricPrecision;image-rendering:optimizeQuality;" viewBox="0 0 508000 635000" x="0px" y="0px" fill-rule="evenodd" clip-rule="evenodd"><g><path d="M313900 458060l-4260 7330c-5090,990 -1390,-1400 -6680,1560l2580 -8300 8360 -590zm-22460 1130l11100 -530c-600,5710 -1180,6980 -4720,9840 -3420,2760 -5360,4160 -10250,3800l3870 -13110zm20720 -4300c-4350,500 -3800,680 -5840,-620 130,-180 -950,-4140 5840,620zm-54890 2550c-780,-2820 -470,-4250 -50,-7380 170,-1240 360,-2720 650,-3920l740 -2230c20,-390 180,-490 290,-900l15710 -70 -2570 14530 -14770 -30zm52390 -16690l10780 -800 -4740 13040 -8620 -2690 2580 -9550zm-14410 970l11760 -610 -3910 8210c-750,230 -740,10 -1520,470 2910,3090 1970,70 2420,2820 710,4310 -4510,3390 -11990,3580l3240 -14470zm-21060 15220c4670,-14920 -2120,-14910 18120,-14810l-2540 14480 -15580 330zm-14990 -15910c-890,-3940 320,-8410 660,-12360l17140 480 -2230 11380 -15570 500zm21020 -11630l15000 -670 -2620 10530 -14560 750 2180 -10610zm-36850 -2070l13640 1220 -930 12550c-3880,100 -7890,790 -11520,-450l-1190 -13320zm79550 -5560c170,5930 120,8500 -2990,13600 -2630,1570 -6410,2080 -9840,2340 1790,-11750 2910,-11550 12830,-15940zm-26650 16670c130,-2900 430,-8350 2740,-9790 1920,-1200 8760,-1860 11350,-1680l-2560 11070 -11530 400zm-39270 -12420c-2900,10 -11500,380 -13600,-860 -2260,-1350 -2490,-10370 -2050,-12940l17060 730 -1410 13070zm56420 -13780c230,11490 -4680,11780 -14820,12980l2560 -12380 12260 -600zm-30210 1000l14640 -280 -2240 13140 -15490 450 3090 -13310zm-21870 -80l17690 -140c750,4080 -450,9700 -2150,13820l-16590 -440 1050 -13240zm-34690 11650l-4660 -14220 15660 1730 1740 12670 -12740 -180zm35120 -14150c-230,-6340 -1890,-12730 4240,-13300 4700,-440 12030,-720 15800,810 210,4100 -720,8220 -2100,12290l-17940 200zm22500 -290c-1800,-2990 480,-9100 800,-12910l14890 180c1270,3070 -280,8850 -1940,12840l-13750 -110zm20410 -13140l11910 -560c330,3260 -1040,8870 -2200,12310l-12880 920 3170 -12670zm-45930 12510c-4540,1120 -13760,970 -18270,-440 -870,-3690 -2080,-8640 -1150,-11880 3140,-580 15970,-1050 19640,940l-220 11380zm-23460 -12530l1350 12460c-3290,90 -13290,610 -15410,-1260 -1630,-1450 -4800,-10030 -4940,-12210l19000 1010zm27690 -12380l20380 230c490,3970 360,6280 -1130,9830l-20120 30 870 -10090zm23110 10050c620,-13920 4200,-10270 17620,-11030 140,3800 -610,7280 -2320,10670l-15300 360zm-49890 -11300l22540 1560 300 9690 -20890 -60 -1950 -11190zm71370 -10l13020 -1280 -3060 11030 -12530 820 2570 -10570zm-73730 4770c420,2150 620,4170 540,6380 -3550,90 -16140,130 -18900,-1110 -2710,-1230 -6760,-10820 -7210,-13970 3980,410 8030,1800 12200,2200 10570,1010 12010,-410 13370,6500zm77810 -17950l12080 -550 -2220 8960 -13200 1730 3340 -10140zm-77540 1580c26710,2740 46250,-560 73170,-1180l-2920 10610 -16500 1220c500,-4080 1280,-5080 -1070,-7690 -2780,1710 -2810,4500 -2980,7860l-20540 930 -1150 -7220c-3380,210 -1620,-1450 -3140,2170l-1290 4800 -22120 -1180 -1460 -10320zm88810 49800l-1190 -3060 -7210 1710 2150 -8540c5120,-140 6920,990 9110,-1680 -2400,-4760 -2830,-1970 -8230,-1940l2610 -11960 7840 -1650c-3120,-3880 -5480,-2110 -5930,-3090 -130,-280 -500,-110 -840,-280l2440 -9710c5330,-620 8980,720 10640,-3690 -3900,-1660 -4460,-1060 -8640,-480 520,-9710 3550,-9090 11970,-10200l-14720 54570zm-91230 -50310c-4410,1820 -4690,2770 -6780,-1630l6780 1630zm90160 -7030c2650,-1640 6790,-2570 10190,-3560 4710,-1360 4640,-3200 9950,-4650l-3800 7030c-8960,-1550 -7850,140 -16340,1180zm-107950 990c1160,-860 -730,-150 1850,-710l7410 -170c3820,-10 7660,-130 11490,-190 6690,-110 14370,-730 21000,-200 4760,380 4840,1180 10630,770 7070,-500 15530,-1490 22350,-900l8800 1570c-7610,580 -14490,2340 -22330,2600 -7400,250 -14870,-530 -22040,-300 -9560,310 -10040,3060 -20730,900 -6400,-1300 -12220,-1650 -18430,-3370zm60240 94100l14320 -300c100,8820 -4140,9390 -5760,14650 -12880,580 -18030,6680 -36130,2620 -8630,-1940 -13330,5330 -28120,-12430 -8180,-9830 -460,-1330 -7290,-18170 -7770,-19190 -7060,-25610 -9590,-32800 -1570,-4490 -1970,-5040 -2770,-9740 -430,-2520 -2860,-6790 -3900,-10140l-9460 -32040c6760,-670 18610,1850 25050,3410 -2390,2340 -3230,630 -2680,3120 2730,930 6620,740 9840,1110 5640,650 3960,860 6650,4910 4460,780 6020,-1410 7750,8250 -6000,-280 -11080,-1330 -16830,-2270 -16830,-2770 -5270,-2790 -12920,-6270 300,6670 2830,8780 5790,14210l17320 38390c2410,520 9230,190 13450,1000l2090 5910c430,2740 720,5290 1240,8090 -6730,40 -10480,-720 -16650,-2050 1760,3820 12380,3050 16710,3710 2330,10420 2010,14420 2950,22790 180,1700 -50,850 600,1900 3280,-2630 0,-16840 -960,-24930l10940 260 -1400 16320 16770 180c280,3180 -330,6450 -1440,9460 -1490,4040 -3600,4030 -460,6550 3660,-3240 2200,-10110 4890,-15700zm-29000 -114390c2490,3180 2530,3810 3530,8170l-19440 830 -3200 -6730 19110 -2270zm25590 -3580c4650,-350 9020,-820 13650,-1270 130,3830 -130,9000 -1520,11940l-30640 1330 -3050 -9180 12070 -1430c1740,2880 -1080,510 1280,4640 5470,-3160 -2630,-5220 8210,-6030zm-25710 60c-2950,1760 -8470,1950 -12370,2470 -6520,870 -8300,2610 -9920,-3580 5630,-70 17900,-1160 22290,1110zm2050 -12410l15930 -1260 -670 8590c-4200,1890 -9940,1430 -14740,940l-520 -8270zm40280 11340c4140,-1160 12400,-2340 16850,-2800 4790,-490 5710,850 7340,480 1130,-250 2860,-1750 6810,-2490 5960,-1120 11900,-1390 17680,-2420 5000,-890 9540,-2800 14280,-3770l-2500 6650c1020,800 1110,1400 3540,1210 -7440,8550 -53720,14170 -66060,14350l2060 -11210zm-21430 -12770l20220 -970 -1170 9920 -19720 110 670 -9060zm46660 -3050l-1340 8550 -23280 1980 1040 -8340 23580 -2190zm38460 8460c2150,-3080 2040,-4830 4910,-6380 2050,-1110 5590,-2280 7810,-2820 -1140,5470 -7480,8750 -12720,9200zm-106410 4520c-8250,620 -13950,-490 -23140,530l-2100 -8980 24650 110 590 8340zm69460 -4960c810,-7930 -150,-8420 7920,-10010 3770,-750 11340,-1770 14470,-2840 200,10950 -7640,11290 -22390,12850zm23410 -4850c140,-4540 1790,-8600 5990,-10490 4220,-1910 8500,-4240 12420,-5640 -2350,18240 -6220,12380 -11300,13940 -2330,710 -4510,1620 -7110,2190zm-22890 -19060c-1020,12090 1080,10930 -11080,13090l-13660 1650 1330 -10210 23410 -4530zm-67990 5050l17200 110 -900 11280 -16080 1050 -220 -12440zm20730 50l20650 -720 -1760 10390 -20020 1010 1130 -10680zm-51030 850l27190 -840 300 12320 -25620 390 -1870 -11870zm29840 -14060c5390,-1970 12290,-1000 18050,-1260l-230 11670 -17380 -570 -440 -9840zm45070 -1290c3970,-1000 20160,-5160 22140,-4420 1490,3310 1650,7340 1180,10940 -6950,2180 -15990,3710 -23080,3650l-240 -10170zm-75820 27500l-22080 -850 -5500 -16490 23910 5080c2110,2660 2800,8280 3670,12260zm124810 -23440l-1850 9200c-4200,3130 -16110,5670 -21870,6140l1540 -10680 22180 -4660zm-72460 -3720l20410 -280 -170 10800 -21050 690 810 -11210zm94070 4250c960,-12690 2280,-10210 12780,-13270 260,7030 -4270,24210 -8540,29440l-10470 2530 3750 -11960c320,-410 8320,-3170 10310,-6250 -3310,-3290 -3470,-1540 -7830,-490zm-19580 8190c-170,-1970 210,-6070 920,-7860 1410,-3550 12710,-9110 16840,-9610 -200,11270 -4670,14210 -17760,17470zm-1500 -26110l490 11400 -23350 7490 -800 -12270 23660 -6620zm-97370 25140l-28590 240 -2460 -11890 30350 310 700 11340zm-50760 -3500c-4350,-470 -7960,730 -8840,-12750 27810,5180 25250,1310 27560,16290 -6710,-790 -12080,-2830 -18720,-3540zm182410 -35730c1440,4160 1230,9560 570,13920l-10880 3600 1500 -12690 8810 -4830zm-12590 7070l-1120 11520 -17000 5760 270 -11660 17850 -5620zm-53160 10730c6230,-1310 26640,-9350 30380,-7770 -4210,3750 -29310,9240 -36460,10980 -13400,3260 -7190,680 -18510,3180 -3310,740 -8030,680 -11480,680 -4760,0 -5810,710 -6460,-3320 2100,-1870 16580,-4200 20470,-4250 21690,-310 8840,-850 21870,-2660l-70 1920c10,90 120,730 120,600 0,-150 50,440 140,640zm-26250 -6480c1650,-2760 3790,-2110 5920,-2050 -2650,2680 -2150,1980 -5920,2050zm60500 -2480c810,-2950 330,-1770 4170,-3310 4680,-1880 9100,-4820 14650,-6440l-1230 4880c-5670,3320 -1410,440 -6620,-610 -2730,2330 -6420,7290 -10970,5480zm30080 -11310c-2560,-550 -620,120 -1940,-640 2820,-990 3870,-2560 4260,1100 -980,-480 -1770,-340 -2320,-460zm-220690 43040c-3000,-8780 -9900,-11440 -7860,-38450l12440 740c-3230,1000 -2000,660 -1800,2970 10090,2260 18920,40 28300,2100 4380,960 7790,2960 12250,3220 4890,290 9290,130 14280,670 20120,2170 13650,2350 26040,4320 15660,2490 22540,520 27470,850 -1650,3860 -1070,3760 -110,7780l-17800 50c-250,-1980 130,-2690 70,-3470l-1110 -3660c-2800,2520 -2060,4590 -2560,7600l-30450 -840 -1440 -3020c-310,-990 -320,-1800 -540,-2490 -700,-2180 550,-1650 -2150,-2570 -2130,1800 -1440,-1030 -1290,3390 40,1100 840,2670 1270,3910 -5480,300 -20580,-2210 -25620,-4400l-910 -9720 -3100 190c-870,4200 210,4420 190,7850 -20,5140 -2090,1120 640,4830 2940,4010 2430,7160 4330,12100 -4690,-310 -5190,-2550 -7620,1340 2420,3220 3620,1560 8520,1940 3750,8800 10160,29750 19560,33270 -1420,-5410 -6980,-9510 -8740,-14880l20010 1160c2090,2390 5250,12230 6150,15900l-12020 530c9910,2770 12330,-2420 18010,8440 -4350,540 -7950,-630 -9990,1560 5310,3580 72500,-2170 77120,-870l-22280 1860c-2210,50 -3190,320 -6180,860 -14890,2670 -41320,3050 -56240,770l-23730 -6280c-90,190 -200,500 -230,590l-240 1990c-1910,-3070 -1900,-4230 -4160,-6230 -8020,-7110 -30020,-19790 -32120,-39460 3080,2640 890,2600 3640,3560zm196180 -45200c2560,-3450 7650,-6430 11710,-8100 -3030,3710 -6810,6010 -11710,8100zm25030 -33090c-2060,11010 -9490,21620 -19900,25410 990,-2950 3120,-3650 4500,-5910 2160,-3520 -90,80 1040,-2610 1570,-3740 2080,-2030 7780,-6960 -740,-2070 -1230,-2340 -2470,-3470l9050 -6460zm-36350 -31210c1800,-930 3860,-2150 5700,-3140 1240,-660 1910,-1180 3360,-1390l4070 590c-3750,3150 -8290,3990 -13130,3940zm24820 -1190c-4330,-1060 -9240,-1130 -7310,-5720 16080,2590 21110,20650 19590,34830 -6230,-1160 -2410,-550 -4850,-4110 -3420,-5000 -1960,710 -1740,-6940l-4270 -1460c1830,-1910 1800,-1720 1230,-4230l-420 -4090c340,-6340 -840,1450 -2230,-8280zm-8760 51210c-2280,10160 -18920,4690 -23010,12000l14070 -110c-17760,7300 -9480,680 -23210,3730 -8330,1860 -15390,11070 -16880,4350 -80,-360 -220,-490 -400,-690 -3190,1510 -4450,2810 -8350,4240 -7630,2800 -4180,-590 -9390,-180 -3130,250 -670,950 -4110,680 -6840,-540 -3670,980 -7320,1710l-14410 1610c-9860,210 -390,-2170 -7970,-60 -4470,1240 -5190,3570 -10120,1150 -5150,-2530 -370,-1910 -4200,-5490 -6780,820 330,3520 -9250,3380l-33710 -2630c-20070,-710 -8990,-650 -19510,-4290 -6400,-2210 -11500,-2890 -16180,-8310 -21460,-24890 -13590,-55210 8540,-63930 -1700,3800 -1670,3030 -610,4500 2540,-2400 3440,-5450 6570,-7740 4910,-3600 6230,-1770 10340,-1890 1840,-50 12430,-5580 22670,-3970 14910,2350 30610,5060 45240,8370 6980,1570 15310,4240 21770,5380 7970,1410 16790,10 25060,1440 14920,2570 31010,-9770 43810,-12060 -2100,3560 -3840,3840 -7460,6050 -1690,1030 -2280,1200 -3820,2000 -3690,1910 -2080,-730 -3010,2580 3260,1360 2000,-1600 7180,1090l-9810 2320c4160,1290 1300,140 5480,400 7720,470 -530,1790 6880,1730 2880,-20 7270,-2620 11160,-2530 190,0 550,80 690,90l1300 360c-4130,2850 -9120,3050 -10970,7670 10470,-330 15560,-9860 20800,-5990 -4820,6680 -19220,5270 -22450,10500 5700,2700 15700,-5460 20200,-2780 -12080,6920 -16200,5020 -16870,10540 5540,-710 15730,-7690 20420,-5950 -3190,6600 -15470,4100 -19340,10460 6180,3090 17130,-8370 23480,-4690 -1590,5980 -18570,3010 -19280,11310 7540,2540 13960,-4200 20760,-5840 -4650,7230 -23560,9760 -25660,14620 2610,1970 7180,-1020 10910,-2490 2430,-950 8710,-3650 11140,-2600 -8020,4650 -22790,10070 -23540,13640 2870,1650 9050,-2750 12370,-3680zm-16300 -64880c-1230,2330 -590,2070 -3450,2430l3450 -2430zm3310 -19980l-3440 -2000 3210 -5930c490,-2000 -690,-820 250,-2570 3690,1000 1580,1810 3560,5710 2300,4530 3120,720 2130,8120 -1130,8490 -3570,8250 -6360,14600 -1600,-1530 -780,-850 -2240,-1610l-2510 -890c4060,-4640 1820,-3680 4740,-7530 530,-680 670,-300 1810,-2090 -1040,-2310 -510,-540 -3200,-2020l2050 -3790zm-9900 -14180c-3010,-6810 -1440,-2290 -3910,-5640 -2670,-3600 1980,-450 -1330,-5210 5700,-830 4440,700 8300,3410 3750,2640 4880,2020 5770,7050l-8830 390zm-146460 31270c-1990,-4540 -2070,-6180 -610,-10740 1240,-3870 730,-8160 2890,-10990 1230,-1620 1120,-1010 1980,-1820 3030,-2860 4020,-8710 12860,-12180 30500,-11990 34520,-4230 46740,-910l-5070 -4500c11880,-960 23870,12590 61500,4420 1130,-250 3800,-850 4890,-910 10870,-500 1410,1280 11510,-3100 -1360,3360 -1090,4130 -5360,6800 -3150,1970 -6650,2020 -8490,5040l1240 540c190,40 500,120 710,150 230,20 560,30 790,30 660,30 2050,-290 2770,-430l-320 5600c10390,860 12330,-4280 23360,-5700 -4310,4640 -13020,5860 -15550,9460 3120,2210 5630,1460 8110,2150 -2510,2500 -6460,3870 -8350,6430 4250,2390 5320,-1060 11140,-2350 -2770,3190 -6370,3860 -9190,6220 3830,2560 6680,-1290 11300,-2440 -4290,6310 -11900,2680 -14020,8910l12860 -3070c-12410,7950 -14570,620 -20110,15220 -8570,2560 -26730,6030 -35290,4020 -5950,-1400 1420,-1560 -15200,-3340l-31290 -6790c-10860,-3680 -19600,-5760 -31220,-4350 -8670,1050 -3110,-5090 -13990,-150l-590 -1220zm131380 -62130l3640 -3360 -3640 3360zm9750 -12690c710,4060 70,13880 -2440,16720 -1760,-2830 -630,-6030 1180,-9120l-2060 -3820 3320 -3780zm-9750 12690l-9210 10610 5670 -2680c-2280,1740 -2990,3770 -5720,4680 -2640,890 -12680,-1880 -20190,7460l-940 1230c-13340,330 -13650,-1530 -29500,-3130 -23290,-2350 -13020,-2080 -27460,-4850 -1120,-8220 -4000,-20200 370,-27870 3690,-6470 4790,-4120 7790,-6640 2050,-1720 4850,-5630 7410,-7900 5570,-4930 12300,-9430 17630,-14170 7380,-6570 6780,-1180 9410,-7050 2290,-5080 1160,-4990 5220,-9880 -860,-5780 -2180,740 -1400,-5620 2120,-17150 740,-6550 860,-22080 2710,1160 6280,4950 7880,7590 10940,18070 6860,19640 15000,28720 6750,7540 16030,22900 18360,25140 6520,6270 9970,6830 -100,21060 -6480,9160 -7320,2590 -10760,8770 3270,2040 5530,-760 9680,-3390zm28390 18370c-5950,-1280 -12350,-2120 -15920,-4580 4050,-13460 3400,-24380 -2790,-37580l-14640 -20110c-2300,-2440 -2870,-2120 -5270,-5270 -11690,-15300 -9940,-28220 -26980,-42840 -7860,-6740 -7970,-10670 -11410,-10480 -7690,420 7480,15450 3320,35280 -3980,18940 -9110,17110 -14390,19900 -2440,1290 -3810,3070 -5860,4690 -12320,9800 -14700,5710 -23720,21470 -3190,5580 -5980,9170 -6610,15850 -1160,12270 3120,17030 3360,18460 -7480,-2380 -13300,1200 -20400,2720 -5510,1180 -11460,7440 -14660,11320 -10290,12480 -11640,24510 -10480,39750 -6280,1940 -16620,9570 -22060,13800 -3870,3010 -14580,15990 -15480,18830 -2600,8130 -1190,21290 2590,28910 3350,6750 11840,9440 16800,17960 -8540,-920 -7050,-910 -15390,760 2310,-2880 3550,-1790 1750,-5020 -2780,-2240 -5080,4020 -7000,8120 -3760,8000 4610,18640 3780,31690 -310,4950 8380,27380 12190,31170 3170,3160 7220,7840 10820,10220 6160,4060 14590,15230 15300,17220 770,2140 4370,14690 4890,17260 3470,17150 -320,9680 6220,36120 6780,27420 7340,18980 11660,32720l13540 25400c850,840 950,650 1580,1290l910 1030c2260,2950 -90,2550 5340,5180 5550,2680 15730,3340 24480,5830l670 -3330c0,-250 0,-380 80,-550 10710,100 390,1730 18260,380 7300,-540 12270,-130 19330,-50 -3260,-2060 -3250,-300 -3040,-1620 6290,-460 10740,-2040 16770,-3430 1940,-450 5710,-1480 7400,-2350 4540,-2330 2360,-2080 2970,-4290 1600,-5740 17100,-17810 17500,-18250l-3820 -780c-2530,-110 100,-1010 -3410,470 1800,-3630 1590,-11900 3400,-17710l9220 -33460c1480,-6380 740,-11160 2930,-18420 2690,-8890 4250,-17610 9290,-24350 2970,-3970 860,-4470 2810,-7480 1750,-2700 11070,-5190 13370,-8860 2800,-4480 -3440,-810 1690,-7560 2150,-2830 3370,-2130 5270,-5170 10,310 -90,850 -60,990 360,1780 -110,360 740,1680 4510,-4220 4860,-6890 5980,-13440 760,-4470 1440,-1270 -520,-3760 -3610,10270 -2980,12230 -7140,11110 9530,-10010 6060,-20700 9430,-30100 730,-2040 570,-1250 1080,-1910 910,-1190 540,1650 1070,-910 60,-310 420,-240 600,-390 -5620,-10410 2050,-8420 510,-17600 -1030,-6090 -1130,-14990 -6360,-18510 -4550,1280 -1650,3670 -9600,5540 2390,-5520 15460,-23870 15410,-32710 -10,-2100 -920,-3810 -1170,-7450 -190,-2690 -70,-4720 -520,-7420 -1750,-10650 -17460,-32540 -34040,-27720 4080,-7240 5590,-18320 4650,-26600 -620,-5450 -700,-8090 -4080,-12530 -2400,-3160 -4280,-4340 -3150,-6860 2920,-6540 730,3980 1010,-1670z"/><path d="M173170 319830c-740,-4830 -3610,-9140 -5460,-13770 -1760,-4400 -1950,-10140 -5940,-11730 260,6060 6440,22720 11400,25500z"/><path d="M252630 466600c1480,-820 1850,-600 2600,-2850 1480,-4480 410,-1970 -630,-3570l-1970 6420z"/></g></svg>