<svg xmlns="http://www.w3.org/2000/svg" xmlns:xlink="http://www.w3.org/1999/xlink" xml:space="preserve" version="1.1" style="shape-rendering:geometricPrecision;text-rendering:geometricPrecision;image-rendering:optimizeQuality;" viewBox="0 0 50800 63500" x="0px" y="0px" fill-rule="evenodd" clip-rule="evenodd"><defs><style type="text/css">
   
    .fil0 {fill:black}
   
  </style></defs><g><path class="fil0" d="M29231 41942l284 -53c-130,83 -159,138 -284,53zm317 -462c248,-146 318,-226 663,-333 -160,188 -342,307 -663,333zm1944 -1295c66,-380 0,-332 379,-287l-379 287zm-284 -547c11,-44 220,-204 106,-8 -37,64 -137,141 -106,8zm80 -611c-43,33 111,113 -358,169 -227,27 -230,-13 -381,-67 20,-17 47,-75 58,-54 23,46 -10,-97 287,-128 242,-26 256,22 394,80zm776 428c107,-214 -56,-64 336,-307l147 -91c-73,-256 -16,-200 -180,-356 818,-296 362,-493 577,-666l625 -205c-145,640 -1231,1680 -1231,1680 -15,7 -46,19 -61,22l-213 -77zm2778 -1505c509,-295 707,-617 1534,-749 -195,256 -1265,688 -1534,749zm-1480 -519c920,-425 196,-254 806,-719 231,-176 99,67 216,-195 139,-312 -65,-82 79,-429 173,-418 362,-554 694,-635 -68,504 -1001,1982 -1495,2248l-300 -270zm1938 -2498c7,-233 -167,-17 87,-45l37 19c55,220 -125,56 -124,26zm-2104 -721c391,-70 671,-506 1064,-327 -250,217 -686,339 -1064,327zm3025 -1197c-68,390 -92,495 -311,720 -336,-109 -226,-29 -364,-411l675 -309zm-181 -416c208,-223 211,-421 509,-587 -48,351 -105,549 -309,766 -96,-90 -99,-89 -200,-179zm538 -1083c78,110 142,74 -8,266 -191,-256 -115,-99 8,-266zm-3082 596c443,-343 1255,-812 1911,-687 -331,389 -1391,640 -1911,687zm708 -1448c217,-82 125,-95 375,-227 476,-250 478,-36 521,-7 -254,254 -506,265 -896,234zm-14347 -910l-177 112 177 -112zm-1631 13822c-152,-216 -267,-432 -335,-786 -631,-100 -550,-64 -879,-546 -286,-419 -1608,-1201 -2075,-1511 -173,-115 -225,-189 -395,-326 -1612,-1292 -1287,-1343 -1996,-2290 -219,-291 -353,-347 -586,-739 -394,-661 -665,-1092 -1044,-1801 -815,-1524 -2012,-4598 -2093,-6319 847,21 2067,565 3042,747 2483,463 4106,537 6390,878l3298 313c1433,118 8398,-217 10000,-573 849,-189 2186,-420 3022,-519 -99,110 -14,59 -168,149l-2145 891c-457,136 -957,238 -1425,305 -1700,243 -1819,502 -4387,500 -1052,-1 -2168,-283 -3167,-175 329,271 1072,209 1492,270 1523,224 3311,89 4799,-153 1006,-163 1931,-327 2908,-509 918,-171 1831,-490 2778,-560 -280,308 -905,523 -1324,719 -492,230 -833,394 -1307,621 -1598,767 -2737,-114 -3013,490 394,178 877,67 1404,140 -1703,1426 -9287,1413 -10124,1769 2844,249 7322,-340 9985,-1404 1375,-549 3881,-1099 5355,-1433 -44,256 156,110 -254,287 -617,265 -616,79 -1123,503 -393,328 -2800,938 -3392,1044 -1072,190 -1680,-183 -1961,315 171,119 41,113 364,133 580,36 1891,-259 2438,-396 513,-129 2029,-713 2374,-532 -148,302 -132,218 -584,417 -234,103 -454,204 -695,318 -439,207 -898,440 -1308,619 -1169,510 -2816,-25 -3249,141 87,254 -62,269 796,327 380,26 735,1 1117,34 -1100,932 -3877,813 -4901,1268 1341,113 3847,-530 4965,-1011 897,-387 1389,-400 2390,-628 410,-92 797,-177 1231,-277 307,-70 752,-249 988,-322 -367,147 -541,266 -1035,395l5 410c-379,-47 -813,-28 -1246,162 -537,236 -452,528 -2250,985 -248,63 -400,97 -663,140l-572 207c2129,17 2693,-799 4266,-1255 549,330 188,111 883,162 -276,263 -238,203 -663,384 -288,122 -156,68 -303,194 -253,217 -703,363 -1147,482 -598,161 -137,197 -663,324 -330,80 -3466,513 -3508,541l1586 63c-573,327 -4515,864 -4900,859 1702,89 2929,-267 4488,-529 1822,-307 3263,-1016 4077,-1031 -244,298 -343,281 -824,375l-84 486c-614,183 -3228,614 -3488,823 782,159 2289,-407 3210,-368 -369,344 -601,196 -558,749 -733,61 -3724,556 -4218,803 828,153 1834,-424 2503,-99 -1353,770 -6746,522 -8364,973 935,49 1947,69 2851,1l2523 -188c-485,52 -249,109 -357,286 1096,-50 2424,-325 3694,-406 57,515 124,432 -502,690 -859,353 -2315,130 -3056,688 772,71 1668,-239 2510,-277 -153,318 -17,195 -364,416 -297,188 -52,106 -480,167 -365,52 -748,70 -1140,111 -557,59 -1757,142 -2143,391l1804 99c2,-12 12,34 28,102l1222 -249c18,19 41,47 51,60l247 354c-325,238 -350,66 -607,411 -178,239 -150,398 -481,545 -515,229 -982,96 -1361,518 321,153 1011,-141 1447,-202 -251,1025 -1254,169 -2320,785 -491,-363 -1111,31 -1628,177 -903,256 -3256,332 -4078,-123 -457,-253 -350,-157 -801,-326l-584 -342c-8,-34 -35,-39 -52,-60 194,-72 188,-118 452,-29 351,119 -119,20 376,185 -229,-601 -411,-308 -989,-407zm14694 -14077c-114,301 -56,350 -355,130l355 -130zm4101 62c27,375 -8,73 -101,193 -89,-286 -100,-152 7,-378 104,131 77,-54 94,185zm-36 -672c135,483 16,153 -44,255 -121,-238 -79,-95 44,-255zm-17128 865c199,-182 391,-379 676,-544 349,-201 379,-249 658,-460 487,-369 907,-582 1570,-768 -236,145 -547,265 -763,456 -140,122 -9,20 -143,161 -59,62 21,4 -156,155 -116,99 -157,116 -292,224 -375,300 -427,187 -1009,524l-541 252zm2904 -1772c161,-250 111,-297 459,-244 -129,85 -267,163 -459,244zm-2301 2281c98,-469 722,-749 1049,-1074 1262,-1253 2743,-1694 4634,-1636 970,30 4789,401 5744,721 404,136 1110,401 1281,781 -604,620 -885,100 -1138,688 260,313 -100,28 468,236l153 86c-1006,398 -6512,755 -8022,827 -2738,130 -5787,-123 -8472,-453 -78,-205 -30,-175 -299,-335 -490,359 -341,270 -1030,157 -404,-67 -676,-123 -1055,-203 164,-225 -83,-56 322,-274 838,-451 291,-310 780,-540 461,-216 825,-238 1100,-599 -769,-3 -2040,960 -2567,1346 -326,-50 -273,-67 -542,-151 -503,-158 -1312,-9 -1716,-521 819,-250 297,-237 839,-181 384,40 345,36 845,43l-13 -282c533,-99 324,-256 705,-110 -416,469 -671,118 -862,857 1485,-465 498,-814 4154,-1392 1463,-232 3279,-662 4920,-510 -355,365 -1170,767 -1633,1124 -477,369 -1201,697 -1021,1520 237,58 486,75 753,-131 319,-247 23,-269 587,-474 -231,274 -278,252 -237,656 522,112 964,141 1375,-36l-372 -207c776,-696 1633,-1427 2599,-1976 301,-171 748,-213 975,-390 -247,-159 -372,-80 -604,51 -290,164 -266,196 -589,334 -1679,718 -2201,2019 -3111,2048zm17291 -390c408,-665 2993,-2220 4339,-1974 -105,326 19,36 -234,339 754,32 1497,-392 1755,-261 -229,245 60,52 -518,285 -353,142 -229,52 -391,307 331,235 498,-10 956,-121 951,-233 465,-379 831,-143 -458,543 -1468,-98 -1512,1006l471 94c245,376 47,-10 218,214 168,220 -1,192 133,376l184 141c-379,223 -242,200 -334,716 411,-15 870,-335 997,-744 169,-542 -167,-574 -61,-1006 93,-380 53,-150 133,-268 253,413 352,1278 141,1810 -209,526 -719,417 -1238,707l2 506 588 224c-123,94 44,-4 -185,113 -559,287 -491,134 -574,436 -61,219 -4,201 -383,354l82 479c-593,237 -1005,263 -1316,707 193,379 -76,16 360,294 -495,311 -378,-221 -955,208 58,265 207,354 210,347 7,-17 36,32 52,51 -352,174 -252,219 -768,168 -91,452 -21,424 -476,535 -512,124 -210,-49 -522,395l-507 -152c-834,628 -400,-160 -846,806l-619 -288c58,349 76,162 73,457 -872,251 -453,103 -1209,-47 -472,-94 -774,185 -1177,216 288,-336 917,-500 1104,-840 -600,99 -1027,388 -1389,704 -776,679 -63,403 -960,1180 53,207 91,235 180,414 -384,190 -516,428 -1161,487 415,-900 1078,-1434 1576,-2254 1155,-1903 1723,-4147 2446,-4973 227,-259 1859,-1126 2406,-1253 1065,-248 2538,-415 2398,987 -137,1374 -3977,3491 -5212,3920 -450,157 -972,321 -1074,722 211,-10 1404,-504 1750,-639 593,-232 1005,-537 1512,-822 1302,-730 3711,-2025 3362,-3754 -156,-778 -814,-931 -1487,-914 -2282,57 -2534,892 -3528,1169 110,-386 502,-584 1084,-871 433,-214 802,-329 1275,-548 -60,-236 61,-67 -235,-215 395,-85 363,-38 567,-235 -398,-249 -1041,161 -1409,272 288,-293 396,-387 843,-590 149,-68 332,-149 503,-203l428 -185c-766,-459 -2081,1028 -2679,1154zm-28492 -985c94,-711 1884,-1057 2704,-1336 800,-273 4185,-845 5105,-907 672,-45 1226,-46 1883,-146 1073,-164 2554,-245 3641,-262 1321,-19 2551,186 3783,172 2147,-23 2854,241 3873,264 1576,35 2231,431 3575,648 732,119 998,209 1672,408 662,195 899,264 1193,797 -112,236 -58,234 -597,569l-1571 664c-408,74 -492,-77 -842,-198 37,-837 -216,-1016 -954,-1288 -738,-272 -851,-325 -1676,-484 -4380,-842 -4165,-470 -7967,-424 -697,8 -1387,41 -2046,54 -682,13 -1416,127 -2047,90 -164,-455 35,-104 -15,-593 -426,22 -296,183 -378,451 -77,250 5,72 -137,271 -678,18 -802,125 -1422,257l-210 -349c-212,-210 21,-59 -355,-122l185 503 -442 107 -257 -351c-133,-138 -164,-116 -391,-179 37,338 133,362 80,579l-457 88c-233,-199 -259,-330 -560,-433l-119 152c165,312 -18,107 387,292 -69,59 -74,72 -187,141 -139,85 124,-27 -139,45 -2,-3 -377,-734 -813,-189 290,190 235,72 627,201 -232,247 -240,172 -671,328 -500,-673 -1040,-308 -1119,-283 -1833,579 -2173,-114 -2360,589 83,37 61,26 188,42 304,40 284,-35 563,308 -361,-1 -1487,-306 -1727,-476zm-780 83c-196,1822 1996,6947 3373,8810l650 875c242,422 383,603 638,892 380,431 1061,1087 1609,1462 3618,2473 1943,1741 2922,3292 998,35 668,67 1468,322 277,89 324,139 547,268l1278 389c365,-15 481,-39 867,-9 1818,144 6018,-362 7353,-1215 36,-396 -13,-879 216,-1145 779,-906 126,-247 489,-846 179,-296 449,-303 696,-623 338,-440 2089,-1775 2109,-1779 1144,-235 2558,-1077 3552,-1714 544,-349 1237,-494 1879,-755 1472,-599 2432,-1046 3516,-1860 2014,-1513 4402,-4089 3410,-6824 -550,-1517 -2991,-957 -4052,-770 -1190,209 -1799,622 -2741,1216 -307,192 -504,409 -819,599 -39,-1225 120,-204 -426,-1269 -544,-1062 -2795,-1162 -4118,-1472 -2073,-486 -3755,-756 -5999,-725 -902,13 -1172,-41 -2044,-130 -1406,-142 -4658,190 -6036,286 -692,47 -1266,107 -1948,136 -637,28 -1285,227 -1955,285 -1163,101 -4988,985 -5851,1824 -180,175 -65,116 -240,263 -154,130 -136,47 -343,217z"/><path class="fil0" d="M24979 7515c-162,-535 -544,-461 -718,-1066 376,162 206,169 636,348 529,221 555,268 969,1459 303,872 296,2045 84,2960 -796,3440 -1380,2582 -2273,4344 -605,-74 -818,-248 -1125,-552 -314,-312 -372,-770 -684,-977 -122,232 -45,404 89,639 133,234 212,345 394,530 164,169 323,300 522,394l541 210c14,-23 54,21 79,36 -165,548 -456,867 -720,1373 -269,514 -369,792 -605,1355 -704,-154 -786,-1029 -1537,-1186 95,511 1097,1259 1452,1593l-75 1032c-631,-406 -696,-1014 -1086,-1290l-308 222c115,484 143,96 639,800 451,640 199,306 766,663l64 918c-647,-155 -1582,-1833 -1648,-2896 -138,-2216 98,-2010 781,-3600 103,101 61,57 158,197 360,520 720,1564 1430,1587 -80,-232 -564,-677 -743,-933 -288,-413 -234,-597 -602,-924l-124 -87c689,-1448 1253,-1853 1872,-2964 1017,-1824 880,-2035 1110,-3670 455,169 515,738 1115,879 -111,-356 -450,-507 -656,-811l-460 -918c589,173 -162,320 663,335zm-171 -1071c-436,-238 -241,-275 -623,-567 -398,-304 -174,-92 -427,-636 600,291 880,569 1050,1203zm-1219 -1900c-316,-27 -246,-78 -401,-442l401 442zm-991 17290c-53,-640 -182,198 -304,-1288 -169,-2054 535,-2707 1149,-3886 1513,-2899 1699,-1749 2511,-4375 410,-1324 677,-3069 103,-4412 -188,-438 -170,-637 -343,-866 -673,-886 332,12 -636,-1295l-1549 -1914c-243,-210 -272,-205 -552,-237 -193,-22 7,57 -213,-43 -170,-78 -71,-96 -292,-129 -125,532 227,676 480,1055 203,305 357,716 560,1059 592,1002 459,1430 508,2713 61,1637 -1239,3680 -1993,4652 -550,709 -760,1327 -1219,2071 -923,1495 -993,3859 -48,5369 245,390 421,563 721,909 276,319 561,582 1117,617z"/><path class="fil0" d="M13715 22047c111,566 228,152 403,753 -360,-212 -682,-526 -791,-977l388 224zm0 0c-3,-562 -161,-444 -562,-732 -52,-616 202,-1508 510,-1927l291 319c347,515 372,347 852,732l-469 691c-253,-114 -267,-149 -428,-379 -313,-448 2,-270 -520,-398 193,666 361,394 885,1094l-136 742c-287,-70 -60,-84 -423,-142zm2335 -3512c-132,-401 51,-43 -262,-378 -240,-258 -642,-639 -603,-1056l410 -1860c434,118 354,207 900,227 140,664 215,517 187,1342 -534,-305 -545,-669 -668,-865 -150,-238 30,-105 -218,-220 -308,753 824,1112 825,1647 -635,40 -558,-464 -947,-820 -64,96 -152,166 -44,444 91,233 426,508 608,625l313 198c-193,936 -994,1953 -1575,2228 -134,28 -1736,-399 -674,-1739 405,171 733,897 1280,612 -207,-219 -471,-263 -741,-565 -323,-360 -226,-413 -45,-810 655,317 576,842 1254,990zm-471 -4167c503,68 605,384 750,821 -266,-61 -432,-143 -593,-286 -171,-152 -190,-231 -157,-535zm-560 9279c-168,-704 -154,-107 -468,-523 -102,-136 -164,-546 -165,-756 -9,-1848 1522,-2211 2127,-3656 1422,-3399 -822,-4929 -1098,-5591l-627 -99c-178,617 404,543 429,1386 21,723 34,1171 -103,1903 -99,528 -429,924 -692,1254l-1484 2534c-639,2058 1401,3652 2081,3548z"/><path class="fil0" d="M28401 22310c-254,-784 -263,-1816 372,-2233 357,555 240,735 576,1138l110 122c12,15 37,43 55,66l-436 1606c-328,-251 -201,-331 -298,-909 254,-174 -334,-222 354,-94 -56,-407 -81,-377 -193,-708 -132,-390 -23,-389 -282,-617 -234,272 -222,1015 -197,1274l20 157c-14,210 -14,89 -81,198zm590 -2556c267,-395 361,-559 628,-717 287,266 89,350 672,1260 -125,359 -378,626 -620,824 -267,-255 -518,-967 -680,-1367zm2163 -1566c180,360 99,373 549,436 -105,-543 -923,-1045 -658,-1942 482,-1629 213,-1162 251,-1977 9,-192 30,-114 67,-180 311,288 184,431 391,697 263,339 334,100 514,507 200,452 168,1342 63,1873 -190,960 -1166,2180 -1815,2394 -466,-279 -437,-674 -575,-1263 425,-405 516,-490 821,-1072 240,196 220,181 392,527zm-1155 5373c-46,-696 -681,120 -473,-1242 143,-937 1229,-1956 1897,-2524 229,-195 210,-254 401,-522 486,-687 955,-1613 905,-2704 -69,-1486 -829,-1696 -959,-2545 -978,72 -720,-619 -1359,-630 -50,473 7,235 249,574 553,777 289,1794 87,2610 -388,1567 -712,1515 -1629,2475 -539,565 -1549,1463 -1258,2772 169,757 420,826 828,1210 334,315 538,845 1311,526z"/><path class="fil0" d="M22650 30364c99,-327 -2,-236 327,-476l1382 -808c-243,153 -171,110 -352,297l-375 367c-381,518 -5,624 -982,620zm1161 -368c282,-576 1653,-1438 2462,-1626 -187,302 -836,755 -1123,974 -458,349 -646,476 -1339,652zm628 384c275,-370 -46,-193 682,-647 1594,-993 459,-653 1413,-1137 504,-256 580,-144 823,-397 -956,-609 -2136,4 -2854,465 -999,640 -2151,1126 -2126,1887 728,211 470,-185 2062,-171z"/><path class="fil0" d="M15774 29037c259,677 133,69 -92,619 275,175 309,193 585,189 34,-41 140,-144 182,-185 -69,-315 177,-57 -227,-269 439,-356 659,-582 1310,-846l67 190c121,198 -294,-152 128,145l690 -418c-1060,-536 -414,-211 -1601,76 -499,121 -469,236 -753,395 -206,114 -37,57 -289,104z"/><path class="fil0" d="M25816 30104c1689,-1695 1945,-1367 2386,-1742 281,-238 100,11 231,-391 -936,76 -2904,1993 -2944,2411 323,51 471,15 678,-118l-351 -160z"/><path class="fil0" d="M27198 30162c248,121 500,127 809,-15 229,-105 103,-32 261,-207l-932 115c97,-434 741,-760 1139,-995 1045,-617 561,-330 1326,-575 183,-59 154,-58 250,-119 -597,-279 -1953,628 -2472,1014l-450 484c-124,505 3,182 69,298z"/><path class="fil0" d="M32086 16811c7,-29 30,-30 42,-48 -162,-213 -450,-546 -388,-917 -34,15 -74,34 -99,49l-343 219c9,557 245,1534 838,1576l-337 -526 187 -245c204,-246 16,227 100,-108z"/><path class="fil0" d="M28725 29254l433 -103c277,-175 298,-169 668,-220 -335,626 -461,161 -481,839 1012,-330 -538,262 833,-703 329,-231 168,83 245,-385 -540,-338 -1142,205 -1698,572z"/><path class="fil0" d="M25510 12405c-116,-432 -812,-1076 -1185,-1780 -10,-20 -19,-50 -30,-69l-191 -220c-313,481 449,1031 852,1682 173,280 168,311 554,387z"/><path class="fil0" d="M25075 13118c-145,-427 -220,-64 -986,-1171 -199,-288 -100,-278 -443,-411 17,518 274,699 540,1017 217,259 442,736 889,565z"/><path class="fil0" d="M24001 14830c-144,-448 -733,-543 -1127,-1224 -194,-337 -36,-321 -371,-487 -11,25 -280,-12 81,556 127,200 213,288 366,456 307,336 576,605 1051,699z"/><path class="fil0" d="M24539 13391c-440,-158 -475,-33 -815,-395 -304,-323 -254,-503 -589,-652 -134,326 282,758 485,947 118,110 316,267 495,334 382,141 355,-32 424,-234z"/><path class="fil0" d="M22199 17649c0,-1 -1241,-1483 -1489,-1535 14,354 1012,1730 1489,1535z"/><path class="fil0" d="M25726 10919c-223,-644 -651,-684 -991,-1086 -235,-277 18,-194 -403,-301 -11,602 1151,1339 1394,1387z"/><path class="fil0" d="M25665 10059c-57,-330 -540,-1278 -1000,-1333 19,385 175,470 386,706 317,356 188,446 614,627z"/><path class="fil0" d="M29352 19686c-7,-41 -35,-46 -54,-68 -35,50 -191,-47 -105,415 7,36 210,692 742,616 91,-491 12,-126 -316,-496l-267 -467z"/><path class="fil0" d="M19358 28095c289,228 344,41 630,312l924 -353c-173,-147 313,-125 -281,-115l-1273 156z"/><path class="fil0" d="M31244 19292c-41,-147 -451,-876 -585,-1000 -374,420 222,933 585,1000z"/><path class="fil0" d="M17656 27604c0,0 262,-11 121,-316 -116,-250 -61,-94 -288,-114 -86,491 -113,246 167,430z"/><path class="fil0" d="M31827 29081c376,44 395,4 640,-145 -10,-5 45,-318 -640,145z"/><path class="fil0" d="M31118 29619c97,73 -20,127 482,87l-176 -110c-332,-201 -166,-80 -306,23z"/><path class="fil0" d="M20908 36282l-376 44c114,90 -33,77 188,95 409,34 94,-22 188,-139z"/><path class="fil0" d="M17399 29058c-1,-25 11,-91 2,-73l-109 -114c-19,-13 -74,-24 -109,-41 157,349 -163,10 81,183l135 45z"/></g><text x="0" y="50815" fill="#000000" font-size="5px" font-weight="bold" font-family="'Helvetica Neue', Helvetica, Arial-Unicode, Arial, Sans-serif">Created by Alex Muravev</text><text x="0" y="50820" fill="#000000" font-size="5px" font-weight="bold" font-family="'Helvetica Neue', Helvetica, Arial-Unicode, Arial, Sans-serif">from the Noun Project</text></svg>