<svg xmlns="http://www.w3.org/2000/svg" xmlns:xlink="http://www.w3.org/1999/xlink" xml:space="preserve" version="1.1" style="shape-rendering:geometricPrecision;text-rendering:geometricPrecision;image-rendering:optimizeQuality;" viewBox="0 0 50800 63500" x="0px" y="0px" fill-rule="evenodd" clip-rule="evenodd"><g><path d="M39418 42344c-257,-120 -382,-247 -504,-487 183,-192 397,-353 656,-395l345 385 -497 497zm-14400 -1148c199,94 558,636 789,852 388,361 443,-27 552,549 36,193 33,103 130,317 -646,50 -615,138 -1062,-407 -218,-266 -390,-966 -409,-1311zm22262 -428c228,-202 462,-50 515,157l-515 -157zm-20533 -48l124 141 -124 -141zm19668 4c96,-179 110,-167 349,-199 -110,217 -120,184 -349,199zm-133 -436c-37,-315 -10,-385 273,-511 211,170 206,139 232,376 -190,208 -216,217 -505,135zm-3485 211l-310 -388c176,-245 356,-318 615,-411l302 378 -607 421zm-12433 -730c282,-199 673,-374 965,-610 299,-241 487,-583 771,-847 1870,98 1303,224 1753,1307 297,717 327,776 819,1354 -357,343 -1267,1517 -1601,1674 -353,-49 -489,-243 -941,-333 -417,-82 -839,-49 -1161,-123 -332,-374 -394,-1838 -605,-2422zm13012 -219l688 -131 115 458c-303,98 -270,134 -587,119l-216 -446zm-8137 591c-173,-412 317,-751 640,-873 -3,445 -275,641 -640,873zm7063 -367l-169 -229c133,-264 494,-413 781,-398 157,411 -300,615 -612,627zm-30834 -425c385,-195 266,-195 612,-55l288 148c-30,475 -193,512 -658,622l-242 -715zm25715 167c74,-203 112,-238 342,-274 -79,243 -93,219 -342,274zm8650 -391c372,-6 357,76 513,421 -467,4 -357,-7 -513,-421zm-18257 -35c412,30 194,-49 474,238 157,162 177,117 253,328 -297,-225 -564,-282 -727,-566zm-599 51c208,16 1024,556 1270,706l-211 390c206,177 346,347 616,376 15,21 32,28 39,64l103 185c9,16 25,43 32,56 8,13 20,37 33,54 360,-187 243,-392 885,-621l97 509 -1348 694c-140,-893 -310,-1238 -1104,-1584l76 -512 -488 -317zm17728 293c44,-649 827,-1544 1113,-484 -438,25 -193,-63 -544,-234 -164,351 79,134 -212,441 -91,96 -242,197 -357,277zm-5118 -574l-133 -402c273,-108 252,-203 450,-146l58 385c-212,174 -145,151 -375,163zm-5511 -376c177,-192 256,-210 513,-269 174,277 400,1327 238,1634 -316,-64 -256,-289 -415,-627 -122,-259 -285,-470 -336,-738zm-10357 -26c790,155 1338,733 1987,926 -111,-334 -84,-183 -274,-411 489,331 567,180 1098,433l-42 766c-908,-132 -2588,-1423 -2769,-1714zm12087 433c-182,212 -393,461 -645,545 -273,-532 -129,-1256 464,-1426 175,166 164,178 181,881zm260 -347c60,-274 328,-556 591,-677 12,289 -298,620 -591,677zm3212 -332c-192,-351 222,-527 492,-492 116,386 -176,525 -492,492zm-16970 -332c176,-369 715,-392 822,130l-822 -130zm-11366 228c374,153 550,4 905,-156l106 284c-279,44 -522,31 -636,238 245,163 324,64 625,-6 372,336 252,144 478,337l-121 321c-205,-90 -75,16 -163,-114l-113 -238c-394,72 -516,194 -804,419l-764 -281c28,-414 154,-790 -319,-793l-31 703 -561 124c228,623 725,104 955,577 7,14 19,41 25,54l51 100c592,-36 395,-83 606,-209l98 673c-1047,150 -39,274 -1515,662l-74 -1034c231,-255 192,-97 245,-417 -714,-18 -750,226 -1248,314l143 -623 -397 -287c292,-223 676,-198 996,-372 262,-143 495,-400 733,-578l412 126c504,-236 635,-462 1224,-540 -88,810 -499,280 -856,716zm29023 -588c229,-212 184,-179 487,-161l90 392c-426,37 -381,137 -577,-231zm-17163 -302c373,61 330,31 395,333 -324,-91 -288,-45 -395,-333zm12143 1071l-43 -375c883,-439 812,-965 1281,-795 -205,527 -361,152 -673,516 -205,239 -301,408 -565,654zm-24742 -746l94 -375c277,-80 309,-88 508,45 -127,234 -334,259 -602,330zm33176 -213c185,-276 325,-478 607,-638l312 347c-254,278 -511,336 -919,291zm-23866 -278c276,-349 420,-210 575,112l-575 -112zm-12134 -112l17 -196c308,-32 347,65 481,328 -304,-18 -288,33 -498,-132zm3869 -18c39,-440 284,-440 694,-466 11,311 48,229 -60,455 -262,97 -339,73 -634,11zm31311 105c105,-272 109,-334 374,-377 -44,302 -82,356 -374,377zm-35120 1612l534 37c306,376 -151,138 344,370 -198,166 -208,47 -272,288 277,54 275,-61 477,46 -204,236 -347,217 -542,549 178,505 26,913 475,857l-30 -740c181,-157 262,-270 633,-247 395,25 195,22 309,130 -311,230 -404,-10 -548,322 236,115 292,-24 610,-57l206 701c-350,-124 -79,-174 -584,-106 -58,118 -16,20 -48,157 -36,157 87,-33 -40,146 -725,24 -1492,43 -2146,-856 -227,-313 -1038,-1670 -1042,-1970 336,103 1033,488 1237,11 -409,-9 -631,56 -1018,-105 -327,-137 -584,-144 -752,-377 -172,-240 -225,-524 -335,-789 -211,-509 -164,-385 62,-839 306,321 409,667 808,730 425,67 616,737 2072,563 286,-35 454,-155 721,-182 330,-33 441,4 791,-86 267,-70 410,-127 693,-111 3,1315 -2215,1296 -2589,1355l-26 203zm1561 -1932l-23 -375c216,54 258,108 341,268l-318 107zm11167 10l583 -331c-84,238 -356,619 -583,331zm-7966 81l9 -377c275,-66 389,-49 625,55 -177,221 -345,306 -634,322zm9407 -583c-94,317 12,265 -333,254 110,-247 76,-171 333,-254zm21364 163c185,-260 162,-288 451,-439l260 394c-358,89 -383,236 -711,45zm-20512 -143c170,-84 -12,-129 238,0 -261,187 -81,103 -238,0zm-9812 -30l443 -344 44 441 -487 -97zm11842 -130c3,-79 118,-118 83,-10 -40,126 -83,26 -83,10zm636 -80c145,-327 402,-232 613,0 -151,334 -349,198 -613,0zm-2983 -28c1,-33 181,-164 118,17 -59,173 -118,5 -118,-17zm-7721 516l505 -167c141,465 207,354 140,803 25,9 94,34 107,43 94,60 90,61 151,115l8 570 -275 150c-71,34 -190,94 -250,139 -239,178 -164,247 -376,454 -92,-120 -23,-6 -104,-174 -31,-64 -22,-69 -73,-169 -42,-82 -101,-160 -145,-247 -248,84 -120,-126 -288,201 -60,116 -12,166 -116,363 -341,177 -283,-25 -506,241 260,157 230,85 569,79l-646 292c-130,89 -46,32 -121,127 -188,241 151,64 -176,198l-63 -895c895,-291 838,-163 990,-716l336 -61c19,-10 37,-25 54,-36 18,-12 36,-31 51,-43l552 116c220,-146 399,-261 466,-472 -328,-14 -753,-69 -1058,20 -536,157 -314,-61 -559,-325 -286,-39 -532,106 -672,351l341 295c-157,425 -386,457 -810,479l-15 -559 -379 -285c212,-180 446,-242 695,-402 243,-156 383,-341 614,-509 383,-280 1002,-748 1459,-796 19,687 -314,233 -406,820zm-8796 -501c-4,-80 89,-47 74,20 -26,107 -70,71 -74,-20zm9682 -387c433,151 245,120 690,117l105 999c477,-108 117,-223 689,-104 437,91 417,-62 514,350l-544 183c-154,357 -388,473 -801,536l-214 -556c358,-132 282,-6 286,-316l-555 -80 -170 -1129zm27177 628c137,-268 265,-427 546,-470 -40,350 -165,621 -546,470zm-3189 -706c339,33 392,90 428,391l-330 114 -98 -505zm-5958 778c-64,-369 33,-678 413,-741 282,345 -71,718 -413,741zm-10369 -437c179,-77 200,-23 354,112l-354 -112zm-9638 293l-22 -374 526 5c-51,257 -248,354 -504,369zm13477 -248l-478 10c15,-497 299,-367 537,-610l-59 600zm-3375 -366c216,67 127,-123 139,200 -240,-105 -120,53 -139,-200zm18498 420c67,-299 235,-515 557,-463 -116,238 -271,435 -557,463zm-17275 -485l206 92c-334,-25 -109,-15 -206,-92zm-9348 123l-132 -113c155,2 69,-45 132,113zm25889 770c3,-278 562,-1074 836,-1142 -45,302 -211,383 -358,630 -245,413 -31,581 -478,512zm-4213 -1332c234,386 47,450 -321,499 -110,-375 -106,-488 321,-499zm-10995 698l-469 -178c262,-224 420,-405 759,-393 48,242 -98,423 -290,571zm-13838 -470c1,-15 120,-166 67,7 -34,112 -68,24 -67,-7zm28879 193l163 -254 -163 254zm-12786 120l264 -440c448,-68 420,131 749,175l330 -424 192 304 -1537 1038 -649 -144c15,-302 59,-294 229,-490 -175,-439 -66,-779 430,-637 -71,517 -210,384 -8,618zm-13621 -283c200,-180 -5,-86 281,-84 -32,38 -52,91 -115,112 -299,102 -117,7 -166,-28zm21166 60c16,-319 -60,-177 165,-398l224 145c-118,248 -127,210 -389,253zm-2669 276c-35,-203 -173,-525 -9,-630 155,-99 547,22 759,43 -391,223 -144,-71 -364,277 -167,263 -80,207 -386,310zm-8167 -427l839 -235c-307,327 -450,553 -839,235zm1515 -283l208 -83 -208 83zm-19006 250c-193,-290 -151,-382 63,-620 205,82 267,61 237,304 -30,243 -150,294 -300,316zm21490 -622l407 137 -206 365 -404 -178 203 -324zm7472 26l265 197 -313 195 -142 -208 190 -184zm-8241 58c189,-101 119,-131 266,81 -185,89 -143,69 -266,-81zm-12390 -149c-47,280 64,167 -227,241 80,-333 -17,-182 227,-241zm-10202 786c290,-60 330,-142 569,-298l460 338 129 -316 545 440c-67,262 -171,364 -86,561 129,-211 -10,-203 237,-419 481,654 735,503 1063,422 -4,-277 36,-319 -197,-405 -177,-67 64,42 -162,-38 -10,-3 -32,-15 -41,-18l-344 193c-89,-203 130,-520 323,-690 355,95 398,278 738,360 129,32 357,57 486,94 678,196 -305,358 866,198 -254,-592 -135,-144 -5,-733 -459,27 -344,84 -639,308 -217,-226 -286,-584 -334,-894 232,124 234,207 436,320 606,339 561,-178 722,488 90,369 162,642 -116,1114 -328,-8 -265,-131 -628,21 -250,-262 -341,-450 -722,-521 -436,307 -285,752 -498,1074l-223 -136c98,-396 93,-45 235,-404 -586,-38 -607,-184 -1145,-266 -89,226 -370,760 -573,829 -99,-135 -187,-69 -62,-420l53 -105c206,-530 -31,384 32,-117l-407 -147c-210,-475 -11,-583 -152,-799 -292,126 -242,260 -393,435l-167 -469zm9656 -236l-929 -133c97,476 51,367 -41,778l-839 -129c-13,-6 -35,-23 -52,-36 508,-481 1331,-893 1929,-1238 39,83 66,50 65,203l-133 555zm17969 -1119l880 -229c434,424 344,740 1068,861 -214,2652 145,1804 -1345,3089 -365,314 -380,213 -834,140 -528,-86 -621,70 -1121,48 135,-445 350,-528 340,-1101 -9,-515 -206,-851 -232,-1190l684 -321c729,793 -147,1113 -223,1490l607 -494 157 351c-207,278 -288,252 -400,585 599,-157 772,-797 1221,-977 366,571 -488,549 -635,1130 414,-31 455,-272 755,-545 222,-202 590,-371 682,-671 -363,6 -232,64 -560,177 -46,-751 21,-116 251,-578 -413,-295 -503,169 -577,-663 356,-56 619,-88 637,-456l-1370 -67 15 -579zm-26203 589c-138,-288 -13,-206 30,-269 76,154 129,-44 -30,269zm1010 -334l670 -94 179 847c-187,-62 -317,-147 -482,-271 -464,-350 -355,-463 -367,-482zm-1949 -33c420,22 391,-5 295,461 -250,-260 -176,-147 -295,-461zm9529 29l259 -169c15,304 58,128 -71,282l-188 -113zm-1745 150l62 -452c397,245 189,326 -62,452zm16438 -370c69,49 167,-39 37,159l-37 -159zm-14203 455l59 -476 508 -222 92 378c-210,158 -392,271 -659,320zm-6560 -708c213,89 55,-130 170,200 25,70 62,279 77,356 -264,-139 -482,-291 -247,-556zm25794 -5l128 275 -549 60c87,-236 165,-265 421,-335zm-4268 173l563 141 -111 401c443,-88 595,-401 972,-468 220,1348 -331,944 -1181,1345 -14,264 242,564 273,1119 95,1740 142,1497 -734,2195 -378,300 -372,426 -608,822l-1504 194 -80 -584c354,-9 205,58 319,-137l-525 -175c-33,-556 97,-1489 -439,-1765 -146,214 -114,304 -174,576 -471,-41 -974,221 -1112,655 470,-34 567,-501 1164,-547l168 1116c-672,22 -3942,-430 -4574,-630 649,-353 271,-978 97,-1402 572,87 921,493 1545,628 -82,-292 -444,-358 -718,-602 235,30 514,53 730,128 248,85 569,432 1267,12 146,-88 269,-308 483,-449 834,741 1870,475 2729,-115 359,-246 388,-471 743,-169 -180,492 -955,480 -958,1111 276,-26 392,-319 702,-536l713 -401c142,-60 67,-16 158,-88 -376,-580 -72,-240 -317,-874 -219,-569 -456,-212 -374,-786l429 -62c-65,-339 -164,-22 -80,-392l666 45c-51,-171 -99,-228 -232,-306zm-26666 -43c107,440 -16,186 -70,245 -133,-143 -340,-257 70,-245zm12510 144c56,-260 22,-140 172,-193l-172 193zm13553 -292c247,-177 153,-21 186,0 -86,54 20,155 -186,0zm1242 -436c277,52 539,164 737,355 -287,417 -737,351 -1103,58 60,-193 195,-286 366,-413zm-8189 336c68,-400 -10,-144 169,-181 189,-40 94,-13 289,-87 307,196 350,158 446,486 -196,-21 -297,-35 -476,-78 -1,-1 -191,-48 -197,-49l-231 -91zm-12471 -61l433 317 -243 256c-255,-260 -36,-160 -190,-573zm1793 40c123,-124 -21,-225 198,-40l-198 40zm21557 -120c149,-105 22,-31 197,-99l447 -183c291,402 -193,770 -644,282zm-17370 -18c254,-54 175,11 256,185 -444,-86 -196,-43 -256,-185zm-6848 -147l312 -209c26,44 45,50 49,85l115 531c-364,-102 -335,-147 -476,-407zm-1962 74c-1,-32 111,-126 77,8 -28,110 -74,45 -77,-8zm13754 -53c239,76 233,72 341,291l-341 -291zm4339 -177c264,-247 807,-607 1136,-638 273,251 483,687 518,1058 -366,70 -213,5 -483,-66 -326,147 -529,349 -833,364 -271,-306 -217,-358 -338,-718zm9206 458c66,-198 353,-370 569,-430 -184,183 -351,411 -569,430zm-17429 319c35,-370 605,-701 929,-812 362,101 279,184 723,179 288,-2 593,-55 882,-65 62,629 -157,1296 -327,1854 175,236 214,265 252,556 -137,91 -2549,1210 -2893,1205 -338,-446 -157,-294 -1217,-571 -68,-749 -263,-818 126,-1474 797,-128 753,-375 1332,-621 203,202 251,216 315,495 -305,208 -150,-49 -338,243l379 130c13,5 38,16 55,27 -259,234 -666,364 -831,646 1134,765 1139,-195 1719,-385 361,-118 490,56 622,-254 -246,-133 -369,-96 -658,-88 -141,-364 -13,-163 -415,-272l-143 -547c350,-251 546,-487 490,-927 -413,32 -613,519 -1002,681zm21292 -490c6,-215 131,-421 279,-588l331 112c-82,314 -241,728 -610,476zm-8455 -209c96,-262 23,-146 250,-259 -163,329 -90,172 -250,259zm-13519 -209c289,-284 490,-280 719,50 -90,218 -162,237 -390,322l-329 -372zm-8353 -67l491 80c-233,366 -373,205 -491,-80zm30044 282l-634 -249 306 -555c328,3 349,45 590,238 -35,280 -64,366 -262,566zm-3782 9l-119 -248c264,-318 431,-335 817,-217 -57,195 -505,495 -698,465zm-23967 -675l0 461 -411 -112c75,-227 205,-261 411,-349zm21670 166l283 -11c-147,200 -123,200 -283,11zm3176 -204l987 -102c-6,425 172,1289 -149,1545 -181,144 -1002,622 -1185,579 379,-237 486,-230 658,-675l-868 93c104,-249 386,-437 649,-545l224 319c16,-394 -58,-347 144,-652 -332,-150 -375,-146 -460,-562zm-17826 406c18,-296 116,-626 269,-873 554,67 492,733 -269,873zm-393 -327c235,-122 212,-143 187,88l-187 -88zm-5218 -374c114,38 434,205 568,278l242 143c13,4 40,3 53,5 481,77 -112,-111 157,3 -163,310 -34,159 -37,493 -3,390 -28,190 -168,486 -137,288 -134,759 -203,1084l-524 261 -141 -231 276 -212 -362 -155c519,-169 389,-135 462,-274 -344,-160 -216,-40 -428,-20 -438,42 -57,-88 -535,-60 -518,757 -150,2083 -878,1764 75,-301 1,-42 186,-293 -179,-129 -93,-77 -356,-40 -157,-214 -165,-258 -459,-328l78 -383c-23,-12 -53,-44 -62,-27 -12,21 -74,-32 -116,-53l-113 -63c-102,-57 -124,-434 -146,-560 359,303 458,243 885,333 -545,578 -300,884 170,781 164,-35 116,-47 191,-95l-409 -208 406 -168 -101 -399c242,-188 5,-72 367,-129 197,-1130 -126,-796 95,-1343 52,-131 59,-118 105,-181l809 430c-16,8 -45,2 -55,28 -63,168 19,0 -117,57 -355,150 -424,490 -367,600 292,279 717,158 1056,-78 59,-239 8,-223 57,-429 53,-221 93,-143 146,-443 -355,128 -210,139 -412,400 -229,-403 -553,-496 -320,-974zm19708 179c186,-90 161,-67 338,94 -203,127 -179,120 -338,-94zm-22284 13c127,-79 -163,-77 163,-67 149,4 116,33 155,55 -212,164 -100,167 -318,12zm21786 -263c341,-76 234,-153 200,153l-200 -153zm793 -135c259,13 297,5 446,237 -285,138 -351,-62 -446,-237zm-19337 77c5,-334 -9,-352 222,-575l449 334c-173,164 -287,297 -460,470l-211 -229zm26354 -194c89,-137 -91,-97 169,-95l-169 95zm-22055 -293c4,6 269,-41 -5,215 -46,42 -174,75 -258,79l263 -294zm-4938 85c158,-241 177,-272 443,-328l-92 572 -351 -244zm17760 208c181,-259 159,-386 437,-400l-437 400zm-10960 -132c-19,-129 -35,-92 -15,-227 23,-154 30,-86 96,-166 279,157 150,224 -81,393zm19593 497c-239,-186 -123,-156 65,-425 182,-262 104,-336 421,-465 -77,252 -296,771 -486,890zm-27962 -490c-70,217 -9,122 -226,290 -214,-137 -302,-290 -476,-361 -113,205 -61,100 -24,368 -528,153 -286,28 -665,56 47,357 184,348 267,597l-293 211 -253 -260c-328,36 -81,-9 -303,108 -264,-112 -360,-218 -598,-144 -30,196 297,571 340,819 -592,187 35,142 -820,-466 -260,-185 -122,19 -362,-175 178,-140 482,-317 720,-375 682,-166 260,-82 788,-343 528,-261 1038,-609 1558,-830 176,719 -77,53 347,505zm24935 -434c8,-200 123,-442 294,-596 231,36 418,141 619,320l-282 472 -631 -196zm-22117 -455l-4 442 -349 -224 353 -218zm-2378 -21c145,561 214,386 153,606 -400,89 -552,-29 -698,-341 183,-224 266,-231 545,-265zm8402 -138l7 519 -389 -178 382 -341zm3631 106c233,129 197,73 70,298 -267,-126 -250,-77 -70,-298zm-11741 156c215,-151 239,-158 535,-74 -96,283 -362,401 -535,74zm-9643 -19c381,-219 145,18 441,111 -187,1 -8,28 -207,-18 -256,-60 -89,-15 -234,-93zm16195 -697c210,70 285,249 358,475l-372 285 14 -760zm-1799 301c-46,354 -20,295 -371,286 110,-255 32,-196 371,-286zm19039 -281l503 275 -358 546c-258,-67 -317,-156 -549,-335l404 -486zm-12537 122c268,118 239,97 214,386 -390,8 -464,-73 -214,-386zm-10996 193l-235 15c190,-200 200,-64 235,-15zm2657 -223l-52 150 52 -150zm-2215 437c-158,-370 -404,-729 268,-592 606,124 168,525 -268,592zm18823 -892l289 638c-100,280 -338,624 -616,783l-154 -1200 481 -221zm-16308 1441c217,775 -81,707 626,623l60 -475 441 14c305,-448 43,-222 579,-471l83 -478c30,1 70,-11 161,30 10,5 120,77 140,89 222,-185 558,-265 866,-282l30 554 -412 -315c-634,228 -472,455 -656,1020l-456 -267c-536,516 21,1274 -552,1385 57,-506 190,159 110,-439 -393,-220 -202,-58 -469,-42 -220,13 -303,-74 -626,-55 -29,276 -43,428 -100,698 -101,472 0,399 -17,700l-284 154c-227,-366 -28,-147 -396,-355 271,-237 168,-34 501,-161 -278,-299 -467,-99 -837,-81 8,-607 48,-245 437,-287 -1,-278 -76,-274 61,-574 399,-41 137,-1 449,111 16,-115 39,-246 55,-353 56,-366 32,-233 -47,-347 -382,252 105,336 -461,308l-59 -341c232,18 149,125 372,-54 -200,-339 -402,-15 -361,-673 102,18 961,477 1230,-112l-399 -88c121,-112 267,-158 58,-289 425,13 141,164 573,95 155,-297 83,-494 53,-825 259,145 328,245 540,459 -233,500 -343,255 -575,636 -368,605 -229,168 -718,488zm4234 -1288l-312 301 -220 -285 532 -16zm12408 -157c64,-49 148,-106 195,11l-195 -11zm-18376 441c-160,-222 -110,-71 6,-378 -249,-66 -199,-21 -356,-227 285,-266 290,-219 696,-212l185 536c-171,144 -305,260 -531,281zm-10203 -624l107 -215c772,147 -212,602 1784,740 183,354 421,783 412,1178 -346,196 -594,313 -811,640 146,308 104,107 232,262 6,8 21,27 26,35 5,7 10,29 14,36 4,8 4,32 8,39 43,83 -17,18 104,133 342,324 93,447 516,580l-180 -572c243,-19 694,-49 893,-28 240,26 437,158 672,212 668,151 806,44 1015,764 -314,80 -604,56 -824,136 -597,215 -1954,29 -2549,-151l546 -193c-965,-179 -2975,308 -2834,-1367 1410,24 1030,-87 1246,358 74,151 164,292 267,414l-40 -450c831,424 882,796 1263,743l-1378 -1549c-402,-3 -371,48 -692,107 -278,50 -453,60 -662,-61l11 -237 356 236 363 -481 -321 -289c349,-241 168,11 687,51l-205 -314 371 -477c-247,-208 -221,-78 -397,-280zm11262 -266c50,308 -28,357 -346,422 -132,-249 -122,-126 -69,-415l415 -7zm-10328 298c-355,-17 -160,41 -213,-149 222,47 77,-61 213,149zm15743 -696c113,230 107,261 -37,429l37 -429zm-2974 49c204,-92 552,193 671,385l-589 10c91,331 109,105 118,358 1,9 -2,187 -1,229 1,315 -118,241 -348,214 115,-425 106,-1070 109,-1096l40 -100zm20714 557c63,-277 133,-367 283,-609 164,-265 174,-335 427,-336 181,212 112,-3 79,410l546 -141c-236,749 -453,114 -823,274 68,332 154,148 427,402 -73,310 -44,327 -288,518 -303,-87 -416,-293 -651,-518zm-18587 -428c-411,-774 -74,116 -465,-456 93,-290 656,-729 758,819 -63,-68 -171,-172 -235,-264l-58 -99zm20760 -29c-196,-436 -377,-181 -542,-491 366,-287 710,20 775,466 -469,363 -279,651 -646,584 -91,-251 141,-459 413,-559zm-36764 -1084l390 575c-118,101 21,22 -167,96 -93,37 -33,-24 -184,48 -187,89 -145,110 -203,266 345,-95 531,-251 641,154 -196,94 -215,45 -505,71 50,345 133,249 -155,516l317 242 -862 458 -348 -1032c-151,-586 -215,-567 -137,-1247l1213 -147zm17654 -18c-152,-221 -145,-208 11,-412 100,141 118,211 -11,412zm-2736 1879c-6,-321 71,-539 48,-778 -49,-504 335,-1389 930,-1396l82 354c-721,-155 -723,267 -799,938 277,355 327,91 186,502l359 221c-261,-40 -237,-97 -551,-54l-57 493c-530,-89 -665,179 -771,-196 246,-124 254,-48 573,-84zm21578 -2452c95,397 -142,518 -500,493l500 -493zm-22451 -361l273 55 187 657c-514,351 -2274,1567 -2823,1629l-212 -566c-186,167 -20,-5 -133,167 -13,20 16,286 -68,126 -7,-12 -19,45 -33,67l-449 -60c31,-264 202,-392 387,-605l881 211c221,-237 126,-209 455,-253 -143,307 -207,167 -214,475 486,-84 135,-427 900,-490 -122,-397 -13,-187 113,-583l-633 348c66,-240 147,-276 357,-410 608,154 322,-61 767,351 168,-450 77,-122 111,-545 26,-321 122,-203 134,-574zm3019 771c-66,-269 -28,-351 207,-549 -4,387 37,276 -207,549zm16394 821c454,-143 872,-846 1149,-1268l988 46c-270,581 251,578 140,1004 -362,138 -351,-196 -493,-425 -324,310 -522,931 -803,1318 -77,-38 -918,-622 -981,-675zm-11451 -716c81,-478 300,-556 727,-678 -141,460 -198,622 -727,678zm-5477 -732l306 184 -258 238 -48 -422zm15490 413c-216,-357 -264,-147 -411,-486 233,51 1614,889 1818,1083l-275 292c161,505 1613,1971 2172,1939 543,-213 423,-523 900,-578 -187,760 -981,737 -982,738 -732,717 -334,1118 -1553,1227 184,-511 683,-829 761,-1170 -368,136 -305,160 -638,-82 -288,-208 -274,-103 -214,-441 -360,1 -353,187 -687,-185 174,-283 156,-86 218,-461l-538 263c-207,-211 -105,-218 -375,-249 -4,416 89,136 232,539l-275 399 -448 -9c49,192 64,192 208,332 423,411 723,86 746,770 317,-169 610,-75 866,183 -172,325 -528,292 -893,363 -871,169 -117,423 -764,509 2,-395 122,-439 -117,-790l-398 -8c-117,465 27,951 -224,1351l-1016 -7c194,-287 647,-461 727,-812 -325,27 -48,126 -518,110 150,-396 443,-345 527,-618l-536 173 -478 -461 570 -354 625 361c-11,-373 -291,-289 -453,-618 240,125 110,166 445,346l1516 807c-105,-489 -415,-642 -772,-912 -872,-662 -26,-323 -735,-779 63,-298 178,-590 292,-871 253,-621 131,-298 45,-823 396,-17 1061,248 1325,32 -310,-424 -1237,-270 -1198,-896 266,-230 260,-66 505,-207zm4267 -931l125 479 -654 -2 529 -477zm-21157 430c-9,-496 -136,-506 278,-547 46,63 195,52 62,388 -58,146 -645,580 -787,653 -150,-185 -136,-165 -114,-438l561 -56zm2529 -131c30,-347 -24,-201 345,-349 -73,305 -22,286 -345,349zm-3614 75l-322 13 -52 591c-543,112 -449,-442 -1727,863l-446 -129c474,-375 929,-631 1382,-970l1349 -818c194,-32 80,4 178,52 -123,468 -225,66 -362,398zm2848 -291l-250 255 250 -255zm15153 30c10,-13 20,-36 22,-43 2,-7 14,-35 16,-43 2,-8 6,-36 7,-44l440 173 -261 319c-255,-120 -562,-320 -647,-585l423 223zm-805 -360c-19,-267 66,-110 96,-38 63,148 -94,65 -96,38zm1259 -478c270,190 377,345 172,634 -285,-101 -454,-241 -584,-529l412 -105zm-3494 571c331,-175 295,-25 586,-291 191,-175 307,-229 568,-213 -7,173 -207,748 -271,978 -81,285 -170,661 -452,779l-431 -1253zm-17835 -133c49,-268 -65,-195 288,-221 -122,225 -61,176 -288,221zm6500 -433c-83,84 -136,90 -16,-18 86,-78 91,-59 16,18zm1247 242c72,-277 118,-434 383,-551 21,338 -115,386 -383,551zm16149 -341c44,-376 170,-520 435,-169 -223,218 -115,150 -435,169zm-468 91c-127,-155 -158,-172 -84,-425 106,-358 27,-270 401,-223 -14,281 -84,504 -317,648zm-326 -793c-28,-291 87,-118 123,-27 91,232 -122,42 -123,27zm-14246 1095c109,-323 196,-322 340,-577 228,-405 119,-634 881,-1498 972,549 -103,1241 100,1666 246,-98 110,-25 250,-309 199,-404 -14,-169 312,-228 -46,121 0,902 -110,1306 -569,99 -604,171 -1107,375l-666 -735zm15533 -1434l367 39 76 728 -284 -223 164 -396 -323 -148zm-3720 129c-253,17 -132,79 -346,-140 126,-246 300,-67 346,140zm-27567 -88c116,-423 528,-571 528,-52 -288,146 -233,137 -528,52zm25625 -132c195,-253 367,-243 632,-356 119,682 327,657 -42,1209 -395,-250 -418,-406 -590,-853zm-1490 963c334,-372 687,-448 513,-1017 677,-124 795,309 963,857 -482,488 -510,547 -1220,537l-256 -377zm-23121 -1422l270 246 -439 -54 169 -192zm29094 378c90,-263 166,-389 421,-367 183,244 41,445 -210,589l-211 -222zm-10166 -101c-275,6 -294,9 -430,-250l430 250zm4996 -568c98,2 189,37 273,76 106,50 81,59 142,111 -134,133 -248,238 -565,189 -209,-32 -97,-29 -211,-108 55,-202 -65,-278 361,-268zm6226 135c-132,-289 2,-318 206,-421 129,229 167,579 156,852l-362 -431zm-3315 -555c261,50 662,353 771,596l-949 -399 178 -197zm-4855 1651c323,-343 482,-134 724,-584l-525 -262 113 -252c-413,-29 -962,219 -1102,618 415,-92 749,-565 1050,21 -328,317 -344,121 -632,301 58,393 90,229 325,476 242,255 53,92 99,447l701 -102 231 831 -317 137c-323,-193 -558,-533 -967,-745 -325,-168 -857,-387 -1119,-564 102,-466 285,-1306 48,-1728 654,-21 631,-78 1170,-185 1095,-217 466,-235 1001,-332 114,334 75,309 109,631 126,1191 463,529 -106,1589l-512 67 -291 -364zm4072 -1766c247,-225 305,-304 621,-43l-207 369 -414 -326zm1107 -19c-128,-252 131,-445 313,-390 63,198 -38,398 -313,390zm2774 -383c-320,217 -261,25 -270,19 207,-131 88,-114 270,-19zm-6461 480l-229 -787 855 63c-76,579 -33,706 -626,724zm6629 -1112l17 407 -331 -191 314 -216zm-27776 -305c211,-194 534,-169 697,41 -224,204 -464,145 -697,-41zm27757 -486c93,489 24,246 -246,582 -184,230 -146,387 -422,262l668 -844zm-27534 58c218,-107 500,-5 657,161 -269,109 -494,65 -657,-161zm971 -184l-207 134 207 -134zm-1591 100c2,-365 265,-312 449,-76 -170,226 -219,197 -449,76zm26910 -314l112 276c490,59 601,-460 1016,-611l61 412c-398,200 -658,533 -971,850 -358,-277 71,-116 -618,-458l-106 -71c330,-323 246,-312 506,-398zm-1291 475c114,-267 109,-164 274,-363 188,-227 47,-148 285,-309l319 126c-88,237 29,48 -229,314 -294,304 -154,244 -649,232zm-3028 998c246,131 30,127 377,202 255,-272 343,-619 491,-949 336,-747 -83,-505 47,-968l381 -124c157,-30 214,-41 375,-58 405,1858 426,1488 2078,1374 229,391 103,779 326,1123 426,-72 264,-369 488,-746l280 142 -141 543c-125,168 -274,61 -365,367l615 8c-22,53 -664,959 -715,1023 -291,-166 -25,-209 -436,-358 -28,909 516,1752 661,2101 100,240 10,425 171,728 342,-192 213,-486 473,-783l1067 -175 140 -330 79 379c-555,399 -993,407 -775,892 -651,40 -832,-10 -1306,472l-68 -91c-8,-9 -28,-32 -36,-40 -111,-109 30,-21 -137,-86l-321 496c-508,-94 -722,-336 -1055,-676 100,-341 326,-687 722,-620 11,308 -186,422 -297,771 369,-122 139,-207 434,-429 231,-173 296,-69 555,-84 -92,-326 -138,-53 -146,-478 -495,118 -612,-78 -1027,-429 -197,-167 -734,-551 -807,-739 330,-292 284,62 743,200 -154,-434 -289,-225 -327,-699 -372,-30 -481,-136 -670,-444 -482,-103 -337,173 -376,-256 300,260 -8,84 311,186 707,227 425,219 976,477 374,-184 1319,-452 928,-965l-460 174 -324 -290 219 -304 661 33 -361 -232 82 -309c-287,63 -199,114 -386,2 236,-335 129,-10 227,-415 -669,265 -644,658 -1080,819l-226 -225c21,-284 57,-181 78,-326 75,-529 -3,-234 -83,-353 -390,144 -318,339 -559,611 -301,-243 -142,-271 -575,-268 -179,382 -188,872 -252,1317l-691 -339 17 -852zm2950 -2023l329 195c-70,311 -80,257 -248,517 -221,343 -44,289 -406,343 -163,-213 -186,-384 -230,-678l555 -377zm-23663 518c41,-213 76,-321 290,-307 93,266 -27,335 -290,307zm22856 -614c97,-193 146,-258 355,-270 264,284 103,428 -209,521l-146 -251zm-22650 -84l410 164c-38,29 51,223 -268,38 -74,-43 -104,-138 -142,-202zm-7466 3354c426,-333 316,-1306 203,-1748 666,-375 756,31 1103,230 470,271 150,-29 572,52 63,396 68,160 -156,296 -11,6 -45,46 -53,30 -8,-16 -36,20 -51,33 205,184 143,128 365,255l-113 23c-167,8 -106,-57 -263,47 144,376 349,292 734,257 60,-552 -87,-690 -194,-1168 393,-243 881,-411 868,-901 -229,38 -378,186 -594,300 -368,194 -417,72 -792,171 128,393 104,-27 178,254l-281 179c-212,-176 -299,-209 -417,-456 260,-290 1444,-923 1777,-945 287,291 11,346 425,526 264,116 507,141 792,167 97,435 77,738 556,733 -55,-360 -181,-751 -143,-1108 384,-196 494,-143 554,-620 -435,-5 -684,342 -976,636l-683 -75c-156,-385 -265,-476 -198,-919 691,-644 998,-580 1686,-987 225,409 69,976 319,1316 314,429 589,326 1004,526l112 416c-123,-33 -384,-93 -484,-140 -247,-117 -145,-139 -291,-307 -234,158 -602,756 -619,1043 395,-80 88,-127 320,-224 258,-108 272,134 299,207l-172 57c-22,5 -48,0 -71,5 -24,4 -51,2 -73,7l-136 48c-13,-21 -43,25 -63,40 199,126 388,133 646,181 708,132 464,151 500,311 -283,112 -584,-48 -884,-166 -200,-1 -37,142 -401,172 -470,37 -550,-79 -809,-267 -312,177 -473,564 -503,916 434,-89 384,-158 663,-441 320,38 531,93 745,248l-769 773 -683 -609c-393,-71 -923,24 -1067,392 412,-58 348,-239 921,-251 243,675 413,491 688,817 -360,220 -316,-116 -828,-169 -148,308 -76,305 -367,345 -242,-387 108,-251 134,-697 -357,111 -804,964 -896,1224 -112,317 5,272 -88,553 -226,-83 -336,-732 -410,-1003 190,-300 543,-499 488,-752 -193,-63 -304,-3 -570,61 -217,53 -156,29 -351,59l88 310c-542,567 -1287,80 -1932,-8l-147 410c228,182 113,21 218,246l-663 467 -374 -312c150,-957 322,-2451 1484,-2530 33,535 130,603 -155,1009l278 455zm28063 -3142c230,266 264,112 503,504l-540 1162 -1112 -111c-25,-57 -64,-1686 -132,-2052 1093,-270 759,-109 1281,497zm-20597 -212l-201 40c-80,265 -82,329 -278,522 -125,-134 -201,-276 -402,-478 262,-220 490,-344 803,-637 412,74 422,22 808,-3 271,-17 611,12 813,179l-496 462c-474,-44 -558,-90 -967,-271 -114,108 -124,-171 -80,186zm23278 -295c-89,-136 -208,-271 75,-453 234,-151 213,-72 374,73 -29,222 -228,441 -449,380zm2358 -1225c-555,-67 -272,37 -658,131l-59 -292c188,-233 252,-105 399,-483l-290 -234c82,-279 83,-348 339,-460 167,379 252,958 332,1409 72,403 371,1099 134,1425 -499,2 -188,-421 -123,-704l-433 -151c106,-402 243,-239 359,-641zm-2408 -404c75,-296 311,-411 546,-573 374,92 337,227 825,296l161 -231c-86,274 -122,401 -343,598 -166,-39 -422,-152 -557,-145 -269,14 -203,116 -632,55zm263 -768c-1,250 7,193 -199,314 -127,-194 -160,-203 -80,-437 271,41 54,-93 279,123zm1335 3422l-64 -167c-357,-35 -295,-59 -576,-253 8,-307 -5,-114 133,-388 -276,58 -158,59 -399,240l-313 -258 415 -382 549 238 -262 -538 -614 -202 112 -335c-426,-28 -994,921 -1203,1275 -705,-266 -844,-73 -1528,-157 -282,-160 -171,-215 -365,-349 -269,-186 -214,30 -404,-251 211,-143 290,-92 476,-170 -74,-161 13,-27 -142,-132l-171 -108c205,-324 165,-305 430,-556 -79,-280 -40,-252 -258,-431 -688,90 -521,907 -566,1416l-817 66 -242 -488c174,-378 87,0 226,-289 -512,-99 -349,12 -664,-379 -203,-254 -311,-269 -433,-617 189,-305 556,-561 890,-703 563,211 905,706 1566,660 45,-222 0,-238 -41,-428l625 -813c264,85 1037,541 1204,741 138,164 338,1188 445,1506 -201,381 -481,731 -500,1187 298,-121 779,-870 1120,-1200l1203 177c133,305 -6,206 -77,573l361 160 -155 348c225,217 320,113 318,522 -1,286 -51,385 -279,485zm-834 -3846c-118,363 -301,334 -418,11 180,-177 268,-104 418,-11zm75 378c253,-273 124,-57 325,-173 171,-100 91,-100 231,-254 147,-163 324,-282 515,-358 0,463 -188,328 -518,598 -260,213 -329,488 -553,187zm-26221 816c1266,-1412 1029,-443 1632,-1088 409,-438 270,-1503 1268,-1348 355,359 291,701 968,977l-266 407c-244,-132 -182,-220 -445,-280 37,329 167,190 259,499 -505,127 -156,-42 -626,-152 132,338 125,81 159,399 -707,484 -489,-53 -1290,-87 131,383 386,458 401,909 -117,249 -81,62 -203,342 -134,308 109,58 -182,306 -199,171 -301,214 -522,436 -287,-56 38,-17 -294,-102 133,781 -167,671 -722,476 36,-396 178,-514 116,-977 -51,-379 -191,-449 -253,-717zm26185 -1591c2,-20 61,-147 83,-15 9,57 -101,163 -83,15zm-899 491c-350,-437 536,-982 771,-961 42,492 -77,95 -342,490 -168,251 -136,315 -429,471zm-3352 -427c387,-335 766,-697 1222,-905 38,480 67,334 -300,643 -214,180 -273,338 -461,532 -273,-34 -320,-36 -461,-270zm-79 -555l189 153c-189,314 -253,486 -607,233 149,-268 116,-181 404,-128l14 -258zm-244 -569c180,-219 333,-415 579,-205 -68,181 -215,356 -424,417l-155 -212zm3552 49c-12,-531 436,-279 747,-374 398,-122 186,-339 681,-458l458 1413c-674,120 -491,-307 -233,-650l-739 -168c-296,209 -606,487 -914,237zm-354 -457c87,-134 52,-166 401,-291l204 217c-245,222 -325,333 -605,74zm-1010 -269c641,57 896,-613 1222,-197 -123,390 -317,230 -608,235 -45,652 -73,202 -239,634 323,-5 183,-7 460,-163 96,66 407,372 525,507l-516 536c-198,-104 -309,-230 -482,-317 -239,-120 -285,-72 -532,-240l170 -995zm1665 -71c29,-323 209,-330 518,-430l75 294c-231,271 -330,337 -593,136zm872 -270c-2,-135 52,-170 98,-31 43,132 -98,52 -98,31zm-1160 10c107,-379 490,-728 795,-891 21,388 -9,295 -304,514 -399,295 -35,255 -491,377zm-1359 251c46,-650 -60,-616 505,-848 338,-139 486,-291 863,-303l-214 221c173,299 213,22 80,332 -376,93 -191,-199 -615,-138 7,362 20,13 101,332 -311,170 -405,308 -720,404zm510 -1657c803,346 1184,-362 1473,-14 432,521 -815,295 -872,307 -244,50 -787,407 -1095,511 50,-357 301,-481 494,-804zm-1383 -67c51,-275 130,-346 389,-456 51,310 -94,414 -389,456zm1705 -1374c160,-84 50,-105 196,0 -283,202 -148,30 -196,0zm543 402c-58,283 54,94 -321,309 -236,136 -234,113 -299,324 761,93 583,-626 907,-151 -209,209 -684,244 -1014,376l-151 -270c-514,235 -656,979 -1078,661 58,-303 288,-384 589,-379 56,-554 279,-252 300,-671 -432,41 -193,301 -641,158 18,-339 284,-374 445,-704 -458,32 -305,151 -659,442l-320 -172c57,-338 375,-580 649,-774 468,209 250,178 472,447 206,249 192,-28 406,466 567,54 377,-268 715,-62zm-21074 1984c102,-305 357,-106 569,-1005 66,-282 389,-682 607,-893 573,-555 891,-1060 1552,-1580 374,-294 1570,-1001 1999,-1121 324,-90 475,-18 784,-23 451,-7 240,-119 636,-115 1091,10 442,5 1257,-247 535,-166 4988,-628 5517,-557 1094,147 3276,-162 4273,384 456,250 572,302 1086,443 74,554 160,1087 245,1608 -275,306 -743,743 -815,1140 330,-16 741,-304 933,-533 223,-264 320,-649 665,-671 32,330 -13,212 -321,451 -404,315 -822,841 -1018,1314l530 -495c273,75 266,31 459,249 -269,331 -274,299 -646,264 -45,444 172,46 -58,626 256,-117 187,-134 503,-79l-160 318c337,-84 166,-146 424,-38 296,721 -787,-111 -1241,342 187,323 949,411 1276,260l-93 1427c-231,191 -660,491 -1014,466 85,-389 276,-323 452,-497 2,-3 315,-470 336,-518 -453,28 -191,228 -557,67 94,-464 153,-32 329,-498 -416,42 -206,119 -553,248 -316,-133 -101,-136 -498,-166 160,443 111,0 276,420l-260 254c-406,-18 -214,-141 -503,-25 -70,406 304,152 531,730 -187,197 -97,128 -399,193l-36 287c-243,-139 -83,-1 -201,-353 -112,-330 -489,-880 -470,-1142l437 -36c-312,-228 -383,91 -219,-543l522 -172c-211,-147 -166,-84 -474,-58l70 -475c-322,112 -636,810 -945,1094l-652 16c24,-467 -22,-152 235,-417 -447,-161 -343,-44 -412,-727 63,-49 60,-52 172,-111 6,-3 130,-45 143,-51 -109,-62 204,-61 -199,-51l-401 88c-190,70 -19,-19 -167,101 -38,509 203,1174 478,1561 1174,62 746,-623 1699,1370l-816 695c-1149,-219 -735,-53 -1662,-87 -82,-377 -398,-1090 -417,-1342 373,-201 1039,-271 893,-815 -309,-143 -439,61 -703,291 -198,173 -435,301 -599,524 -39,662 257,892 278,1526 -498,440 -472,740 -487,1413 369,-117 385,-218 590,-548 218,-351 173,-551 319,-722 261,-101 941,154 1305,174 -239,337 -513,193 -769,478 362,247 748,-255 1172,-333 311,400 1084,1227 1027,1762 -105,991 290,1648 270,2433 -256,237 -2099,668 -2484,686 -107,-208 -306,-683 -437,-960 411,-267 631,-1002 593,-1473 636,42 1157,-204 1454,-743 -295,-213 -769,-245 -992,-561 332,-185 228,10 656,74l-136 -275 411 -140c-158,-139 -782,-67 -1056,-39l-145 173c98,431 209,507 581,769 -303,245 -697,211 -869,622 -300,-131 -99,-87 -382,-49 -292,418 -406,998 -444,1507 -28,11 -1234,668 -1236,670 -232,232 39,190 -476,491 -382,223 -352,20 -710,218l70 278c-350,86 -279,11 -272,349 321,-82 448,-243 711,-444l836 112c-204,317 -229,206 -626,146 207,583 -71,255 -251,651 247,-5 373,-155 548,16 217,213 0,138 13,456 236,-11 268,-83 464,-97 140,-11 377,38 570,29l-182 -236c294,-12 236,54 390,-206 -423,-182 -488,36 -880,-338 159,-319 437,-323 719,-481 -198,-263 -733,125 -1191,-322 100,-89 226,-163 340,-224 307,-165 98,-62 442,-128 383,-73 361,-224 677,-362 212,357 150,487 292,810 216,490 209,198 62,749 -200,744 274,1542 -688,1478l262 -332c-364,33 -273,66 -584,193l-331 -178c14,659 205,338 646,564 -202,514 -556,591 -1005,672 -107,253 -323,1007 -404,1134 -229,356 -420,399 -500,924 348,-288 242,-535 538,-650l-1 738c-310,42 -551,21 -700,234 238,116 364,29 626,-56 109,168 19,61 84,207 72,161 6,56 98,163 506,-231 450,-566 501,-1066 54,-530 110,-883 61,-1403 946,-186 1181,-858 1687,-998 711,401 1157,891 2039,1190 -47,583 -291,1130 -467,1698 -191,621 -917,472 -1146,1025 462,-21 415,-2 777,-272 82,113 9,4 80,156l73 168c1115,-790 1018,-2532 1038,-2579 194,-208 182,-186 310,-410 90,-156 -31,-80 139,-173 130,-70 111,-22 225,-18 39,536 106,774 431,1163 -165,140 -267,169 -351,423l637 -101c-36,376 -127,975 -424,1214 -113,-116 -42,110 -141,-204 -6,-18 -23,-194 -23,-205 7,-327 79,-113 63,-460 -298,93 -685,123 -879,367 365,254 -105,-2 254,104 160,47 49,-28 238,72 54,519 -320,392 -1064,888l162 782c-583,-165 -479,-577 -1271,-543 108,378 725,778 1163,858 -306,761 -672,506 -996,1301 -362,-122 -680,92 -819,423 509,-20 253,-130 668,-248 -98,188 -820,643 -1049,723 -189,-291 -153,-446 -450,-817 84,-224 183,-276 269,-498 76,-196 108,-408 183,-623 236,-673 524,-289 941,-565 -63,-182 1,-250 -546,-202 -717,63 -768,825 -1113,1704l-569 -136c-626,265 -594,740 -1205,721 -31,364 -302,530 -642,673 -153,-245 -166,-493 -358,-796 -181,-285 -370,-396 -518,-599 307,-526 741,-1236 770,-1847 -203,-186 -415,-507 -667,-673 -278,-183 -496,-209 -834,-442 -441,88 -1354,305 -1333,870l717 -2c-120,404 -202,249 -497,417 165,387 178,55 130,631 322,-179 595,-495 493,260 294,-174 81,-162 386,-149 242,316 -14,158 104,444 225,-145 463,-612 492,-886l-369 -139 132 -554 -335 269c-283,-127 -251,-82 -345,-367 345,-266 528,-275 897,14 232,182 418,296 650,468 6,236 -358,924 -500,1180 -213,383 -839,176 -1009,655 578,-22 864,-453 1154,371 131,374 441,827 573,1176 665,-88 493,-172 1015,-430l243 465c-216,169 -2373,705 -2722,721 720,-424 1165,-667 1209,-1203 -805,115 -375,-298 -526,-456 -89,-93 -537,175 -760,220 -76,-327 -54,-495 -362,-597 -220,391 331,982 -23,1333 -235,166 -326,-298 -442,-405 -405,-377 -304,-111 -259,-594l-399 -35c-271,302 -392,246 -587,478l389 131c126,55 124,88 214,197 -159,310 -93,37 -311,326 264,336 1249,-664 999,302 537,-90 400,-254 946,-275l213 13c7,-15 30,16 55,45l-715 345 -14 277 -2157 708 -356 -451c65,-278 156,-536 222,-846 142,-672 -187,-1129 1102,-2069 479,79 448,293 917,381 -135,-503 -228,-536 -684,-680 -40,-566 343,-874 113,-1382 -582,-567 -1147,446 -1202,954 208,-104 355,-430 492,-642 76,268 0,529 -64,825 -265,208 -344,113 -519,505 -104,232 -184,421 -338,622l-1106 -14c-57,-596 73,-1101 734,-1078 -110,-236 -204,-213 -77,-462 200,-392 13,-67 350,-295 -227,-355 132,-1190 506,-1394l285 143c52,375 -513,1010 -573,1465 320,-64 506,-847 721,-1133l397 -116c-51,-547 -254,-412 -507,-803l1468 -2143 211 292c-269,466 -615,884 -722,1526 396,-136 558,-959 803,-1302 475,296 384,1158 450,1746 580,92 555,-545 620,-1005 88,-624 144,-664 794,-819 -72,291 -25,193 -258,403 74,620 -152,991 574,568l328 172 128 -355 332 -51 -222 -323c137,-271 298,-439 307,-701l-724 239c-204,-373 41,-112 -318,-339 75,-228 202,-375 399,-496 319,146 514,305 894,197 -148,-328 -466,-264 -851,-467 -182,-1660 -437,-1474 -1075,-2044 313,-397 923,-1018 1272,-1347 260,210 183,277 535,278 -44,-260 -294,-482 -529,-601 -394,127 4,101 -410,121 -408,19 -858,200 -1278,335 -423,135 -964,479 -1447,658 -927,344 -1716,1081 -2427,1750l-44 -184c-14,-99 67,5 -47,-187l-325 51 -103 615c-362,-86 -472,-185 -826,36 210,152 157,47 329,240 10,368 -119,632 -415,821l-107 -401c-4,-17 -21,-29 -24,-63 -4,-34 -19,-41 -62,-73l-161 430 -409 -34c-160,322 -76,505 -376,590l-175 -578c323,-94 526,-251 723,-506 -816,41 -3877,2346 -4842,2975 -484,316 -1074,884 -1474,1125 -683,-331 -264,-415 -740,-752 504,-351 286,-52 538,-890l-184 -282 349 92c438,-947 -127,-404 162,-981 272,-40 16,-21 332,30 -87,-307 96,-286 438,-373 918,-236 971,970 1583,794 -20,-380 -132,-317 -357,-666l260 -138 -133 -209c491,-62 493,-133 657,-569 -131,-92 -4,-12 -141,-53l-95 -16c-182,-81 -48,13 -181,-204l-405 117 199 -477c667,-132 728,24 1181,-56l129 -606 -1314 193c-246,-608 -164,-890 -891,-947 89,403 338,787 438,1227 -143,244 -298,298 -459,556 -142,228 -247,459 -373,688l-738 116 -681 -720 426 -20 158 -359 -363 -188 3 -601c517,-122 136,117 648,84 14,-236 112,-65 -100,-247 461,-90 986,-476 1266,-856l557 166c344,-359 661,-686 744,-1225 -475,139 -762,549 -1148,766l73 -575c-339,-168 -333,-234 -682,-21l-81 850c-365,264 -883,323 -1317,692 -321,274 -81,7 -216,369 -118,320 -399,556 -611,815 100,312 62,-147 160,262 -546,476 -1113,263 -1386,210 -40,324 65,236 397,413 199,106 339,256 533,332 270,-262 319,-315 725,-464l354 287c-62,545 -402,925 -478,1553l364 405c-176,109 12,84 -317,21 -25,337 -2,174 -92,304 -332,-211 -114,-341 -534,-388 -20,351 183,704 281,1052 186,660 378,288 601,781 -319,273 -1754,1144 -2142,1253 -6,-301 27,-592 -203,-776l-211 287c-6,-13 -21,41 -50,93l-1276 -610c119,779 1433,358 1465,1120 -298,-55 -228,13 -311,-282 -733,112 -277,-197 -959,-93 18,457 242,272 427,329 256,80 -60,44 349,152 177,47 45,-59 272,88 -324,412 -907,20 -1337,-111 115,459 206,103 438,499 -935,287 -426,56 -979,-30 -379,-59 -933,79 -1253,-193l493 17c177,-450 -2,-73 -13,-500l123 -508c-176,-397 102,-223 -283,-445 -276,-159 -210,14 -326,-359 580,-5 158,217 814,313l-259 -322 543 94c384,-841 1201,209 2016,326 -63,-278 -216,-465 -418,-666l105 -66c15,-7 42,-20 56,-27 7,-4 132,-47 170,-64l-148 -100c-42,-25 -147,-31 -246,-211 265,-153 356,8 712,61 62,-86 148,-253 228,-383 -343,-169 -153,-11 -235,-289l417 24 -314 -237 112 -199c-481,-106 -132,-147 -532,-287 62,264 146,253 100,420 -374,291 -302,9 -662,-78 126,389 168,71 259,487 -493,-31 -504,-262 -842,-277 -32,373 332,245 576,499 -348,279 -639,-191 -998,-198 10,407 354,222 594,454 41,39 377,604 430,722 -224,-112 -441,-198 -659,-326 -440,-259 -906,-334 -1391,-527 -192,-77 -440,-158 -611,-118 115,183 130,124 448,180 401,70 305,-41 468,228 -328,171 -255,-46 -840,277 -420,-325 -989,-105 -1177,-284 -11,-11 -35,-32 -48,-45l-208 -210c-138,-138 -132,-118 -244,-333l333 -151 -341 -216 185 -284c-236,-83 -524,-336 -648,-527 209,-251 328,-286 384,-625 -287,121 -34,48 -320,137 -154,-239 -412,-455 -545,-74 314,106 196,-57 484,161 -209,146 -1044,298 -1338,272 273,-389 660,-1619 924,-2178l149 -260 406 297 387 -154c215,-97 116,-54 289,-191 363,-288 251,-73 409,-549l-238 -232c354,27 471,155 833,189 385,35 531,-81 874,-64l441 1344c-297,417 -460,1021 -750,1382 -401,-20 -1409,-187 -1586,216 347,246 1037,87 1451,55l-1 806 -542 -253c171,471 381,312 805,479 536,210 271,253 853,-40l-419 -390 368 -112 -227 -293c144,-280 -47,-53 257,-244 -142,-429 265,-939 497,-1275 790,-1143 1346,-407 2796,-2021 213,-237 391,-267 590,-179 86,416 -265,198 -311,629 344,-47 442,-347 689,-524 295,85 259,178 504,78 -200,-346 -483,-418 -765,-563 203,-589 291,67 803,52 -98,-320 -104,-11 -307,-373 345,-347 518,-233 910,-138 -99,-469 -134,-125 -278,-523l370 -388 433 168 -286 -460 591 94 -194 -346c466,-159 333,-17 718,-363l377 183c-79,-304 -125,-133 -17,-425 334,-134 168,-49 518,3l-100 -380c155,-73 413,-77 635,-107 -101,-816 529,-617 740,-1011 -147,-190 -219,-208 -475,-215 -792,-20 -451,9 -594,-102 256,-356 220,-38 739,-118l-853 -269c-113,283 -142,460 -507,494 120,-543 294,-639 394,-986 -352,31 -628,625 -709,955 312,200 363,41 456,309 -328,210 -305,-30 -701,-149 -299,-90 -545,-45 -856,-92 70,-633 1471,-655 1380,-1794l1092 352 198 589c-449,-117 -455,-291 -755,-350 100,393 1070,826 1454,826 -9,-501 -302,-1053 -559,-1479l-364 -139c223,-269 469,-396 655,-655 195,-271 213,-511 493,-763 432,174 935,524 1435,251l-64 -369c-657,-180 -585,3 -1318,-370 -667,-340 -199,-742 -735,-829l-117 404 -205 -23c-6,-17 -30,17 -45,25 141,533 446,65 472,714l-482 -91 133 377c-571,429 -449,-11 -840,124 107,318 54,77 298,321 -175,231 -314,535 -526,693l-57 -220c-20,-120 30,-3 -24,-167 -108,-328 -430,-621 -633,-868 199,-437 220,-892 539,-1252 309,92 569,323 878,50 -151,-324 -251,-160 -603,-347zm19664 -3291l-80 -47c255,-144 88,-73 224,-11 -103,64 -10,40 -144,58zm-586 -49c32,-313 101,-309 407,-354 -129,230 -167,223 -407,354zm-227 -964c255,67 220,81 374,310 -69,253 -263,532 -475,646l101 -956zm-27565 24959c-223,-211 -178,-248 -476,-331l-299 599c-861,1107 35,2164 577,3154 456,833 653,1618 1277,2337 441,509 476,421 1090,669 924,373 2196,-110 3063,-395 393,-129 745,-384 1242,-508 1335,-336 2404,-1147 3630,-1766 421,-212 773,-298 1221,-546 405,-224 769,-454 1168,-678 930,-524 720,-737 1804,-351 335,119 317,251 482,491 562,-128 420,-123 963,57 852,282 1160,-233 1935,646 239,271 510,345 700,569 -210,845 313,1101 785,1600 -204,736 63,1894 713,2377 412,306 1870,1049 2331,946 152,-497 -468,-707 -673,-1236 201,-221 180,-111 251,-401 -19,-14 -46,-56 -57,-38l-498 -224c-476,-637 -583,-624 -1310,-1109l304 -130c-638,-454 -1397,-489 -1513,-1482 432,366 1491,1461 2011,1532 -70,-172 -187,-194 -339,-371 -135,-155 -36,6 -100,-176l643 428c125,421 116,1244 755,1154 226,-511 -50,-517 -41,-940l396 224c-114,-660 -484,-419 -541,-823 279,33 58,84 298,327 120,122 308,169 416,312 390,515 305,946 318,1031 1223,479 1538,-493 1952,-569 331,594 339,749 -191,1123 -309,217 -676,815 -691,1187 222,306 280,291 463,668 153,316 263,515 650,345 167,-530 -80,-673 -257,-1104l1009 -1053 423 55c-215,413 -375,191 -458,709 371,-100 519,-388 911,-611l917 142c-352,385 -1397,785 -1534,1240 390,139 1039,-644 1415,-819 117,-55 188,-70 275,-131 185,-131 -73,-23 238,-196 409,316 361,1061 515,1497 360,423 946,-151 492,-1053 -176,-350 -221,-484 -568,-617 77,-120 1310,-1256 1554,-1506 580,-87 1683,305 1816,-307 -507,-328 -1422,-339 -2019,-293 -22,-434 -185,-441 -275,-828 542,-12 110,30 486,363 501,-25 375,-193 587,-495l386 -87c135,-452 219,-318 368,-659l-433 113c151,-203 374,-503 593,-619 13,19 33,24 38,58l129 596 -408 318c68,174 167,310 258,484 380,-143 211,-346 697,-409 99,795 -212,472 -408,1137 199,450 235,73 329,743 49,349 9,654 57,992 322,40 560,-214 597,-537 55,-490 -138,-637 -236,-1037 232,-455 378,-226 519,-837 306,3 615,-22 869,114 -357,333 -919,394 -1091,965 236,405 395,184 285,785 606,84 824,626 1419,645l-209 -298 449 -426c183,86 393,222 466,401 -321,311 -546,147 -611,587 624,-74 442,-464 1199,-330l7 -278c354,-141 290,-31 408,-296 -608,41 -689,368 -1144,-229 121,-146 128,-160 342,-223 40,-12 234,-47 257,-55 241,-78 67,10 230,-124 -349,-211 -703,24 -1058,152l-343 -295 519 -383c-320,-186 -293,-61 -573,51 -386,155 -173,-29 -534,-51 2,331 79,66 17,411l-518 294 -231 -409c145,-251 294,-362 537,-494 101,-55 236,-104 324,-161 133,-87 61,-47 127,-107 193,-175 380,-138 643,-144l217 -489c-591,14 -514,-81 -1017,-197 -392,-91 -706,-73 -1091,-134 -115,-710 657,-1358 76,-1920 -747,224 -202,1296 -1173,1521l-90 -643c200,-105 471,-157 619,-294 -261,-199 -297,-113 -616,-25l-66 -562 528 -216c-451,-354 -974,367 -1464,585 72,-807 990,-877 1576,-1107 1545,-610 625,-656 1248,-1392 473,208 216,781 226,879 378,194 278,72 520,-68 238,-139 375,-51 612,-23 -10,-330 -347,-777 -562,-1015l-400 177c-171,-148 -141,-180 -420,-210l-77 -533c-570,147 -639,915 -693,1436 -412,27 -804,75 -1215,78 -235,1 -381,21 -598,37 -315,24 -181,-69 -573,-71l67 -562c578,60 213,-189 673,-113 230,381 28,106 -38,540 271,-23 900,-336 1120,-558 188,-190 409,-210 619,-404 -306,-177 -420,42 -787,87l-142 -249 500 -210c-461,-446 -491,277 -905,-275 154,-176 490,-280 693,-306 361,287 394,691 730,794l-157 -497 810 234c-170,-519 -796,-904 -1309,-949 484,-1232 226,-1261 269,-1445 194,-300 345,-356 545,-651 239,-352 279,-587 717,-527 -82,289 -172,208 -2,534l-933 1362c219,318 1494,903 1914,988 205,-174 1020,-1427 1073,-1639 -401,85 -598,348 -912,487l-366 -204c288,-543 638,-495 1123,-471l-244 -356 146 -452c-683,-83 -306,292 -877,183 19,-372 247,-415 472,-619 -140,-263 -84,-287 -177,-481 -593,14 -378,303 -932,289 91,-364 274,-427 623,-432 -76,-242 -62,-515 122,-691 260,62 1756,3299 1790,3644 -287,315 -654,443 -838,822 416,-29 783,-305 1166,-343l941 1851 -716 -207c61,-406 88,-161 223,-548 -472,78 -122,-24 -448,282 -204,-143 -129,-192 -436,-205 215,-173 166,-122 204,-358 -264,82 -501,408 -701,611 164,-274 505,-672 389,-972 -354,-27 -595,678 -902,851l-248 -189c55,-789 685,-953 825,-1508 -417,101 -1071,691 -1262,1055 -424,1 -911,3 -1196,308 255,397 806,303 1239,290 234,259 292,457 252,818 306,23 182,-43 398,172 -104,455 -418,755 -890,792 -205,16 -682,129 -802,116 -335,-36 -166,-206 -716,-191 49,417 381,636 714,831 460,-142 52,-231 635,-170 -363,458 -531,437 -857,646l212 463c-282,268 -162,-50 -236,344 893,-13 578,-218 509,521 303,-12 635,-294 867,-461 8,-349 -82,-421 13,-770 326,-91 329,3 598,46 -55,-508 48,-612 -334,-939l511 -430c482,442 223,1052 900,964 13,-449 -162,-542 -171,-959 374,-296 332,-344 810,-180 -134,401 -224,199 -470,347 73,160 110,146 163,284l136 375 603 -78c-191,623 -476,54 -815,617 389,386 986,458 1520,252 729,-281 469,-624 786,-1045l624 791c-236,172 -615,422 -922,596 -254,145 -322,617 -939,565 -69,-335 -16,-94 39,-432l-489 -153c-99,295 -135,258 -403,389 -407,200 -286,151 -681,34l1 529c369,208 348,138 265,562 287,140 223,-34 378,120 280,278 -11,375 359,579 161,90 44,7 151,104 -42,378 -447,376 -833,447 -223,-803 -556,-1601 -1454,-1617 69,401 421,997 684,1338 300,389 558,275 872,576 110,105 131,122 259,213 533,19 1104,-158 1241,-703l-392 -83 88 -294c-338,-77 -190,3 -294,-196l1045 -564c862,24 957,60 1445,-698 728,225 12,618 -321,778l188 420c554,57 514,-274 731,-173l-378 199c32,315 41,323 189,593 209,379 25,209 414,399 54,338 8,438 237,687l-24 -971 466 -23c-63,329 -159,141 -194,470l-129 525c431,-46 298,-132 704,-315l214 219 49 -349c340,-125 418,-84 722,-263 435,-255 200,93 674,-119 29,-102 120,121 -30,-222 -287,-655 -913,-1105 -1466,-1516 -467,-346 -1131,-1308 -1559,-1815 -1063,-1260 -1997,-2604 -2765,-4061 -703,-1335 -1690,-3220 -2112,-4633 -535,-1793 -1190,-3432 -1527,-5290 -172,-944 -431,-1885 -539,-2833 -352,-3113 -883,-5102 -2198,-8009 -1191,-2634 -3159,-3790 -5822,-4377 -1058,-233 -1937,-386 -3027,-444 -1214,-65 -1975,244 -3120,295 -802,36 -2174,184 -2920,443 -3021,1048 -3539,-804 -7085,3108 -801,884 -649,1386 -1206,2167 -310,434 -377,623 -618,1068 -266,493 -526,477 -930,756 -426,294 -401,648 -688,999 -337,414 -749,374 -1171,596 -386,204 -499,582 -820,863 -310,271 -743,377 -1103,583 -653,373 -1214,1015 -1925,1451 -707,432 -1318,934 -2014,1358 -1365,831 -1495,1885 -1867,3268 -117,439 -284,836 -432,1263 -955,2741 -1078,1471 -452,3895 143,554 123,940 126,1498 7,1108 632,1489 1644,1708 320,430 638,1243 1287,1212l204 -507c853,967 575,150 1065,428 -226,285 -324,175 -392,545z"/><path d="M19555 18267c580,-46 27,-94 493,-170 276,563 -694,442 -974,231l854 -1059c162,245 115,127 99,417 -250,205 -394,215 -472,581zm-1591 -2922c75,152 11,-104 66,181 3,17 29,249 32,272 -384,-89 -642,-410 -98,-453zm4192 1804l-285 -15c-123,257 -217,269 -304,443 -154,306 72,229 -425,373 268,-1247 203,-826 -190,-1950l327 -175c13,14 33,19 39,49 27,145 259,297 407,374l-39 356c176,-54 122,-73 305,-125 175,-49 205,-16 381,-83 -72,-213 9,-113 -210,-189 -150,-53 -143,-8 -348,-123 -95,-397 290,-188 -255,-370 425,-267 900,-334 1398,-368 -83,442 -560,1494 -801,1803zm-2276 -999l-375 418c-258,-251 -35,-68 -185,-319 -145,-244 -102,-147 -318,-205 -214,389 0,489 20,842 16,290 -142,456 -362,602l-307 -433c215,-467 596,-1266 835,-1680 397,-686 554,-1023 1445,-1149l181 1126 -582 382c-126,-460 156,-1011 -456,-972 -229,591 74,894 104,1388zm1987 -1320l-436 163c-354,-597 142,-377 -670,-745 195,-271 510,-293 900,-288 162,245 158,509 206,870zm352 -32c-29,-408 -213,-781 -211,-967l582 -49c162,314 126,555 84,920l-455 96zm-3020 -903c39,-278 176,-430 298,-35l-298 35zm4365 -369l42 1048c-285,69 -221,142 -499,69 -9,-17 -23,-40 -26,-53l-200 -915 683 -149zm-2426 -447l103 187c-159,-91 -102,61 -103,-187zm-2599 -133c34,-243 33,-201 239,-319 -94,275 -29,231 -239,319zm3429 -159c60,-236 72,-306 258,-459l199 173c-70,360 -122,-43 -69,341 415,94 70,-164 392,21 -297,145 -517,160 -780,-76zm2749 -723l-383 252c-231,-203 -455,-763 -539,-1085l511 -208 878 604c334,-100 998,-266 1207,-446 -330,-221 -697,-48 -1072,-6 -399,45 -432,-225 -859,-376 114,-429 457,-876 247,-1310 -390,141 -715,1105 -1055,1437 -729,-89 -799,-98 -1549,30 38,-409 193,-594 -119,-821 -293,230 -231,854 -162,1202 498,566 930,79 1503,112 181,284 463,674 399,982 -508,81 -433,-409 -864,-556 116,535 494,559 241,906 -318,-59 -252,-46 -242,-390 -420,8 -174,-35 -552,-239l-703 465 258 479c-403,27 -173,132 -818,-370 249,-424 749,-643 478,-1169 -456,-169 -438,286 -826,554 -347,-282 -358,-581 -610,-783 -6,292 -56,337 -344,516 -159,-114 -38,19 -138,-132 -44,-67 -44,-112 -113,-233l-362 159c214,424 10,-57 478,470 240,269 175,298 553,394l-247 -459 208 -215 504 554c-160,490 -9,505 92,967 -819,593 -1071,155 -1330,-73 421,-327 703,33 662,-569l-638 -80c-238,-245 -427,-749 -723,-870 -13,413 144,387 281,757 -386,-136 -201,-25 -602,45 -226,-298 -57,-243 -405,-275l264 492c-139,249 -122,250 -349,326 -164,-416 68,-404 -422,-489 125,940 -22,151 516,1057l-485 -48c-199,-319 -186,-701 -489,-856 -334,297 84,441 161,899 -136,59 -82,17 -168,52l-242 129c204,351 1101,288 1464,177 152,-303 -60,-396 -127,-645l255 -339c362,393 -30,344 192,792 163,330 463,316 167,726 -409,-154 8,-38 -321,-327 -52,87 -160,-1 -11,313 76,160 95,106 174,332l-231 372c-516,-216 58,-248 -587,-315 -166,242 -148,580 -403,354 -189,-320 109,-332 238,-722 -301,147 -665,591 -747,902l313 -82c272,215 99,219 364,361 229,123 282,71 476,254 -309,869 -767,1512 -1359,2169l98 465c415,49 369,143 914,-411 256,-260 158,-461 500,-610 161,282 -60,606 -228,879 -273,446 -254,355 -32,822 700,11 2007,290 2565,29 643,-300 1220,-606 1680,-1134 671,-770 759,-616 1124,-1690 541,-1590 807,-1267 630,-1921 996,-442 219,-851 66,-1246 243,-101 278,-145 530,-134 103,271 -8,302 176,543 459,-120 329,-434 338,-781 348,-26 492,100 785,-31 -41,-361 -211,-253 -309,-704 -467,-36 -308,-143 -725,-180z"/><path d="M20654 22504l324 -17c-59,60 42,73 -134,69 -145,-3 -116,-19 -190,-52zm-601 -2648l-465 -217c-131,112 -91,211 -325,314 -322,143 -283,-67 -330,299 548,254 234,-182 883,68 -32,719 -28,-9 -575,890 -220,362 -329,717 -498,1015 -248,-4 -527,-170 -949,-192l362 -849 590 -115c-20,-301 -112,-353 -401,-267 -490,144 -150,123 -639,-24 -569,-170 -623,-554 -1233,-403 14,311 225,219 435,455 161,182 59,153 176,308 89,117 137,106 270,242 -152,1184 67,899 914,1216 790,294 312,-12 901,42 226,21 549,302 774,392l509 -306c248,287 469,941 856,946 172,-233 17,-505 -113,-771l324 -117c12,-6 36,-20 51,-32 -646,-657 -505,-419 -741,-542 -257,-133 53,-20 -268,-225 -414,231 -384,438 -668,628 -167,-324 34,-175 -237,-504l198 -206c10,-9 35,-25 50,-40l-172 -280 354 -236 -266 -230c1037,-91 1114,56 1505,-713 283,-558 472,-163 441,-585 -254,-101 -492,-11 -749,86l-319 754 -475 -13 -11 -389c376,-278 897,-303 843,-773 -323,-74 -686,207 -1002,374z"/><path d="M24098 16958c-39,22 -65,20 -75,47 -24,70 -229,36 -408,272 269,235 123,58 505,33l-4 410 -848 -52 -176 424 321 136c-14,313 -48,427 105,643 246,-179 150,-533 282,-812 376,-210 554,-114 819,197l2 470 -1278 503 -234 -488c-395,-2 -872,358 -1047,706 -175,350 -97,1031 -283,1488 -444,161 -471,20 -694,456 113,193 187,113 146,506l-264 3c-86,-398 -146,-738 -642,-739 -11,357 347,746 532,976 310,-2 574,0 764,-215 556,-632 915,-728 827,-1827 -30,-376 81,-717 336,-964l387 581 737 -205c177,139 201,218 450,223 3,-295 -4,-49 -129,-358 325,-245 242,-200 482,-482 409,278 507,1129 1080,1001 48,-535 -475,-968 -823,-1322 114,-386 618,-904 460,-1280 -539,131 -217,757 -804,495l-147 -737c323,-158 634,-132 705,-578l-632 38c-308,-183 -294,-336 -714,-350l262 801z"/><path d="M32771 40973c171,-231 196,-243 461,-325l228 607 -377 248c-305,-267 -189,-237 -312,-530zm-958 -386c207,-267 173,-284 448,-348l196 647 -345 336 -299 -635zm852 49c-143,-376 -356,-651 -2,-928 217,78 254,238 441,737l-439 191zm-1172 -763c168,-188 291,-307 527,-369 185,394 21,604 -345,803l-182 -434zm1114 -688c51,282 -61,316 -287,435l-166 -358c487,-179 219,-172 453,-77zm-1456 361c-48,560 -146,423 -325,872 408,-80 64,-134 476,-242 154,205 240,301 177,568 364,233 419,476 366,952 560,-9 193,151 624,210l-239 -434c207,-232 123,-185 352,-257 265,486 234,335 30,839 319,-88 1527,-909 1572,-1139l-520 130 -673 -1504c291,-217 186,33 273,-226 -195,-181 -118,-104 -435,-110l-160 -479c-1057,476 -700,759 -1518,820z"/><path d="M15000 22424c498,358 549,534 954,963 46,508 -218,618 -52,1015l498 -25c-183,642 -410,29 -575,598 749,-33 210,65 649,51 -64,-435 55,-426 271,-756 -310,-226 -134,7 -224,-235l313 -142c-174,-172 -250,-142 -403,-185l559 -211c-185,-170 -163,-108 -335,-152 173,-151 201,-67 495,-142 -52,-329 -120,14 -97,-665l-938 255c-158,-108 -220,-209 -360,-327 -146,-121 -278,-160 -415,-270 278,-161 307,-82 643,-59 -250,-482 -209,58 -271,-461l416 -125c-593,-1310 -936,234 -1128,873z"/><path d="M26719 11095c69,190 545,911 723,1045 1362,-267 1018,511 2171,-463 364,57 185,207 558,73 295,-906 219,-325 662,-729 -257,-115 -296,-55 -597,-59 -50,-237 -17,-316 -225,-428 -297,266 -86,77 -260,954 -231,14 -761,178 -1048,240l-862 99c-238,-12 -107,22 -244,-80 151,-283 134,-119 483,-245 -15,-14 -37,-60 -47,-42l-266 -57c-290,-20 -30,112 -335,-60l-81 -312c331,-144 583,-68 822,-325l-546 0c205,-296 278,-162 569,-316 -109,-94 109,-129 -475,-61 -1,-312 58,-224 -118,-447 -428,127 -635,838 -884,1213z"/><path d="M24987 14517c-351,-78 -225,-68 -352,43 330,454 595,194 602,916l-314 2 -192 -380 -318 30c-108,211 -89,46 17,350 -294,12 -197,-59 -338,120 241,251 581,187 935,247l52 512c492,-4 524,-126 512,-609 443,-42 979,-270 888,-851l-637 266c-155,-183 -70,-227 -215,-401 -229,-273 -192,31 -284,-369 322,-295 507,-81 476,-623 -428,-41 -763,292 -832,747z"/><path d="M35326 43842l470 -259c168,127 268,268 284,493 -222,210 -219,203 -521,191l-233 -425zm-14 -1008c221,142 280,214 379,483l-484 335 -284 -531 389 -287zm-400 -12l-365 -168c-38,409 129,272 -28,642 15,13 41,9 49,34 39,125 53,-33 240,157 66,67 131,214 174,297 -130,289 -187,147 -216,462l385 -130c286,258 149,293 561,484 343,-169 278,-377 742,-231 -11,-336 32,-333 275,-534 496,-410 306,-156 477,-478l-927 539 -197 -502c333,-263 905,-402 1040,-553 -355,-204 -800,182 -1167,278 -229,-214 -313,-229 -392,-540 229,-259 425,-248 683,-401 -308,-398 -1101,378 -1334,644z"/><path d="M29387 27822c-59,-104 53,-4 64,11 97,123 -50,15 -64,-11zm-1007 208c82,-255 121,-243 303,-431 212,-218 122,-204 365,-278 397,475 -245,614 -668,709zm1344 -835c-313,70 64,31 -308,134 -348,-255 -145,-167 -293,-458 -731,284 -1272,121 -1579,1065 411,-160 376,-510 1030,-598l-640 1025c311,26 410,-41 733,-170l435 131 411 372c-15,12 -37,25 -47,30l-337 138 240 205c525,-127 418,-266 653,-612 166,-246 523,-379 226,-631l-557 684c-233,-88 -313,-193 -461,-383l581 -222c10,-24 37,-17 56,-27l-312 -321 169 -362z"/><path d="M8650 26895c-217,-246 -95,-493 -137,-820l-338 355c-261,-116 -44,30 -248,-216 -113,185 -43,293 -214,413 -301,209 -95,-143 -372,185 -56,67 -358,637 -376,751 202,260 258,308 618,216l710 -176c313,-336 580,-643 632,-1111 -282,219 -102,96 -275,403z"/><path d="M23300 21210l-338 -275c304,33 322,-4 338,275zm428 -725c-215,166 -61,105 -186,11 77,-56 -1,-33 111,-50 5,0 34,28 38,15 4,-15 25,16 37,24zm-356 -516c-162,926 -491,374 -948,994 161,219 -25,143 349,179 -481,431 228,1122 531,1155 119,-442 -259,-632 -431,-945l458 122c101,-107 841,-1188 865,-1278 -375,35 -163,208 -438,-21 292,-254 151,42 299,-236l-218 -190c-444,226 16,228 -467,220z"/><path d="M40419 39672c473,129 576,-67 879,-342 192,-174 526,-395 755,-588l8 -338c-212,-263 -327,-298 -653,-325 -423,280 -1120,1089 -989,1593z"/><path d="M10088 27400c-121,-236 -189,-137 -204,-439l370 132c-114,-280 -221,-344 -480,-463 -309,167 -79,139 -497,290 112,504 230,543 -180,884 291,558 620,885 1501,663 -159,-289 -267,-276 -601,-348 -5,-291 69,-194 -148,-376 205,-200 107,-76 239,-343z"/><path d="M29615 21139c447,299 512,-465 908,160 -404,374 -364,65 -720,12 128,562 501,451 632,878l-657 -171c78,598 111,-203 162,620 373,-51 237,-128 635,22 11,-16 23,-64 27,-52 9,25 -4,-103 204,-280 139,-119 67,102 210,-276 -346,-74 -513,15 -580,-414l576 -149c-97,-303 -318,-200 -465,-591 244,-189 219,-63 372,-321 -288,-102 -1227,435 -1304,562z"/><path d="M28489 44174l402 -42c249,-555 -286,-1866 -1168,-1593 3,118 651,1520 766,1635z"/><path d="M4617 26034c116,-263 336,-188 365,-275 8,-26 34,-26 49,-41l-647 -174 -44 479 -328 -407c-120,202 -180,-414 9,638 -17,11 -41,27 -51,33 -10,5 -40,23 -50,29 -10,5 -40,18 -48,23 -13,6 -67,22 -93,30l477 762c316,-119 699,-141 840,-211 -157,-128 -359,-136 -621,-168l7 -388c230,130 485,72 611,-153 -199,-157 -54,-55 -357,-137l-119 -40z"/><path d="M26797 15686c492,182 534,-283 592,-678 88,-597 208,-912 -520,-924 -243,429 -290,1162 -72,1602z"/><path d="M17874 25307c-738,-94 -942,195 -1515,382 -337,-314 -216,-503 -752,-558 130,946 678,841 990,831 504,-18 1205,-48 1277,-655z"/><path d="M25077 44788c416,20 325,-182 598,-416 320,209 927,547 938,-101 -198,-172 -628,-267 -916,-339 -16,-350 76,-325 -186,-528 -274,136 -190,335 -259,684 -47,236 -137,467 -175,700z"/><path d="M26547 30063c-327,-158 -753,-387 -1085,-152 125,139 -116,32 232,204 228,111 1987,1188 2141,188 -557,-6 -773,10 -1288,-240z"/><path d="M33441 19047l-234 216c489,252 176,-140 499,404l-8 -481 230 -143c-124,-134 -191,-8 -321,-213 -277,-434 126,-715 252,-825 380,305 341,704 650,973 130,-286 -243,-982 -401,-1233 -756,32 -823,676 -667,1302z"/><path d="M18082 25117c475,-50 792,-1328 792,-1328 -114,-222 -95,-237 -336,-286 -232,300 -529,1244 -456,1614z"/><path d="M7439 38639l-273 113c-93,418 -45,613 -2,1017 -255,210 -173,46 -306,342l1019 8c-118,-245 -83,-192 -315,-358l-123 -1122z"/><path d="M31571 14272c261,-158 574,-1236 177,-1387 -643,-244 -401,1123 -177,1387z"/><path d="M27136 13905c99,44 1448,385 1316,-450 -149,-17 -552,48 -772,65 -377,28 -549,22 -544,385z"/><path d="M25116 21464c557,-11 942,-696 955,-1215 -484,19 -847,745 -955,1215z"/><path d="M28429 32332c893,-301 1082,-807 1229,-939 211,-189 191,18 344,-292 -802,-62 -577,334 -855,579 -292,259 -636,250 -718,652z"/><path d="M30173 17618l311 -239c-395,-198 -188,162 -560,-173 175,-294 32,-7 316,-249 -291,-176 -278,-90 -607,-103 -234,-217 -87,-203 -394,-191 109,311 608,861 934,955z"/><path d="M27610 20010l-108 71c-382,164 -263,20 -367,273 246,-14 419,-131 628,-218 385,134 256,162 694,167 -178,-278 -741,-707 -1045,-815 42,364 2,230 198,522z"/><path d="M25553 32105c343,53 1697,-1155 1700,-1159 -193,-114 -299,-14 -587,20 2,25 16,167 16,169 -16,291 -973,455 -1129,970z"/><path d="M9241 30668c219,19 671,-102 889,-178 428,-149 591,-113 621,-538 -403,71 -1233,403 -1510,716z"/><path d="M26002 19774c411,249 988,107 1077,-367 -282,-70 -302,-18 -596,48 -354,79 -425,30 -481,319z"/><path d="M15522 14749c465,-57 956,-449 759,-925 -297,49 -252,95 -462,350 -204,247 -224,239 -297,575z"/><path d="M29741 38033c276,12 510,-302 703,-483 201,-190 581,-379 672,-592 -312,-139 -1372,805 -1375,1075z"/><path d="M26423 16883c0,1 755,953 1217,719 -208,-217 -383,-171 -673,-481 119,-359 46,12 201,-290 -275,-70 -481,-53 -745,52z"/><path d="M27476 18536c-153,-260 -97,-179 -400,-328 -72,-263 -65,-33 11,-324 -520,-26 -444,-190 -730,-165 110,495 726,797 1119,817z"/><path d="M31875 44974c348,6 445,-177 729,-366 306,-203 636,-182 768,-434 -505,-50 -1294,352 -1497,800z"/><path d="M29685 38750c229,-45 1169,-649 1274,-831 -476,-60 -1127,401 -1274,831z"/><path d="M24990 38058c251,160 269,135 558,76 374,-75 366,-60 382,-369 -246,-107 -858,39 -940,293z"/><path d="M30185 11984c123,224 743,391 1008,385 -68,-459 -656,-633 -1008,-385z"/><path d="M18169 19730c-120,288 -122,142 61,417 198,298 113,246 378,264 144,-382 32,-776 -439,-681z"/><path d="M29004 16401c297,221 195,-22 607,-38 252,-10 396,111 697,129 -223,-358 -1211,-547 -1304,-91z"/><path d="M26626 16240l-887 -114c60,290 125,354 450,402 376,55 449,-5 437,-288z"/><path d="M19847 10478c106,245 193,111 486,262 207,106 315,251 520,347 -47,-500 -685,-833 -1006,-609z"/><path d="M23925 25766c268,-91 494,-832 515,-1141 -223,181 -689,883 -515,1141z"/><path d="M16675 13251c142,-208 70,-904 -83,-1089 -269,188 -111,879 83,1089z"/><path d="M32610 21891c-41,-119 -152,-231 -230,-388 -150,-299 -46,-314 -280,-449 -142,306 128,875 510,837z"/><path d="M26656 37515c229,-49 686,-299 793,-477 -312,-110 -719,60 -793,477z"/><path d="M26636 31979c262,105 720,-181 788,-459 -278,24 -665,236 -788,459z"/><path d="M24286 26683c256,-148 199,-136 359,-387 402,-624 101,-391 68,-450 -214,222 -361,532 -427,837z"/><path d="M26780 33454c287,-38 629,-218 725,-491 -346,-13 -659,175 -725,491z"/><path d="M5691 28915c-257,-110 -247,-204 -481,-290 105,415 822,660 1108,544 -178,-117 -399,-157 -627,-254z"/><path d="M30378 11529l1010 -236c-327,-250 -842,-81 -1010,236z"/><path d="M18625 35995c238,172 580,150 789,-70 -193,-119 -607,-182 -789,70z"/><path d="M27290 20724c225,143 149,97 430,-29 259,-117 264,-80 370,-260 -257,-30 -618,63 -800,289z"/><path d="M21460 11136c-79,-255 -424,-610 -686,-690 74,348 376,565 686,690z"/><path d="M24773 10365c78,63 -32,192 460,52 368,-105 304,-74 413,-199 -283,-110 -600,48 -873,147z"/><path d="M26680 19089c286,-14 258,-24 346,-191 -8,-11 -521,-461 -521,-462 79,297 119,273 175,653z"/><path d="M22714 28938c279,-137 455,-507 500,-810 -308,143 -430,470 -500,810z"/><path d="M19537 34504c331,-31 638,-104 746,-430 -330,58 -580,142 -746,430z"/><path d="M30135 10459c234,132 613,10 774,-88 -245,-222 -580,-132 -774,88z"/><path d="M6494 35995c310,52 325,96 532,-151l-508 -225 -24 376z"/><path d="M13996 37051c243,306 599,215 669,-152 -405,122 -444,24 -669,152z"/><path d="M10526 25200c271,-45 496,-379 626,-610 -264,53 -605,321 -626,610z"/><path d="M34573 30228c216,-162 505,-456 569,-724 -364,147 -459,333 -569,724z"/><path d="M29475 13188c215,121 697,-96 775,-160 -251,-138 -582,-48 -775,160z"/><path d="M25221 31631c313,-52 498,-146 648,-398 -294,47 -629,99 -648,398z"/><path d="M4636 25266c152,209 499,178 621,-32 -89,-32 -189,-64 -301,-66 -385,-6 -154,-35 -320,98z"/><path d="M32932 21194c-41,-299 -21,-401 -305,-477 -169,271 46,380 305,477z"/><path d="M27836 14461c250,-76 365,-50 493,-223 -34,-27 -7,-192 -306,-87 -170,59 -175,162 -187,310z"/><path d="M22705 18489c240,131 329,145 561,0 -89,-70 -1,-99 -285,-139 -402,-57 -226,101 -276,139z"/><path d="M9532 36066c189,141 438,85 527,-139 -189,-119 -373,-34 -527,139z"/><path d="M3378 26920c222,166 388,175 577,0 -223,-127 -402,-149 -577,0z"/><path d="M22458 10053c24,14 -106,186 262,39 217,-87 168,-125 242,-222 -242,2 -360,-25 -504,183z"/><path d="M27372 21610c253,-38 393,-174 495,-412 -274,73 -426,126 -495,412z"/><path d="M14856 25973c-36,-269 -18,-296 -264,-416 -140,325 -50,309 264,416z"/><path d="M24935 9923l799 -200c-374,-98 -582,-89 -799,200z"/><path d="M5154 29651c273,207 458,194 611,135 -195,-167 -374,-217 -611,-135z"/><path d="M6493 38151c266,-94 318,-210 394,-484 -240,107 -325,228 -394,484z"/><path d="M19844 33827c212,189 295,155 453,-81 -175,-63 -314,-64 -453,81z"/><path d="M11834 25234c155,208 96,184 428,92 -175,-250 -180,-225 -428,-92z"/><path d="M24717 12064c29,-321 33,-76 -82,-188 -350,55 -204,-31 -341,212l423 -24z"/><path d="M6077 33172c2,-4 147,86 47,-197 -67,-188 -142,-153 -231,-203 32,311 -56,185 184,400z"/><path d="M27862 15325c214,-72 328,-159 439,-361 -248,48 -416,107 -439,361z"/><path d="M3692 27964c164,143 186,168 417,31 -247,-175 -198,-202 -417,-31z"/><path d="M22393 10459c203,128 142,120 398,0 -117,-106 173,-99 -172,-106 -287,-5 -165,52 -226,106z"/><path d="M31206 18508c144,223 266,132 400,-19 -283,-101 -206,-87 -400,19z"/><path d="M9583 38587c224,3 247,-44 334,-245 -195,19 -312,14 -334,245z"/><path d="M29772 31578c270,150 202,124 292,-80 -287,-118 -205,-58 -292,80z"/><path d="M2736 28531l341 19c-27,-62 127,-128 -142,-122 -395,9 -119,18 -199,103z"/><path d="M27933 9951c153,112 287,108 358,-91l-358 91z"/><path d="M16060 21146c102,75 -171,95 139,62 259,-27 57,-7 151,-69 -110,-55 -75,-109 -290,7z"/><path d="M8487 37732c280,-18 170,86 264,-226l-264 226z"/><path d="M22463 15908l35 -287c-215,294 -134,165 -35,287z"/><path d="M6965 21520c3,39 80,175 111,13 15,-80 -129,-190 -111,-13z"/><path d="M5327 37390l244 -240c-157,57 -169,63 -244,240z"/><path d="M16866 19067c0,2 110,68 73,-27 -20,-54 -77,-167 -73,27z"/><path d="M22158 34454c279,-31 102,14 335,-119l-335 119z"/></g></svg>