<?xml version="1.0" encoding="UTF-8"?>
<svg id="katman_2" data-name="katman 2" xmlns="http://www.w3.org/2000/svg" viewBox="0 0 82 82">
  <g id="katman_1" data-name="katman 1">
    <path d="M42.1,35c-1.3-8.1-6.7-14.2-13.1-14.2-7.4,0-13.4,8.1-13.4,18s6,18,13.4,18c2,0,3.8-.6,5.5-1.6.2.5.5.9.8,1.3,2.2,3,5.9,4.6,10.1,4.6s8.5-1.4,12.4-4.3c8-5.8,11-15.5,6.6-21.5-4.3-5.9-14.3-6-22.3-.3ZM34,45.6c-.9,2.8-.9,5.5-.2,7.8-1.5.9-3.1,1.5-4.8,1.5-6.4,0-11.5-7.2-11.5-16.1s5.2-16.1,11.5-16.1c5.8,0,10.5,5.9,11.4,13.6-3,2.7-5.3,5.9-6.4,9.3ZM56.7,55.3c-7.2,5.2-16.1,5.3-19.8.1-1.8-2.4-2.1-5.7-1-9.2,1.2-3.6,3.7-7,7.2-9.6,7.2-5.2,16.1-5.3,19.8-.1,3.7,5.2.9,13.6-6.2,18.8ZM58.6,37c-.2.5-.7.8-1.2.6-.6-.2-1.3-.3-2.1-.4-1.1,0-2.3.1-3.6.4h-.2c-.4,0-.8-.3-.9-.7-.1-.5.2-1,.7-1.2,1.4-.4,2.8-.5,4.1-.5.9,0,1.8.2,2.6.4.5.3.7.9.6,1.4ZM48.3,37.9c.3.5.1,1-.4,1.3-.7.4-1.4.8-2,1.3-.2.1-.4.2-.6.2-.3,0-.6-.1-.8-.4-.3-.4-.2-1,.2-1.3.7-.5,1.5-1,2.2-1.4.5-.3,1.1-.2,1.4.3ZM41,0C18.4,0,0,18.4,0,41s18.4,41,41,41,41-18.4,41-41S63.6,0,41,0ZM41,79c-21,0-38-17-38-38S20,3,41,3s38,17,38,38-17,38-38,38Z"/>
  </g>
</svg>