<?xml version="1.0" encoding="UTF-8"?>
<svg id="katman_2" data-name="katman 2" xmlns="http://www.w3.org/2000/svg" viewBox="0 0 82 82">
  <g id="katman_1" data-name="katman 1">
    <path d="M72.18,29.8c.05-.29-.04-.58-.23-.79-.19-.21-.47-.33-.76-.31-4.45.29-9.24,4.94-12,8.1-5.83-3.59-16.16-9.09-24.74-9.09s-18.95,5.72-23.1,9.58c-.98.91-1.54,2.27-1.54,3.71,0,1.44.56,2.8,1.54,3.71,4.15,3.86,14.36,9.58,23.1,9.58s18.91-5.5,24.74-9.09c2.76,3.16,7.55,7.81,12,8.1.29.02.57-.09.76-.31.19-.21.28-.5.23-.79-.01-.08-1.35-8.38-1.36-11.2.01-2.83,1.35-11.12,1.36-11.2ZM11.71,41c0-.92.34-1.76.94-2.32,1.96-1.82,5.33-4.08,9.24-5.89.71.2,2.17,2.98,2.17,8.2s-1.46,8-2.17,8.2c-3.91-1.81-7.28-4.06-9.24-5.88-.6-.56-.94-1.4-.94-2.32ZM70.1,51.2c-3.92-1.06-8.22-5.73-10-7.84-.3-.36-.83-.44-1.23-.19-5.49,3.45-15.97,9.23-24.42,9.23-3.48,0-7.21-.97-10.66-2.37,1.43-1.76,2.17-5.4,2.17-9.02s-.74-7.26-2.17-9.02c3.45-1.4,7.18-2.37,10.66-2.37,8.45,0,18.93,5.78,24.42,9.23.4.25.93.17,1.23-.19,1.78-2.11,6.08-6.78,10-7.84-.38,2.5-1.17,7.9-1.18,10.2,0,2.29.8,7.69,1.18,10.19ZM20.32,39.43c0,1.16-.94,2.1-2.1,2.1s-2.1-.94-2.1-2.1.94-2.1,2.1-2.1,2.1.94,2.1,2.1ZM41,0C18.39,0,0,18.39,0,41s18.39,41,41,41,41-18.39,41-41S63.61,0,41,0ZM41,79c-20.95,0-38-17.05-38-38S20.05,3,41,3s38,17.05,38,38-17.05,38-38,38Z"/>
  </g>
</svg>