<svg xmlns="http://www.w3.org/2000/svg" xmlns:xlink="http://www.w3.org/1999/xlink" xml:space="preserve" version="1.1" style="shape-rendering:geometricPrecision;text-rendering:geometricPrecision;image-rendering:optimizeQuality;" viewBox="0 0 508 635" x="0px" y="0px" fill-rule="evenodd" clip-rule="evenodd"><g><path d="M165 484c-6,0 -5,-1 -6,-6 3,2 4,4 6,6zm139 -6c-2,-3 -4,-4 -5,-8l5 0 6 5c1,1 0,1 1,2l-7 1zm1 -12c-1,-2 -4,-6 -3,-8 0,0 1,0 1,0l5 -1c3,2 5,6 7,9l-10 0zm42 -226c0,0 8,5 8,3 0,0 1,1 1,1 -1,2 0,2 -5,1l-16 -2 12 -3zm23 4c2,-7 1,-12 13,-22l11 4 -6 10c-8,6 -2,4 -8,11 -2,3 -3,5 -5,8l-6 -6c3,-3 6,-5 8,-10 -5,2 -2,2 -7,5zm-253 -15l4 5c1,2 1,3 2,6 -3,-2 -5,-7 -6,-11zm-10 -13c4,3 11,22 12,26l-4 3c-3,-3 -2,-2 -3,-5 -1,-2 -1,-2 -2,-3 -5,3 1,2 -5,5 0,0 -1,1 -2,1 1,5 5,6 3,10 -4,-9 -14,-21 -14,-31 3,-3 9,-7 13,-8 0,0 1,1 1,1 0,0 0,0 1,0 0,0 0,0 0,1zm226 257c-11,-6 -14,9 -24,-4 13,-1 9,4 15,0 -1,-2 -8,-3 -10,-12l6 0c3,5 6,11 11,10 -1,-3 -4,-5 -6,-8 2,-5 -3,5 1,-2 1,-1 1,1 1,-2 -11,-4 -2,-4 -8,-7l-1 1c0,1 0,1 0,1 0,1 0,1 0,1 -1,2 0,0 -1,3l-5 -1c-1,-4 0,-2 -3,-5 -1,1 -1,0 -2,3 0,1 0,1 0,3 -4,0 -11,-1 -14,2 2,3 0,1 3,2 0,0 3,0 3,0 0,4 1,6 3,9l-7 0 -5 -10c-1,2 -2,-2 -1,3l3 7c-5,0 -4,0 -6,1 5,5 4,1 8,3 1,0 2,1 3,2 2,3 1,1 1,4 -9,0 -12,2 -20,-15 -4,-8 1,-5 -4,-7 -1,1 -2,0 -1,4 0,3 7,12 8,15 2,5 -1,5 -3,5 1,2 0,1 1,4l-7 2c-5,-4 -11,-13 -12,-14 -3,7 7,12 9,16l-13 4c-3,-4 -6,-8 -8,-12 -2,-3 -5,-9 -7,-11 -3,4 1,9 4,13l8 10c-6,1 -6,0 -8,-3 -4,-4 -13,-14 -18,-14 0,4 1,3 4,5l13 12c-23,3 -21,-14 -29,-16 0,7 5,10 9,14 1,1 1,0 1,2l-11 -1c-4,-7 -6,-6 -9,-17 -7,4 1,9 5,17 -12,-1 -11,-11 -18,-15 -2,5 4,10 7,14 -8,0 -9,-1 -13,-6 -3,-4 -5,-10 -10,-11 -1,5 7,12 10,16 -6,1 -8,-3 -12,-7 -3,-4 -5,-8 -10,-7 1,4 3,4 5,7 2,2 4,3 6,5 -8,0 -11,-7 -14,-13 -3,-5 -1,-2 -4,-4 -4,-19 -11,-35 -15,-52 -9,-35 -21,-69 -29,-104 -1,-9 -4,-19 -6,-27 -2,-9 -5,-18 -7,-25 2,-2 5,-3 7,-5 4,0 0,-1 4,1l3 -5c1,-1 1,-1 1,-1l7 -2c1,4 1,5 5,7 1,-4 -2,-7 -3,-12 11,-9 31,-19 44,-27 6,-4 19,-15 26,-13 3,-5 3,-3 8,-6 18,-7 29,-15 50,-16 6,0 5,0 9,3 2,2 5,3 7,4 -4,2 -10,1 -13,3 6,8 22,-5 27,6 -5,1 -9,0 -12,2 1,3 -2,2 3,2 11,1 10,-5 22,4 -6,1 -18,-3 -21,3 6,4 22,-4 33,5 -5,1 -9,0 -14,0 -5,0 -11,-1 -13,3 4,2 25,0 31,1 2,1 2,1 4,2 1,1 1,1 1,2l2 1c-7,0 -12,0 -19,0 -4,0 -4,0 -7,0 -5,1 -5,1 -6,3 7,4 42,-6 50,7 -9,-1 -17,-1 -26,-1 -4,0 -8,0 -12,0 -4,0 -8,-1 -10,2 2,2 -2,1 3,2l25 -1c7,0 22,0 27,3 -3,2 -9,2 -14,2l-1 2c0,0 0,0 0,0l-32 0c-8,0 -6,0 -7,3 3,1 26,0 32,0 12,1 20,1 30,3 -8,2 -43,-2 -46,4 3,2 1,1 6,0 11,0 39,-2 47,2l-10 2c6,4 12,1 17,-3l7 5 -2 5c0,0 0,0 1,0l1 1c0,0 1,0 1,0 0,0 0,0 0,0 -1,6 -3,12 -4,17 -2,6 -2,12 -3,18l-5 18c-1,5 -3,12 -3,17l-4 -2c-2,-1 -3,-1 -5,-1 -4,-1 -6,-1 -9,-1 -5,0 -13,0 -18,1 -6,1 -2,0 -3,2l21 0c7,0 10,1 15,4 0,0 0,1 0,1 3,1 0,6 -1,9l-22 -3c-4,0 -3,-2 -5,2 3,2 14,1 18,2 10,2 9,2 7,11 -3,-3 -12,-4 -19,-4 -5,0 -17,-3 -19,3 6,0 13,0 20,0 3,0 6,0 9,1 7,1 4,0 2,4l6 1c0,2 2,2 -3,2 -6,0 -35,-4 -41,2 4,3 34,-1 41,2l-3 3 5 0 -5 17c-9,1 -12,-3 -37,0 -2,0 -4,0 -6,1 -4,1 -2,1 -3,3 2,1 26,-3 41,-1l3 8c-3,0 -5,-1 -9,-2 -8,0 -17,0 -25,1 -9,1 -8,0 -10,3 5,2 30,-2 39,0l4 4 -4 18c-6,-2 -38,-4 -43,1 2,1 0,1 3,1 3,1 7,0 9,0 8,-1 16,-2 24,0l7 3 -1 13c-6,-1 -14,-1 -23,-1 -6,1 -12,1 -18,3 -5,1 -3,0 -4,3 2,1 0,1 3,1 5,0 28,-8 41,-3l-3 27zm-216 -244c-9,-23 -6,-13 -4,-21l-5 -1c-2,-4 -5,-10 -6,-14 0,-4 -4,-9 -5,-15 2,-2 5,-4 7,-6 3,-2 3,-4 6,-5 3,4 18,46 19,47 2,2 3,-3 5,6 2,4 2,6 3,10l-5 3c-6,-4 -1,-9 -6,-11 -1,6 0,9 2,12 -7,-3 2,-10 -11,-10l0 5zm243 -10c-4,0 -4,2 -6,4l-4 -1c-5,15 0,7 -2,12l-9 -6c1,-4 2,-3 4,-6 11,-12 13,-1 10,-10l28 -23c4,-3 8,-7 13,-11 6,-5 11,-7 11,-12 -4,1 -6,3 -8,5 2,-5 4,-6 8,-9 3,3 8,12 9,18 -5,4 -16,17 -21,23 -7,10 -3,0 -14,15 -2,2 -2,3 -3,4l-17 19c-6,-2 -5,-5 -8,-8 5,-9 8,-7 9,-14zm-60 -89l-9 14c0,-3 -1,-1 1,-3 0,0 0,0 0,0l1 -2c6,-12 1,-4 7,-9zm78 32c3,-1 8,-6 11,-10 4,-5 7,-5 10,-11 3,1 6,2 9,2 0,-5 0,-3 -4,-6l5 -5 8 13 -18 16c-11,16 -13,16 -24,26 -1,2 -2,3 -4,5 -3,2 -4,1 -5,3 -2,2 0,2 -4,5l-12 9c-4,1 -9,9 -16,16 -10,-5 -10,-7 -11,-13l-2 2c0,0 0,0 0,0 0,1 0,1 -1,2l-2 -2c2,-2 3,-2 5,-3 4,-2 13,-12 13,-16 -6,1 -7,9 -16,13 5,-9 8,-16 13,-23 4,-5 3,0 5,-7 -3,1 -6,2 -8,4 -1,1 -7,14 -11,18 0,3 1,2 0,3 -4,1 -3,1 -8,6 -4,-2 -4,-3 -8,-5 4,3 5,2 9,-2l12 -14c1,-2 2,-5 5,-7 3,-4 0,-1 4,-3 3,-2 7,-7 9,-10 2,-2 4,-5 6,-7 1,0 3,-2 3,-3l2 -3c0,0 1,-1 1,-1 4,-6 13,-14 18,-21l31 -33c5,2 11,11 12,16l-7 10c-1,1 -1,2 -2,3 -4,5 -19,17 -23,21l-26 27c-2,2 -3,4 -5,6 -4,5 -15,21 -19,24 2,-3 1,-1 3,-5 -5,2 -9,8 -11,12 7,2 8,0 11,-4 2,-2 2,-2 4,-5l18 -24c2,-2 5,-4 6,-6 4,-9 17,-22 25,-27 -1,5 -9,8 -11,14zm-211 30c-2,-4 -2,-2 -4,-3l5 22c-6,4 -23,15 -28,17l-7 -22c0,0 0,0 1,-1 0,0 0,0 0,0 2,-4 -1,3 1,-2 1,-4 -11,-34 -12,-38l-10 -29c0,0 0,0 0,0l-1 -2c-1,-4 -2,-8 -3,-11 5,-2 12,-4 16,-7l4 -3c7,3 4,7 9,25 5,14 6,26 12,37 5,9 5,33 15,33 0,-1 -4,-19 -5,-25 -1,-4 -2,-8 -3,-12 -1,-6 -1,-8 -1,-14 5,-3 6,-2 9,-8l6 0c1,7 7,32 12,39 0,-2 -6,-27 -7,-33 4,5 6,15 8,22 1,5 6,18 6,23l-20 9c-1,-3 -2,-7 -3,-11 0,-2 0,-3 0,-6zm162 -31c1,-5 0,-5 3,-9 5,-10 5,-7 11,-21 6,-18 14,-25 15,-29l-5 -2 3 -9c6,0 10,4 15,6 6,2 8,2 12,7 -1,4 -5,11 -7,15 -2,5 -20,20 -30,36l-30 36c-2,2 -4,4 -5,6 -2,3 -3,5 -5,4 -3,-1 0,-3 1,-8 1,-2 4,-5 4,-6 0,2 0,3 0,3 0,3 0,2 1,3 1,-2 1,-2 2,-3 1,-2 3,-3 4,-4 1,-10 5,-7 6,-15 -4,1 -2,0 -4,2l9 -12zm-171 -81l-2 31c-2,-4 -6,-21 -6,-27l8 -4zm46 14c0,0 0,0 0,0 9,-2 1,-3 0,-12 0,-6 0,-15 1,-21 1,-9 3,-7 13,-6 8,1 9,-2 18,0 -1,30 9,82 10,109 0,4 0,5 1,6 4,-1 2,-4 2,-9l-2 -19c-1,-3 -1,-7 -1,-10 3,-1 1,2 3,-2 2,-10 -1,-15 -1,-25l3 16c1,2 1,1 2,1 1,5 -3,14 -1,23 4,0 2,0 4,-5 1,-3 2,-1 2,-6 0,-6 0,-10 1,-16 2,-11 3,-19 5,-29 1,-1 1,0 2,-1l2 0c-1,-7 -2,-5 0,-13 1,-3 2,-8 4,-11 2,0 3,0 6,2 8,7 11,1 17,5 -1,8 -4,19 -6,27 -1,5 -3,9 -4,12 -2,5 -2,10 -2,15 -3,19 -12,46 -12,52l9 -4c5,-4 1,-3 9,-16 9,-12 3,-3 8,-13l3 -7c5,-9 4,-3 8,-7 1,-1 0,-1 2,-3 9,-10 7,-5 7,-13 0,-2 2,-3 3,-6 2,-4 4,-8 7,-12 1,-3 2,-4 3,-7l4 -6c4,3 6,7 8,11 3,4 6,5 7,11l5 -1c-2,4 -4,8 -7,11 -3,3 -17,31 -19,37 -3,9 -25,44 -29,47 -5,-1 -3,-1 -5,-3 -5,-6 -16,-4 -25,-10 -1,-1 -2,-2 -3,-3 -7,-7 -25,-1 -33,-2 -4,-10 -6,-22 -7,-34 0,0 0,0 0,-1 0,0 1,0 1,0 3,-5 -1,-13 -2,-18 0,-3 -2,-16 -5,-17 -2,3 -2,4 -1,8 2,5 2,5 2,9 1,24 6,36 9,54l-22 9c1,-3 3,-15 2,-18 0,-2 -2,-8 -2,-10 0,-4 2,-3 -1,-7 -5,3 -1,9 0,14 0,5 1,13 1,18 0,-1 0,0 -1,-2 0,-1 0,-2 -1,-2 -2,-9 -8,-34 -10,-37 -6,-4 -8,-22 -9,-32 5,3 4,3 16,0 2,0 2,1 4,-2 5,0 7,0 11,-2l-13 -1 -1 -16zm-29 -24c0,4 1,2 -3,3 1,-3 1,-2 3,-3zm125 60l2 -14c-4,-2 -1,0 -3,-4 -4,2 -3,2 -5,6 -1,-2 -1,-2 -1,-5 0,-7 2,-3 -3,-4 -1,3 0,8 -1,13 0,3 -2,8 -2,11l-5 22c0,2 1,1 1,2 4,-2 2,-1 4,-5 -1,2 -8,16 -12,19 1,-6 4,-12 5,-18l10 -47c2,-8 5,-14 6,-16 0,-3 1,-6 2,-9l13 -31c3,-7 5,-9 7,-16 8,4 10,11 21,15 -2,10 -16,47 -22,54 -3,4 -4,4 -7,7 -2,2 -4,5 -5,7 0,0 1,3 1,1 -2,4 -4,8 -6,12zm-43 -102c1,-2 1,-2 4,-3 1,-1 3,-1 5,-1 -3,11 -1,39 -2,49 0,2 -1,5 -1,7 0,0 -1,3 -1,3 -3,6 -4,-1 -7,-2 -3,4 0,5 -1,10 -2,-1 -3,0 -2,-6 0,-5 1,-3 -2,-5 -2,4 0,11 1,15 -2,4 -3,-2 -2,4 -2,-10 -3,1 -3,-21 -1,0 -6,0 -7,-7 0,-13 1,-13 1,-19 0,-3 0,-2 0,-5 0,-4 1,-8 2,-11l3 -1 -3 -5c4,-5 10,-4 15,-2zm76 445c4,-1 4,-1 5,-4 0,-3 0,-5 1,-8 0,-3 0,-9 2,-13 4,-7 3,-17 6,-25 1,-3 2,-3 3,-6 1,-2 1,-5 1,-7 6,-27 18,-112 24,-127 2,-4 2,-2 3,-5l3 -13c-3,-2 -2,-2 -4,0 1,-4 0,0 3,-4 -3,-3 -2,-1 -3,-4 2,-3 3,-6 6,-10l17 -23c-4,-3 -8,0 -14,-7 2,-6 16,-21 21,-27l6 -6c1,-1 0,-1 2,-2l4 3c1,-3 0,-5 -1,-8 -1,-4 0,-1 -3,-4 -1,-2 -4,-8 -5,-11 -5,-9 7,-12 12,-18 0,-5 -2,-3 -5,-6 -4,-3 -6,-12 -3,-16 3,-3 3,-2 7,-2 -2,-9 0,-2 1,-9 -5,-4 -5,-2 -10,-8 -2,-3 -5,-9 -7,-11 -5,2 -1,5 -11,12 -5,3 -7,7 -11,10 2,-5 5,-6 5,-13 -4,-2 -2,1 -6,-2 -1,0 -2,-2 -3,-2 -4,-4 -4,-2 -8,-3 -5,-1 -8,-7 -11,-9 -4,-2 -8,1 -8,5 -1,3 0,2 -1,4 -1,2 -1,1 -2,3 -4,-3 -11,-15 -12,-22 -2,-11 6,-21 6,-29 -8,-6 -4,1 -13,-7 -2,-2 -5,-3 -6,-5 -2,-2 -3,-5 -5,-6 -3,1 -5,5 -7,8 -6,11 -2,12 -7,20 -1,4 -3,7 -4,11 -14,-10 -12,3 -23,-4l-11 -7c0,-9 -1,-20 2,-28 3,-6 4,0 3,-8 -6,0 -10,1 -16,2 -7,1 -3,2 -13,2 0,-5 1,-4 -1,-7 -4,2 -2,7 -5,12 1,5 0,10 0,17 0,0 -2,2 -3,2l-5 0 -2 4c-5,0 -12,0 -16,-2 -8,-4 -1,-8 -7,-11 -3,17 -3,34 -3,53l-3 3c2,5 2,1 2,7 -1,3 -1,4 0,7l-5 1 -1 3 -8 1 -3 -22 -4 -1c-1,-17 2,-25 -6,-23 -6,2 -5,7 -12,6 0,-4 1,-2 -1,-5l-1 7c-9,4 -8,1 -14,3l4 15c3,11 5,21 7,32 0,5 0,13 3,15 6,0 2,-7 1,-11 -3,-16 1,-34 0,-50 6,-3 8,-3 15,-5 2,7 4,48 9,41 3,20 9,38 13,57l4 1c0,7 4,12 4,19l-12 2c-6,-13 -8,-29 -9,-43 -3,0 -2,-1 -3,1 -2,-6 -3,-2 -6,-6 0,0 -1,-2 -2,-2 -8,2 -10,0 -21,3l-1 6c-2,-2 0,-1 -2,-1 -1,0 0,4 -1,0 0,0 -1,0 -1,0l-7 -30c-5,-8 -2,-12 -5,-17 -4,2 0,1 -3,5l-2 -3c-7,3 -10,-2 -13,5 4,2 1,-2 7,0 -5,4 -12,5 -19,6 -3,14 27,67 27,84 -5,-9 -10,-29 -16,-35 -4,-4 -2,-7 -6,-10l-12 10c-4,5 -7,5 -7,13 3,3 2,1 4,6 3,7 8,15 10,22 -4,2 -6,3 -9,5 -3,2 -6,3 -9,5 1,13 0,11 6,20 3,5 8,12 10,16 -4,4 -9,4 -10,12 4,-1 2,-1 5,-2l11 45c1,3 1,4 2,6 1,5 0,2 0,5 -1,3 1,7 2,10 4,11 8,22 11,33 0,4 0,8 1,12 1,3 2,8 3,11 2,4 3,6 4,10 2,8 4,14 6,22 2,7 5,15 7,21 0,5 -5,7 2,26 2,4 3,7 5,12 2,6 0,1 3,5 6,6 0,3 14,6 0,0 0,1 0,1l-2 1c-1,1 -1,1 -1,2 4,0 8,-1 11,-2 3,5 4,2 11,2 6,0 4,3 10,4 1,-2 2,-3 4,-4 4,-2 7,3 12,4 0,-3 -1,-3 -3,-4 5,0 5,2 9,3 5,1 4,-2 8,-1 8,0 9,7 15,4 0,0 -1,0 -1,-1l-4 -2c5,-1 24,1 27,0 8,-2 14,-6 23,-8 11,-3 43,-8 45,-15z"/><path d="M299 189c5,-1 2,1 5,-4 2,-3 1,-1 3,-4 2,-2 5,-7 7,-9 3,-6 10,-14 5,-21 -2,1 -1,0 -2,2l-2 3c-2,2 -2,0 -2,2 -2,7 -4,1 -9,8l-1 1c0,2 0,2 0,2 -2,8 -7,6 -6,13l9 -6c3,-4 3,-7 7,-9 -2,4 -4,8 -6,11 -4,6 -7,8 -8,11z"/><path d="M296 264c1,0 0,0 3,1 0,0 3,0 4,0 3,0 5,-1 8,-1 10,-1 38,-2 45,1 -5,2 -12,3 -17,3 0,1 -1,2 5,2 6,0 15,-1 18,-6 -5,-5 -24,-4 -31,-4 -6,0 -12,0 -18,1 -3,0 -6,0 -9,0 -5,0 -6,-1 -8,3z"/><path d="M318 309c1,1 -1,2 6,2 10,0 16,-1 28,0 0,4 0,1 -1,4l6 -1 0 -4c-5,-2 -35,-4 -39,-1z"/><path d="M296 437c3,4 14,1 19,1 10,0 11,1 19,2 0,-2 1,0 0,-2 -2,-2 -3,-2 -6,-3 -6,-1 -32,-1 -32,2z"/><path d="M309 382c1,1 0,1 3,1 1,0 3,0 4,-1 7,-1 20,0 26,0 -1,2 0,1 -1,2 -1,1 -1,1 -2,2 3,1 5,0 7,-3 -1,-4 -1,-4 -6,-5l-23 1c-4,1 -6,0 -8,3z"/><path d="M300 413c1,1 -3,2 7,1 3,0 6,0 9,0 5,0 11,0 16,1l1 4c5,-2 3,0 5,-3 -2,-4 -3,-3 -8,-4l-21 -1c-1,0 -4,0 -5,0 -6,1 -3,1 -4,2z"/><path d="M325 322l27 -1 1 3c0,0 0,1 0,1 4,-1 4,-1 6,-2 -3,-7 -14,-4 -26,-4 -12,0 -7,1 -8,3z"/><path d="M231 154c-3,3 2,21 3,24l0 -6c4,4 1,3 4,5 1,-9 -3,-5 -2,-19 0,0 -2,-1 -2,-1 0,0 0,0 0,0 -3,-2 -1,-2 -3,-3z"/><path d="M288 186c4,-2 9,-12 13,-16 -2,-1 -1,0 -2,-2l-2 -3 -6 5c1,3 1,1 2,4 -2,2 -6,8 -5,12z"/><path d="M146 217c3,-1 3,-2 4,-4 -2,-4 -3,-16 -4,-18 -2,2 -1,-2 -2,3 0,1 0,2 0,2 -1,7 1,1 -2,6 1,5 1,8 4,11z"/><path d="M263 159c-1,-4 0,-6 1,-9 1,-4 1,-6 0,-9 -5,4 -3,5 -4,12l-1 9c1,1 1,1 1,2 3,0 0,-1 6,-3 0,-8 3,-4 0,-8 -3,2 -2,2 -3,6z"/><path d="M254 170c2,-2 3,-12 4,-15 1,-14 4,-9 2,-14 -4,2 -3,2 -4,7l-3 19c0,4 0,2 1,3z"/><path d="M196 193c3,-2 1,1 2,-4 0,-4 0,-12 -3,-15l-4 5c3,7 3,11 5,14z"/><path d="M141 220c0,-1 -1,0 1,0 3,0 0,1 2,-1 -4,-6 -3,-10 -5,-14 -2,2 -1,-1 -2,3 0,0 0,2 0,3 0,5 2,11 3,15 1,0 3,1 1,-6z"/><path d="M216 179c0,-1 0,0 0,-3 0,0 0,-3 0,-3 -3,-19 2,-17 -2,-19 -3,5 -2,14 -1,20l3 5z"/><path d="M170 196c-1,-6 0,-8 -3,-11 -3,5 2,18 5,21 3,-3 0,-5 -2,-10z"/><path d="M278 479c-1,-4 -3,-6 -6,-8 -8,-8 -1,-6 -6,-7 -2,4 1,6 4,8 1,2 5,6 8,7z"/><path d="M285 176l3 -3c2,-3 5,-8 5,-12 -5,1 -4,2 -6,7 -1,3 -3,5 -2,8z"/><path d="M241 172c0,-1 2,-14 -3,-17 -2,4 1,14 3,17z"/><path d="M177 197c0,-3 -3,-11 -5,-13 -2,3 -1,5 1,8 1,5 0,4 4,5z"/><path d="M285 176c-4,2 -2,2 -4,6 -4,8 -2,4 -1,5 3,-1 4,-5 5,-11z"/><path d="M378 162l-5 4c-3,3 -1,0 -2,3 3,-3 6,-4 7,-7z"/></g></svg>