<?xml version="1.0" encoding="UTF-8"?>
<svg id="katman_2" data-name="katman 2" xmlns="http://www.w3.org/2000/svg" viewBox="0 0 82 82">
  <g id="katman_1" data-name="katman 1">
    <g>
      <path d="M24.39,18.94c2.64,2.64,3.1,6.47,1.92,7.65s-4.79.5-7.43-2.14-3.39-6.16-2.14-7.43,5.01-.72,7.65,1.92Z"/>
      <path d="M36.49,23.11c.26,3.95-1.76,7.59-3.32,7.91s-3.72-2.5-3.97-6.42,1.34-7.51,3.03-7.84,4,2.38,4.25,6.36Z"/>
      <path d="M44.34,30.98c.26,3.95-1.76,7.59-3.32,7.91s-3.67-2.51-3.97-6.44,1.34-7.51,3.03-7.84,4,2.43,4.25,6.38Z"/>
      <path d="M52.27,38.9c.26,3.94-1.76,7.58-3.32,7.9s-3.72-2.49-3.98-6.43,1.34-7.51,3.03-7.84,4,2.43,4.26,6.38Z"/>
      <path d="M60.72,47.38c.26,3.95-1.77,7.59-3.33,7.91s-3.72-2.5-3.97-6.43,1.34-7.55,3.07-7.85,3.96,2.4,4.23,6.38Z"/>
      <path d="M23.01,36.61c3.95.26,7.59-1.77,7.9-3.33s-2.49-3.72-6.43-3.97-7.5,1.34-7.84,3.03,2.43,4,6.38,4.26Z"/>
      <path d="M30.86,44.46c3.95.26,7.59-1.76,7.9-3.33s-2.49-3.72-6.43-3.97-7.5,1.34-7.84,3.03,2.43,4,6.38,4.26Z"/>
      <path d="M38.78,52.38c3.95.26,7.59-1.76,7.91-3.32s-2.5-3.72-6.43-3.98-7.51,1.38-7.84,3.03,2.43,4,6.37,4.26Z"/>
      <path d="M47.22,60.83c3.95.26,7.59-1.76,7.9-3.32s-2.49-3.75-6.43-3.98-7.5,1.34-7.84,3.03,2.43,4,6.38,4.26Z"/>
      <rect x="59.87" y="56.12" width="4.29" height="11.22" rx="2.12" ry="2.12" transform="translate(-25.48 61.93) rotate(-45)"/>
      <path d="M41,0C18.36,0,0,18.36,0,41s18.36,41,41,41,41-18.36,41-41C81.97,18.37,63.63.03,41,0ZM41,78.3c-20.6,0-37.3-16.7-37.3-37.3,0-20.6,16.7-37.3,37.3-37.3,20.6,0,37.3,16.7,37.3,37.3-.03,20.59-16.71,37.27-37.3,37.3Z"/>
    </g>
  </g>
</svg>