<svg xmlns="http://www.w3.org/2000/svg" xmlns:xlink="http://www.w3.org/1999/xlink" xml:space="preserve" version="1.1" style="shape-rendering:geometricPrecision;text-rendering:geometricPrecision;image-rendering:optimizeQuality;" viewBox="0 0 50800 63500" x="0px" y="0px" fill-rule="evenodd" clip-rule="evenodd"><g><path d="M13679 42686l-287 -711c-244,-951 86,-1687 494,-2352 148,-240 239,-379 422,-566 218,-223 414,-289 538,-526 329,-627 -39,-1021 491,-1554 295,-298 231,-224 443,-538 568,-841 902,-790 1449,-1592 214,-313 824,-855 1226,-1277l564 -942c-371,31 -271,262 -487,487 -129,134 -115,70 -277,254 -113,127 -173,200 -308,300 -776,570 -461,145 -1124,1075 -358,501 -741,614 -1084,1112 -477,691 -898,871 -992,1203 -278,976 356,599 -608,1597l-886 1311c-525,859 -1,2327 -32,2699 -36,434 -219,484 -401,765l252 190c310,-159 329,-319 462,-632l146 -257c80,1283 -1336,3396 -2067,3866 -222,143 -519,327 -756,458 -267,149 -561,285 -887,168 -354,-128 -728,-39 -1146,-40l-69 -270c-72,-87 -161,-48 -248,-220 -5,-9 -54,-215 -58,-228 -567,-113 -1292,-689 -1607,-1208 -287,-472 -98,-376 -167,-831 -60,-393 -268,-109 146,-1478 278,-917 1484,-2907 2107,-3660 931,-1125 765,-1168 2167,-2612l5874 -6567c348,-359 570,-713 958,-1019 366,142 468,387 757,615 221,175 470,441 698,666l1373 1455c-181,311 -294,299 -523,562 -181,207 -344,391 -523,615 -266,331 -735,824 -1082,1191 -371,392 -690,815 -1069,1206 -533,550 -473,619 -1018,1255l-952 1250c-280,339 -465,762 -931,1344 -818,1020 -405,1555 -781,2475 -81,198 -87,192 -104,416l-93 545zm13911 -10267l306 244c-234,159 -264,277 -563,387 -308,-440 83,-627 -303,-864 -207,169 -132,3 -129,394 1,251 12,302 -31,556l323 221c-363,185 -227,167 -464,445 -130,152 -302,285 -457,452 -250,269 -648,734 -993,823 -107,-318 7,-380 -222,-631 -257,126 -236,143 -128,477 102,314 174,239 190,532 -245,-29 -641,-390 -850,-594 76,-102 14,-34 119,-133 294,-275 701,-788 1061,-883 124,432 -58,721 412,678 56,-321 -91,-754 -223,-1027 183,-250 1580,-1768 1990,-1899 -70,354 -92,423 -38,822zm-4958 -3398c179,-1120 -86,-550 444,-1223 220,-279 494,-794 843,-902 -69,898 -73,992 -767,1738 -80,86 -127,117 -238,217 -186,168 -70,114 -282,170zm5919 -2273l53 127c284,-197 70,-150 436,-302 -40,345 -40,302 -255,417l152 225c-288,176 -187,-15 -529,306 -180,170 -12,73 -211,164 187,372 206,5 -21,412 321,-45 152,24 287,-212l267 -336c190,196 180,-263 138,264l-778 979c-177,214 -175,290 -391,392 31,-371 121,-471 378,-783 134,-163 59,-17 144,-201 -303,62 -92,127 -468,268 73,-362 111,-849 197,-1109 75,-227 341,-537 601,-611zm1663 605l214 -990c68,-644 230,-467 394,-895 489,-377 89,-319 565,-506 -5,670 -5,1679 -239,2184 -44,93 -908,1175 -1149,1259 48,-330 215,-671 215,-1052zm-679 -1061l-215 384 -176 -157c18,-9 46,-36 54,-20 3,5 182,-31 337,-207zm-7757 785c59,-788 317,-807 717,-1300 63,-78 73,-109 130,-171 205,-228 -15,-64 261,-203 11,898 -113,553 -710,1345l-398 329zm254 1807c-210,70 -45,-89 -248,199 -174,247 37,68 -215,241 -46,-336 67,-718 64,-1131l278 -263c122,-159 107,-186 297,-316 523,-360 288,-250 589,-563l-43 370c38,-12 52,-55 55,-45l675 -1061c241,-264 241,-416 616,-599l-83 506c-4,25 -2,44 -6,69 -46,261 -162,348 -382,545 -168,151 -598,672 -723,869 -146,-29 -83,22 -164,-98 -110,548 -32,323 -326,671l-275 401c-133,213 -35,21 -109,205zm7796 -2134c-205,56 -78,-59 -406,344 -310,381 16,260 -382,416 27,-730 459,-652 818,-1379 -207,106 -112,89 -323,161 101,-181 265,-395 434,-551 253,-233 488,-264 242,-505l295 -16c-125,711 -28,496 -295,980 -284,513 -230,191 -383,550zm-7920 -500c-17,-1282 -178,-392 451,-1303 351,-509 78,-253 397,-372 318,593 179,546 -248,1064l-600 611zm331 -1265c-228,21 -170,-31 -366,127 65,-216 37,-171 176,-314 171,-175 68,-103 294,-193l-91 213c-25,81 34,-19 -13,167zm5852 7400c-112,-68 -263,99 -245,-478 8,-247 27,-370 6,-630 314,-121 205,-216 585,-396l100 480c316,-8 139,44 352,-98 31,-279 -143,-455 -227,-755 275,-101 617,-507 775,-736 199,230 25,227 323,403 571,-341 -266,-433 237,-994l522 -632c9,17 20,25 23,55l129 400c556,62 256,-253 163,-896l864 -940c189,-185 -6,-37 212,-146 -22,398 -68,700 392,595 145,-572 -73,86 -143,-947 141,-142 104,-131 214,-272l521 -539c208,-280 -43,-138 272,-250 10,311 -13,589 94,810l291 -49c0,0 -150,-1081 -65,-1308l575 -776c377,437 -101,633 557,841l219 -342c-227,-195 -129,-13 -338,-238 50,-1097 -60,-772 343,-1294 162,-211 154,-286 390,-373 -13,306 -12,527 4,835 18,343 127,438 323,604l-1867 2032c-801,1049 -577,720 -1391,1495 -524,499 -708,773 -1442,1436 -424,384 -582,703 -891,1085l-1877 2018zm2731 -6917c-238,207 7,92 -310,153 134,-470 248,-920 560,-1283l361 -263 -58 817c-262,136 -439,300 -553,576zm-6834 -624c272,-3 70,-22 195,97l-50 95c-4,14 -13,42 -18,60l-102 362 -342 280 112 193c-399,-1 -221,18 -459,301 -115,136 -257,272 -394,346 -26,-854 299,-650 386,-1046 -189,102 -119,105 -294,207 -38,-674 150,-694 379,-948l74 -78c62,-74 255,-677 723,-901 51,406 -64,764 -210,1032zm-827 21c-73,-156 -32,-145 -23,-394 -90,-76 -73,-51 -160,-121l-194 -182c46,-28 507,-109 545,-381 14,-96 -168,-123 190,-411 352,-284 6,72 271,-113 164,-115 190,-293 502,-473 138,747 -351,1245 -1009,1951l-122 124zm852 593l215 30 590 -798c59,-77 31,-30 110,-118l747 -867c111,261 107,502 -31,747 -257,455 -287,138 -93,550l-148 539c437,-397 -132,-427 755,-1333 237,-241 97,-194 347,-396l166 -165c170,-213 94,-241 446,-410 -68,1355 -505,1107 -239,1376 -91,44 -115,32 -205,108l-1103 1167c-156,145 -62,81 -234,184l75 -466c-150,164 -57,120 -277,537 -166,316 -23,321 -303,610 -224,230 -197,161 -429,475 -335,453 -298,366 -521,471 12,-374 113,-1047 345,-1320 129,-153 71,-45 199,-184 115,-124 78,-131 188,-265 219,-270 178,-76 398,-497 -19,11 -48,5 -58,33 -10,29 -45,25 -58,33 -593,368 -386,497 -841,681 142,-835 83,-380 -41,-722zm8696 -3262c-7,-38 154,-115 125,10 -33,138 -82,227 -125,-10zm-7338 1128l431 -366c11,140 25,289 -16,421l-1586 1719c126,-751 193,-581 329,-861 -87,34 -115,23 -220,79l243 -1514c-142,-301 38,76 -91,-152 -49,-87 -28,-6 -62,-122l949 -875c212,-229 37,-277 380,-267 144,189 176,255 -8,483l-368 393c-234,282 -519,526 -684,849l1174 -1155c52,1275 -243,768 -471,1368zm11228 -2489c138,-153 286,-445 525,-564 6,328 30,574 93,842 39,165 24,203 122,327l252 254c-134,103 -711,1026 -835,1198l-689 907c-126,142 -151,165 -317,223l131 -503c-283,91 -49,83 -365,202 36,-1042 102,-780 -187,-1045 -11,-10 -32,-31 -48,-48 309,-209 815,-1136 1149,-1346 -12,454 30,1126 385,1256 241,-207 225,-297 116,-602 -261,200 -95,76 -179,32 -112,-768 117,-577 -153,-1133zm-819 527l-2600 3493c-144,182 -173,150 -306,302 -142,165 -106,176 -261,345 -260,283 -311,403 -564,649l-645 627c77,-945 126,-1786 130,-2762 53,-200 808,-1219 1291,-1542 -2,17 -30,313 -30,341 -3,300 20,228 75,313 127,-210 107,-427 147,-782 57,-503 143,-219 293,-629 218,265 52,-66 116,446 617,38 -239,-824 666,-1274 10,311 -48,407 -49,606 -2,348 115,316 -69,589 -193,284 -213,138 -439,547l-463 529c-479,384 -123,160 -832,981 -191,221 -64,-52 -142,276 454,-123 295,-263 605,-533 26,477 -257,717 -112,1026 80,-208 150,-504 193,-673 315,-1241 177,-278 789,-1034 446,-550 357,-281 575,-401 -2,-769 647,-1056 751,-1308 134,-328 -38,-135 362,-699l314 -450c444,-252 -27,302 183,957 5,14 15,39 22,60zm-910 -346c-237,168 -412,445 -649,653l21 -990c156,-115 104,40 202,-170 136,-288 -134,-228 466,-726 116,454 -116,645 -40,1233zm1041 -1540c118,-1068 -109,-1304 580,-1573 -45,524 37,714 -164,1152 -170,369 -24,280 -416,421zm3095 -2892c133,-252 301,-564 464,-844 288,411 -67,793 576,1117 14,7 39,19 57,30 -252,705 -1206,2517 -1644,3313 -181,327 -427,732 -632,1052 -19,-14 -46,-59 -56,-42l-343 -147c-167,-1738 -54,-1199 313,-2033 70,-160 58,-195 138,-322 4,-7 94,-120 99,-125 76,-76 56,-48 140,-111 9,185 100,1024 307,1112l195 9c182,-273 192,-680 235,-1102 -259,162 -155,276 -363,519 -79,-364 -221,-779 -98,-1210l480 -843c41,441 -66,1005 217,1289 294,-22 259,-56 340,-297l-278 -130c8,-526 78,-799 -76,-1072l-71 -163zm-6821 83c-200,107 -168,118 -306,285l-334 269c80,-1390 23,-1207 592,-1894l519 -573 4 616c-274,263 -415,147 -568,627 419,-48 282,-62 561,-260 -15,491 -281,423 -468,930zm8107 -234l-119 -190c-12,-10 -33,-20 -47,-28l-268 -86c-26,-323 46,-783 33,-914 -21,-202 -205,-117 -12,-417 83,-127 45,-55 148,-138 191,758 185,655 495,796l116 66c-138,328 -229,581 -346,911zm-6650 -1578c-341,116 -374,451 -602,684 -183,187 -14,71 -238,135 22,-204 616,-1140 1020,-1323 -53,375 -56,244 -180,504zm6808 216c-79,-391 -55,-630 -105,-970 -64,-433 -30,-327 85,-795 412,267 -14,206 654,854l-326 977 -308 -66zm-7510 -773c-195,-33 -38,58 -137,-65 72,-265 30,-221 289,-311 -73,151 -127,179 -152,376zm-4389 12450l-2 -150c-360,189 -255,144 -420,458 -69,-77 -149,27 -60,-387 205,-956 590,-661 597,-1100 -242,142 -489,396 -619,601 -396,621 -353,207 -562,722 208,-178 95,-182 385,-292 -26,396 7,161 -127,331 -284,359 -528,522 -622,805 335,-252 364,-514 692,-692 5,426 -53,364 -321,612 146,101 146,-15 292,76 -334,1172 -114,134 -124,986 -347,246 -1336,1612 -1675,2064 -115,-137 -35,25 -102,-172 -1,-3 -21,-152 -30,-185 -135,287 -85,516 -250,812 -118,213 -346,431 -466,657l326 -269c137,-120 30,-29 153,-120l-215 1142c561,-258 -13,-814 756,-1841l485 -588c767,-816 368,-538 466,-748 77,-166 268,-268 481,-321 -90,581 -514,697 -750,1120 -147,261 -77,136 -239,344 252,-70 541,-431 669,-671 179,62 -26,-101 217,237 136,-755 408,-889 1045,-1694l269 -261c-36,592 -196,1112 -342,1635 638,-421 191,-1712 723,-2183l647 -926c173,-86 85,-86 193,-208l195 -144c184,433 11,273 -2,955l-136 237c-395,1229 421,553 -1238,2254l-1461 1348c-831,809 -1791,1869 -2541,2539 -419,374 -156,288 -703,584 -163,88 -104,85 -299,160l-2080 -2152c-1030,-911 -653,-672 -1403,-1404 -336,-328 -429,-483 -684,-759l-1444 -1442c328,-263 622,-561 903,-922 703,-904 1818,-1770 2355,-2343 206,-220 112,-125 554,-331 -190,464 -366,364 -545,786 21,-6 153,-28 201,-41 180,1114 -481,947 -941,1857l907 -898c-3,394 58,360 -132,617 142,133 64,53 171,199 89,-540 181,-511 520,-777 346,-271 71,-125 262,-348l338 -343c194,689 -472,1113 -711,1420 -136,175 -211,311 -387,463 -107,-211 28,-156 -114,-214l-90 456c50,1488 -385,1512 -447,1828 136,-83 139,-100 254,-181 -8,334 -256,680 93,614 8,-16 20,-59 21,-49l17 -160c-20,-1157 267,-726 578,-1467l394 -451c160,-158 -71,26 191,-120 62,589 -329,1039 -139,1278 276,-162 58,-96 237,-329l899 -780c16,-9 40,-19 55,-27 475,-248 -163,-31 406,-566 383,-360 416,-488 626,-744l1668 -1889c69,-78 94,-307 494,-507 7,-4 120,-44 135,-51 153,-491 -4,-226 171,-460l823 -922c323,-327 188,-265 311,-446 192,-284 113,-13 313,-334l144 -203 -132 -41c101,-208 285,-822 324,-1096 135,-939 74,-487 439,-1126l-342 249 118 -1613c91,-82 119,-89 193,-169 10,-10 23,-28 33,-39 186,-206 380,-463 586,-549 -108,620 76,1104 -228,1676 214,86 68,-84 96,163 6,56 -29,184 -39,240 -100,553 8,828 -275,1409l254 -52c165,-272 33,-247 255,-501 121,-139 306,-212 345,-376 -326,-27 -66,156 -475,322 -7,-446 85,-1096 226,-1507 73,-212 107,-242 270,-388 -184,-130 -152,-193 -161,-278 -87,462 -134,368 -214,453 15,-682 15,-1338 327,-1768 -168,-379 219,182 -86,-137l-107 -90c52,-114 80,-244 109,-289 120,-187 -46,63 195,-147 306,-268 330,-289 263,-466 -122,191 -424,458 -590,605 -138,123 -171,108 -294,297 -114,177 -210,219 -163,379 126,44 -70,63 87,-4l114 -60c17,-8 46,-28 70,-40 -29,638 -16,183 -378,692 -132,186 -184,314 -423,398 13,-288 57,-297 61,-529 -228,-86 -92,-86 -368,-53 -77,119 -278,547 -306,654 224,-70 141,-72 424,-87 -48,973 178,2049 -465,2574 233,-137 66,-114 351,-216 -21,637 -311,1328 -517,1898 -164,453 -150,105 -574,662l-549 678c-74,-102 -139,122 -104,-320 9,-115 38,-187 81,-400 104,-513 328,-496 597,-836 59,-75 22,-43 110,-121 23,-21 118,-82 176,-129 168,-135 348,-290 456,-509 -343,77 -495,342 -721,551l-1181 1164c-42,41 -54,43 -113,112 -278,319 -249,492 -718,692 43,-216 37,-449 74,-573 55,-188 191,-331 250,-573 -374,32 -74,30 -199,-89 102,-538 297,-561 607,-879 149,-152 210,-288 342,-417 240,-232 275,-53 333,-480 -530,162 -656,990 -1238,1252 -6,-1461 873,-1234 944,-1885 50,-469 17,-22 351,-557 -532,345 -583,721 -1168,1352l-352 -338c-7,-5 -21,-21 -27,-25l-163 -67c-10,-3 -37,-12 -54,-21l3940 -4019c157,-195 252,-323 420,-490l1810 -1832c177,-168 311,-269 481,-431 188,-179 220,-301 500,-428 -36,423 -68,369 -5,771l-986 1112 -154 -126 627 -706c-311,122 -1246,1187 -1319,1322 790,-475 102,-431 691,-468 -58,454 -478,707 -767,1043 -291,339 -214,216 -262,415 306,-161 473,-401 718,-690l179 -240c15,-18 36,-40 49,-55 13,-16 35,-38 54,-56 -7,331 -28,625 -40,957 -22,553 -84,644 -571,1172 -137,149 -329,315 -382,530 50,-69 101,-146 157,-218l708 -712c27,417 -214,964 -68,1355 294,-77 293,-296 252,-527 -24,-135 -69,-1 -72,-388 -1,-127 21,-333 34,-463 59,-561 239,-505 694,-1126 139,-181 270,-359 465,-449 7,332 -117,735 69,951 131,-159 93,-229 86,-508 -18,-797 -108,-591 413,-1247 122,-154 326,-337 424,-559 254,-39 62,-22 134,60 -23,258 -8,436 -7,687 3,471 -56,143 -117,527l227 262c-264,271 -349,427 -554,789l1926 -2312c176,-431 30,-82 -29,-222l-1034 978c-14,10 -31,25 -45,35l-163 103c-284,-1941 304,-1205 472,-1960l-476 446c111,-498 943,-1564 1387,-1885 40,885 -261,1675 55,2317l805 -955c150,-155 205,-206 261,-451l228 160c242,91 113,29 252,-29 -72,-546 -534,145 189,-804 131,-170 172,-176 320,-366l315 -334c17,-12 43,-29 65,-44 13,144 29,398 82,582 90,310 124,170 269,429 1,368 -96,858 -111,1290 -21,572 31,720 -453,950 59,-273 417,-1337 313,-1541 -547,296 -315,1768 -607,2565 -225,-209 -81,-488 -26,-1140 26,-313 88,-824 146,-1118 -415,166 -269,1017 -284,1344 -15,336 -88,432 -75,915 10,399 -129,501 -260,774 -73,-90 -141,25 -61,-403 89,-472 283,-969 158,-1249 -301,282 -460,1673 -355,2031 -342,142 -194,250 -537,365 34,-400 198,-725 144,-1114 -554,480 -283,3080 -468,3358l-701 748c130,-1030 100,-1057 564,-1396l-141 -464 217 -76c-247,-349 79,-238 -59,-559 -313,-34 -420,404 -478,773 -48,303 -54,368 -445,763 -108,109 -25,37 -121,81 -133,-445 75,-1538 -101,-1805 -500,55 -82,325 -298,1429 -133,676 84,1009 -568,1326 -1,-344 43,-936 -45,-1168 -432,57 -216,91 -166,758 38,509 113,736 -194,961 -12,-265 71,-558 146,-757 -412,96 -317,280 -374,710 -76,561 67,312 -301,695l-1039 1219c51,-379 243,-829 240,-1064 -602,200 52,1285 -879,1798 67,-282 128,-202 -32,-401 -378,836 -19,483 -691,1430 -104,147 -141,146 -240,286l-94 138c-53,58 -92,72 -165,140 -546,509 -74,383 -543,605 13,-466 232,-768 234,-1205 -328,341 -216,966 -415,1384 -150,204 -79,55 -227,235 -158,195 -11,168 -261,269zm12664 -12979c-637,-197 -445,-1256 -281,-1628 111,-253 49,-103 139,-201 264,744 144,293 517,650 -197,332 -198,841 -375,1179zm379 -1571c-455,-232 -517,-1028 -228,-1423l237 342c110,140 133,72 285,234 -119,300 -117,573 -294,847zm-8654 2100c97,-49 35,10 138,-81 227,-200 390,-399 172,-652 -294,199 -134,239 -447,277 176,-513 -59,-326 371,-670l2604 -2478c178,-196 794,-894 1040,-1009 -296,1274 85,762 -1216,2257 219,-158 127,-135 297,-295 475,-451 484,-664 770,-820 -44,392 -108,687 -127,1128 -52,1168 146,1139 -274,1502 -465,402 -451,589 -756,708 -27,-356 48,-1768 -62,-2009 -164,95 -606,611 -721,749 -416,499 -248,543 -697,741l204 -1245c-435,277 -199,1300 -452,1682l-979 1072c-23,-570 -50,-402 135,-857zm8656 -4992c74,-28 -105,-148 120,22l504 479c-183,289 -69,870 -323,1141 -304,-242 -389,-792 -390,-1191 -1,-123 -4,-169 22,-296 52,-263 8,-47 67,-155zm-395 -779c180,150 234,304 14,633l-14 -633zm715 -376c93,67 166,92 190,112l137 169c115,165 -27,17 150,189 -70,515 0,393 -192,615 -285,-49 -119,61 -301,-164 -299,-370 -221,-592 -196,-1093 21,15 44,35 60,48 14,11 39,31 56,44 16,13 34,29 51,42 15,12 30,27 45,38zm-3502 626l-243 72c36,-292 165,-398 131,-718 -433,261 -175,741 -452,1142 -240,346 -513,525 -749,860 367,-210 492,-515 794,-703 -80,713 -120,1496 -42,2273 -488,140 -331,435 -1072,959 -90,-1225 150,-1968 244,-2985l-207 8c143,-364 1077,-1406 1350,-1684l2699 -2383c-15,399 38,1039 -47,1398 -82,347 -128,39 -78,483 121,1059 107,1846 -43,2874 -64,437 -161,649 -228,1129 -63,451 -228,606 -222,1061 14,1034 -1837,4384 -2401,5428 -743,1374 -545,1192 -1470,2479 -375,523 -227,513 -575,746 130,-1389 -27,-1132 481,-1676l40 223c69,215 -31,90 227,158 25,-954 -68,-729 270,-1145l-231 -220c216,-610 -202,-1118 596,-2059 126,-148 9,-49 169,-146 -15,258 -32,769 67,995 39,-92 8,9 19,-119 94,-1069 -32,-1199 576,-1845l15 815c31,175 10,54 72,141 133,-251 67,-984 231,-1414 339,-885 198,-280 615,-1074 -268,87 -351,333 -630,529 -37,-710 94,-1259 175,-1891 -245,-94 -37,71 -350,-70l-115 -840c182,-259 489,-360 502,-758l-428 507c-170,-259 -112,-364 -95,-735 11,-256 24,-503 34,-760 30,-804 61,-606 371,-1055zm3756 -745c-223,-391 -301,-661 -419,-1170 276,140 257,257 584,97 9,222 10,354 -15,576 -2,16 -34,253 -34,255 -74,298 -18,119 -116,242zm-294 -2483c130,721 187,531 358,598 -234,-1173 -105,-773 -61,-1415 27,-400 -28,119 -48,-358l242 -316 -37 2805c-647,-186 -573,-1164 -660,-1418 -45,19 -278,-97 -160,527 86,451 142,213 16,609 -92,291 119,1037 -84,1359 -402,-50 -188,-216 -173,-542 26,-568 109,-1796 -141,-2114 137,-168 208,-191 345,-349 166,-193 90,-222 420,-237 12,340 -98,400 -17,851zm-16895 30477c314,-51 357,-156 501,-360 306,-435 819,-693 1196,-1155l3040 -3255c511,-505 914,-1205 1460,-1651 894,-731 2315,-2351 3091,-3206l2279 -2498c260,-298 420,-578 643,-876 1029,-1377 1306,-2237 1816,-2957 1017,-1433 1852,-3847 2343,-5466 580,-1916 552,-2213 854,-3769 374,-1932 441,-2262 436,-4260l-3 -2354c21,-347 137,-337 124,-571 -12,-214 -80,-465 -396,-402 -277,56 -173,218 -287,472 -166,370 -201,21 -478,358 -803,973 -1788,1978 -2719,2744 -280,230 -570,528 -835,757 -272,234 -577,520 -795,796l-668 850c-973,1139 -2036,2173 -3135,3160l-2257 2142c-87,77 -102,70 -210,172l-2250 2452c-461,554 -1076,1029 -1544,1564 -261,297 -493,504 -790,804l-1187 1239c-144,156 -182,264 -334,425 -271,288 -439,432 -749,764 -648,691 -1224,1439 -1913,2111 -539,526 -746,904 -1545,1567 -888,737 -1439,1646 -2267,2439 -142,136 -243,165 -369,371 -172,-37 -500,-212 -635,-90 -363,330 412,355 -153,906 -784,764 -1781,2123 -2459,2776l-906 988c-1006,975 -2126,2412 -3191,3481 -168,168 -230,308 -423,490l-905 1063c-159,242 -254,282 -444,548l-1818 2880c-578,1016 -1511,3082 -505,4184 365,400 64,269 295,690 197,358 1282,1036 1739,1149 389,96 1298,218 1652,115 1263,-367 1580,-545 2330,-1460 361,-439 467,-718 771,-1127 579,-781 772,-1818 794,-2799 8,-348 79,-291 203,-672 282,-861 -228,-876 682,-2128 903,-1244 1805,-2683 2876,-3798 750,-782 2497,-3126 3201,-3413 90,72 170,164 261,237 112,89 115,70 253,201l1893 1975c140,151 333,250 499,412l938 985z"/><path d="M8217 44438c12,-19 24,-71 27,-60 2,10 19,-46 22,-61l-13 -389c-138,-840 279,-1920 831,-2360 579,-462 757,119 1200,-1369 180,-604 522,-883 1044,-1543 112,-142 192,-269 295,-391 155,-185 170,-151 351,-328 469,-460 638,-1015 1120,-1460 783,-723 1094,-1915 1536,-2334 996,-942 806,-1040 1485,-1772 195,-209 207,-140 345,-316 -291,-207 -238,-147 -544,186 -103,112 -96,97 -190,193 -11,11 -26,27 -37,38 -11,12 -26,28 -37,39l-590 624c-126,135 -196,263 -306,376 -193,197 -403,135 -600,757l-722 1257c-700,855 -440,308 -1241,1490 -289,426 -280,437 -597,769l-1239 1414c-249,320 -389,926 -614,1431 -244,548 -593,110 -1125,850 -529,738 -958,1353 -748,2617 44,264 50,297 347,342z"/><path d="M10874 41673c167,-371 -129,-114 345,-627 192,-208 287,-414 436,-623 167,-233 238,-394 400,-662 623,-1035 1951,-2581 2798,-3499 195,-210 315,-267 525,-538 690,-889 1404,-2308 1648,-2597 236,-279 701,-336 905,-1222l-1166 960c-372,442 -592,775 -855,1341 -516,1111 -1327,1632 -1969,2434l-953 1172c-671,811 -444,757 -883,1315 -163,206 -287,385 -434,629 -573,948 -1517,1789 -797,1917z"/><path d="M10648 44118c-69,220 -200,305 -432,552 -923,985 -1207,-297 -1191,-631 20,-391 169,-390 543,-981 1165,79 290,1344 1080,1060zm0 0c4,-761 -363,-1418 -1069,-1442 -539,-18 -768,498 -925,960 -342,999 457,1920 1120,1800 564,-101 1034,-855 1134,-1360 -367,-52 -74,-56 -260,42z"/><path d="M24995 29765l-290 269c-40,57 -130,256 -147,303 -55,147 -29,430 -21,751 -211,126 -525,527 -662,756 -134,-136 -56,-22 -142,-231 -2,-4 -10,-82 -41,-158 -31,29 -105,-16 -144,296 -124,997 -76,324 -313,815l289 -115c-38,244 -67,638 -72,909 -6,349 -86,459 227,569 112,-252 25,-1346 29,-1778l768 -649c4,400 -76,871 -120,1209 -26,203 -132,849 -57,1030l336 -2176c97,-731 333,-540 341,-793 12,-382 99,-65 286,-341 9,-13 34,-75 40,-86l62 -91c67,-154 130,-135 160,-152l654 -749c7,-8 23,-25 31,-33 8,-9 28,-23 38,-31 145,-127 268,-155 433,-461l149 -246c125,-116 494,-261 628,-790 -189,112 -35,-1 -167,122l-1200 1380c-465,434 -1132,1323 -1350,1430 50,-795 77,-524 255,-959z"/><path d="M39347 9788c-195,-226 -108,-712 -58,-1117l108 -1192c-463,-178 -391,1598 -338,2024l-74 834c-40,167 -34,63 -178,255l169 152c-1,145 -13,319 -10,460 2,79 -5,123 15,198 73,282 57,111 110,173 219,-531 -304,-1575 459,-1902 -12,296 13,730 1,905 -15,225 -149,592 -105,858 85,-109 75,-2 122,-358 47,-349 80,-1514 288,-1765 99,-119 118,-92 229,-233 61,-78 137,-194 196,-288 -275,200 -202,265 -519,383 85,-319 106,-716 183,-1049 81,-350 210,-679 255,-923l-281 -25c-127,375 -137,833 -221,1284 -188,1015 82,415 -351,1326z"/><path d="M11406 42521c837,691 718,850 531,1444 -37,119 -49,232 -88,363 -76,254 -234,326 -142,594 321,-28 216,-72 335,-472 217,-730 434,-1407 -328,-2005 76,-444 151,-653 296,-1051 -261,180 -578,716 -604,1127z"/><path d="M27261 20064l299 -85c0,424 -32,668 -75,1074 -53,506 -11,514 -313,830l-1051 1236c127,-39 40,24 161,-75l623 -669c325,-300 11,-191 363,-322 142,271 -26,80 9,374 28,226 -26,27 80,174 79,-610 0,-598 363,-927 247,-225 242,-98 217,-462 -228,40 -192,76 -382,181 -18,-632 227,-790 190,-1473 -14,-251 -225,-269 72,-416l-556 560z"/><path d="M29527 22279c-131,198 -135,196 -286,372l-719 808c-306,307 -157,300 -593,701 -370,340 -183,255 -884,856 -112,97 -240,237 -357,365 143,162 276,116 450,-38l871 -1063c36,-35 139,-75 232,-167 112,-373 -28,-293 291,-496 152,-96 312,-169 417,-494 85,-264 164,-225 429,-553 194,-240 102,39 149,-291z"/><path d="M21045 26298c-89,218 -292,469 -508,589 140,-259 254,-486 508,-589zm0 0c66,-293 42,-70 -85,-153 -175,382 -644,380 -635,866 1,48 34,74 18,267l-91 822c36,-13 50,-52 52,-42 36,133 55,-780 418,-1170 196,-211 641,-654 770,-980 -18,8 -46,-1 -53,23l-394 367z"/><path d="M17261 31289c267,146 430,-35 604,-280 436,-611 297,-221 496,-547l-198 -136c-216,114 -313,264 -467,434 -213,237 -371,284 -435,529z"/><path d="M22755 31020c-305,66 -308,270 -347,653 -27,264 -38,435 63,694 46,118 60,104 86,134l198 -1481z"/><path d="M35690 18004l12 -1727c-32,-213 0,-103 -123,-217 -129,410 -64,1334 13,1737 53,284 19,111 98,207z"/><path d="M26397 33994l-85 -553c-55,-200 -69,-143 -117,-200 -255,232 -231,790 202,753z"/><path d="M20007 29494c154,-177 231,-734 250,-946 36,-408 -13,-205 -54,-269l-196 1215z"/><path d="M24995 29765c190,-298 658,-611 824,-1046l-237 223c-210,244 -482,517 -587,823z"/><path d="M26193 28260l376 -306c329,-357 104,-135 314,-455 -17,11 -43,7 -50,32 -13,46 -480,432 -640,729z"/><path d="M25819 28719c382,-262 -195,24 505,-314 -147,-98 -90,-97 -131,-145 -201,110 -261,233 -374,459z"/><path d="M23550 25302c165,-117 347,-268 438,-458 -233,131 -346,228 -438,458z"/><path d="M27121 27736c-223,120 -476,478 -572,701l572 -701z"/><path d="M32204 14679c60,-41 95,-45 161,-112 166,-172 47,-29 144,-212 -195,119 -223,126 -305,324z"/><path d="M24988 23791l383 -467c-227,133 -312,246 -383,467z"/><path d="M25291 25145c-131,-68 -42,-28 -210,-51 51,230 -28,56 61,186l149 -135z"/><path d="M29527 22279c284,-196 192,0 220,-306l-220 306z"/><path d="M25137 31894c-182,120 -144,55 -207,275 160,-119 113,-102 207,-275z"/><path d="M26883 27499l310 -207c-219,34 -220,46 -310,207z"/><path d="M28549 26598c136,-46 78,53 155,-159 -242,72 -80,-49 -155,159z"/><path d="M27940 21685c182,-122 85,15 225,-239 -173,129 -129,53 -225,239z"/><path d="M25975 29088c183,-128 261,-245 359,-421l-359 421z"/><path d="M25291 25145l89 -113c-52,-49 -31,-53 -128,-75l39 188z"/><path d="M19677 28038c209,-152 147,-192 337,-353 -151,74 -235,214 -337,353z"/><path d="M27485 26892c-190,63 -193,18 -266,196l266 -196z"/><path d="M33568 13171c-58,136 40,57 84,3 158,-190 -72,-30 -84,-3z"/><path d="M36930 18137c180,-76 102,-107 210,-287 -65,47 -127,190 -210,287z"/><path d="M28520 18678c186,137 108,81 222,-2l-222 2z"/><path d="M31738 19305c192,-155 102,8 202,-278 -84,131 -104,129 -202,278z"/><path d="M30440 21076l-174 204c142,-81 101,13 174,-204z"/><path d="M31074 20148c-24,162 74,46 70,1 -13,-128 -69,-6 -70,-1z"/><path d="M23316 25532c121,-74 -19,70 136,-91 83,-87 56,-72 98,-139l-234 230z"/><path d="M33025 17579c141,-151 190,-201 300,-399l-300 399z"/><path d="M28760 22333c264,-110 99,-39 178,-159l-178 159z"/><path d="M25364 30254c67,153 -57,150 122,20l-122 -20z"/><path d="M34433 12435c-23,-88 73,-100 143,-155l-143 155z"/><path d="M24988 23791l-182 130c135,-41 137,-73 182,-130z"/><path d="M31738 19305c-53,57 -56,50 -114,129 -19,27 -67,109 -92,154l206 -283z"/><path d="M32715 18029l310 -450c-124,168 -197,257 -310,450z"/><path d="M30440 21076l132 -112c-99,24 -74,43 -132,112z"/><path d="M28981 21997l313 -272c-156,104 -209,238 -313,272z"/><path d="M38414 8777c114,-100 82,-87 184,-193 83,-87 109,-102 195,-185l-379 378z"/><polygon points="24529,24237 24773,24036 "/><line x1="29322" y1="17800" x2="29322" y2="17800"/><polygon points="21142,27872 21455,27641 "/><polygon points="32715,18029 32538,18196 "/><polygon points="29751,19625 29537,19823 "/><polygon points="29533,21437 29409,21650 "/></g></svg>