<svg xmlns="http://www.w3.org/2000/svg" xmlns:xlink="http://www.w3.org/1999/xlink" xml:space="preserve" version="1.1" style="shape-rendering:geometricPrecision;text-rendering:geometricPrecision;image-rendering:optimizeQuality;" viewBox="0 0 508000 635000" x="0px" y="0px" fill-rule="evenodd" clip-rule="evenodd"><g><path d="M51740 486480c-1090,-2440 -7570,-7580 -10240,-9560l3050 -1920c3440,4640 -700,1870 3600,3870 3760,-6050 -2330,-4050 7550,-7310l-3960 14920zm-8660 -18140c710,-2820 1140,-1940 1530,-2440 840,2790 1470,3300 -1150,4610 -910,-1450 -1520,2330 -380,-2170zm14720 -5820c-950,-5700 -90,-5910 5170,-6510 -1190,3650 -1930,5520 -5170,6510zm-9670 -5420c3060,-2260 3060,-2350 5140,-4990 -130,3140 -1390,2740 -2960,5200 3650,2480 3940,380 3940,6340l-4580 -2040c-110,-290 -520,-1400 -630,-1710 -590,-1650 -370,-1170 -910,-2800zm9710 -3860c-420,-6990 1980,-11450 8000,-14680l1240 5620c-3790,-1210 -3380,-1940 -5860,1640 2900,2680 4560,1480 6220,4600 -2670,3000 -20,1480 -4400,2390 -1760,370 -3410,430 -5200,430zm11860 -15460c260,-150 610,-340 810,-420l10340 -3650c-440,4040 -6580,8930 -8670,10470 -2000,-2190 -1880,-3130 -2480,-6400zm19910 -12910c-1000,1490 -300,2110 -3120,3120 -4240,1510 -2100,-260 -2810,-950l5930 -2170zm-19640 9840c1170,-3420 8860,-13780 11240,-16340l-1520 10830c-4810,2900 -1720,-340 -9720,5510zm28730 -32470c-1230,5050 -4160,11590 -1690,15770 -1370,1390 -4630,4560 -6450,6190l-5500 -1770 -1100 -5420c-1500,-4860 540,300 6580,380l4150 -970c180,-390 590,-310 890,-460l-2950 -1930c-3020,-1430 -1820,360 -3690,-1970 800,-3770 5850,-7030 9760,-9820zm59060 -5300c5020,260 -2160,-3740 3650,-1420 -2500,2620 620,1590 -3650,1420zm28160 -6010c8580,-4230 13390,-1450 24070,-5670 -3720,5620 -43090,11920 -44500,11250 4510,-4760 2540,-2220 10060,-2120 -1100,-3300 -1340,-2890 -2710,-5350l2740 -2760c2110,320 4480,530 6490,1350 3940,1600 990,-400 3850,3300zm30000 -13080l13450 630 -16190 6600 2740 -7230zm-23860 6930c2640,-5660 4330,-9410 8790,-13640 3160,1260 7150,4190 11400,5810l-1570 5500 -18620 2330zm27250 -10420c270,-2830 1090,-4330 2420,-6400 780,-1220 1030,-1630 1950,-2650 2280,-2520 930,-1060 2460,-2120l6520 2830c170,2390 -850,4270 360,6490 4740,-1730 1790,-1360 5800,-4230l7420 2270c-9100,3840 -12050,6490 -26930,3810zm42250 -11890c-50,-5010 2150,-8130 3870,-11690l19540 780c-4570,4350 -15410,8810 -23410,10910zm-20940 2790c2670,-7510 8350,-11710 12120,-17820l9030 2630c-980,3400 -2120,4660 -3030,7850 -1910,6630 1170,4020 -2720,7620 -3320,3080 -10470,800 -15400,-280zm53340 -33200c1160,-6470 4160,-10570 6460,-15260 3820,1200 4670,2230 7990,4020l-2620 13400 -11830 -2160zm-162920 -39000c160,-1440 930,-2860 1170,-50 80,990 -1550,3660 -1170,50zm211060 -13750c520,5020 3860,4420 8920,6030 -530,4330 -1750,12150 -3150,16220l-12220 -1890c830,-6090 3000,-16750 6450,-20360zm14810 3790c-980,-2230 -390,-4820 180,-7200 2950,-12420 2110,-12980 11160,-12370 270,5310 -2290,11730 330,15620 3130,-3460 1910,-9170 3140,-15110 2750,-190 5740,690 8630,1320 4600,1000 3460,-90 9250,-90 -1110,2900 -2960,7220 -4580,9790 -4010,6350 -13050,14990 -18820,20190l-44030 34100c-35640,24550 -28080,20370 -54120,17850 1090,-4770 5710,-14050 8610,-16770l12030 2780c-720,5960 -1970,7880 1770,10440 180,-240 320,-620 390,-810 80,-210 280,-590 360,-850l490 -1890c40,-220 170,-3900 220,-4540 6950,640 9940,2700 18080,1100 -1040,-5180 -1030,-9080 2290,-14620 1760,450 5580,1560 8120,1650 4230,170 5080,-620 6670,-2200 -2980,-1510 -9130,-1310 -13330,-2350 -210,-6440 4600,-13950 7020,-19320l9630 1860c1000,7180 -3130,14130 2970,16450l1200 -14310c6440,-380 13260,3520 18990,-1670 860,-2300 480,1640 -340,-1260 -1990,-7050 -580,-5720 890,-14290 5110,640 12720,2760 15670,-1580 -4500,-1610 -7630,520 -12870,-1920zm30040 -38000l15650 2420c-1750,3370 -3670,5830 -6190,9040 -4410,5640 -2390,5710 -10870,5550l1410 -17010zm48980 -129430c50,-450 270,-540 430,-800 2430,3020 890,5970 20,14650l-7760 1140c-1380,-7240 750,-5310 3690,-7900l-3660 -3890 3120 -2130c1520,2390 370,2500 2290,5010l1870 -6080zm3450 -9740c-230,5220 290,4370 -4170,4830 -2980,-6840 2450,-7310 -680,-12570l4510 -1910c510,2790 460,6670 340,9650zm-97280 173380c-1380,-2640 -790,-2160 -3390,-3210 -5390,4100 -3130,13690 -6890,21420 -4740,-810 -8290,-3180 -12550,-3110 -5120,7930 -7040,16810 -9120,20580 -1180,2150 90,520 -1590,2120 -4680,-4190 -2070,-4630 -5460,-6940 -4800,1160 -5250,3990 -7550,8600 -1800,3600 -3750,7350 -4780,11260 -16840,-2040 -8800,-5070 -11900,-10290 -5230,1860 -9590,17990 -14960,26650l-7440 -3040c2840,-3440 9660,-11800 10180,-15840 -4360,1500 -12720,13520 -15970,17680 -4410,5650 -10600,12510 -13810,18130 -4100,-670 -6130,-1880 -8470,-3490 2070,-5130 2830,-5790 6380,-9880 1390,-1600 2830,-2840 4000,-4180 2160,-2450 2140,-2980 1290,-4850 -4010,-190 -7990,8800 -15960,16800 -2570,2580 -1780,2950 -3850,6460 -1320,2250 -3500,6180 -5620,8810 -6280,-700 -7060,-2780 -9740,-6420 3350,-5870 6900,-6160 10150,-13160 -8850,2150 -23730,24830 -27870,31740l-7890 -2500c2110,-5580 18390,-18300 20700,-24320 -4820,700 -8310,5090 -12900,10540l-10290 11640c-4190,-1460 -4250,-2680 -7640,150 1030,2840 260,590 1490,2420 330,480 900,1630 1000,1390 80,-190 380,460 530,720 -2480,1800 -5980,5400 -7800,7240 -6120,-3150 -210,-3920 -7180,-4130 -2220,3810 -1540,1860 30,5760 -8490,-1510 -11870,-6440 -18430,-3480 940,4460 1780,3070 6850,4840 2650,930 4540,1710 6540,2860 -9590,1550 -32550,6910 -40680,10970 -4590,2290 -6280,4510 -12030,5930l730 -7020c3000,-1930 2900,-640 6440,-2540 -2270,-3980 420,-100 -2930,-2690l-2640 -1920c-190,-530 -650,-470 -710,-510l-1670 1740c2110,-2850 2980,-4090 5410,-7210 2000,-2570 3080,-5330 4940,-7710 6330,-8110 4900,-4690 8880,-15250l3840 -6980c40,-170 70,-500 90,-690 560,-4860 -3040,-1630 1800,-8340 1800,-2500 4670,-3660 5710,-6500l2280 -6780c-4200,350 -2130,-410 -4940,2460 -3710,3780 350,1630 -4240,4120 2760,-19050 9950,-13220 21030,-21840l-2640 -1070c-280,-50 -630,-80 -910,-120 -2490,-320 -610,210 -2550,60l-4870 -1510c-1820,3340 -2970,3660 -5600,5390 1840,-6330 2350,-9480 9000,-10240 -300,-6580 -4120,1030 3510,-11730 -5590,-3300 -4830,4980 -10910,8670 -290,-16340 4650,-9240 13410,-13580 -2020,-4110 -4960,-2690 -9300,-2080 3470,-9670 11480,-14440 12250,-20050 -4360,340 -5800,1730 -9320,2880 4020,-14990 5670,-10250 14500,-16350 -1550,-4360 670,-420 -4360,-3450 2450,-3830 2670,-1070 2810,-5110 -7690,-1210 -7720,6450 -11390,9310 6330,-13690 4260,-17500 15280,-34260 6370,-9700 11270,-21660 17770,-31620 6360,-9730 13310,-21200 20540,-30000 2670,-3250 4730,-5130 7630,-8420 5520,-6240 9930,-10750 16450,-16870l36440 -30210c15390,-11170 46160,-27090 65140,-34830 26430,-10770 106420,-31350 123950,-41370 430,3030 -820,-980 -410,4990l4480 -1880 1150 3300c2350,-2520 2990,-3770 6860,-5190 360,9570 -2260,10750 -3890,18000 3260,-2090 4150,-7710 5070,-11570 1650,-6940 -630,-7480 4670,-10550 -1010,-1470 -50,-1160 -3050,-2930 3840,-1950 5660,-3830 10160,-4910 -1510,4320 -4360,8820 -6160,13560 -3290,8670 -8180,17160 -10840,25860 -3290,10770 -1210,4300 -11110,7180l-240 4250c2630,150 3490,-500 7060,-1150 -3820,20730 -7270,6370 -14560,19020 690,6770 -350,-1790 1050,3330l590 9310c-4910,4250 -5730,6750 -6600,13830 -1610,13100 1090,9430 1470,16280l-6160 1250c-960,-6130 1120,-4510 -3470,-6150 -1260,3170 -980,5610 -780,8750 150,2290 4410,5010 3330,12860 -6430,530 -8710,-890 -11290,3970 7100,2300 16730,-4000 12490,20550 -16290,670 -6090,-3870 -12510,-9570 -3170,4890 -340,2420 -1500,6770 -1520,5680 -680,-1230 -2850,4970 250,110 1840,650 2120,800 2240,1130 510,10 2230,1500l-190 10470c-3670,260 -6840,-50 -10170,110 -5460,280 -5300,240 -5940,4350 1620,930 110,490 2460,700 4090,370 9190,-1310 13420,-1390 700,4770 -1950,13840 2720,16950 1810,-3570 750,-11230 860,-16260l4410 -1620c2310,-1340 1710,-260 2420,-2980 -3740,-1620 -2310,1020 -6710,-1150l-50 -10610 9240 -20c-240,9630 -2480,10210 3010,11570l880 -33100 4720 -2300 -5900 -3440 -1080 -12130c4480,-530 7890,-300 10670,-2000 -1790,-5740 -3490,930 -3430,-8840 1190,-1180 350,-650 2200,-1690l4600 -1180c-1670,7430 -320,32300 -9180,60750 -2770,8880 -5490,17950 -9240,26560l-11830 24150c-6240,-400 -13960,-1470 -18730,-4070 -900,-4970 -910,-11300 -3280,-14680 -6240,1710 -510,7660 -160,14790 -4000,650 -4960,-160 -6320,3340 2710,2420 3400,1190 6930,2310l-1900 15730 -9940 -1960c-320,-4330 -420,-9170 260,-13520 1040,-6660 1860,-4280 4100,-8700l-4600 -1620c-4230,3800 -3190,15550 -3440,23150 -4940,-160 -8430,490 -12120,2190 -1180,3650 -3230,16700 -3760,20530 -4660,-1150 -5050,-2930 -10470,-2470zm-284850 220230c1770,-3440 -1130,-4890 -850,-10840 500,-10280 6280,-22170 11100,-30330 6820,-11520 17300,-20650 25790,-30480 9140,-10580 20950,-15470 35980,-20360 16170,-5270 15240,-4430 28100,-4700l16920 -3100c7320,-1780 17270,-2980 23670,-4990 14450,-4530 26550,-9680 40020,-16370 20510,-10190 35230,-14860 56730,-27090 25040,-14260 43860,-28040 65710,-45710 12790,-10340 32620,-32290 39670,-45330 3380,-6240 7140,-11010 10440,-17120 14840,-27540 22320,-52260 26660,-84880 1160,-8720 1070,-18190 2400,-26270 7140,-43560 3250,-44340 23930,-87430 3140,-6560 9120,-11990 8470,-19140 -11750,120 -12800,3680 -21260,7480 -6820,3070 -13340,4510 -20370,7220l-41480 14890c-25950,8710 -62720,15320 -83360,28000 -5920,3640 -12190,6570 -19310,9400 -9960,3970 -34200,18550 -42910,26020 -3300,2830 -3810,4300 -6990,6800 -3020,2370 -5930,4040 -8660,6280 -16890,13830 -34420,31260 -47150,49340 -3830,5440 -7090,10790 -11840,16910l-20150 34980c-16850,25720 -28020,77870 -29900,109420l-2300 19460c-1040,3980 -990,810 -1840,4110 -630,2500 -170,4850 -2220,9830 -2260,5470 -2310,4410 -5430,8410 -2380,3050 -3110,4860 -5620,8180 -5930,7830 -15480,14210 -20960,20400l-16080 19530c-7360,8150 -8060,6270 -10320,10370 -3810,6920 -24990,30030 -15430,37050 17460,12850 12090,17170 18840,20060z"/><path d="M177120 320230c-150,-7500 1720,-16760 2550,-23970 830,-7190 3730,-2480 5310,-22630 590,-7520 3510,-15570 4910,-23630 720,-4090 1030,-7810 2130,-11750 1850,-6630 3840,-4930 5310,-9520 -11550,-6080 -9310,21670 -14740,40350 -2530,8720 -1340,15550 -5470,23220 -2590,4810 -3720,4150 -2780,8570 1470,7000 -60,-4730 510,2080 70,860 -30,1890 -100,2750 -2580,30380 5740,8760 -14080,37940 -2960,4350 -6720,8470 -9820,13120 -2440,3660 -8340,9550 -8000,13820 6300,-740 21940,-27630 29660,-36940 2300,-2770 4390,-6490 6700,-9370 2850,-3550 5980,-5850 8240,-8990l22320 -28220c7350,-11240 14860,-15290 22790,-28910 9970,-17110 24420,-31860 38700,-45160 2740,-2550 4190,-5140 8260,-8970l52690 -49560c10740,-8310 28640,-26070 36750,-31000 29580,-17990 44750,-7230 50230,-8390 -2570,-4840 -12170,-6680 -18470,-6230 -8510,610 -12660,2930 -19650,4860 12690,-10200 8510,-8450 16280,-15860 10980,-10480 16040,-8280 17460,-15320 -5490,1190 -14120,7790 -18040,11330 -5450,4910 -9570,10620 -15020,14840l-79680 69610c-2860,2830 -4700,5180 -7510,7450l-22110 21530c-2780,3320 -4980,3840 -7750,7200 -8950,10850 -21560,21120 -22390,22370 -2140,3220 -3160,6380 -5430,9520l-11950 17910c-4360,6330 -9670,9770 -13970,15950 -4210,6050 -30580,38900 -33840,40000z"/><path d="M242360 254000c11790,-680 6670,-18460 51150,-10970 11910,2000 14720,4430 28080,750 5730,-1590 20180,-6520 24000,-9300 -1060,-740 120,-760 -2320,-960 -2930,-230 -6420,1460 -9750,2720 -25190,9580 -23560,5430 -40990,3290 -16580,-2030 -28180,-4490 -42360,5200 -3760,2570 -6960,3720 -7810,9270z"/><path d="M173500 339860c6270,-170 4700,-6920 17920,-16050 19110,-13190 26380,270 53060,-11240 4560,-1970 19160,-8780 21450,-11320 -7590,-410 -17790,6320 -23970,8790 -14870,5960 -14210,3060 -29660,3340 -15870,290 -31900,10760 -38800,26480z"/><path d="M250200 224040c3360,-1660 7030,-11710 4330,-19120 -4000,-10970 -1720,-14860 -3590,-26540 -1760,-10980 12480,-32010 13240,-43890 -6320,1010 -4470,2690 -6350,8760 -900,2910 -2620,7510 -3810,11140 -1810,5580 -7770,17360 -7830,21630l3190 26070c1270,3420 3840,6630 2710,11270 -1290,5310 -5310,4900 -1890,10680z"/><path d="M326070 148060c3240,-1040 7320,-10260 8140,-13610 2080,-8440 -2670,-12090 -5700,-17270 -7830,-13390 9990,-18980 13250,-26110 -9090,-1270 -22740,16240 -17550,25790 1790,3290 7510,9720 7170,15190 -430,6720 -7810,10270 -5310,16010z"/><path d="M311180 179320c11350,-1000 16690,-10700 33650,-7170 14510,3010 11180,5560 25330,-1610 3740,-1890 4060,-1290 6220,-5020 -6090,110 -9120,4070 -15040,5470 -11020,2610 -13930,-8190 -36950,-130 -5940,2080 -11800,3210 -13210,8460z"/><path d="M397990 217990c-6020,-30 -13230,-3180 -11660,4440 3560,-490 7350,-1150 11580,-120 140,5490 -2060,13320 540,17780 770,-680 800,980 1770,-2460 460,-1610 340,-3690 450,-5440 230,-3650 590,-5870 1080,-9200l5940 -2300 -6260 -1880c-290,-11410 650,-13020 -4130,-14730 -2140,3380 -1320,3390 -470,6690 840,3260 1170,3940 1160,7220z"/><path d="M383520 102210c2500,-1300 920,540 2230,-2180 1350,-2810 6110,-19820 8860,-24460 1460,-2470 1300,-890 1610,-4080 -6130,70 -4930,-960 -9060,13870 -1490,5320 -5690,12750 -3640,16850z"/><path d="M434260 70010l12490 -5470c-1420,-3340 -1010,-760 -4640,-6190l-2070 2820c-4390,6250 -5030,1500 -5780,8840z"/><path d="M111930 408520c-1240,-11850 2390,-11860 2230,-17180 -3190,750 -4870,3730 -5720,6990 -2790,10600 3490,10190 3490,10190z"/><path d="M436530 56220c3760,-140 17680,-5570 7870,-5560 -4940,10 -7940,350 -7870,5560z"/></g></svg>