<svg xmlns="http://www.w3.org/2000/svg" xmlns:xlink="http://www.w3.org/1999/xlink" xml:space="preserve" version="1.1" style="shape-rendering:geometricPrecision;text-rendering:geometricPrecision;image-rendering:optimizeQuality;" viewBox="0 0 50800 63500" x="0px" y="0px" fill-rule="evenodd" clip-rule="evenodd"><g><path d="M11470 48052c341,-178 1826,-691 2042,-615 -254,159 -625,247 -1002,385l-807 284c-480,51 -90,27 -233,-54zm-6341 -8501c334,82 610,274 783,484l-783 -484zm2187 -1351c339,25 282,-54 418,244l-418 -244zm7614 -601l1175 269c464,151 154,15 349,218 -266,97 120,150 -824,-115 -410,-114 -496,-105 -700,-372zm24217 -16228l-132 431c-137,-455 -148,-316 132,-431zm9322 -4624c1,16 -26,122 -36,154 -140,-145 -52,19 -78,-196l65 -122c33,63 35,16 49,164zm-6446 -877c14,-288 -23,-169 117,-463 152,-320 170,-270 296,-353 184,478 106,780 -413,816zm500 -1088c-254,-148 -28,-180 0,-226 43,94 243,-161 0,226zm-25091 23077c-75,261 177,127 -209,284 -32,12 -403,57 -441,62 169,-948 433,-597 -17,-1580 -367,-802 -153,-1363 -1130,-1850 -298,-149 -312,-218 -581,-430l-1010 -888c-143,-120 -376,-326 -526,-475l-459 -525c-731,-530 -2582,-2660 -3182,-2391 312,346 222,425 -84,700 330,216 186,242 247,538l281 40c-152,-418 -29,-168 -47,-506 -19,-383 -62,98 -131,-475 625,14 755,418 1189,730 -174,1018 -375,1103 -430,1411 418,-164 407,-791 494,-1179 388,204 1673,1407 1882,1739 -25,11 -60,20 -79,25l-249 65c-294,125 -67,-79 -233,210 233,139 268,-66 645,184l137 -352c172,224 676,702 968,930 966,756 849,570 1173,1536 195,582 775,903 734,1600 -8,137 33,455 -519,388 -16,-2 -274,-75 -306,-83 -642,-162 -600,-180 -1093,-616l-1397 -1105c-293,-269 -559,-532 -900,-803 -352,-279 -613,-433 -977,-720 -161,-127 -332,-257 -514,-380 -746,-505 -1564,-1416 -2565,-1541 212,-474 921,-1111 1297,-1773 229,-402 293,-682 490,-1005 994,-1626 367,-910 1850,-2657 1079,-1271 1445,-1825 2624,-927 645,492 55,384 611,660l-69 -288c0,-34 20,-46 33,-67 626,459 1329,902 1920,1397 354,297 430,555 795,804 637,435 3312,3254 4170,3826 -55,202 -41,166 -179,293 652,-29 307,19 665,337 369,328 46,-226 677,420l247 251c187,286 -120,267 285,355 -92,-236 -117,-227 -208,-507 363,35 551,127 628,-262 78,-396 -42,-963 -176,-1305 -151,-386 -463,-728 -541,-1196 294,251 238,435 596,521l-284 -739c-165,-333 -213,-248 -514,-558 -303,-314 163,-119 -385,-240 145,341 259,407 433,724 -83,244 -25,172 -217,277 311,149 463,476 624,891 292,756 -13,471 -37,932 -34,622 238,-140 225,718 -1172,-263 -1813,-1392 -2489,-2058l-2438 -2058c-931,-673 -1431,-1386 -2311,-2186 -842,-764 -2028,-964 -2892,-1612 66,-70 49,-59 161,-141l506 -394c657,-527 1163,-1214 1763,-1800l1183 1145c168,172 455,315 676,525 581,551 455,604 1702,1677 790,680 148,742 401,1348l211 -494c561,176 428,152 119,417 231,-73 225,-93 404,-32 310,106 76,-4 295,217l-340 204c-9,-17 -41,15 -60,26 330,155 332,225 708,73 218,280 496,565 717,782 350,344 258,630 790,625 -364,-232 -543,-573 -850,-868 -318,-306 -486,-591 -805,-889 -372,-348 -520,-509 -823,-877 -738,-898 -1755,-1789 -2541,-2557l-1865 -1585c404,-1313 2296,-2147 3465,-2792 2822,-1557 2450,-2613 3986,-3800 886,-685 2253,-1017 3123,-1467l1965 -1142c448,-286 1319,-1053 1817,-1180 319,276 397,135 177,626 343,-164 141,-120 361,-198l699 633c382,319 589,318 475,727 502,-243 786,439 1108,765 661,668 2405,2790 3121,3108 -204,-206 -651,-666 -770,-963 364,190 1609,1563 1847,2025l-494 -311c-158,272 -486,837 -338,1163 417,-59 404,-377 807,-86 -71,-481 -263,-235 -714,-114 80,-216 82,-160 147,-337l101 -316c5,-42 19,-53 30,-79l280 67c339,140 -85,-38 200,66 252,92 37,-75 225,128l806 1301c286,452 1044,2598 70,1930 40,160 100,252 168,460 -441,-10 -712,-135 -1009,-323 -740,-471 -1486,-989 -2118,-1580l-2706 -2293c-1267,-1062 -1487,-922 -2312,-1487 -799,-547 -2839,-2603 -3453,-2690 113,286 696,532 951,865l-111 140c-18,22 -86,94 -103,116 -141,183 -46,10 -119,217 370,-142 -103,-40 364,-166 494,37 1696,1341 2139,1742l268 207c16,-23 61,35 92,52 -21,-47 -72,-110 -101,-188 -72,-191 -54,20 1,-100 242,203 461,340 718,560 1295,1106 2596,2265 4052,3140 528,318 307,181 427,566 299,165 474,137 754,355 643,499 1342,1088 2228,1028 241,-537 429,-402 626,-760 169,-307 158,-623 116,-1047 -560,-231 -312,42 -643,-553l-852 -1343c-165,-222 -281,-408 -470,-628 -638,-745 -1280,-1743 -2145,-2339 -540,-371 -715,-796 -1193,-1100l-762 -661c-16,-17 -100,-135 -129,-168l-707 -690c-51,-53 -136,-166 -140,-170 -93,-95 -20,-42 -159,-138l-1374 -1114c-64,-56 -100,-86 -163,-144 -12,-12 -46,-22 -54,-55 -9,-35 -38,-38 -56,-57 657,-556 3371,-1619 4424,-1820l299 332c709,-23 1281,475 1669,816l1407 1096c758,544 1285,1256 1970,1822 318,263 314,316 681,517l-135 330 319 -114c273,439 364,519 701,920l394 392c181,155 153,167 467,185 -74,-1031 375,-1567 43,-2703 -194,-666 -191,-816 -478,-1004 -821,-537 -245,-157 -699,-813 -531,-768 -2232,-2742 -3170,-2856 84,272 115,250 81,475 420,-161 408,66 699,307 276,229 407,227 573,620 -313,262 -564,399 -680,757 264,-22 295,-100 472,-242 294,-236 168,-125 366,-421 467,217 359,375 942,984l450 553c187,210 276,262 412,487 108,179 834,1849 499,2546 -125,261 -76,149 -186,286 -211,-111 -43,24 -273,-181l-550 -573c117,-345 312,-493 378,-753 -231,199 -264,316 -415,583 -655,-204 -1639,-1532 -2672,-2296 -533,-393 -845,-690 -1349,-1041l-1075 -722c-42,-24 -181,-100 -204,-117 -245,-181 -27,0 -207,-213 1081,-41 2025,-657 2824,-1202 373,-255 533,-162 840,-431 809,-39 3390,-1259 3936,-433 71,106 66,148 124,277 95,211 165,269 182,502 37,-458 -130,-753 -263,-1088 821,-12 2747,128 3391,568 498,341 536,123 503,651 445,-159 568,76 820,429 715,1002 764,1666 841,2880 12,181 19,121 51,199 50,-672 222,-630 41,-1473 225,88 110,-185 229,326 201,863 -167,2968 -266,3854 -339,236 -161,-67 -329,353 -354,884 -825,1830 -1072,2748 -10,37 -43,198 -44,221 -8,204 -2,58 55,150 337,-529 510,-1354 894,-1868 -124,3088 -2472,3457 -2947,5527 176,-208 53,-91 187,-296 143,-219 394,-957 672,-959 198,-1 -87,35 76,19 256,-405 301,-669 714,-792 -200,601 -1149,1499 -1491,2190l-368 1c22,204 45,107 163,200 -267,311 -175,497 -348,140 -105,464 -105,231 -333,573l-984 1516c-1028,1523 -1949,2460 -2944,3852l-689 1015c-53,65 -719,649 -840,756l-1287 1314c-140,131 -287,184 -460,338 -312,277 -471,642 -809,886l-1304 1276c-17,23 -56,97 -75,120 -342,413 -952,659 -1393,929 -434,265 -979,913 -1451,1036 -302,79 -76,-186 -506,102 -270,180 -698,550 -950,754 -298,241 -597,549 -891,805 -867,754 -3072,1607 -4230,2568l-977 722c-849,609 -4410,2521 -5403,2992 -611,289 -546,417 -1041,656 -984,477 -2321,1453 -3395,1634l613 -493c-258,-117 -327,8 -538,134 -1166,699 -2541,815 -3791,1409 -621,296 -1152,206 -1586,454 1031,-84 701,-27 869,92 -322,233 -915,192 -1336,187 225,-286 11,-46 210,-176 81,-53 95,51 137,-77 11,-33 48,-24 70,-39 -749,76 -1322,413 -2082,259 -225,-46 -755,-185 -913,-271 -236,-129 -100,-102 -333,-267 -645,-455 -1157,-729 -1633,-1369l-506 -697c-123,-265 -248,-543 -289,-948 -31,-12 -196,21 -299,-100 -358,-943 -167,-3282 31,-4288 63,-319 113,-660 249,-963 365,-807 1033,-786 1314,-2113 352,150 289,-157 298,423 20,-1094 -195,46 -144,-854 404,76 418,220 712,480 646,570 1283,901 2050,1351l1703 1522c15,28 41,121 51,152 197,603 301,660 83,1211 -140,-133 -50,-15 -208,-236 -142,-199 -173,-350 -418,-498l-154 216c13,10 36,22 43,24 6,2 36,14 44,16l283 48 34 619c-828,187 -1592,-503 -2047,-1093 -283,-367 -245,-178 -630,-360 -489,-230 -1991,-2042 -2472,-1152 121,54 29,44 184,47 26,0 195,-46 234,-54 -122,345 578,580 936,767 806,421 1497,1077 2269,1537 449,268 602,535 994,795 471,-182 -109,-59 409,-202 497,-138 797,-243 775,-889 -19,-572 -402,-1200 -599,-1574l-85 283c-509,-215 -550,-438 -539,-971l-2465 -2004 -394 180c-212,-6 -669,-494 -736,-713 -2,-1350 1572,-3443 2435,-4037 293,117 89,-118 337,216l63 -186c797,178 700,280 1236,670 290,210 856,607 1143,761 -222,170 -254,84 -344,292l187 150c544,53 823,236 1272,544 748,512 1545,942 2044,1717l-180 106c606,133 252,-40 491,226 210,233 110,197 265,430 224,335 406,264 732,556 271,244 399,436 638,662 270,255 449,325 683,549 -76,-374 -672,-833 -945,-1141 252,27 1559,563 2124,-116 -38,-270 95,-90 -157,-201zm21789 -29173c-485,28 -960,229 -1327,471 -601,395 -549,112 -1751,743 -758,397 -1308,-90 -3555,944 -314,144 -575,203 -864,341 -418,198 -272,233 -668,416 -1139,527 -1607,1200 -2679,1828 -1295,759 -3937,1797 -4517,2178 -1200,788 -737,561 -1532,1374 -94,96 -31,51 -171,140 -608,386 -623,1025 -1676,1894 -506,417 -864,502 -1380,826 -446,281 -959,516 -1372,823 -400,297 -914,616 -1278,926 -1235,1051 -237,1782 -3143,3647 -706,454 -946,749 -1484,1311l-1058 1244c-473,531 -677,1123 -960,1736 -110,238 -290,359 -468,631 -315,481 -500,943 -794,1405 -366,576 -1088,819 -2179,2318 -513,704 -827,1475 -1136,2255 -210,530 -178,356 -158,725 75,1420 -1105,1810 -1492,3012 -703,2186 -132,3241 -528,3681 181,363 237,2780 612,2846 223,39 189,-65 382,-172 55,222 182,297 311,421 892,858 316,514 1669,1519 143,106 271,288 409,390 338,247 972,206 1409,214 305,277 348,281 897,283 1499,6 973,-27 1591,-307 547,-248 2606,-765 3250,-954 1556,-456 3669,-1502 4986,-2413 1056,-730 3372,-1675 4687,-2508 283,-180 527,-330 804,-493 324,-192 400,-313 699,-504 267,-170 474,-249 765,-435 314,-202 342,-391 656,-548 651,-323 916,-347 1595,-793l2297 -1403c486,-263 574,-533 967,-829l977 -627c463,-361 900,-656 1365,-1028 543,-435 1469,-638 1883,-1213l1469 -1532c294,-268 310,-387 547,-652l3132 -2966c1372,-1131 1654,-2159 2093,-2701 130,-160 191,-186 295,-306 116,-135 150,-224 232,-365 277,-478 740,-909 1077,-1323 613,-752 2687,-3184 3072,-4218l1351 -3239c179,-460 84,-748 202,-1296 73,-336 184,-623 263,-934 354,-1393 492,-2691 267,-4288 -124,-240 -359,-217 -492,-450 -94,-165 -135,-407 -262,-641 -178,-329 -534,-828 -759,-1036l-1018 -781c-18,-11 -1214,-338 -1402,-402 -728,-247 -2581,-255 -3368,-45 -487,130 -2331,468 -2740,860z"/><path d="M29423 23861c785,-228 621,-179 1367,650 425,472 637,996 1198,1249 -211,-505 -793,-831 -1176,-1586 383,260 725,718 1025,1091 434,539 580,499 701,1304l134 28c9,3 39,10 49,15 10,6 38,19 49,27 241,193 227,711 238,1029 -210,172 260,190 -243,145l246 99 -236 883c-382,-437 51,-94 -146,-526 -219,157 -214,402 -276,649 -516,-35 -681,-225 -987,-486l-4296 -3600c-244,-230 -339,-377 -652,-646 -487,-418 -936,-838 -1438,-1260 -1157,-972 -3149,-2988 -4590,-3296l213 303c73,114 25,-5 94,195 91,-75 -214,-140 237,-63 225,38 403,228 641,370 893,535 1469,1250 2257,1646l-165 138c-129,128 -10,-44 -119,157 1034,392 1711,1208 2589,1887 481,372 1122,1136 1143,1162l1051 1135c75,-154 -36,-182 113,-401 381,454 612,555 1076,920 1204,943 359,472 984,1016 383,335 341,456 1059,841 228,122 418,229 712,168 177,-37 499,-139 639,-252 475,-504 445,-1750 165,-2446 -119,-299 -1867,-2095 -2130,-2355 -721,-710 -1325,-995 -1494,-1311 -135,-254 -7,-173 -347,-445 -261,-210 -192,-8 -277,-320l-390 240c627,149 1199,1095 1496,1356 -264,178 -334,36 -514,290z"/><path d="M42134 24168c-236,234 -368,293 -376,728 -177,-50 -279,-193 -686,411 182,-298 296,-213 490,-227 -127,452 -1049,1170 -1200,1250 334,-124 600,-464 993,-668l-411 1080c484,-500 432,-1156 1088,-1861 216,-232 521,-529 717,-782 313,-404 420,-613 724,-755l-416 1312c439,-338 100,67 207,-433l697 -1803c369,-683 811,-1421 1010,-2198 -274,-42 -267,-8 -482,81l-67 -600c-284,430 -86,863 -386,1393 -62,139 39,-24 69,333 29,345 78,69 -161,559 -397,817 -1043,1679 -1615,2387 -49,60 -135,158 -188,207l-260 197c147,-281 130,-323 253,-611z"/><path d="M42666 21872c-97,-651 370,-672 819,-1690 -405,343 -364,672 -885,1020 -18,-459 8,-628 -344,-799 -29,823 169,326 190,1070 -238,345 -804,998 -1122,1234 -221,-269 -163,-320 -254,-484 -106,-189 -109,-183 -364,-235l433 884c-276,534 -1703,1738 -2090,2498 817,-314 2003,-2575 2225,-1959 66,-508 -25,-284 225,-564l756 -843c174,-187 133,-199 411,-132z"/><path d="M22673 17944c245,-235 52,-103 361,-229l545 233 -214 600c241,-34 147,-12 407,-262 14,-13 40,-39 62,-57 418,66 870,474 1199,651 -37,298 -11,119 -66,356 656,-309 1528,1436 2308,1293l-4141 -3325 -318 250c-46,71 -117,386 -143,490z"/><path d="M13037 45760c648,-586 60,-190 1082,-628 365,-156 783,-248 1090,-461 -553,14 -1188,397 -1786,507 262,-781 651,-749 590,-1793 -83,245 -6,256 -53,462 -73,324 -239,286 -591,1030 -187,395 -113,400 -534,571 -1147,467 -3331,1306 -4442,854 323,456 1733,181 2268,120 -240,731 -365,536 -476,776 238,-126 318,-325 493,-597 341,-529 970,-370 2301,-1027l58 186z"/><path d="M45921 13719c-374,-318 -107,-246 -492,-324 177,909 727,45 -319,2444 -138,316 -267,493 -360,841 293,-237 627,-1449 931,-1840 134,-172 44,-90 243,-183l55 1279c302,-449 -1,-1415 46,-1834l381 -1139c101,-267 123,-37 67,-435 -216,413 -274,807 -552,1191z"/><path d="M14474 45825c253,-42 1542,-674 1987,-847 356,-138 1668,-667 1989,-954 -725,236 -3787,1345 -3976,1801z"/><path d="M36321 29683c-425,66 -296,171 -401,662 -124,582 -739,2132 -764,2491l459 -980c66,-190 4,-102 99,-291 228,-220 -59,192 212,-29l688 -948c-517,448 -343,505 -759,684l466 -1589z"/><path d="M46480 19118c320,-881 1233,-2627 1010,-3572 -194,626 -305,1165 -480,1809 -122,449 -502,1335 -530,1763z"/><path d="M47752 14554c184,-532 153,-1303 44,-1857l-581 -1631c158,423 170,310 246,805 203,1337 272,689 291,2683z"/><path d="M36405 21694c362,-198 815,-1265 920,-1729 -266,180 -368,403 -517,786 -137,352 -337,681 -403,943z"/><path d="M30363 25270c-216,-158 -168,161 -175,-378 -2,-184 255,-727 -228,-606 -177,44 -127,30 -246,285 394,481 409,-113 340,894l309 -195z"/><path d="M19247 43734c437,-154 798,-955 981,-1384 -250,205 -950,1104 -981,1384z"/><path d="M36452 32545c296,-159 1394,-2046 1497,-2379 -409,205 -475,626 -772,1250 -194,408 -437,836 -725,1129z"/><path d="M40448 13984c34,-16 299,-122 334,-149 138,-111 52,-14 52,-105l-41 -88c-50,-399 235,-270 322,-739 -351,203 -597,527 -667,1081z"/><path d="M29423 23861l-187 -90c114,-170 165,-353 250,-675 -422,164 -196,21 -271,437 -59,318 -140,273 -171,622 390,3 310,59 379,-294z"/><path d="M40132 11689c-121,213 256,55 -234,159l234 -159zm0 0c7,-447 21,-104 -107,-213 -200,210 -364,271 -321,509 176,100 -217,170 196,63 178,-46 290,-255 463,-302l-231 -57z"/><path d="M11041 45828c81,-206 122,-389 191,-581 128,-348 97,-199 259,-460 -324,10 -256,71 -403,409 -386,887 -107,563 -47,632z"/><path d="M35448 18860c240,85 296,126 575,-84l-373 -24 146 -737c-201,331 -271,454 -348,845z"/><path d="M23926 19449c293,-183 65,-47 255,-235l313 -239c-199,-129 -62,-23 -260,-238 -171,288 -293,332 -308,712z"/><path d="M26934 22079c249,-283 268,-373 435,-724 31,13 68,30 91,40l378 170c-174,-196 -769,-701 -981,-844 119,218 333,365 519,508 -126,306 -77,186 -245,440 -140,214 -123,176 -197,410z"/><path d="M34681 18169c325,-14 380,-73 550,-181 -120,-73 37,-72 -172,-63 -7,1 -211,52 -233,58 52,-607 -3,-288 -100,-427l-45 613z"/><path d="M27027 21274c-72,-70 -150,-232 -365,-173 -209,58 -193,145 -239,365l604 -192z"/><path d="M13037 45760c-234,270 -426,765 -478,1170 159,-227 441,-847 478,-1170z"/><path d="M44482 8783c156,86 133,-26 472,64 202,54 444,134 611,179 -143,-218 -792,-478 -1083,-243z"/><path d="M33269 17131c446,-147 362,-230 625,-517 -340,185 16,124 -262,137 -357,18 -40,-6 -228,-102l-135 482z"/><path d="M32107 15604c407,-138 305,-54 469,-461 -365,124 -351,100 -469,461z"/><path d="M31273 15043c304,-16 87,106 284,-114 162,-180 111,-181 182,-369 -392,192 -258,146 -466,483z"/><path d="M33928 17782c399,-253 195,-264 0,-387 -284,400 -64,313 0,387z"/><path d="M27685 22520c111,-73 58,94 176,-207 135,-345 -25,-198 -29,-207 -113,289 -166,490 -261,725 234,-26 192,-38 387,-129 -500,79 -132,-15 -273,-182z"/><path d="M24669 19832c165,-72 198,-102 302,-198l-138 -210c-195,173 -184,131 -164,408z"/><path d="M10641 31266c-359,143 306,214 -133,538 240,-55 158,23 218,-164 123,-379 -71,-354 -85,-374z"/><path d="M5264 45258c-236,-232 -189,-335 -395,-572 26,430 50,454 395,572z"/><path d="M42622 23574c272,-205 521,-570 641,-942 -47,162 -480,636 -641,942z"/><path d="M16764 24541c283,148 179,408 241,245 6,-15 20,39 62,60l27 -357 -330 52z"/><path d="M31671 26623c443,-145 145,-65 117,-254l-5 -115c-15,-142 17,-59 -52,-155l-60 524z"/><polygon points="26934,22079 26838,22382 27230,22224 "/><path d="M27838 21565c167,270 203,284 475,387 -154,-225 -181,-245 -475,-387z"/><path d="M12198 32864c236,204 318,41 422,-172l-422 172z"/><path d="M25241 20474c306,107 297,58 374,-159 -84,21 -65,-7 -189,40 -237,90 -66,17 -185,119z"/><path d="M19275 27530c281,-3 305,-95 355,-394l-355 394z"/><path d="M22535 18447c247,-404 15,-337 -12,-379 -77,240 -119,156 12,379z"/><path d="M44853 19874c6,-188 201,-5 286,65l-53 -452 -233 387z"/><path d="M32229 26051c-340,-37 -36,183 0,231 55,-88 334,204 0,-231z"/><path d="M14000 34146c-253,-128 -257,-85 -420,151l420 -151z"/><path d="M19757 27968c252,106 286,3 399,-193l-399 193z"/><path d="M32871 16177l361 13c-163,-128 206,-146 -197,-105 -376,37 -30,-28 -164,92z"/><path d="M28326 23690c298,-60 426,-219 584,-400l-584 400z"/><path d="M40719 15273l-115 310 280 -136c-155,-39 -78,-60 -165,-174z"/><path d="M11900 32165c-243,-71 -285,86 -402,246l402 -246z"/><path d="M40270 12739c203,-90 57,132 177,-271 -60,48 -175,-64 -177,271z"/><path d="M25724 20769c-152,118 -66,-19 -131,140 -145,352 -17,40 81,166l50 -306z"/><path d="M41773 26133c303,-126 388,-345 603,-529 -256,193 -399,323 -603,529z"/><path d="M30737 14279c-98,195 131,88 145,-5 27,-184 -64,-158 -145,5z"/><path d="M31230 26055c103,-174 122,-86 0,-245 -200,340 -3,239 0,245z"/><path d="M39571 27032c-97,195 -383,463 -570,599l570 -599z"/><path d="M42134 24168c180,-174 141,-114 284,-301 77,-100 127,-181 204,-293 -175,196 -300,327 -488,594z"/><path d="M30037 13819c169,-217 66,4 160,-151 99,-164 57,-29 135,-312l-295 463z"/><path d="M43552 19974c-32,255 75,64 101,-6 90,-247 -97,-20 -101,6z"/><path d="M8470 42556l109 -66c51,-65 -153,-303 -109,66z"/><path d="M12387 47153c3,197 65,160 102,11 50,-201 -102,-47 -102,-11z"/><path d="M14901 35804c0,-151 203,-91 207,-526l-207 526z"/><path d="M25724 20769c192,-75 138,48 155,-132 -178,8 -72,-42 -155,132z"/><path d="M10395 32165c-1,20 45,112 82,-21 59,-214 -76,-52 -82,21z"/><path d="M33375 15877c-28,176 92,55 86,2 -15,-136 -82,-26 -86,-2z"/><path d="M18577 27169c-29,175 42,58 70,3 43,-86 -66,-26 -70,-3z"/><path d="M20890 28705c-184,78 -152,104 -290,223l290 -223z"/><path d="M45450 21157c128,-263 34,134 137,-276l-137 276z"/><path d="M18172 26802c33,-36 96,-85 156,-139 -197,136 -86,-24 -233,248 -15,-180 -14,-9 77,-109z"/><path d="M34061 17024c72,-254 53,-115 143,-354l-143 354z"/><polygon points="17432,37859 17233,37722 "/><polygon points="16554,39401 16850,39730 "/></g></svg>