<svg xmlns="http://www.w3.org/2000/svg" xmlns:xlink="http://www.w3.org/1999/xlink" xml:space="preserve" version="1.1" style="shape-rendering:geometricPrecision;text-rendering:geometricPrecision;image-rendering:optimizeQuality;" viewBox="0 0 50800 63500" x="0px" y="0px" fill-rule="evenodd" clip-rule="evenodd"><defs><style type="text/css">
   
    .fil0 {fill:black}
   
  </style></defs><g><path class="fil0" d="M12848 44663l160 76c-95,56 -155,-78 -160,-76zm11963 761l-450 39c-105,-168 -94,-167 -121,-426 -21,-199 -51,-330 -60,-519 362,-57 816,-228 1194,-205 -29,377 21,659 64,972l-627 139zm1360 -324l-663 132 -27 -530c78,-82 -118,-38 141,-86 -171,-13 -143,79 -174,-342l645 -168c-13,457 -35,598 78,994zm89 -75l-43 -1001c336,-44 594,-202 871,-135 201,-194 667,-354 972,-333l61 908c-502,59 -1257,446 -1861,561zm6407 -712c2,-24 117,-122 67,-5 -13,30 -79,121 -67,5zm-9516 -471l826 -127 113 724 -820 136 -119 -733zm6353 1951c-364,20 -503,221 -872,266l-74 -74c-241,-188 -184,-319 -238,-701 -40,-288 -121,-486 -44,-812 281,-87 763,-291 1021,-299 30,181 14,549 33,806 36,484 110,465 174,814zm-4093 -1700l17 -512 280 -83c128,-16 265,-21 390,-27l-13 564c-225,-46 -332,111 -674,58zm-1267 -368c334,-118 783,-151 1182,-168l23 628 -1163 253 -42 -713zm5258 244l30 -891 362 -125c219,-64 151,-75 389,-65l-3 851 -778 230zm-3185 -16l19 -503 807 -95 3 358 -829 240zm3046 80c-338,89 -770,310 -1061,332l-24 -831c169,-170 277,-168 558,-248 266,-77 298,-130 595,-156 -22,356 -10,571 -68,903zm-18160 -499c-13,-96 93,-47 79,14 -10,46 -56,152 -79,-14zm13148 -445c317,36 748,-58 1084,-90l-9 482 -1186 115c23,-319 -19,-327 111,-507zm6046 554l1 -815c171,-108 372,-179 593,-167l-7 802 -587 180zm-6322 -11l-823 118 -43 -510 933 -109 -67 501zm2122 -265l-648 75 24 -463 679 -105 -55 493zm117 -28l29 -200c8,-82 8,-184 12,-268l1723 -272 55 491 -199 86 220 136c-151,193 -725,312 -961,327l69 -315 437 -58c170,-45 98,-23 194,-91l-638 87c74,-393 42,-251 -20,-363 -125,454 -61,366 -270,399 -145,23 -526,60 -651,41zm-15441 -546l789 681c340,270 459,307 937,491 298,305 66,356 233,641 -189,-80 -443,-209 -586,-324l-1373 -1489zm1072 -152l-35 108c-54,-31 -62,-73 -84,-104l119 -4zm-119 4l-170 -45c93,-74 -56,-106 93,-42 86,37 39,32 77,87zm-441 390l160 -36c-104,-408 -165,-46 -294,-585 645,225 339,980 878,1155 -207,-345 -331,-436 -402,-855 635,323 554,253 719,767 72,224 106,198 100,373 -260,-44 -1067,-558 -1161,-819zm18178 -169c-64,-174 -23,-82 -6,-232 3,-29 12,-143 15,-158 29,-177 10,-206 360,-262 62,-9 125,-18 187,-28 61,-10 101,-21 181,-31 21,466 -27,308 75,436l53 -448c162,-102 362,-122 577,-147l-20 517c-593,44 -1146,459 -1422,353zm-142 56c-264,127 -388,102 -738,123 36,21 -79,62 343,39 -141,115 -180,80 -377,133 -57,16 -168,63 -213,72 -327,66 -122,12 -194,-33l192 -97c17,-5 74,-13 92,-19 92,-31 99,-42 141,-68l-429 51 -43 -567 1012 -187 -46 263c107,-220 37,-249 254,-318 50,76 35,-22 47,100 2,19 -7,112 -8,125 -11,128 -20,257 -33,383zm-6668 -612c12,-8 -12,-57 151,-56 337,2 73,-5 165,56 -144,51 -191,63 -316,0zm-3508 -56c187,-113 -124,-45 181,-31 15,0 30,4 46,5l536 22c258,17 661,7 829,116 -169,90 -1353,-35 -1592,-112zm-7300 387c-8,-11 -20,-43 -25,-33 -4,9 -19,-26 -26,-32l-60 -54c-163,-136 -237,-144 -318,-454 278,117 218,109 425,292 209,185 244,75 291,443l-287 -162zm12336 -275c11,-10 24,-40 30,-30l154 -70c91,-18 211,-14 319,-27l1736 -155c-152,131 -130,83 -490,133 -325,45 -1496,276 -1749,149zm-13172 -328c164,85 327,200 399,374 -354,-117 -244,-106 -399,-374zm22369 776c-60,-365 174,-437 371,-577 220,-155 370,-309 657,-394 -51,320 -902,942 -1028,971zm-20485 -337l136 143c245,187 183,186 297,504 -284,-26 -1117,-525 -1191,-725 -39,-103 -109,-427 -127,-524 290,92 542,457 885,602zm20483 -115c-48,-393 143,-412 371,-573 216,-153 346,-324 594,-406 14,381 76,252 -144,415l-821 564zm-22188 -572c99,102 136,172 146,348 -257,-110 -420,-270 -466,-614 92,65 15,6 111,84l209 182zm15218 146c173,-149 468,-159 797,-235 273,-63 567,-153 829,-172 -315,265 -1114,379 -1626,407zm-10216 -68c-21,-237 -60,-175 -275,-239l-155 -71c-6,-17 -22,-18 -32,-27 77,-122 -47,-81 114,-96l502 150c228,64 423,128 686,177l95 -164c190,12 402,29 613,43 189,12 320,85 534,132l1084 213c-308,24 -551,-19 -858,32 -296,50 -366,78 -678,-14 -328,-98 -1239,-88 -1475,-245 -68,61 -63,61 -155,109zm11672 -107c270,-206 756,-332 1081,-352 -80,166 78,93 -239,170 -333,81 -454,147 -842,182zm6654 25c-6,-177 312,-341 476,-420 -86,120 -266,342 -410,414l-66 6zm-12447 179c260,-176 882,-35 1274,-123l3667 -504c-177,171 -263,144 -564,213 -232,54 -374,93 -616,128 -1392,203 -2268,391 -3761,286zm-11171 33c-222,-136 -531,-426 -625,-696 175,92 212,181 358,322 160,154 188,116 267,374zm4450 -630c26,-14 -55,-102 163,-4 -44,28 2,25 -95,34 -9,1 -52,-21 -68,-30zm-3832 38c361,274 449,394 496,898 -514,-250 -711,-532 -796,-1103 188,72 126,74 300,205zm4924 -153c-102,48 -224,32 -320,-107l320 107zm16934 617c79,-200 71,-122 211,-245 307,-269 473,-549 745,-602 -33,212 -136,280 -426,482 -252,174 -296,254 -530,365zm-6673 -624c197,-87 462,-103 674,-204 245,-116 435,-199 715,-69 -261,181 -1010,268 -1389,273zm-16164 -85c142,136 232,201 243,470 -197,-148 -612,-536 -657,-826 177,66 288,235 414,356zm18505 92c246,-177 666,-350 993,-387 -187,346 -42,190 -447,319 -208,66 -384,123 -440,219 -35,-30 -9,11 -74,-76 -124,-165 60,155 -32,-75zm-840 -334c157,-82 218,-106 332,-56 -69,44 -63,67 -193,86 -286,42 -76,1 -139,-30zm7105 69c49,-192 7,-157 187,-240 -42,210 0,157 -187,240zm-4940 -134c-103,55 32,25 -99,39 -75,8 -105,-27 -111,-30 178,-80 96,-77 210,-9zm3615 -147c28,-243 125,-294 355,-360l-19 405c-20,52 -753,767 -948,844l4 -637c492,-405 508,-392 608,-252zm-22779 902l-265 -185c-214,-217 -148,-309 -252,-710 316,80 459,483 517,895zm4363 -911c479,33 930,220 1375,345 1091,304 987,27 1472,257l2244 364c392,58 543,-17 706,149 -552,62 -1106,-170 -1600,-135 129,73 943,180 1172,183 -104,76 105,52 -190,79l-2657 -482c-295,-100 -291,-137 -640,-191 -442,-69 -1641,-235 -1882,-569zm18905 866c-82,-438 137,-464 382,-672 206,-175 453,-395 636,-396l-406 627 -612 441zm-5544 -1033c-67,65 -113,121 -248,149 -124,25 -156,7 -246,-31l494 -118zm-13741 722c-30,14 -25,31 -98,28l-800 -246c-375,-347 -622,-412 -724,-617 196,52 102,20 205,123 310,309 1246,519 1417,712zm380 -555c-273,-23 -167,-54 -338,-165 -154,-101 -125,-10 -251,-191l597 201 -8 155zm15282 -36c226,-163 241,-100 464,-198 181,-79 232,-123 467,-169l-191 171c-225,125 -498,262 -740,196zm-1085 4984l-104 1c-47,-34 -86,43 -173,-298 -128,-499 -73,-754 -67,-1278 231,-65 531,-204 792,-204 -14,412 19,829 151,1123 182,-26 203,93 197,-327 -2,-135 22,-50 -20,-130 -70,155 -16,205 -116,333 -192,-771 -82,-307 -122,-1054 160,-127 389,-199 606,-261 13,269 35,530 274,565 110,-126 134,-385 104,-604l-111 472c-159,-132 -144,-196 -151,-505 185,-63 466,-86 657,-167 -164,-155 -459,-7 -668,79l-3 -803c314,-201 661,-138 848,-263 -256,-123 -573,26 -855,126l20 -475c241,-156 452,-123 551,-366 -225,-14 -50,-13 -244,96 -103,58 -171,78 -293,104l65 -571c334,-22 509,-245 868,-346l-36 1833c-169,33 -248,56 -311,196l297 -10c-12,258 -73,882 217,938 -45,-184 -97,-122 -112,-420 -11,-209 -4,-422 14,-622 171,-55 485,-196 622,-274 202,-114 313,-245 572,-337 9,403 -153,406 -398,572 -136,92 -421,253 -546,364 177,-30 359,-147 500,-245 65,-44 155,-112 233,-160 214,-129 93,-92 305,-28 -73,154 -45,63 -43,303 -110,34 -783,532 -839,688 233,11 768,-455 824,-535 134,29 147,63 302,16 96,-464 0,-239 332,-506 123,-99 369,-286 447,-436 323,100 359,243 256,-248l1386 -1079c79,-66 157,-153 243,-244l356 -368c121,-97 51,-61 211,-82 -117,261 -1135,1433 -1420,1711l-759 799c-405,410 -317,264 -855,703 -403,329 -855,431 -1412,925l-429 354c-467,293 -1534,797 -2163,945zm-14400 -4707c-289,-74 -1239,-489 -1403,-676 236,7 1247,493 1403,676zm17910 -66c-151,74 -914,532 -999,708 337,-59 700,-426 1006,-548l-15 715c-91,82 -210,157 -290,217l-945 656c-4,-510 129,-1400 -10,-1822 503,-124 844,-554 1302,-673l-49 747zm-22597 228c-206,-109 -300,-230 -459,-396 -186,-193 -191,-345 -241,-656 636,305 593,640 700,1052zm25261 -1017c-89,43 -18,-6 -101,63 -163,137 -36,102 -219,159 63,-185 176,-267 367,-374 -101,160 -2,-13 -47,152zm-21550 156c-192,-31 -407,-120 -477,-318l477 318zm-2662 411c-256,-108 -251,-164 -459,-331 -172,-139 -285,-164 -366,-354 193,51 327,202 464,313 347,283 296,117 361,372zm18981 -789c-160,169 -643,414 -866,527 -388,196 -292,60 -317,52l1183 -579zm-19703 885c-427,-168 -391,-424 -506,-944 344,175 440,489 506,944zm2504 -657c-46,-89 -8,-8 -20,-95l-43 -169c-5,-9 -35,-50 -43,-67 277,56 30,48 217,213 105,93 110,-2 232,183l-343 -65zm22935 149c32,-156 52,-141 224,-319 122,-126 166,-182 343,-242 -81,158 -401,491 -567,561zm-1980 788c-61,-284 59,-294 204,-434 99,-95 199,-204 294,-321 249,-303 439,-565 652,-582 -33,77 -65,158 -85,249 -44,195 29,107 -82,264 -161,226 -771,710 -983,824zm-21549 -1324c170,22 137,-9 191,168l-191 -168zm-2205 103l-208 -234 208 234zm25497 -200l-151 3c109,-91 -15,-24 98,-53 240,-62 45,24 53,50zm-26811 -185l481 502 -153 50c100,280 220,420 269,723l-185 -121c117,392 224,244 317,815l-162 29c8,504 278,644 417,850 136,201 -24,144 204,132 -13,-275 -163,8 -278,-724l503 436c242,237 398,531 478,922 -268,-111 -341,-400 -693,-569 86,255 60,395 173,706 -466,-334 -531,-920 -573,-996 -99,-182 -229,-237 -313,-476 -64,-184 -128,-437 -150,-635l103 78c-132,-388 -454,-1210 -438,-1722zm25030 1175c24,-580 99,-395 421,-659 131,-108 147,-120 281,-225 215,-169 50,-152 308,-191 -94,190 -814,1001 -1010,1075zm-346 -462c44,-420 -7,-702 368,-785 -122,348 -92,416 -118,791 -141,144 -763,558 -951,602 -26,-322 27,-445 64,-769 240,-93 448,-276 661,-389 -27,231 -121,406 -24,550zm1859 -50c331,-152 466,-618 854,-793 -51,166 -948,1254 -1193,1349 75,-299 228,-306 339,-556zm-3775 -724c8,-69 53,-78 67,3 7,39 -82,131 -67,-3zm-770 270c6,-68 -118,-99 363,-307 -36,145 -17,103 -160,203 -60,43 -41,32 -103,66 -87,47 -36,16 -100,38zm1995 230c130,-285 484,-581 783,-680 -38,379 -689,664 -783,680zm-20103 -129l-312 -335c-58,-75 -32,-6 -63,-132 195,125 508,238 375,467zm19815 -369l215 -129 -215 129zm3301 6c27,-193 22,-140 165,-236 -61,219 -1,117 -165,236zm-26603 -429c343,748 429,37 715,1361 -158,-50 -521,-447 -554,-506 -74,-132 -174,-695 -161,-855zm26638 84c-25,155 0,111 -102,231 -21,25 -57,58 -81,81 -72,68 4,1 -84,70 86,-360 165,-346 267,-382zm-23573 421c-211,-118 -305,-236 -381,-417 183,85 93,21 226,188 66,82 94,111 155,229zm22793 445c-27,-410 -41,-364 357,-843l310 -242c-69,255 -471,862 -667,1085zm-1280 -1202c149,59 91,-48 94,96 -18,-2 118,101 -55,-17 -103,-70 32,55 -39,-79zm2060 336c3,-121 -13,-145 66,-267 126,-197 -5,-64 161,-120 -26,135 -56,426 -227,387zm-12184 4066l-1137 93 -1 -619c412,166 1019,-73 1415,9l43 -66c1,-9 9,-13 12,-19 151,55 2087,-261 2255,-315 133,-43 436,-212 589,-133 -105,50 -152,64 -284,102 -64,19 -76,12 -135,39 -125,55 -46,25 -121,92l2448 -720c236,-95 477,-202 714,-287 243,-86 1311,-476 1463,-598 315,-253 187,-205 633,-426 195,-96 493,-287 608,-458 -367,116 -524,356 -891,435 59,-82 22,-38 93,-110l1144 -746c-93,114 -127,119 -189,300 271,-100 126,-68 327,-221 193,-146 638,-431 757,-638l381 -116c-111,90 -72,67 -172,279 -201,-46 -131,-62 -291,92 -75,73 -122,124 -212,230 -399,465 -1347,864 -1478,1194 216,-47 391,-210 565,-322 100,-66 148,-102 261,-188 336,-253 268,-68 292,-55 -93,93 55,-27 -95,89l-514 319c-129,79 -172,128 -308,199 -358,187 -72,2 -321,23 -45,4 -987,632 -1154,719l-23 595 -579 115 60 -316c-121,-78 10,-44 -195,-56 172,268 50,405 -241,479 -577,148 -359,34 -655,12 -195,207 -207,173 -527,244 -235,53 -431,92 -664,121l-25 -201c-313,123 -135,122 -95,240l-1663 259 -32 -163c-169,98 -40,31 -167,202 -328,49 -531,159 -724,-42 -5,10 -12,27 -16,32l-1151 302zm7959 -3900c109,-170 684,-611 876,-541 -240,179 -527,487 -876,541zm5169 505c43,-193 550,-1041 817,-1221l-579 950c-259,365 11,165 -238,271zm-25632 -437c-202,-73 -205,-124 -448,-361 -170,-166 -290,-177 -375,-432 407,4 162,-39 311,111l512 682zm25305 -845c-35,170 -31,127 -126,271l-138 163c37,-141 157,-366 264,-434zm345 103c19,-138 71,-112 194,-125l-194 125zm-849 -1153c5,161 77,890 -3,977l-61 66c-11,12 -45,44 -56,56l-739 629c0,0 -716,621 -1174,930 -66,-231 -48,-542 -19,-773 280,-190 840,-770 1132,-961 -36,379 -127,178 -159,483 472,-325 828,-1290 1079,-1407zm777 1775c70,-413 417,-804 726,-898 -67,201 -347,581 -490,739 -156,170 -68,111 -236,159zm-27332 -213c-245,-231 -344,-277 -337,-1015 514,391 525,679 621,1234 -255,-83 -99,-44 -284,-219zm-599 497l-111 -178c-19,-61 -37,-169 -53,-233 -82,-334 -37,-140 36,-373 -171,-107 -107,152 -209,-558l532 579c101,139 175,705 200,927 -187,-89 -142,-58 -251,-266 -90,-171 -56,-171 -187,-231l43 333zm28266 -1449c-74,194 -365,552 -548,616 45,-114 128,-209 196,-307 57,-83 143,-214 198,-291l154 -18zm-964 673c8,-279 152,-525 413,-633 -65,210 -64,182 -169,355 -216,357 -67,186 -244,278zm-2445 615c34,-279 115,-238 294,-404 223,-208 891,-776 1093,-864l-1013 1006c-125,86 -66,10 -201,125l-173 137zm-18061 2608l421 120c-169,65 -95,-25 -257,87 217,97 274,101 437,-48 10,9 23,24 30,29 6,5 22,21 31,26 8,5 23,17 33,22 213,93 54,-80 544,61 784,228 1895,193 2673,392 169,43 196,-3 362,-5 271,-2 516,41 835,33 389,-10 1324,-62 1643,-16 -55,135 -11,45 -182,105 338,120 184,82 242,137l20 463 11 427c-261,205 -324,68 -561,163 224,-15 354,-31 561,20l128 795c9,296 407,2304 767,1693 -91,-53 94,-111 -178,0 -253,-505 -467,-1106 -470,-1721l800 -102c32,310 35,637 126,877 -83,80 86,54 -220,112l192 69c45,-82 212,483 358,647 248,279 363,29 393,-265l-179 229c-286,-123 -381,-388 -390,-682 97,-11 158,-16 249,-35l202 -77 634 -49c8,198 120,727 225,918 118,218 12,99 194,151 110,-138 78,-70 99,-294l-168 179c-112,-304 -291,-629 -196,-1027l568 -138c16,267 64,541 120,792 109,495 36,481 245,573 107,-147 102,-150 92,-364 -18,49 -24,91 -51,134 -11,18 -41,113 -62,71 -6,-10 -26,24 -46,37l-186 -1245c188,-116 548,-225 775,-212 -6,484 -16,1214 378,1255 31,-82 60,-194 76,-312 26,-193 20,-163 -32,-262 -10,202 -45,257 -87,437 -160,-147 -175,-247 -195,-527 -15,-212 -25,-443 -23,-655 199,-119 746,-309 967,-283l85 829c2,293 146,494 220,727 -259,25 -639,156 -919,260 -151,56 -297,142 -431,184 -335,107 -1144,84 -1424,188 -303,113 -642,168 -974,203l-167 -135c-141,93 -29,14 -95,83 -1,1 -26,117 -50,63 -3,-9 -14,23 -22,33 -156,-50 -62,-15 -111,-104 -676,-14 -1663,97 -2672,98 -612,1 -917,150 -1308,-1081l-84 -257c-28,62 -89,-105 -34,221 0,0 50,140 58,161l296 644c126,173 98,65 185,282 -601,-38 -821,-67 -1228,-316 -306,175 -323,91 -717,13 -231,-46 -504,-96 -736,-155 -260,-65 -465,-120 -625,-318 -387,-479 -1040,-2803 -853,-3717 -226,134 -202,159 -175,470 73,843 368,2071 707,2847l174 379c-182,-35 -821,-175 -956,-329 -121,2 -1016,-270 -1145,-412 -149,-164 -379,-846 -455,-1111 -124,-431 -204,-787 -327,-1232 -188,-678 -161,-798 -230,-1083 -34,-140 -4,-43 -62,-108 -134,424 728,3146 935,3486 -181,-8 -610,-234 -814,-332 -302,-144 -530,-216 -853,-338l-16 -305c-114,88 13,7 -84,92 -79,68 1,23 -114,69 -260,-133 -325,-350 -451,-567 62,-135 78,-93 164,-229 -173,24 -88,31 -249,40 -58,-206 -179,-500 -254,-725l182 -32c-191,-207 -206,-77 -306,-413 225,83 360,202 564,317 903,514 415,-67 778,787l436 950c99,184 142,324 371,195 -12,-7 -30,-16 -38,-20 -9,-4 -28,-14 -39,-20 -10,-5 -28,-12 -39,-18 -329,-179 -834,-1740 -896,-2029l211 118c-97,-178 -206,-61 -313,-381 -288,-858 -267,-847 -263,-1624 -62,101 -73,69 -175,138 78,615 210,951 333,1484l-240 -96c-36,-58 -8,-31 -71,-95 -388,-395 -794,-494 -888,-887 -26,-112 -28,-129 -40,-259l-65 277c-212,-101 -358,-293 -548,-485 -189,-190 -222,-364 -297,-781 145,61 591,442 773,587l51 383 84 -300c156,78 321,193 480,113 -217,-131 -414,-64 -544,-334 149,-74 210,30 211,30 -73,-166 -53,24 -207,-257 -48,-85 62,-150 -130,-89l-69 26c-9,-11 -21,-25 -27,-31l-192 -147c-91,-69 -139,-112 -216,-174 -416,-341 -282,-144 -318,-452 -299,15 -128,49 -302,-95 -304,-252 -201,-499 -299,-890l276 187c-107,-220 -232,-225 -297,-367 -60,-133 -83,-387 -85,-529 208,84 40,-18 178,156l410 536c181,289 934,1007 1249,1199 754,458 583,296 431,473 226,4 649,308 884,439 325,180 502,320 868,467 930,376 716,415 1997,690zm19472 -3622c47,-76 74,-116 139,-194 127,-155 39,-88 190,-148 -106,191 -107,296 -329,342zm-1668 557c-326,76 -439,277 -541,318 57,-167 34,-10 57,-128 1,-6 1,-27 1,-32l-22 -67c-143,98 -298,224 -420,325 -170,140 -231,211 -488,193 85,206 -115,265 -414,408 -213,102 -359,198 -586,303 -273,127 -1028,517 -1202,462 161,-85 303,-200 476,-297 348,-195 291,-76 557,-162 185,-59 539,-441 904,-609 337,-154 50,-220 824,-674 319,-187 275,-368 740,-529 45,-16 59,30 84,-32l684 -559c6,-2 123,-42 125,-43 -59,119 -60,155 -226,294 -118,98 -102,61 -254,72 -4,183 -19,6 19,184 -492,-78 -59,-34 -296,206l-335 223c-178,129 -88,30 -149,222l511 -245 -49 167zm-22923 -430c-375,-90 -267,-4 -469,-282 -127,-174 -177,-280 -218,-516 201,77 257,203 376,358 146,189 228,218 311,440zm26589 -401c-68,-243 62,-354 172,-567 9,10 24,22 30,29l145 218c-237,165 -122,207 -347,320zm-24896 1598c-468,-32 -817,-545 -899,-627l-1138 -1410c229,68 1369,1340 1558,1546 260,282 457,339 479,491zm19097 -491c101,-288 559,-486 931,-862l928 -793c-73,264 -667,772 -838,945 -275,279 -660,555 -1021,710zm-20904 -1555c-105,-169 53,-64 70,-48 126,117 -11,23 -14,26 -2,3 -46,37 -56,22zm22972 522c120,-280 474,-645 758,-736 -169,228 -423,627 -758,736zm3368 -552c-35,-149 -79,-146 89,-272 23,47 127,-101 31,163 -63,174 18,-2 -120,109zm-28092 544c-240,-290 -160,-175 -123,-570 -30,-25 -4,117 -102,-86 -59,-124 -38,-158 -35,-292 222,63 168,116 282,264 454,586 240,296 390,1134 -181,-102 -309,-326 -412,-450zm27847 374c35,-269 575,-1149 831,-1325 -61,333 -319,530 -404,703 -102,207 -238,492 -427,622zm-2476 -1198c-9,-102 46,-97 138,-118l-138 118zm-24202 -291c126,135 232,320 226,530 -223,-280 -290,-198 -334,-620 99,72 28,6 108,90zm27361 89c75,-224 -8,-108 145,-210 -38,197 7,157 -145,210zm-2206 -65c113,-195 -16,-53 150,-153 -91,194 68,57 -150,153zm2349 1189c45,-181 616,-1077 795,-1377 81,-137 19,-90 160,-155 36,78 124,-87 -18,226 -282,623 -430,1153 -937,1306zm-27855 -1502c-2,-26 33,-85 60,17 50,189 -57,29 -60,-17zm51 1523c-136,-71 -30,20 -155,-107 -338,-341 -371,-471 -290,-742 -221,37 58,-51 -128,39l-126 93c-126,-293 -284,-307 -340,-578 -50,-243 -28,-524 -61,-796l82 54c100,72 109,38 295,389 82,154 177,290 294,480 217,350 399,675 429,1168zm-348 -1519c-3,13 3,161 26,182l63 -173 126 437c-236,-205 -407,-499 -385,-846l44 74c128,244 39,138 168,210 -61,107 -16,-46 -42,116zm25602 -387c-27,205 -112,260 -230,433 -215,312 -114,252 -357,356l587 -789zm101 572c38,-346 -22,-67 210,-378 121,-162 82,-153 272,-245 -138,319 -206,477 -482,623zm-25429 -309c-97,-120 -197,-400 -56,-588 81,119 90,514 56,588zm26548 848c30,-341 407,-649 500,-847 111,-235 152,-449 410,-609 -22,425 -93,62 -48,614 32,382 -154,734 -389,1083 -344,510 -142,361 -374,443 16,-253 58,-555 -99,-684zm-1220 -1111c38,-195 88,-264 250,-330l-250 330zm-26274 -275c-65,-87 -47,-8 -60,-175 -13,-167 -16,-435 70,-569l107 623c-26,154 17,61 -117,121zm28203 -85c-112,22 -102,-103 -102,-105 142,64 88,-45 102,105zm162 -348c-86,305 34,115 -165,232 58,-254 -128,-74 165,-232zm511 1844c31,-281 343,-775 483,-1061l396 -884c55,-85 43,-52 99,-105 -12,297 -95,416 -197,668l-228 557c-89,158 -276,378 -313,459 -46,99 140,213 -240,366zm235 -1402c98,-117 147,-1032 474,-1334 3,577 224,900 -351,1687 -107,-320 -24,-164 -140,-242l48 456c-166,38 -79,8 -188,86 -179,128 58,52 -175,99 51,-377 226,-339 110,-552 -81,143 -123,283 -184,428 -106,251 -39,272 -229,428 31,-465 435,-1066 560,-1440 -6,469 13,300 75,384zm-563 -15c-148,-49 -35,41 -125,-82 74,-110 25,-139 109,-326 42,-93 88,-164 126,-261l339 -55c1,355 -73,107 -137,350 -17,67 27,94 -50,281 -59,145 -84,180 -143,312 -12,27 -62,145 -66,152 -74,128 -44,68 -109,127 -11,-207 -61,-429 56,-498zm-27776 -273c-2,-6 -32,-120 -35,-132 -87,-456 -143,-650 23,-856 -6,269 63,755 91,1100 -48,-58 -35,-14 -79,-112zm27276 -668c-33,176 34,78 -98,145l98 -145zm740 87c26,-102 44,-142 90,-213 103,-160 42,-76 145,-152l27 395 -262 -30zm-2521 2681c10,-8 21,-23 26,-29 5,-5 18,-22 25,-28 11,-10 41,-47 55,-57 118,-83 36,-37 209,-78 -30,317 -11,210 -197,367 -203,172 -619,537 -839,628 -59,-235 -167,-167 35,-371 317,-320 1450,-1399 1568,-1731l78 128c7,13 24,85 30,102 122,-398 114,-562 277,-592 9,-2 42,18 57,29 -8,-278 367,-615 657,-1169 84,-160 12,-51 97,-145 121,189 67,171 -59,393 -93,163 -102,282 -146,374 -56,117 -148,141 -218,320 -159,409 -199,189 -211,325l-12 176c-86,312 -430,668 -571,838l-323 377 -199 -174c-173,69 -258,170 -339,317zm1810 -2844c-14,-154 54,-123 113,-135l-113 135zm-1814 1656c48,-205 1089,-2181 1421,-2407 -45,219 -82,252 -160,458 -111,293 -32,210 18,358 -198,168 -839,1175 -1279,1591zm-2340 1786c503,-377 472,-506 924,-957 168,-167 176,-348 347,-597 318,-466 1014,-1128 1324,-1522 199,-251 574,-967 778,-1100 -95,375 -237,659 -441,939 -187,257 -353,506 -552,728l-1167 1348c85,-68 186,-164 275,-199 -236,502 -1143,1347 -1242,1395 -291,140 -245,-34 -246,-35zm6291 -3762c-70,-152 -15,-277 66,-443 66,120 -14,341 -66,443zm-3468 2046c-23,-185 27,-203 128,-334 86,-112 112,-168 194,-295l967 -1552c117,-184 87,-207 243,-242l-528 961c-95,130 -119,128 -204,297 -240,482 -494,762 -800,1165zm1143 -2261c24,-176 61,-269 165,-388 35,60 37,-24 33,90 -5,159 -148,258 -198,298zm-169 -405c29,52 56,38 8,193 -155,-186 -9,-193 -8,-193zm1955 1167c-21,-455 -43,-832 65,-1253 64,-249 183,-888 340,-1055 3,697 -61,1862 -405,2308zm-520 -435c-16,-386 73,-638 302,-859 -45,294 -90,210 1,375 26,-320 43,-234 125,-324 -28,335 -44,403 -137,635 -8,-11 -16,-27 -19,-34 -3,-8 -13,-27 -17,-37l-64 -207c-65,243 -50,322 -191,451zm-55 -610c71,-386 104,-303 260,-372 -152,391 -118,314 -260,372zm-1555 -159c43,-242 147,-378 234,-619 157,-433 168,-440 330,-513 22,39 95,-83 38,149l-602 983zm-26864 -729l25 -162c0,-20 -9,-26 -13,-40l-137 109c-161,-171 90,-74 -205,-193 2,-131 6,-375 105,-455l-13 429c16,-6 35,-16 46,-22l179 -108c224,425 179,302 109,768l-134 -254c40,611 -118,843 -119,842 -2,-8 -15,28 -23,41l-70 -231c-59,-309 -61,-363 137,-98 -9,-95 -15,-191 -27,-285l-24 -238c186,-80 72,37 164,-103zm29869 2483c-90,-209 181,-1274 228,-1604 42,-290 60,-545 122,-823 107,-485 23,-635 185,-814 -50,726 -284,2737 -535,3241zm-1717 -2735c-90,-174 -9,-26 29,-219 33,-167 -35,-169 82,-331 41,66 127,-110 0,296 -41,132 -35,160 -111,254zm1707 -775c56,73 119,-113 61,270l-187 726c-3,-9 -17,27 -48,37l174 -1033zm-367 1128c-12,-340 -63,-953 217,-1101 -163,406 44,377 -114,878 -37,117 -50,139 -103,223zm29 1864c7,-272 194,-753 216,-1126l126 -568c80,-445 109,-1007 271,-1406 147,-365 131,-264 221,-340 -47,538 -197,1031 -246,1577 -44,486 -149,1023 -232,1552 -161,1029 -221,1234 -628,2045 -57,115 -90,188 -149,312 -83,177 -84,143 -188,218 49,-365 368,-657 329,-1037 -350,-52 -182,122 -422,263 54,-233 169,-342 290,-556 101,-179 167,-372 242,-534 -47,-30 154,-98 -65,-10 -22,9 -66,74 -68,77 24,-217 111,-660 275,-844 -48,362 -136,182 28,377zm-29888 -2912c-140,-156 -14,-116 20,-168 41,61 36,-14 34,98 -4,264 101,-108 -54,70zm354 -728c86,134 132,388 -73,559l73 -559zm-606 2080c-31,-46 -43,-37 -71,-135 -69,-237 40,-1404 176,-1643 16,37 27,35 30,116 1,17 -5,72 -7,91 -8,98 -23,154 -39,243 -183,991 211,90 84,1208l125 1743c62,258 130,486 145,757l-145 -318c-26,-107 -48,-222 -71,-316 -60,-241 -98,-464 -142,-716l-143 190c-54,-329 -39,-207 157,-353 -126,-227 -106,-774 -96,-814 64,-245 89,56 47,-369 -25,-251 89,-172 -23,-349l-27 665zm28086 -994c-24,-52 -35,-22 -45,-141 -3,-43 12,-108 17,-142 13,-85 39,-209 60,-281 140,-468 164,-360 263,-421 18,137 -44,400 -69,604 -70,569 -111,396 -226,381zm971 -634c-22,-34 -189,76 48,-352 15,31 53,34 20,187 -21,93 -40,104 -68,165zm838 -677c-1,-131 49,-98 71,1 28,119 -71,66 -71,-1zm-1178 -508c29,54 48,-24 43,164 -1,16 -22,109 -29,134l-152 295 138 -593zm-28278 920c-118,-203 10,-570 111,-763 55,87 -2,339 -39,574 -51,322 2,70 -72,189zm28785 -342c-86,-124 -37,-330 33,-523 31,-86 36,-69 70,-115 63,126 56,46 -19,318 -31,113 -59,230 -84,320zm1906 -1000c118,186 78,315 -14,527l14 -527zm-30413 549c-32,-66 -66,-77 -53,-230 18,-221 8,-106 109,-166 73,136 46,291 -56,396zm28062 -286c-5,-76 18,-67 48,-120l-2 239c-43,-60 -39,-5 -46,-119zm-27749 -36c-36,-30 -176,89 -92,-213 56,-200 110,-132 140,-159 -5,141 -32,294 -48,372zm27923 592c-36,-343 40,-484 111,-808l129 -541c67,-228 -71,182 30,-87l49 -82c57,67 118,8 47,272 -173,643 -46,509 -132,820 -54,192 -210,782 -360,883 -4,-5 -264,-104 126,-457zm-27902 -1062c-104,-79 -144,131 -82,-179 7,-32 81,-146 82,-147 66,126 45,14 0,326zm-891 1577c-102,-235 4,-800 169,-1068 7,-11 17,-23 24,-34 6,-11 16,-24 22,-35 107,-183 68,-874 648,-1171 -109,573 -179,140 -408,1182 -57,261 -166,188 -306,863 -52,250 14,161 -149,263zm29499 -2470c-6,197 -18,57 -53,126 -75,-98 -75,181 -67,-168 6,-249 -16,-11 67,-124 67,102 62,-133 53,166zm-28269 -162c44,75 84,-18 56,225 -22,185 -160,377 -311,438l255 -663zm27673 244c3,-50 29,-163 37,-243 75,-682 35,-353 152,-479 8,261 20,705 -147,922l-42 -200zm889 -576c67,-166 26,-296 36,-501 10,-196 33,-276 144,-411 -19,571 -75,1078 -85,1636 -7,428 -324,2469 -444,2836 -198,605 77,681 -331,1291 -177,-36 -166,-4 -250,-151 -170,1071 186,499 -371,1523 -173,317 -138,300 -282,394 63,-455 255,-451 -74,-718 93,-180 228,-443 300,-677 132,-429 613,-1839 670,-2220 71,-479 267,-1085 363,-1574 94,-483 153,-1391 324,-1617l0 189zm-28468 475c16,-269 53,-517 279,-627 -24,215 -162,446 -279,627zm28853 749c62,-398 17,-767 114,-1148l271 -1027c-1,330 -64,704 -106,1006 -14,95 -10,87 -20,192l-13 392c12,15 25,35 34,46 8,10 22,30 32,42l121 102 82 -951c37,-266 -31,-110 97,-297 19,380 -272,2499 -341,2629 -47,-82 32,-146 -56,-269 -50,117 -88,511 -98,673 -54,900 -7,575 -180,637 -86,-114 -83,146 -79,-247l131 -1447c-10,-215 -21,-117 -52,-172 -27,43 -31,19 -52,121l-200 2066c-74,-87 -98,87 -68,-243l200 -1993 183 -112zm-28095 -1526c9,-135 -30,-89 57,-234 127,-213 30,-63 141,-108 -39,177 -103,191 -198,342zm-590 -261c70,-133 58,-150 233,-224 -172,548 -662,965 -706,1026 -129,179 2,231 -239,304 25,-299 122,-454 301,-580l90 -71c159,-160 64,-174 228,-318 -85,-300 -191,-79 -54,-251 59,4 -32,14 147,114zm28232 -451c-72,-30 -134,77 -75,-172 106,-443 48,-668 156,-712l-81 884zm-390 901c-84,-181 -8,-250 -18,-496 -6,-150 -63,-327 -63,-437 0,-162 25,-383 24,-568 0,-89 -9,-197 -4,-282l61 -239c105,229 116,1786 0,2022zm-556 -46c-165,-98 -153,167 -115,-338l74 -586c41,-281 27,-179 96,-250 64,106 35,74 16,275l-71 899zm-26918 -145c24,-256 511,-885 689,-969 -159,257 -205,287 -378,498 -153,186 -146,289 -311,471zm1589 -1760c-123,160 -383,414 -525,554 28,-214 317,-475 525,-554zm0 0l223 -217 -223 217zm-550 -275c-58,174 -86,197 -218,272 38,-93 29,-86 95,-164 82,-97 77,-73 123,-108zm-1233 1221c28,-255 442,-738 645,-968 224,-253 21,-146 268,-270 -46,202 -20,139 -216,377l-464 588c-72,83 -64,77 -126,157 -89,115 -22,42 -107,116zm2006 -1163c83,-106 159,-224 315,-271 -64,64 -197,197 -315,271zm-773 -58c32,-210 61,-211 243,-288 -81,177 -112,207 -243,288zm496 -611c-58,221 -62,200 -242,281 30,-103 39,-144 97,-205 157,-166 -18,-15 145,-76zm0 0c97,-222 385,-531 612,-626 -95,202 -437,560 -612,626zm268 420c92,-166 126,-154 289,-308 135,-129 167,-173 283,-274 134,-116 433,-431 605,-507 -119,221 -906,994 -1177,1089zm26000 -1535c118,174 65,355 -58,510l58 -510zm5 -548c159,242 12,202 0,219 -163,-222 -18,-193 0,-219zm-27041 2232c270,-628 388,-556 588,-805 185,-231 437,-424 689,-648l578 -477c611,-522 -131,-67 464,-427 172,-104 171,-176 397,-267 -1,222 31,91 -99,228l-1959 1716c-121,127 -195,234 -304,365 -217,258 -144,258 -354,315zm28265 -2624c7,-11 14,-29 17,-37 4,-8 13,-28 18,-37 4,-9 12,-29 17,-38 6,-12 35,-48 39,-74 2,-20 13,-25 21,-36l-128 1697c-82,713 -59,341 48,501 128,190 69,-57 -35,352 -47,-80 -52,-211 -52,-212 -86,100 -74,-93 -104,441 -31,541 -466,2540 -619,2837 -46,-77 -70,166 -9,-335 16,-129 22,-239 41,-352 36,-214 47,-455 83,-693 79,-517 105,-955 165,-1446 68,-556 295,-1194 303,-1304 11,-150 -45,-72 -9,-297 15,-94 57,-215 79,-310 53,-231 122,-403 125,-657zm-25611 729c137,-245 1261,-1159 1486,-1240 -171,245 -168,203 -357,348 -162,126 -177,186 -355,314 -273,196 -445,511 -774,578zm24497 -1732c1,-98 -11,-183 -6,-283 5,-107 49,-399 133,-452l-82 1178 -107 -76c-12,249 15,225 -161,358 -31,-311 6,-822 174,-1056l-24 639 73 -308zm-23070 1225c133,-178 1295,-1121 1568,-1139l-751 591c-588,352 -468,440 -817,548zm363 -1397c-112,130 -247,223 -395,333 -242,180 -153,160 -458,281 115,-216 621,-539 853,-614zm24140 3388c16,-676 416,-2954 684,-3506 48,103 -258,1494 -290,1666l-415 3628c-50,624 -16,1304 -85,1944 -76,-74 -68,-86 -224,-97l7 1661c-182,149 -220,159 -247,400 -11,-12 -25,-28 -31,-39l-61 -127c-16,-40 9,-27 -35,-123l65 -42c1,-8 11,-9 17,-13 36,-489 167,-1007 189,-1502 29,-633 90,-901 180,-1503l-209 -112 242 -2062c60,-303 51,-476 191,-653l22 480zm-24140 -3388l268 -203c-30,196 -61,185 -268,203zm2171 -940c-78,313 -974,948 -1250,1163 49,-163 88,-136 186,-284l-1618 1447c-549,431 -1270,1213 -1710,1339 266,-412 822,-877 1200,-1181l2150 -1803 172 61 870 -742zm22839 346c-59,-233 5,-334 76,-526 106,148 23,368 -76,526zm-23117 -464c101,-217 442,-415 659,-540 -80,225 -473,430 -659,540zm21535 -330c9,-11 23,-25 29,-31l94 -126c42,-89 35,-124 52,-225 5,-29 26,-205 39,-237 64,-160 -21,-60 124,-122 63,94 95,6 9,294 -178,599 -402,1615 -440,2182 -50,-70 -32,-4 -63,-124 -5,-18 -3,-154 -3,-175 -189,116 -113,192 -123,451l-183 1856c-67,476 -66,1121 -199,1316 -50,-100 23,-3011 171,-3272 158,-280 210,-501 258,-897 14,-8 34,-14 44,-19l153 -83c68,-85 33,-598 38,-788zm-441 -271c-46,-77 90,-528 129,-614 53,146 -14,490 -32,532 -46,104 -22,38 -97,82zm-20480 -246c206,-430 576,-497 904,-551 -113,231 -526,511 -664,758 -297,-25 -228,11 -455,72 252,-295 597,-279 860,-710 -239,92 -379,328 -645,431zm1282 -656c-85,148 -466,548 -597,600 53,-52 86,-76 148,-150 68,-81 47,-68 128,-147 85,-82 82,-82 160,-169l161 -134zm0 0c57,-124 -6,-85 158,-164 -28,69 -3,140 -158,164zm-3 280c143,-201 380,-486 617,-629 -85,180 -51,94 -178,242 140,80 21,-51 109,111 -76,41 -204,208 -310,353l-745 701c-183,161 -167,228 -395,290 66,-90 -15,1 80,-101 284,-304 830,-752 1061,-1058 -228,27 -5,-35 -239,91zm-438 -294c141,-241 251,-322 446,-336 -78,156 8,50 -108,149l-338 187zm20418 294c-101,-212 44,-1292 223,-1528 2,427 16,261 177,473l-254 860c-95,272 15,122 -146,195zm-19819 -444c70,-164 174,-262 287,-385 187,-202 132,-216 365,-290 -88,183 -451,589 -652,675zm1504 -1054c-51,139 -72,203 -234,257l234 -257zm-708 53c1,-49 51,-80 71,11 21,95 -74,71 -71,-11zm708 -53l169 -223c-24,99 -8,83 -65,156 -57,73 -37,27 -104,67zm18108 142c-90,-110 -81,1 -82,-194l178 -505c39,83 21,145 -10,314 -26,142 -56,282 -86,385zm-17939 -365c25,-62 78,-176 114,-223 156,-210 36,-70 161,-119 -44,148 -59,181 -206,300l-69 42zm-460 71c376,-220 300,-543 730,-687l-1093 1416c-9,8 -35,39 -42,28 -7,-12 -29,18 -44,27 -64,-248 -87,-137 72,-355 72,-98 133,-173 199,-307 127,-260 1,-132 186,-309 103,-100 34,-35 110,-117 71,-77 10,-45 111,-91 -68,135 -146,209 -229,395zm20119 -588c30,-126 59,-198 94,-323 63,-227 12,-162 139,-303 -1,108 3,376 -21,470 -54,212 -56,141 -212,156zm-1512 24c-55,-107 -38,-232 45,-413 34,-76 41,-63 74,-103 -10,184 -70,374 -119,516zm-18389 -149c117,-327 205,-406 384,-471 -63,122 -74,142 -151,264 -111,176 -122,149 -233,207zm476 -259c126,-165 351,-520 535,-598 -124,189 -315,558 -535,598zm97 -510c52,-244 64,-153 153,-210 -78,208 6,93 -153,210zm18155 1752c-10,-473 109,-1858 310,-2162 24,261 -96,796 -118,1104 -27,369 0,833 -192,1058zm-18211 -683c26,-167 26,-111 127,-260 52,-77 63,-106 134,-198l571 -828c310,-486 124,-305 289,-355 -160,404 -621,1114 -938,1493l-183 148zm18927 -1593c20,-100 45,-211 75,-324 69,-258 41,-166 114,-240 2,15 7,33 9,43l-485 2101c-3,9 -64,152 -70,160 -65,100 -30,38 -104,104l461 -1844zm234 -605c-81,-244 -128,-220 46,-367 82,119 138,-205 35,198 -15,60 -56,118 -81,169zm-847 -14c-3,-204 -24,-150 58,-293 40,84 71,-121 20,134 -36,184 -64,135 -78,159zm359 743c-72,-382 25,-1005 200,-1293 42,65 37,544 38,714 0,297 -168,446 -238,579zm-17444 -1300l108 48c-61,180 -140,288 -240,424 -276,371 -114,270 -310,346 61,-317 390,-469 442,-818zm16697 8288c-7,11 -18,25 -21,32 -4,7 -17,23 -21,32l-62 212c-27,137 -36,184 -70,320 -106,423 -412,1584 -408,1863 -183,-190 -80,-231 -65,-314 118,-629 49,-1300 221,-1624 100,-189 241,-304 149,-482 -228,191 -15,113 -230,351l32 -592 -140 244c2,-137 -4,-291 14,-433l74 198c92,-98 28,76 111,-162 1,-3 20,-135 22,-147l133 -574c33,-143 -24,-41 -12,-274l87 82c156,122 -106,-32 59,25 89,-350 298,-732 298,-1058 -40,54 -4,-25 -72,111l-134 371c-58,177 -82,277 -170,424 -12,-432 535,-2361 758,-2736 63,-105 204,-647 264,-842 178,-582 355,-1119 538,-1743 86,-295 162,-557 284,-885 152,-412 173,-36 287,-540l80 -203c24,360 -19,317 -28,465 -7,114 1,53 27,109 201,-153 76,27 126,-238 99,-530 -15,-562 197,-780 5,101 -9,227 14,318l88 175c-188,295 -178,752 -195,1181 -16,397 -134,732 -238,1094 -89,310 -147,826 -287,1100 -132,258 -1083,4302 -1270,5184 -4,18 -28,114 -34,129 -38,92 -28,49 -71,98 -231,-90 -190,10 -136,-283 232,-1253 143,-1326 593,-2868 156,-532 299,-995 445,-1501 35,-124 80,-309 70,-398l-54 -218c-27,-137 -32,-276 30,-394 183,-344 131,184 301,-297l75 183c29,-199 414,-2102 377,-2258 -54,-232 -99,-175 -198,-219 -114,163 -340,980 -383,1194 -79,390 -204,862 -274,1278 -9,6 -25,13 -29,15l-53 23c-205,79 74,-68 -59,17 -39,230 -113,336 -142,549 117,-158 39,-64 83,-219 71,-246 53,-153 160,-252l-1100 4523c-101,391 -38,268 -41,634zm1337 -8296c-26,-30 -36,7 -72,-111 -114,-375 82,-650 161,-794 60,72 96,85 123,251 34,214 -187,636 -193,618 -3,-8 -12,24 -19,36zm445 -765c199,75 12,77 189,277 -8,-183 -41,-145 89,-301 58,435 22,318 -13,673l-179 -296c-68,296 -171,894 -386,1140l300 -1493zm-18079 232c58,151 -59,47 -10,229 35,127 144,-34 13,264l-107 -143c-9,-12 -69,-93 -77,-99l181 -251zm17116 -848c50,416 -104,1153 -317,1428l317 -1428zm835 -237c39,-123 20,-52 73,-115 67,145 4,342 -67,496l-6 -381zm-17825 1295c28,-184 860,-1511 1090,-1737 -14,183 -278,854 -428,1023 -110,125 -228,178 -364,359 -47,62 -80,113 -138,195 -118,166 -9,78 -160,160zm18009 -1720c-120,-149 -72,-568 8,-733 79,137 66,585 -8,733zm355 100c1,-5 9,-3 -5,-2l-78 -630c208,251 237,831 213,1073l159 318c3,169 -12,-56 -2,116 20,368 27,161 -30,255l-56 -187c-35,-108 -20,-77 -61,-140 6,205 29,232 -50,374 -96,-183 -14,-614 -57,-1002 -173,125 -120,97 -142,332 -19,202 -10,375 -17,577 -245,-326 -58,-1017 60,-1060l66 -24zm-17099 -286c468,-874 274,-573 523,-736 155,-100 50,-99 246,-206 -33,168 -223,407 -346,549 -87,99 -14,19 -112,91 -85,62 -59,19 -127,109 -126,166 69,109 -184,193zm1334 -1395c-67,167 -252,412 -392,500l392 -500zm15495 341c-139,160 -24,139 -196,203 -48,-122 -30,-271 -34,-427 -7,-290 -36,-232 -91,-471 180,273 9,161 281,306 -315,265 39,389 40,389zm-15328 -556c2,-30 45,-88 67,5 15,62 -70,71 -67,-5zm14267 745l330 7 -213 -958c242,221 415,1002 455,1326 44,360 -3,369 -97,458 -96,-143 -74,-227 -98,-417 -23,-182 -42,-242 -39,-408 -143,142 -34,-47 -94,135 -25,72 195,1096 -64,1604 -43,-138 37,-611 9,-880 -8,-80 -3,-71 -30,-135 -47,-113 -13,-26 -87,-95l-11 766c-62,-325 43,-723 -69,-987l165 -134c-9,-15 -21,-34 -28,-45l-129 -237zm-311 -1363c191,164 278,259 186,579l-130 -294c-26,-88 -45,-162 -56,-285zm-17248 4465c-133,106 -38,41 -193,113 38,-300 193,-396 328,-650 73,-136 120,-153 198,-306 54,-105 72,-219 123,-322 386,-784 1543,-2376 2097,-3132 114,-156 81,-155 289,-186 -73,236 -72,102 -219,309 -57,80 -107,181 -168,272 -106,157 -235,387 -335,558 -497,850 -816,1200 -1407,2268 -231,418 -511,544 -713,1076zm18308 -4617c73,117 212,461 116,628 -36,-53 -15,0 -74,-121l-92 -245c-52,-178 -20,-129 -18,-352 12,15 27,33 36,46 8,12 23,29 32,44zm-435 -129c188,461 307,622 325,1124 -126,-189 -274,-823 -408,-1092l-126 -282c170,39 133,64 209,250zm-672 -614l54 -109c35,72 42,-8 12,84 -25,77 11,4 -66,25zm-14412 735c55,-104 152,-163 241,-257l238 -264c125,-158 372,-309 576,-395l-269 370c-257,293 -283,64 -388,228 -5,7 -17,26 -23,35 -5,9 -15,24 -22,34 -120,169 -168,183 -353,249zm14464 -1236c128,141 202,256 227,513 -147,-171 -177,-265 -227,-513zm-14412 2118c50,-162 93,-185 185,-293 72,-84 128,-207 208,-313 298,-391 -49,363 431,-450 70,-117 849,-888 999,-936 -119,182 -938,1270 -1238,1416 -354,173 -183,282 -585,576zm1794 -1708c45,-245 388,-573 568,-665 -126,186 -132,209 -278,354 -109,109 -163,197 -290,311zm12459 -123l107 214 183 770c-167,-120 -166,-175 -250,-361 -53,-118 -95,-225 -151,-352 -109,-250 -271,-523 -302,-778 50,42 93,28 133,55l-48 -158c259,111 372,368 443,686 -4,-3 -105,-60 -115,-76zm336 -727c-147,-81 -236,-195 -279,-386 137,87 61,16 169,157 132,174 73,59 110,229zm886 1341c-242,-540 -976,-1764 -1010,-1848 336,185 1088,1654 1164,2058 -162,-69 -49,-94 -154,-79l-181 -76c10,-5 27,-9 33,-11 5,-2 25,-8 31,-10l117 -34zm-13007 -1066c8,-208 34,-150 305,-443 135,-146 264,-247 458,-334 -93,175 -584,610 -763,777zm-1563 281c248,-350 1033,-1051 1479,-1201 -36,112 -41,113 -159,206l-1320 995zm13326 -782c-234,15 -121,56 -249,-174 -86,-151 -92,-145 -131,-324 167,143 293,280 380,498zm174 -383c-92,-77 -175,-184 -267,-276 191,35 221,105 267,276zm-894 413c-193,-91 -452,-421 -491,-436 -22,-8 -197,24 -316,-252l213 159 230 -127c119,216 274,352 364,656zm-10273 133c55,-117 1302,-950 1548,-1047l-1548 1047zm10413 -1190c-265,-21 -252,-81 -348,-299 278,64 262,23 348,299zm-10438 974c143,-337 1575,-1275 2070,-1328 -133,182 -13,66 -260,180 -788,366 -1553,1050 -1810,1148zm1249 -1278c27,-69 31,-107 122,-139 235,-83 140,28 153,49l-275 90zm-981 510c56,-166 -16,-104 194,-225 420,-241 300,-400 730,-454 -80,164 -736,603 -924,679zm9935 -573c-118,-94 -146,-90 -228,-215 164,70 160,58 228,215zm448 1398c-284,-235 -408,-399 -597,-799 -143,-303 -464,-563 -582,-825 355,117 1118,1323 1179,1624zm-8337 -1448c19,-97 -98,-70 310,-206 -80,156 -47,82 -310,206zm-4740 33404c-432,410 -1040,206 -1599,302 -578,99 -1138,151 -1715,226 -625,81 -1240,122 -1854,166 -1170,84 -2257,-342 -3377,-507 -1589,-234 -775,31 -2385,-466 -289,-89 -463,-168 -729,-273 -379,-149 -922,-204 -1125,-596l-38 -81c-5,-10 -19,-18 -23,-41 -4,-22 -15,-27 -24,-40 -191,53 -200,157 -202,153 -4,-9 -12,23 -20,34 -706,-433 -1413,-882 -1987,-1459l-213 -237c-56,-68 -64,-138 -144,-153 -194,-34 173,185 -155,17 0,0 -82,-70 -94,-79 -100,-73 -191,-93 -157,-233 175,11 130,85 299,198 -289,-498 -537,-597 -860,-866 -139,-116 -69,-158 -234,-319 -302,-296 -294,-887 -366,-1311 -14,-81 -36,-125 -17,-217 36,-170 -7,28 46,-107 3,-7 12,-18 14,-36 2,-18 9,-25 11,-38 -156,-68 98,-4 -42,2 -84,4 -107,-352 -116,-558 -31,-715 -11,-1263 73,-1996 80,-704 249,-1560 555,-2220 330,-712 946,-1911 1526,-2490 272,-272 270,-392 461,-591 460,-480 958,-988 1510,-1386 173,-126 213,-182 390,-334 778,-670 1635,-1289 2466,-1874l802 -644c135,-135 228,-100 436,-292l788 -656c378,-293 503,-543 1117,-999 244,-181 189,-95 393,-335l1207 -1346c180,-151 303,-415 458,-601l949 -1221c130,-187 168,-168 297,-427 202,-406 272,-558 524,-922 193,-280 326,-560 524,-868 474,-739 989,-1413 1450,-2167 270,-441 709,-819 947,-1228 200,-343 106,-153 350,-369l1858 -1762c294,-224 471,-527 852,-439 230,-334 340,-390 709,-615 510,-311 1255,-684 1678,-995 169,-125 673,-363 898,-424 76,166 -57,-161 19,66l22 57c1,-8 9,21 15,31 737,-355 362,-359 1501,-402 1796,-70 1375,255 2002,297 278,19 811,223 1049,339 726,354 1479,1173 2002,1785 253,296 493,830 638,1254l292 1156c21,111 -395,1557 -167,1955l63 -620c67,70 71,-99 125,200 51,288 -147,1094 -140,1494 -13,8 -30,19 -38,24l-76 45c-27,16 -76,38 -105,55 46,699 -171,1817 -355,2431 -316,1054 -537,2211 -862,3252 -109,349 -245,653 -325,1011l-450 1951c-51,307 4,236 22,271l62 482c-12,83 -14,178 -26,272l186 56c-3,772 -285,1816 -315,2784 -6,187 -14,308 -90,405 6,-423 -7,-1288 63,-1634 92,-457 213,-928 195,-1406l-49 -900c-212,112 -160,98 -169,359 -6,176 -34,311 -54,463 -159,1186 -351,2356 -445,3545 -17,227 -115,725 -91,946 25,232 99,72 28,400l-205 1257c-65,141 -194,-47 -351,533 -178,661 -539,1237 -709,1857 -417,138 -449,465 -523,862 209,-249 119,-506 360,-655 -120,593 -525,1178 -898,1617 -179,211 -18,97 -144,306 -186,308 -1068,1122 -1357,1535 -385,550 -1696,1559 -2226,2003 -233,195 -688,503 -1007,671l-1144 527 -232 -113c-186,181 -1910,835 -2203,896zm12180 -33851c-57,40 105,121 -140,45 -177,-55 13,38 -98,-125l238 80zm-755 -74c102,-66 -147,-84 157,-49 149,18 317,137 373,292 -154,-82 -374,-184 -530,-243zm-1856 -85c-122,102 192,134 -157,56 -85,-19 -119,-114 -121,-116 202,-11 119,-38 278,60zm-4252 303c328,-187 891,-386 1304,-367l-312 149c-123,40 -217,81 -330,113l-537 126c-88,5 -111,-17 -125,-21zm6930 1048c-213,-50 -152,-33 -297,-176l-1419 -1142c-148,-83 -128,-38 -185,-187 228,59 419,176 580,292 151,108 359,230 490,346 154,137 263,269 413,422l418 445zm-1958 -1296c-95,-22 -103,-13 -175,-52 -155,-85 -64,-45 -128,-125 220,54 208,44 303,177zm-6749 107c174,-192 475,-336 747,-403 -172,186 -510,340 -747,403zm3931 -571c232,-60 921,-146 1136,-37 -152,91 -982,62 -1136,37zm-1746 238c86,-151 -63,-32 189,-138l518 -158c230,-40 206,-3 247,33l-954 263zm4554 -117c-252,13 -321,-79 -405,-275 181,69 288,128 405,275zm-337 48c-170,-12 -317,-75 -447,-192 -125,-112 -41,-21 -107,-144 184,51 504,175 554,336zm1891 27c-52,108 -54,15 -22,129l66 109c3,-9 18,26 26,40 -79,-18 -508,-137 -254,-261 -330,-71 -578,-184 -688,-455 282,107 569,380 872,438zm-2438 -116c-247,-39 -546,-104 -662,-273l451 -17 211 290zm1085 -49c-178,-68 -329,-144 -457,-279 211,26 344,79 457,279zm-988 -314c244,62 104,-37 196,134l-196 -134zm-2214 77c247,-152 -328,-111 826,-99 -140,59 -234,77 -431,106 -534,81 -313,45 -395,-7zm-2494 152c251,-36 160,65 468,-5 440,-101 1000,-442 1258,-256l-1375 410c-481,147 -325,30 -422,48l189 -56 -107 -121c-2,-10 -8,-13 -11,-20zm2733 -428c166,-71 424,-75 623,-91 724,-56 523,-71 592,91 -8,4 -20,11 -25,12l-100 8c-407,-20 -993,34 -1090,-20zm1558 -189l268 22c-83,56 127,60 -161,51 -172,-6 -92,-42 -107,-73zm-1321 -58c-81,63 32,30 -180,100 -33,11 -98,21 -135,26 -240,28 -229,-14 -292,-51l607 -75zm843 -115c15,-10 32,-25 47,-31 13,-6 30,-20 46,-26l734 53c260,58 510,158 711,240 237,96 479,187 614,332l375 516c-679,-347 -494,-583 -751,-645 -177,-43 -652,-89 -870,-239 -234,-162 -548,-255 -906,-200zm3236 1040c-55,-160 -260,-235 -483,-349 -173,-88 -339,-201 -531,-302l-1211 -458c-566,-135 -928,-102 -1546,-148 -592,-45 -2160,337 -2723,529l-843 386c-123,60 -191,65 -320,121 -406,174 -699,448 -1045,621 -189,94 -323,248 -472,368 -341,275 -947,630 -1468,1091l-1308 1197c-622,628 -1313,1596 -1851,2322 -256,345 -561,737 -694,1132 -39,119 0,68 -72,156 -101,120 -93,12 -217,235 -190,342 -329,755 -573,1096 -325,455 -371,772 -792,1323 -237,312 -339,645 -756,1139 -298,353 -502,768 -807,1082 -112,115 -274,307 -388,446 -216,265 -526,662 -823,842l-1395 1116c-441,336 -653,597 -1141,917 -267,175 -253,34 -866,470 -172,123 -321,235 -481,352 -137,101 -95,52 -219,177 -354,357 -1251,1040 -1657,1289 -214,131 -273,253 -430,405 -314,302 -646,499 -943,785 -145,139 -273,292 -411,420l-775 894c-141,205 -216,317 -380,457 -303,259 -728,1125 -969,1536 -111,191 -106,478 -366,483 -18,345 -69,102 -192,455 -62,177 -118,393 -191,583 -160,417 -259,760 -379,1189l-210 954c-54,298 -35,60 -112,282 -116,338 11,950 -313,1220 234,482 -173,1441 99,1858 -3,-169 -50,-389 42,-515 33,65 33,21 44,158l-52 1115c-33,245 9,62 79,365 -196,-113 -137,-122 -275,-241 80,397 299,307 374,877 -107,79 -109,31 -126,169 -47,371 159,382 224,840 68,476 171,883 244,1330l146 593c20,234 214,1358 313,1552 103,203 232,225 -3,414 640,340 79,469 620,971 87,82 115,117 192,199 110,115 112,91 250,201 154,122 140,178 458,426 322,252 660,475 1014,713 348,233 794,384 1137,641l145 -53c65,-3 130,37 179,58 314,134 703,223 990,408 281,182 36,33 154,190 153,202 1516,527 1752,574 446,89 487,179 905,273 676,152 578,543 2816,659 1775,92 3306,-72 5010,-191 264,-18 297,-128 482,-103 458,61 336,55 965,-122 278,-78 628,-175 943,-209l1134 -332c240,-99 53,-24 155,-119 232,-215 933,-447 1234,-549 170,-58 247,-118 389,-168 170,-60 291,-73 469,-147 436,-180 727,-426 1122,-599 406,-177 803,-449 1096,-686l183 -141c442,-414 682,-438 1089,-920 180,-212 428,-329 633,-540 570,-587 1161,-1193 1664,-1842 176,-227 264,-441 529,-645 141,-108 175,-145 271,-282l705 -1076c152,-212 117,-611 405,-708l-87 -128c-66,-86 -21,-21 -69,-80l313 -125c221,-432 423,-873 644,-1259 368,-640 481,-2383 602,-3169 48,-308 8,-597 59,-890 56,-321 97,-578 115,-917 62,-1142 211,-2320 296,-3449 63,-844 124,-1759 266,-2572 56,-321 36,-624 98,-924 108,-515 199,-1044 295,-1591l560 -2278c93,-290 67,-490 121,-710 70,-285 120,-630 267,-914 153,-292 2,-168 102,-551 71,-273 170,-467 198,-755 15,-151 -9,-304 1,-443 8,-112 85,-297 94,-399 13,-140 -35,-107 4,-332l102 -863c12,-360 -76,-4 -41,-290 78,-630 -1,-912 -60,-1613l-170 -1275c-5,-24 -53,-158 -55,-162l-155 -132c-30,-406 -110,-448 74,-723 -12,-7 -34,-27 -39,-16 -28,53 -133,-77 -187,-283 -270,-1027 -858,-2195 -1587,-2910l-1045 -956c-182,-201 -230,-461 -562,-500z"/><path class="fil0" d="M30198 37803c-779,81 -957,684 -1529,424 -152,-69 -352,-131 -473,-202 228,-205 1119,-745 1453,-858 387,107 1091,467 1274,759 -262,190 -115,156 -648,93 122,123 119,51 318,115l-2057 1560c-187,-77 -301,-180 -507,-272 -188,-83 -354,-99 -490,-224 286,-162 572,-315 893,-496 506,-285 444,-264 930,4 -69,148 -147,112 -191,184l280 -57c23,-173 -9,-198 -112,-274 -42,-31 -139,-80 -140,-80 -100,-76 -56,-41 -123,-144 246,-53 363,-152 576,-252l467 -212c82,-56 65,-56 79,-68zm-4923 1335c116,-403 865,-1266 1187,-1573l1756 -969c170,-35 1081,401 1274,464l-1457 882c-277,-40 -744,-189 -878,-352l347 -66c-187,-111 -463,-133 -596,56 194,343 653,214 932,526l-1090 526c-104,67 -47,20 -102,116 211,140 146,20 346,-96 131,-76 208,-77 346,-154 234,-131 410,-259 646,-389l735 305 -172 127c-1362,759 -1053,718 -2371,221 -392,-148 -295,32 -301,44l1289 416c-276,310 -754,285 -827,668 157,-13 685,-514 987,-563 216,-35 966,342 1087,479 -369,293 -687,513 -1287,649 -278,63 -471,192 -813,204 -520,18 -461,-117 -751,-224 55,-133 98,-136 122,-294 -391,-208 -650,-466 -224,-850 91,-82 6,23 75,-98 -11,-6 -28,-12 -35,-14l-187 -31c-5,-14 -26,-5 -38,-10zm3151 -2677c407,-159 977,-561 1327,-672 217,-68 1073,370 1430,429 -113,189 -106,123 -336,223 -1024,443 -916,741 -1773,323 -285,-139 -525,-185 -648,-303zm-1823 768c1,-234 -6,-149 115,-351 128,-213 288,-568 482,-676 50,86 113,-134 35,137 -17,59 -55,74 -95,119 -326,369 -234,482 -537,771zm201 4c69,-250 420,-640 600,-1115 30,-79 53,-190 54,-190 135,-237 681,-455 793,-525 208,-127 204,-186 448,-103 228,79 747,275 964,388 -137,133 -183,128 -358,212 -318,153 -543,323 -992,507 -189,-82 -83,-111 -318,-96l126 182c4,-10 19,23 27,35 -383,126 -1031,522 -1344,705zm3515 -1712c822,-395 741,-439 1655,-99 71,26 268,112 306,147 9,9 20,22 28,31l59 102c4,6 52,77 53,79 -275,107 -953,473 -1221,363 -379,-154 -755,-339 -1160,-441l280 -182zm-1617 -393c937,-459 536,-631 1686,-236 105,36 175,62 294,98 316,97 197,65 247,141 -1216,550 -952,553 -1696,252 -219,-89 -406,-130 -531,-255zm1045 -626c202,-66 428,-181 654,-288 619,-293 347,-278 1367,73 215,74 451,151 667,224 -137,117 -165,103 -355,160 -1378,416 -226,494 -2026,1 -21,-6 -163,-48 -172,-52 -195,-96 -45,-8 -135,-118zm1281 -595c399,-221 1052,-615 1504,-437l1088 417c253,113 205,70 324,208 -352,89 -1192,425 -1509,313l-1407 -501zm-2034 351c1340,-589 637,-686 1669,-355 -122,140 -35,59 -244,161 -655,321 -771,602 -1425,194zm3330 1202c-317,-181 -750,-256 -946,-385 183,-129 1054,-450 1332,-462 66,17 216,106 281,245 5,11 9,30 13,40 128,321 -80,-86 38,105 178,-219 29,-293 -269,-427 228,-191 834,-302 1162,-400l167 91c130,-216 -35,-99 169,-194 154,-71 104,15 263,-113 -317,21 -330,130 -585,-11 -584,-322 -1244,-452 -1529,-654l725 -343c1166,-507 913,-210 2107,377l-159 428c196,-129 68,-27 213,-259 81,-131 103,-149 243,-209 -63,163 -154,221 -235,327 -501,652 12,-149 -476,423 -299,350 296,-222 -412,691 -140,181 -253,327 -497,344 81,282 95,65 -237,595 -253,404 -2078,1870 -2485,2176 -190,-121 -181,-37 -368,-176 -575,-427 -828,-444 -1007,-590 188,-143 914,-458 1185,-581 368,-167 260,-196 611,-7 355,192 319,121 350,337l9 77c67,-44 146,-7 96,-194 -42,-156 -404,-318 -539,-411 107,-116 315,-181 474,-251l1438 -661c-207,20 -650,241 -913,322 -8,-13 -17,-32 -22,-41l-197 -209zm-2126 -1816c71,-92 -31,-22 126,-121 2,-1 95,-41 115,-51 856,-438 503,-638 1591,-168 -136,121 -660,305 -895,419 -483,232 -459,64 -937,-79zm1811 -1056c839,-453 706,-423 1116,-266 211,80 424,131 592,249l-1153 522c-238,111 -348,166 -603,62l-445 -172c-112,-56 -48,-33 -93,-78l586 -317zm979 -462c111,-94 815,-437 986,-424 196,16 803,306 944,424 -140,132 -259,120 -502,202 -600,204 -358,247 -960,-2l-369 -130c-69,-32 -71,-47 -99,-70zm-3046 278c54,-51 1144,-673 1236,-701 169,-50 1230,349 1464,437 -148,103 -494,247 -683,348 -235,125 -452,262 -696,374l-1321 -458zm5384 -1302c319,137 687,297 841,578 48,176 -269,813 -394,1164 -48,133 16,11 -60,112 -318,422 -392,385 -560,236 -391,-347 -860,-456 -1051,-621 186,-109 481,-190 689,-269 246,-93 400,-134 457,90 17,68 -3,62 23,106 309,-173 -55,-117 -4,-372 -135,-15 -991,-404 -1157,-501 122,-117 1129,-531 1216,-523zm-3935 478c334,-161 823,-525 1169,-419l1152 464c-11,8 -27,18 -34,22l-540 239c-272,123 -258,215 -572,109l-1175 -415zm1109 -560c211,-113 1065,-584 1310,-550 216,30 1142,428 1306,543l-186 107c-251,123 -928,433 -1144,382 -134,-32 -1210,-436 -1286,-482zm-2094 142c961,-378 585,-536 1322,-282 90,31 186,51 257,77 161,61 81,18 168,118 -135,68 -294,134 -445,214 -379,201 -434,391 -1125,18l-177 -145zm5094 -38c80,-188 -37,-58 115,-161l880 -287c-64,168 5,74 -146,149l-436 213c177,11 276,-96 537,-217l-155 542c-49,133 -20,68 -78,145 -138,-73 -547,-394 -717,-384zm-7639 4178c496,-882 1308,-3303 1686,-4332 75,-206 180,-480 258,-620 -9,227 -84,413 -143,619l-168 531c647,59 283,-353 1197,-26 181,65 220,45 362,151 -271,187 -510,336 -742,438 -229,99 -578,231 -571,474 354,53 998,172 1317,424l-735 449c-471,299 -423,-118 -807,187l370 26c-134,187 -332,209 -609,353 -141,73 -205,115 -353,157 -228,65 -201,-24 -261,163 213,59 563,146 754,279l-955 538c-196,71 -374,237 -780,433l-130 86c-19,-159 -3,-140 38,-283l194 126 78 -173zm3550 -4602c140,-166 266,-197 508,-312 185,-87 343,-179 516,-265 294,-147 1003,177 1124,299 -399,118 -661,283 -1037,461 -334,158 -745,-117 -1111,-183zm-1773 677c69,-382 218,-632 297,-1026 84,-413 286,-443 661,-617 432,-201 491,-355 966,-137 287,131 586,242 867,363 -101,102 -757,420 -932,510 -635,327 -542,-255 -959,-81 172,202 324,99 562,290 -338,305 -950,546 -1462,698zm4464 -2056c278,93 774,281 930,468 -218,122 -823,341 -1093,450 -294,119 -915,-111 -1168,-300l1331 -618zm1339 627l-109 -163c250,-61 446,-132 676,-197l692 -119c0,328 -8,429 -177,617 61,35 78,65 109,93l-79 383c-248,35 -486,123 -700,197 -461,160 -427,241 -659,165l-1263 -512c139,-151 168,-116 371,-200l799 -320c200,-58 152,-1 340,56zm-4063 -549c204,-150 1032,-498 1284,-606 253,-107 1020,338 1295,416l-1276 664c-204,63 -1150,-353 -1303,-474zm2612 -1200c278,93 904,354 1103,532 -127,85 -923,461 -1083,428 -120,-24 -389,-184 -536,-245l-546 -252 1062 -463zm-3465 -278c232,40 609,178 785,309 -279,271 -920,231 -975,666 118,-73 104,-97 238,-185 116,-75 166,-97 290,-153 822,-375 382,-365 1734,114l-1390 643c-254,-77 -466,-270 -702,-122 167,113 307,30 548,224l-989 449 72 -348 -213 -62 602 -1535zm1137 309c100,-135 860,-516 1039,-498 138,15 960,319 1121,385l-1058 493c-93,5 -969,-315 -1102,-380zm-161 -828c201,-40 732,172 892,272l-839 458c-205,60 -730,-218 -862,-347l809 -383zm2746 1813c193,-55 358,-120 524,-202 165,-81 295,-157 500,-197l533 390c-88,-239 -225,-325 -440,-395 256,-304 862,-268 1177,-469 -290,-104 -1025,315 -1273,315 -74,0 -1074,-447 -1159,-530 1567,-555 771,-552 2118,101 -165,-273 -627,-374 -873,-575 255,-95 904,-366 1142,-332l12 631 137 83c7,-12 28,19 41,28 10,183 23,188 31,336l37 968c-1679,258 -1293,507 -1953,166 -240,-125 -418,-163 -554,-318zm-1514 -1585c1627,-931 1159,-300 2320,-23 -124,126 -35,68 -299,162 -261,92 -668,315 -859,282 -29,-5 -1150,-414 -1162,-421zm-1006 -341c306,-144 608,-305 928,-448 343,-153 906,144 988,221 -53,40 -834,449 -904,476 -270,106 -819,-117 -1012,-249zm-1058 344c43,-219 178,-522 263,-733 100,-246 244,-260 504,-389 326,-162 245,-193 606,-61 205,75 446,155 660,222 -132,139 -884,549 -1264,514 -102,259 -366,355 -769,447zm5787 -405c-390,-6 -1024,370 -1294,345 -84,-8 -1038,-432 -1174,-511 45,-51 -19,-21 125,-102 18,-10 115,-50 152,-66 103,-45 204,-88 315,-133 424,-170 736,-509 1567,262l113 100c-148,-455 -512,-392 -868,-673 159,-113 585,-306 769,-177 59,-194 41,-149 181,-110l52 223c17,107 24,129 36,235 24,201 32,407 26,607zm-3424 -556c291,-188 656,-323 994,-466 292,-123 266,-96 538,3 210,76 349,104 492,241 -283,181 -649,269 -972,427 -260,126 -319,115 -580,4l-472 -209zm-1949 -110c30,-170 89,-265 170,-400l347 150 -517 250zm3354 -502c140,-121 238,-137 453,-214 127,-45 340,-156 450,-174 305,-49 644,296 758,434 -167,52 -733,282 -875,266 -51,-5 -727,-277 -786,-312zm-1500 -340c167,-18 1027,253 1140,340l-1043 492c-250,119 -890,-126 -1112,-269l1015 -563zm3348 -328c9,128 12,257 22,383 26,299 26,192 -34,283 -166,-24 -80,-1 -178,-97 -273,-267 -208,-158 -491,-346 37,-34 -18,-23 134,-86l547 -137zm-3166 223c98,-75 992,-489 1101,-497 193,-15 931,356 1093,448 -116,79 -958,403 -1099,398 -157,-6 -1024,-295 -1095,-349zm-1126 -215l221 -225c1079,-653 731,-485 1840,-176 -65,74 8,29 -127,113l-829 391c-436,193 -631,-206 -1105,-103zm0 0l49 72c145,15 285,47 403,76l316 128c-226,115 -468,237 -680,365 -324,195 -424,218 -773,19 124,-697 710,-1153 1184,-1557l441 166c-234,167 -560,296 -1132,706 -174,125 -160,134 -268,317l344 -244c113,-77 -41,-3 116,-48zm1279 -787c506,-353 713,-521 1045,-383 -60,63 -543,356 -638,413 305,-64 513,-291 728,-332 167,-32 580,202 826,239l-232 131c-657,208 -704,472 -1729,-68zm-665 -166c349,-288 784,-522 1287,-361 -56,67 -20,43 -99,106 -49,40 -47,31 -108,65 -716,406 -475,364 -1080,190zm2328 -831c-254,61 -439,194 -636,304 -171,96 -144,128 -321,100l-316 -130c194,-127 415,-208 640,-300 287,-117 424,-209 633,26zm-2457 798c32,-150 378,-510 536,-665 77,-77 89,-66 183,-152 456,-417 454,-345 1082,-162 -112,124 -853,487 -1123,467 -89,304 -97,112 -678,512zm3402 424l-432 -301c-260,-76 -631,-147 -833,-329l302 -141c-172,4 -247,74 -381,92 -333,46 -325,-102 -325,-102 260,-164 481,-279 724,-441 227,15 330,89 544,179 311,131 273,210 393,313 -44,-268 -230,-330 -485,-447 -187,-87 -442,-151 -598,-272 219,-139 629,-285 898,-285 337,420 291,191 386,881 22,154 24,470 63,608 16,57 86,181 88,255 5,311 7,116 -106,154 11,8 27,16 33,22l60 50c78,101 51,89 63,218 -1229,420 -831,53 -1906,-225 164,-149 396,-213 747,-335 454,-158 419,61 765,106zm-1933 -1727c593,-358 1035,-153 1114,-155 199,-5 187,-53 369,43l-744 305 -739 -193zm3001 5564c4,-75 15,-260 -4,-330 -31,-116 -14,-42 -63,-115 -6,-8 -29,-8 -34,-29 -4,-20 -25,-17 -37,-26 36,-556 -189,-1953 -296,-2528 -70,-374 15,-367 -109,-610l-236 -1759c-171,-34 -45,54 -313,-80 -15,-153 -34,-81 69,-188 -574,-91 56,-290 -1155,-244 -335,12 -314,25 -587,151 -243,112 -180,-35 -471,137 5,-18 -45,-131 -56,-153 -220,78 -233,252 -406,415 -154,147 -275,228 -416,353 -284,253 -610,489 -796,833l131 38c4,-11 21,12 31,18l-102 43c-138,67 13,-69 -108,58 -112,116 -7,50 -90,201 -139,253 -138,92 -292,153 -5,12 -11,30 -15,38l-391 835 -372 61c64,117 -8,9 67,86l-59 648c-108,164 -291,27 -276,352l187 -124c-9,216 -104,356 -190,561 -148,354 -99,203 -345,427l105 241c-265,382 -407,1212 -722,1481 64,227 95,514 -148,615 50,139 75,118 163,222 -113,453 -478,1135 -516,1468l-137 11c-30,278 67,68 -30,250 -47,87 -94,95 -137,250 -53,192 -4,185 -23,360l-1425 2822c-168,327 -144,131 -420,293 70,176 46,63 118,223l-862 1540c-494,651 -617,-63 -528,686 -402,380 -538,752 -575,1502 414,437 305,1481 2701,579 695,-262 296,-118 758,-564 154,118 39,74 243,162 -74,-243 -57,-63 -129,-282 946,-400 2192,-1470 3032,-2093 584,-433 581,-391 1072,-874 111,-109 194,-201 310,-303 947,-840 532,-443 756,-854l400 -488c137,-165 1662,-1966 1687,-2135 27,-186 -103,-114 90,-435l405 -865c132,-381 -78,-254 237,-931 110,-234 -4,-141 74,-429 119,-438 209,-1197 235,-1674z"/><path class="fil0" d="M20545 39278c309,-73 118,-465 962,155 185,135 136,74 181,206 -303,163 -579,129 -915,255 -858,321 -1919,-54 -2714,-356l-206 -122c246,-235 994,-476 1377,-622 263,-100 485,-260 751,-178l720 355c-56,104 -114,175 -156,307zm1174 258c-121,-148 -153,-172 -312,-284l-400 -281c106,-142 497,-299 650,-366 315,-137 434,-251 811,-242 193,-266 -100,-119 470,-370 227,-100 386,-192 601,-243 -104,292 -255,279 -317,524 329,-83 259,-533 584,-627 -65,345 -168,367 -362,574 -157,168 -293,340 -491,511l-539 462c-181,142 -424,310 -695,342zm2208 -1802c61,-144 -52,-54 157,-122l-49 80c-97,66 -31,13 -108,42zm-2967 69c295,-33 159,-75 395,-173 212,47 800,379 943,506 -119,140 -1370,738 -1444,744 -299,-94 -458,-244 -805,-340 12,-13 27,-51 35,-39l844 -286c266,-73 784,-111 973,-239 -919,-9 -1903,465 -2126,407 -221,-58 -705,-305 -935,-404 -158,-67 -316,-138 -474,-197 -182,-67 -385,-61 -521,-123 9,-13 24,-49 30,-38 5,11 22,-28 30,-34l318 -190c288,-130 1009,-523 1261,-579 198,-45 537,163 860,323 271,135 562,233 834,383 -73,178 -103,101 -218,279zm232 -1453c141,270 694,517 877,784l-715 300c-334,-71 -1231,-524 -1563,-689 75,-80 -121,-14 299,-151 138,-45 251,-86 378,-124 280,-86 459,-171 724,-120zm1276 1735l-956 -561c143,-129 179,-125 374,-191l1218 -509c545,-245 1129,-491 1632,-594l-1138 1367 -394 167c-270,109 -495,243 -736,321zm-1276 -1735c37,-201 702,-191 885,-329 261,-198 474,-286 838,-388 496,-140 323,-232 858,30 289,142 516,294 734,477l-2317 957c-279,-164 -757,-683 -998,-747zm2697 1129c122,-298 981,-1311 1248,-1454 -59,234 -391,610 -539,786 -181,217 -401,588 -709,668zm-141 -3243c122,232 476,247 911,505 -45,42 0,27 -102,83l-939 402c-255,110 -245,134 -477,16 -178,-91 -369,-291 -504,-62 217,29 396,85 519,256 -964,200 -1155,533 -1295,597 -79,36 -677,156 -769,137 -108,-22 -178,-109 -298,-199 -54,-42 -75,-49 -129,-91 -13,-10 -53,-40 -66,-53l-67 -72c-9,-9 -22,-27 -33,-41 878,29 1253,-174 1775,-554l1024 -759c168,-141 173,-146 450,-165zm-5392 505c185,-111 481,-123 727,-133 141,298 331,310 486,628 -156,-39 -1071,-417 -1213,-495zm5167 668c11,-8 27,-35 33,-24 5,10 26,-19 33,-23 11,-6 60,-31 75,-38 225,-103 1119,-503 1253,-466 89,55 167,116 249,190l197 323c44,-73 98,151 52,-173 -26,-180 -298,-326 -393,-401 40,-33 23,-37 102,-71l417 -138c217,-64 391,-118 618,-150 -65,162 -130,234 -229,418 -148,278 -765,854 -883,1018 -307,428 -385,221 -700,-6 -245,-177 -553,-285 -824,-459zm-344 -1094c66,-201 92,-288 267,-149l-267 149zm569 -79c55,-119 23,-92 288,-208l1049 -456c618,-230 1129,-5 1333,446l-217 320c-455,49 -1227,342 -1291,347 -184,12 -841,-412 -1162,-449zm564 -1568c38,-318 102,-379 88,-825 200,50 320,143 474,213 157,71 346,132 489,189l-1051 423zm-6417 -1106l84 -83c166,-147 724,-414 867,-407 179,8 836,361 1010,439 -45,37 -26,38 -108,74 -386,173 -1127,321 -1900,757 -137,-45 -207,-113 -395,-110l211 172c-120,125 -338,209 -526,292 -2,-246 -19,-102 134,-312l623 -822zm0 0c-204,84 -42,40 -105,-58l64 -20 41 78zm6162 -610c182,34 292,70 463,123 66,21 151,39 218,62l186 106 -558 209c-30,-66 -280,-469 -309,-500zm-6139 407c96,-192 43,-96 163,-225 91,-97 94,-120 150,-238l303 43c73,36 58,47 88,74l-704 346zm-1407 1988c274,-147 243,-342 468,-482 151,-93 705,-431 914,-348 80,32 232,120 336,173 233,117 381,287 605,328 -247,-278 -639,-382 -913,-609 538,-332 1281,-607 1904,-745l-227 372c-83,120 -165,256 -194,423l267 -401c123,-194 117,-274 348,-399l318 260c-80,-199 -83,-222 -231,-261 149,-201 189,-49 141,-178l504 -503c168,92 29,46 209,101 -82,-200 -31,6 -60,-229 727,-279 1020,-572 1934,-368 625,139 373,118 568,269 273,211 524,59 812,785 -220,55 -278,51 -285,300 110,-95 104,-141 309,-162l18 993c-181,149 -331,151 -413,229 -280,263 201,-83 -213,504 -305,432 -609,927 -1013,1268 -290,244 -495,272 -817,471l-3 201c-470,125 -750,292 -1315,212 -296,-42 -788,-428 -945,-607 -571,-645 -491,-1153 -214,-2122 6,-23 56,-164 56,-164 17,-111 -26,-139 -28,-142 -140,249 -436,1087 -382,1385 41,223 42,383 75,637 -316,3 -501,46 -800,105 -258,51 -527,7 -823,-3l295 146 -831 349c-50,-263 35,-194 -150,-278 -70,120 -74,35 -4,158 43,76 50,24 130,190 -173,93 -867,398 -937,570 215,53 962,-449 1200,-588 463,-271 796,-466 1412,-243 735,264 2000,833 2417,1280 -207,70 -1152,384 -1281,401 -137,18 -1063,-406 -1212,-492 136,-124 466,-187 662,-231 248,-55 527,-45 780,-92l-356 -44c-158,12 -313,13 -470,41 -215,38 -592,183 -741,204 -207,28 -460,-170 -670,-251 -165,-62 -366,-132 -542,-123 -332,17 -144,16 -229,73 367,131 938,88 1195,447 -487,133 -826,433 -1265,622 -195,84 -327,45 -450,169 103,111 117,141 406,9l1072 -598c421,-215 364,-212 791,-20 239,107 542,231 764,350 -221,236 -2333,1013 -2655,1391 195,155 637,-271 985,-409l971 387c302,137 645,257 962,426 -452,352 -1386,359 -1811,773 -9,8 -19,22 -27,30l-62 62c-7,7 -22,21 -33,32 -915,-467 -696,-270 -1229,-964 -246,-321 -480,-399 -595,-901 -41,-179 29,-78 -61,-281 -245,-553 -87,-1112 -62,-1714 -29,-18 -48,-26 -72,-34 -123,-46 40,28 -66,-21l236 -279 -121 -56c50,-188 34,-196 157,-330 133,259 38,40 7,201 117,-299 170,-572 304,-869 95,-214 343,-590 276,-786zm3508 -1880c-204,-66 -324,-163 -529,-258l-397 -157c-207,-106 -43,-7 -145,-109l1127 -480c122,45 167,72 296,143 246,136 196,94 277,240 -9,11 -23,13 -28,33l-601 588zm3819 -788c10,-11 25,-44 30,-33l142 -95c1083,-501 817,-198 2095,179 -111,93 -930,421 -1116,387 -118,-22 -430,-136 -601,-188 -252,-76 -406,-107 -550,-250zm-2584 -877c495,-91 169,-443 1037,-221 279,71 920,136 1124,319l-534 256c164,135 -193,135 203,89l491 -294c979,-470 718,-762 1940,-317l200 99c-134,76 -790,358 -921,380 -227,39 -493,-134 -743,-190 -217,-48 -204,-1 -277,44l705 267 -346 163c-882,338 -708,-52 -1376,-106 -487,-39 -1273,23 -1605,241 -353,233 -406,295 -909,-131 327,-208 1258,-465 1563,-608 137,-65 66,-37 96,-60l-601 149 -47 -80zm0 0c-263,86 -47,113 -377,232 -199,72 -300,103 -489,180 -425,173 -579,-47 -925,-202 179,337 247,112 474,410 -335,89 -779,336 -1087,493 -420,-81 -545,-182 -223,-457 119,-102 140,-153 248,-254 217,-203 1418,-827 1756,-938l167 106c227,-103 543,-14 779,83 -152,233 -234,60 -323,347zm775 -403c109,-77 1036,-455 1161,-453 222,5 1168,307 1266,397 -992,602 -977,433 -2088,162l-339 -106zm2792 -99c219,-120 711,-385 942,-303 207,73 816,304 919,402 -114,100 -767,278 -931,226 -280,-88 -679,-182 -930,-325zm-3696 -124l765 -413c263,-109 756,15 985,135 -12,9 -30,8 -36,26l-796 325c-187,73 -384,189 -812,-2 -85,-37 -78,-48 -106,-71zm2210 -345c361,-83 605,-320 1032,-220l917 251c143,57 82,39 140,88 -390,105 -631,347 -1014,234l-909 -254c-207,-79 -83,-31 -166,-99zm-819 -329c284,-271 915,-181 1347,7 -51,49 48,11 -132,94l-606 219c-119,15 -801,-154 -871,-202 189,-88 622,-104 810,-23 -9,-115 70,-134 -202,-138 -85,-2 -276,28 -346,43zm1812 -70c428,-29 934,-389 1338,-447 112,-16 1103,305 1267,435 -1406,529 -1222,457 -1963,260 -135,-36 -216,-55 -354,-88 -247,-59 -170,-39 -288,-160zm-1230 -209c171,-130 865,-350 1134,-458 317,-128 301,-80 649,2 229,54 437,68 600,197 -989,242 -1266,715 -2383,259zm-1226 -338c82,-72 955,-464 1103,-480 205,-22 1115,162 1261,251 -989,335 -1323,800 -2364,229zm2795 -245c157,-127 68,-62 297,-142 82,-29 190,-72 286,-104 176,-61 358,-117 549,-173 408,-121 994,136 1119,286 -177,101 -840,270 -1067,323 -250,60 -899,-142 -1184,-190zm-3659 646c64,36 -97,103 158,39 316,-79 165,-491 987,-224 254,83 396,89 544,203 -134,65 -558,278 -726,261 -269,-27 -540,-299 -757,-112l683 188c-165,119 -1006,396 -1357,556 -436,197 -968,462 -1369,617 68,-129 -20,-12 104,-157 21,-24 112,-112 142,-141 128,-121 149,-190 243,-305l1729 -1447c329,-199 1638,-1188 1935,-1171 328,18 628,92 953,123 -183,183 -1014,430 -1291,534 -594,224 -1290,512 -1805,860 -193,130 -83,-25 -173,176zm6076 -1506c-412,-2 -743,276 -1165,215 -158,158 -75,118 -271,180 -126,39 -219,66 -343,104 -245,76 -449,149 -667,228 -283,103 -1288,-160 -1390,-223 135,-78 1025,-442 1192,-471 303,-53 1013,171 1399,212 -51,-44 -24,-43 -120,-89l-975 -213c272,-192 972,-385 1342,-440 -32,-93 55,-60 -34,-89 563,-147 581,-378 1242,-173l847 319c59,35 67,47 100,70 13,9 55,39 67,48 9,6 26,19 33,24 8,5 23,15 35,23 39,1036 13,829 -162,1512 -48,188 4,396 -30,589l-316 1392c-57,203 -109,293 -164,457 -131,391 -50,428 -230,876l-443 1286c-51,171 -131,276 -182,431 -102,309 -146,586 -373,785l-685 -499c203,-19 459,-46 630,-151 -255,-111 -565,225 -1061,5 -154,-69 -330,-123 -508,-167 -447,-112 -295,-240 -516,-116 82,118 -92,93 503,243 109,28 200,46 310,78l271 124 -1499 617c-271,133 -276,184 -516,-5 43,-59 8,-35 81,-98 241,-210 178,18 364,-183 143,-154 261,-592 261,-591l-88 -172c313,-9 144,1 301,-107l858 -367c563,-220 686,67 1105,264 -59,-216 -400,-321 -578,-429 188,-118 451,-170 697,-227 166,-38 672,-106 778,-149 -293,-173 -1136,150 -1471,240 -281,76 -483,-50 -714,-154 -286,-130 -363,-321 -624,-201l-8 -218c284,-152 677,-358 1039,-213 172,69 343,132 515,210 216,99 268,157 496,229 -298,-368 -831,-360 -1144,-604 1230,-536 1031,-355 1655,-50 -136,-202 -217,-223 -514,-342 12,-10 31,-39 38,-27 7,12 28,-20 38,-25l410 -102c148,-30 302,-68 451,-108 -1010,-94 -380,431 -1878,-133 -240,-91 -416,-120 -556,-239 169,-73 715,-310 915,-356 204,-47 282,41 453,115 84,37 146,49 238,92 166,79 7,57 235,102 -177,-246 -414,-229 -673,-386 285,-197 767,-165 1015,-355 -445,6 -494,-170 -1150,-398l-180 -82c60,-38 1180,-507 1478,-389l320 185c85,69 23,49 132,97 -166,-368 -866,-558 -1310,-696 -95,-30 -176,-54 -257,-78 -50,-14 -82,-18 -127,-35l-149 -78c255,-75 515,-124 762,-200 521,-160 451,-158 732,11 -104,-137 -65,-53 -105,-196l835 -148c-379,-66 -782,142 -1031,70 -151,-43 -708,-302 -799,-381 130,-38 286,-72 436,-120 300,-97 223,-20 397,-160zm-42 -945c182,-52 380,-133 549,-175 90,-22 157,-61 222,5 98,98 22,23 6,73l-84 111c210,-79 353,-84 542,460l-619 -258c-221,-67 -467,-101 -616,-216zm1044 -311c-69,95 57,55 -147,65l147 -65zm-4678 926c161,-107 328,-223 474,-314l1447 -722c477,-264 1812,-518 2285,90 -56,52 -9,41 -148,98 -537,218 -674,198 -1031,103 -205,-55 -398,-35 -633,-75 -223,-37 -390,-141 -409,123 257,223 434,12 1208,86 -145,132 -254,146 -491,246 -565,236 -1341,-394 -1615,-81 39,25 1033,192 1158,208l-1038 438c-153,37 -1023,-89 -1207,-200zm-6897 6897c-305,355 -276,482 -497,894 -123,227 39,77 -159,383l-255 699 -2 1786c76,386 239,523 364,860 150,405 349,433 543,732 512,789 2598,1504 3626,1451 200,-10 413,-17 563,-63 193,-60 270,-118 502,-149 723,-97 959,-437 1300,-613 655,-336 1672,-1747 1882,-1902 106,-79 72,-12 190,-139 104,-110 6,-59 161,-170 -2,-11 -10,-38 -11,-30l-31 -79c-5,-108 201,-298 271,-386l1529 -2427c333,-508 749,-1562 904,-2089 79,-266 123,-476 221,-725 196,-500 506,-1850 639,-2375 66,-265 99,-532 115,-830 14,-282 147,-561 163,-835 56,-977 -42,-994 -410,-1614 10,-12 26,-46 31,-36 6,10 24,-27 31,-34 9,-8 53,-46 64,-57 116,-115 47,3 101,-135 -192,-87 -290,-1 -561,-2 -359,-475 -804,-582 -1600,-458 -777,121 -967,324 -1574,638 -517,267 -585,202 -1088,582l-2362 1532c-206,153 -375,366 -581,534 -429,351 -665,431 -1061,882l-1189 1326c-166,202 -104,50 -208,344 -40,115 -148,266 -210,344 -254,322 -312,426 -592,523 15,197 -20,2 87,197 -167,121 -547,710 -674,938 -132,239 -53,124 -326,221 10,10 29,9 34,28 22,91 69,21 126,143l-56 111z"/><path class="fil0" d="M27200 21440c372,-54 211,-136 645,-47 243,50 509,128 746,104 12,7 30,4 36,20 19,52 656,136 851,258l-1766 680c-280,118 -1345,-108 -1776,-191 -25,-5 -117,-25 -137,-34 -112,-46 -59,-25 -128,-80 263,-74 537,-219 792,-334 192,-87 631,-259 737,-376zm-2834 -740l-61 181c-6,-13 -145,15 61,-181zm2834 740c-313,3 -1044,397 -1355,543 -230,107 -391,212 -731,155 -192,-33 -246,-65 -396,-107 -441,-124 -350,38 -370,78 13,7 33,2 41,18 8,18 32,14 43,17 195,40 -138,-13 98,18 212,28 502,3 721,114l-835 552c557,17 620,-599 1338,-509 403,51 1232,155 1566,291 -60,82 10,26 -118,113l-1146 747c142,-92 274,-45 505,-218 1119,-836 1012,-503 1695,-426 -125,-109 -371,-157 -562,-210 75,-70 3,-26 139,-99l517 -206c2078,-729 1012,-431 2249,-209 -182,-187 -287,-148 -442,-220 -161,-74 -93,-48 -163,-107 60,-58 11,-38 116,-90 53,-27 78,-31 133,-49 65,-21 160,-42 253,-72l801 -262c295,-68 -4,62 342,-96 311,-142 1583,-471 2034,-641 181,-69 357,-160 559,-211l-71 299c74,-154 80,-236 210,-361 5,368 -535,1324 -785,1526 -70,56 -222,121 -316,184 -165,109 -477,236 -672,286l273 4c-302,199 -601,446 -980,554 -914,260 -1724,326 -2570,494 -227,45 -414,91 -638,148 -203,50 -476,58 -696,80 -635,66 -2356,359 -2895,553 -130,47 -37,45 -297,10 -242,-33 -464,-84 -688,-48 -204,32 -391,-44 -458,-267 -29,-98 -19,-265 -3,-372 31,-206 32,-165 166,-209 -10,-13 -28,-44 -32,-35 0,0 -120,-94 -80,-243 43,-155 105,-57 169,-235 78,-214 -6,-403 107,-657 105,-232 686,-533 920,-644 1459,-695 667,-319 2433,-147l-129 166zm-2532 -1229c-91,224 24,133 -190,167 46,-190 -46,-119 190,-167zm3198 116l-273 -110c213,-150 1315,-584 1637,-698 354,-124 1472,256 1863,364l-2081 705c-11,5 -23,16 -34,22 -455,270 -520,213 -954,429 -282,141 -307,231 -695,165 -319,-55 -1196,-184 -1394,-305 433,-134 897,-398 1298,-542 348,-126 299,9 633,-30zm-589 -133c106,-173 221,-228 435,-356 661,-394 890,-560 1490,-455l-447 220c-173,72 -302,127 -474,192 -307,116 -701,335 -1004,399zm3649 -1419c-156,105 -728,265 -966,363 -254,106 -518,237 -790,176 -354,-80 -95,-15 -189,-99 308,-165 623,-264 935,-402 398,-175 559,-203 1010,-38zm-3266 166c373,-159 732,-356 1105,-502 366,-143 967,91 1349,142 -85,86 37,13 -152,117l-438 171c-184,74 -361,160 -544,235 -290,121 -1058,-5 -1320,-163zm-1171 -274c1024,-460 573,-713 2250,-332 -125,97 -856,399 -1080,508 -248,121 -298,67 -591,3 -202,-44 -452,-69 -579,-179zm4437 108c-115,-186 39,-46 -197,-138 -55,-21 -66,-20 -124,-45l-72 -48c227,-67 657,-261 906,-379 460,-218 549,44 992,46 -81,157 -162,129 -368,191 -129,39 -230,81 -372,127 -235,77 -527,204 -765,246zm-1721 -506c996,-512 1366,-648 2324,-269 -121,112 -874,418 -1100,495 -178,62 -1090,-117 -1224,-226zm-1573 -150c66,-107 -38,-57 274,-200 1098,-506 830,-583 2021,-322l299 95c7,-11 25,13 37,21 -197,125 -926,405 -1175,499 -452,169 -953,-180 -1456,-93zm3079 -462c272,-155 788,-321 1108,-447 269,-107 272,-126 590,-29 177,54 423,129 547,264 -376,82 -717,289 -1086,432 -254,99 -561,-24 -921,-120l-238 -100zm-3635 273c66,163 89,92 205,231 -580,172 -689,503 -1072,487 -98,-4 -81,-36 -185,8 -6,77 -44,-23 23,60 89,109 -12,-80 97,107l-611 322c249,142 568,-258 770,-332 170,-61 783,124 1030,160 -217,267 -1018,659 -1105,717 -11,7 -26,19 -35,26l-66 64c871,-155 896,-857 1737,-675 221,48 534,87 719,160 -201,155 -473,239 -724,388 -289,171 -467,294 -715,459 -385,15 -1372,-388 -1606,-229l1454 314c-10,14 -24,18 -30,41l-125 119c-397,289 -904,524 -1404,495 18,147 64,152 70,169 -577,178 -950,569 -1381,716 360,-1233 1133,-2454 1781,-3538 90,-151 124,-236 281,-330 288,-172 473,-302 758,-469 286,-167 484,-364 839,-274 330,84 658,175 997,245 -158,155 -184,114 -381,204 -155,71 -250,131 -413,200 -132,56 -267,151 -372,189 -237,84 -270,-27 -536,-34zm2131 -660c232,-17 940,-375 1190,-484 443,-193 893,172 1364,149l122 134c6,-11 20,30 30,45 -422,69 -863,335 -1286,469 -295,94 -1136,-136 -1469,-222 153,-62 -18,29 49,-91zm3055 -168c83,-166 32,-87 477,-253 766,-287 744,-316 1412,76 -127,109 -300,144 -464,206 -173,65 -328,149 -478,195 -252,77 -553,-202 -947,-224zm-3055 168c-363,19 -410,56 -791,-50 -282,-79 -592,-132 -724,-247 331,-118 958,-497 1256,-571 185,-45 1255,185 1470,262l-1211 606zm2554 -335c-24,-20 -10,-27 -99,-66l-860 -204 1105 -477c282,-59 912,231 1253,244l109 112c-205,121 -488,198 -720,285 -482,181 -297,121 -788,106zm-5459 722c92,-209 767,-888 963,-1104 205,-227 265,-396 716,-373 178,9 701,116 823,183 -1113,531 -1052,646 -1648,483l-154 174c205,-7 200,-63 352,25 -80,73 -947,570 -1052,612zm2884 -1393c389,-88 900,-466 1234,-440 197,15 1138,222 1329,289 -169,104 -999,458 -1209,460 -151,1 -1190,-176 -1354,-309zm-1350 -239c-2,12 -98,90 -69,18 45,-113 -124,7 53,-24 1,-1 13,-1 13,-1 1,0 3,7 3,7zm244 18c193,-152 708,-406 1003,-427 92,-6 869,77 1000,149 -161,132 -701,354 -932,449 -250,103 -517,11 -822,-66l-249 -105zm2458 -334c321,-206 653,-341 1065,-228 236,64 817,206 982,319 -625,294 -998,222 -1855,1l-157 -67c-6,-17 -24,-16 -35,-25zm-1239 -222c145,-124 626,-331 797,-338 92,-4 742,123 893,226 -171,117 -620,323 -768,314l-922 -202zm3802 -667l887 380c-127,135 -401,209 -610,285 -826,301 -415,290 -1313,40l-632 -205c160,-104 614,-273 813,-353 440,-175 355,-183 855,-147zm-4121 629c68,-97 -3,-32 85,-102 47,-38 44,-27 108,-58 93,-47 133,-58 224,-110 473,-270 394,-110 437,-62l-854 332zm-991 365c150,-224 461,-426 650,-616 310,-311 384,-352 901,-216l-799 432c-114,59 -73,65 -192,142l-560 258zm3827 -1384c24,19 33,34 102,69l295 92c154,40 247,65 385,107l-264 136c-1209,445 -820,549 -1794,319 -72,-17 -115,-24 -174,-48 -82,-33 -64,-37 -97,-64 263,-150 1277,-608 1547,-611zm-1991 447c591,-95 1062,-823 1641,-489 -292,172 -1256,654 -1613,601l-28 -112zm1699 -799c88,-38 146,-56 240,-94 539,-218 1006,-557 1322,-334 -141,101 -662,307 -868,399 -322,143 -587,374 -907,158l213 -129zm-1699 799c-159,26 -178,34 -340,5l-304 -119c149,-139 396,-329 579,-445 559,-350 297,-304 745,-274l-144 -178c220,-55 825,-427 1026,-540 287,-164 308,-41 631,13 291,48 375,-24 598,216 -417,104 -1328,579 -1525,588 -181,9 -280,-101 -542,-108 127,127 204,119 403,160 -82,88 -10,37 -144,114l-444 224c-116,62 -182,105 -286,159 -48,25 -109,50 -146,76 -186,127 -39,16 -107,109zm3155 -1394c261,-187 725,-412 1053,-265 -123,121 -308,163 -507,249 -268,117 -283,159 -546,16zm572 -439c-53,154 139,31 -365,250 -445,193 -359,181 -971,25l-423 -163c-7,-21 -26,-20 -38,-31 470,-184 375,-139 863,-2 904,255 407,-62 934,-79zm0 0l-236 -104c-81,-21 -163,-41 -231,-55 -111,-23 -187,-20 -275,-35 -414,-72 -99,12 -253,-108 400,-86 369,6 752,-218 279,-162 322,-162 656,-236 988,-221 283,-46 746,-79 263,-19 453,-187 727,-189 528,93 658,979 725,1408l-148 195c-56,207 -60,101 75,185 -271,152 153,-119 -200,52 -6,489 190,217 50,729 -53,195 -140,413 -194,645 -152,653 -726,3498 -1072,3925 1,2 258,162 -19,548l-310 469c-185,270 -1769,617 -2272,794 -155,55 -461,163 -602,184 -226,33 -309,-83 -595,-109 143,131 181,83 334,174 -275,170 -900,289 -1255,419 -522,190 -775,-197 -1364,-141 -226,-147 -542,-110 -793,-223 142,-130 193,-120 380,-192l1083 -415 1188 308c4,2 212,66 218,66 277,23 82,4 170,-49l-1402 -386c217,-151 868,-330 1175,-431 1206,-395 615,-111 1317,-74 -85,-56 -99,-57 -219,-101 -159,-58 -116,-28 -232,-117l1459 -499c-472,-3 -1264,466 -1672,460l-1662 -462c300,-172 896,-308 1258,-460 547,-228 806,88 1416,136l-769 -245c-31,-9 -84,-27 -116,-40 -7,-3 -28,-5 -33,-20 -5,-15 -21,-15 -31,-22 610,-91 914,-460 1551,-355l634 -385c-146,-57 -733,248 -1080,220l-266 -121c-124,-37 -178,-37 -287,-99 182,-132 1093,-529 1389,-504 61,-177 66,-111 414,-253 152,-62 342,-139 554,-202l34 117 702 -400c-172,-50 -520,108 -702,161 -268,-198 -486,-259 -525,-285 -115,-79 -106,69 -97,-141l-487 -52c-246,-224 -732,-184 -999,-333 680,-525 1164,47 1727,175 -65,-81 -5,-39 -124,-118l-834 -331c59,-71 2,-32 88,-88l1000 -399c283,-85 185,-25 433,51l-144 -175 1002 -392c-407,-26 -794,296 -1104,333 -263,32 -684,-320 -1104,-335l-151 -108c323,-169 1524,-657 1845,-482l-25 -206c-77,10 -204,18 -267,33 -438,107 -1597,653 -1922,561 -258,-73 -479,-189 -765,-188l-26 -86c413,-166 798,-372 1196,-528 635,-249 626,83 1344,179 -36,-31 -33,-41 -101,-78 -68,-38 -48,-23 -123,-49l-691 -201c139,-132 765,-432 1021,-332 42,-112 -281,-44 276,-247 156,-57 456,-107 542,-161 -71,-52 132,-50 -143,-49 -432,0 -473,346 -1202,225 157,-173 908,-447 1228,-590 198,-88 229,-50 364,-204 -611,64 -1276,640 -1949,735zm-5876 2467c249,-49 634,-438 935,-545 -62,141 -13,65 -102,159 -26,27 -111,88 -155,125 -218,182 -607,635 -859,734 125,-228 163,-37 223,-347 -272,77 -268,190 -411,401l-236 319c-312,362 -638,920 -826,1022 69,-289 119,-114 172,-370 -158,93 -934,1340 -1068,1582 -579,1051 -1035,1506 -1274,2793 -126,680 -401,593 -496,1488l-111 460c-77,470 65,729 386,900 527,281 1694,-85 2260,-207 385,-83 753,-109 1160,-179 400,-69 801,-126 1204,-180 400,-53 740,-160 1120,-225 532,-91 617,33 1105,-111l1053 -287c175,-42 348,-81 489,-175 289,-196 160,-202 530,-104 364,-435 1290,-1051 1443,-1647 84,-326 569,-1396 728,-1998 34,-130 36,-253 71,-381 284,-1033 545,-1839 791,-2991 296,-1385 947,-3024 -183,-3839 -366,-264 -1516,133 -2012,305 -555,194 -362,38 -1258,415 -141,59 -197,80 -320,123 -221,78 -118,55 -282,164 -197,130 -342,173 -527,308 -173,126 -319,193 -542,291 -361,159 -1681,1022 -2069,1273l-939 724z"/><path class="fil0" d="M14125 28897l1204 -402c690,-274 682,35 1307,174 -146,137 -374,150 -591,206 -542,140 -1018,371 -1329,269 -193,-64 -453,-142 -591,-247zm-959 1c172,-62 348,-48 575,-9l-225 127c-196,92 -74,-7 -177,154 637,-94 560,-385 1344,62 -11,8 -29,6 -35,23 -7,18 -29,18 -38,22l-798 260c-269,98 -537,272 -780,401 187,119 285,-13 447,-124 346,-236 734,-316 1122,-442 401,-131 222,-26 552,9 -139,-82 -79,-44 -142,-157 875,-139 2010,-620 2910,-621 -344,-50 -858,117 -1125,76l-927 -405c646,-143 1312,-607 1956,-299 147,70 390,254 490,277 -71,-272 -484,-324 -729,-467 276,-149 1023,-214 1129,-278 -316,-142 -1112,241 -1450,188l-1580 -295c181,-165 636,-269 871,-350 559,-193 448,-170 1029,-60 494,94 961,207 1401,438 483,253 -72,169 330,265 -83,-347 -405,-404 -868,-566 -408,-143 -762,-189 -1162,-290 212,-146 1130,-373 1471,-433 323,-57 1283,268 1495,435 -60,226 -135,260 -258,483 -151,275 -135,166 -370,347 -293,227 -607,381 -850,656 -108,122 -162,248 -335,381l-1437 850c-558,222 -1663,765 -2149,866 -189,39 -393,70 -603,108 -726,128 -1131,394 -1790,-85 -354,-258 -241,-703 -102,-1078 122,-329 333,-739 486,-1019 202,-373 403,-564 691,-813 288,-250 91,-253 246,-477l2744 -2543c205,-132 229,-128 433,-291 161,-129 399,-157 621,-56 -11,9 -30,7 -36,25l-152 79c-92,45 -109,45 -188,119 200,138 404,-228 848,-147 275,50 763,107 963,248 -460,134 -845,265 -1304,430 -585,210 -1305,-128 -1514,25 198,129 611,62 826,167l-254 91c-659,152 -738,35 -815,313 367,-55 915,-282 1322,-358 391,-72 839,-315 1284,-447 771,-230 603,-223 1361,-1 249,73 359,130 603,234 311,131 371,231 552,327 -31,-208 -74,-182 -292,-310 -153,-91 -246,-128 -417,-193 -263,-99 -665,-187 -900,-315 848,-207 1324,-436 2020,143l22 236c3,114 -350,599 -450,762l-554 951c-61,94 -89,126 -146,232 -193,-73 -355,-159 -592,-245 -211,-75 -418,-121 -626,-193l202 -69c106,-20 171,-32 287,-47 137,-17 142,-23 280,-6 156,18 88,70 227,8 -140,-172 -420,-98 -626,-65 -191,31 -506,116 -646,101 -308,-33 -919,-392 -1230,-259l1089 290c-192,140 -1102,321 -1444,425 -246,75 -1279,-54 -1544,-213 351,-141 835,-276 1218,-400 414,-134 806,-263 1231,-384 713,-202 2012,-529 2661,-489 -70,-69 73,-114 -381,-73l-1296 216c-396,103 -1001,-259 -1572,-282 271,208 802,201 1124,367 -84,56 -1336,426 -1424,426 -169,-1 -603,-95 -815,-123 -237,-32 -363,-129 -590,-156 -300,-35 -172,21 -222,63 401,209 1012,82 1387,317 -332,113 -1561,564 -1804,462l-112 -96c-17,163 -1,125 59,257 -207,42 -369,144 -504,277 309,34 501,-345 981,-285 282,35 781,172 1117,234l-227 114c-358,115 -948,459 -1299,361 -226,-63 -368,-173 -579,-28 89,135 309,66 544,111 -246,226 -878,322 -1220,458l-174 99c65,45 -84,140 350,-42 120,-50 256,-96 371,-129 1248,-365 658,-400 2078,-120l321 59c126,52 54,20 133,90 -1162,223 -1006,698 -2455,181 -44,-15 -109,-50 -163,-59 -217,-36 -39,-23 -142,20 41,123 -47,118 211,183 294,74 718,46 967,205 -399,175 -1355,579 -1791,457 -282,-78 -367,-154 -686,-93 18,154 -40,-20 40,82 88,111 3,-80 94,112zm4975 -4730c518,-442 1600,-316 2215,-56 -120,88 -987,280 -1063,282 -85,2 -1078,-194 -1152,-226zm3563 464l-898 -461c273,-177 808,-200 1192,-203 -80,225 -203,431 -294,664zm-4372 -697c315,-141 623,-518 1514,-157l-356 143c-143,41 -240,78 -382,121 -202,62 -200,77 -386,37 -36,-7 -147,-39 -173,-48 -18,-6 -71,-23 -89,-30 -97,-39 -68,-21 -128,-66zm4774 -164l-325 114c-1076,146 -1173,298 -2412,-123 83,-54 1195,-397 1370,-437 420,-96 986,321 1367,446zm-3628 -178c229,-122 730,-261 1029,-385 552,-228 660,-162 1173,16 -181,133 -780,248 -1044,339 -512,174 -591,182 -1158,30zm1749 -642c583,-111 643,-230 1391,8 17,5 66,22 82,29 74,34 66,38 105,69 -316,14 -622,108 -843,116 -136,4 -594,-115 -735,-222zm-1822 435l-41 169c-196,-1 -180,22 -320,-82 663,-185 956,-806 1544,-535 89,41 62,38 112,81 -314,88 -295,84 -588,244 -302,164 -351,98 -707,123zm1336 -820c604,297 450,107 665,260 -346,69 -797,121 -1102,-69l437 -191zm2201 118l675 -132c34,382 -247,922 -427,1186 -60,-17 -1079,-484 -1109,-506 617,-91 710,-92 1144,33 -81,-205 -458,-348 -701,-435 -172,-61 -184,-1 -314,-109 200,-106 1146,-276 1402,-262 -70,27 -246,61 -323,81l-347 144zm-1791 -297c184,-89 413,-117 606,-210 661,-316 1544,-399 1851,99 -92,58 103,32 -320,99 -650,104 -1217,368 -1569,204 -317,-147 -433,-100 -568,-192zm-1670 382l337 106c11,5 31,13 44,24 -251,79 -332,163 -540,296 -613,391 -335,118 -1066,659l-1016 711c-198,175 -283,278 -460,430l-2158 2125c-86,123 -101,169 -189,256 -84,85 -159,111 -243,207 -152,172 13,212 -258,462 -166,154 -78,-15 -221,225 -199,335 -901,1890 -677,2144 142,162 4,18 106,52 8,3 25,5 33,8 697,223 226,571 1827,250 2011,-402 825,-126 2592,-856 790,-326 1656,-787 2142,-1313 699,-756 1806,-1088 1818,-1633 -78,96 29,59 -237,260 9,-256 172,-343 323,-558 159,-226 203,-369 322,-614l1739 -3000c37,-120 43,-263 72,-367 95,-338 -36,-45 228,-256 -178,-154 193,135 -103,-50 -338,-211 56,-303 -824,-552 -454,-128 -885,26 -1236,194 -308,148 -780,315 -1120,439 -225,83 -330,171 -527,251 -268,109 -514,-5 -708,100z"/><path class="fil0" d="M29979 11979c-124,158 -435,246 -649,350 -237,114 -424,226 -683,285l-609 -244c206,-164 607,-325 887,-445 491,-209 566,-100 1054,54zm0 0c-48,-81 30,-28 -110,-110 -152,-89 -381,-93 -489,-159 312,-140 707,-288 1021,-423 654,-281 497,-98 1090,27 -121,157 -1371,649 -1512,665zm-1273 -343c83,-153 1184,-590 1352,-635 237,-64 328,18 557,24 -94,164 77,40 -208,162l-706 290c-898,396 -512,-10 -995,159zm2785 -322c-161,-179 -183,-119 -401,-214 -174,-75 -24,-2 -110,-66 738,-281 1160,-585 1431,-111l-920 391zm-1183 -385c156,-139 547,-260 736,-334 138,-53 247,-118 387,-124 285,-13 363,104 401,136 -219,88 -494,191 -719,280 -441,175 -362,89 -805,42zm-1096 -230c482,-238 1398,-586 1938,-277 -463,302 -1439,612 -1938,277zm3554 -774l292 219c-586,123 -957,556 -1496,245l1204 -464zm-1256 -91c297,-117 663,-103 928,40 10,5 30,44 37,32 8,-13 25,24 38,36 -753,157 -1008,581 -1862,258l859 -366zm-413 -226l414 68c7,-12 25,15 38,23 -292,173 -1292,604 -1770,351l1318 -442zm-2360 1097c101,-224 65,-107 215,-254 363,-352 1224,-1353 1881,-857 -392,80 -919,301 -1316,468 -426,179 -279,175 -304,259 274,-83 192,-51 483,-81 130,-14 83,-43 236,-41 297,5 104,18 168,57 -197,98 -436,152 -659,234 -287,106 -365,218 -704,215zm3252 -1063c351,-105 648,-221 981,-351 378,-148 656,-161 1018,18 -20,18 -21,33 -94,74 -46,26 -68,30 -117,48 -85,32 -162,54 -247,88 -392,154 -722,341 -1017,267 -102,-25 -163,-49 -265,-66l-259 -78zm1162 -559l-228 103c-915,329 -871,457 -1600,353l234 -104c629,-137 291,-104 676,-269l470 -158c177,-32 307,-4 448,75zm0 0c-63,-118 10,0 -70,-85 -63,-67 -21,122 -74,-71 -7,-27 -29,-26 -42,-41 417,-59 455,-313 928,-77l-742 274zm-2890 323c81,-123 1425,-1016 2143,-844 245,59 185,-18 432,8 150,16 322,46 435,73 -40,37 -20,35 -93,72 -536,270 -638,147 -1210,60 -574,-87 -315,-38 -367,34 140,63 247,73 412,89 238,23 256,-23 438,78l-157 82c-28,12 -88,31 -124,43 -1476,531 -792,289 -1909,305zm-1453 4128c-278,23 -404,253 -602,400l-592 408c-321,237 -891,679 -1401,355 -62,-358 143,-670 323,-875 81,-392 622,-1112 890,-1448 159,-199 180,-305 344,-491 194,-219 169,-160 327,-443 397,-709 1073,-597 1794,-523l-1430 650c-186,44 -104,3 -260,79 -12,6 -93,50 -107,60 -132,93 -51,23 -127,127 328,-40 791,-269 1088,-54 -392,148 -950,540 -1402,551l-9 151c1039,77 405,59 940,166 -158,167 -933,497 -1228,575 115,-193 9,-87 217,-205 269,-154 192,-141 249,-227 -260,73 -691,418 -789,572l444 25c72,-173 448,-303 644,-376 307,-113 1390,-706 1887,-890l1740 -768c58,-28 125,-62 187,-91 266,-126 511,-222 779,-336l780 -348c-387,34 -667,256 -1020,335l-246 -293c-7,-6 -21,-20 -31,-31 237,-143 671,-285 960,-387 394,-138 2786,-1117 2884,-1230 -289,19 -1818,715 -2328,898 -387,139 -435,283 -840,52 149,-144 539,-234 749,-315 332,-128 488,-286 854,-159 -43,-60 3,-1 -62,-60l-103 -93c278,-78 1834,-649 1940,-765 -194,-155 -761,206 -1287,418 -720,289 -617,404 -1366,138 108,-82 269,-134 429,-183 403,-123 191,-97 427,-186 312,-118 586,-208 900,-325 778,-289 1130,-631 1545,180 323,630 -23,882 -838,1302l-1781 672c-760,164 -3216,1179 -3854,1656 -250,187 -908,475 -1212,623 -277,136 -551,275 -826,398 -700,315 -322,65 -872,132l248 128c-136,129 -450,301 -620,240l-36 68c-171,219 116,-29 -72,83 -152,91 -252,-118 -599,269 201,104 536,-138 773,-260 109,-56 245,-123 375,-181l1198 -584c203,-103 566,-313 817,-366 -242,353 -701,463 -792,782zm5242 -5003c75,-31 139,-90 242,-145 176,-94 407,-154 596,-239 352,-159 928,-479 1285,-156 -358,136 -807,293 -1180,428 -391,143 -858,444 -1283,223l340 -111zm-1568 -159c735,-181 1991,-574 2788,-508 -394,202 -876,360 -1339,552 -577,240 -470,167 -1109,58 -67,-12 -132,-16 -192,-32 -216,-57 -84,-29 -148,-70zm-3674 5162c392,-153 661,-534 1025,-754l794 -544c817,-386 2133,-1072 2856,-1320 1048,-360 2123,-560 2991,-1127 194,-126 170,-47 319,-127 117,-63 322,-381 376,-567 157,-532 -348,-925 -568,-1181 239,-28 203,-5 359,-107 -202,-97 -250,34 -418,49 -203,18 -841,-593 -3485,238 -1550,487 -1049,94 -2512,942 -674,391 -235,236 -817,356l72 174c-247,103 -500,390 -689,541l-518 422c-77,129 -26,-21 36,152 -704,480 -102,44 -595,632l-632 759c-350,483 -356,710 -529,861 -423,367 -954,1662 -1062,2166 249,-24 144,-22 275,-233 445,86 779,290 1526,-358 240,-208 577,-355 1064,-830l106 -114c6,-6 17,-20 26,-30z"/><path class="fil0" d="M13478 36104c80,63 48,41 97,93l62 80c-319,92 -801,366 -1099,349 -248,-14 -185,-33 -369,-269 -116,-149 -215,-243 -272,-452 284,-243 588,-334 934,-155 179,92 287,142 441,227 42,24 204,125 206,127zm1156 -2309c129,-82 384,-116 562,-123 -41,177 -103,302 -168,424 -125,-85 5,9 -116,-89l-278 -212zm-2233 -1732c33,87 -56,48 55,119l-287 161 744 90c-139,145 -576,267 -816,346 -293,96 -471,229 -686,383 239,91 602,-188 1204,-422 194,-76 443,-224 667,-225 121,-1 613,113 707,167 -180,137 -618,247 -860,347 -358,148 -511,288 -958,253l-19 71c-101,276 -632,236 -808,554 257,122 767,-492 1326,-457 573,37 1072,164 1570,288 -83,77 52,-1 -145,94l-968 365c-457,169 -871,-250 -1201,-123l190 120c1,0 162,29 182,33 167,31 261,55 391,125 -221,198 -555,149 -1026,674 301,-38 305,-201 573,-330 1244,-602 1055,-22 1950,182 -10,-12 -24,-28 -31,-36l-95 -97c-52,-45 -79,-59 -134,-91 -296,-171 -646,-238 -794,-351 1136,-457 1181,-602 1767,-203 12,239 -291,829 -414,1118 -402,951 -387,1948 -886,2065 -250,58 -815,-108 -994,-454 282,-81 88,-50 351,-190 386,-204 808,-286 1090,-408 -192,-97 -145,46 -409,-115 -102,-62 -203,-155 -328,-231 -210,-126 -514,-234 -681,-346 524,-195 919,-341 1493,-473 -253,-92 -983,167 -1238,275 -290,122 -314,182 -643,57 -212,-80 -407,-117 -576,-213 81,415 294,95 650,429 -187,50 -350,139 -503,206 -106,-313 -242,-365 -351,-705 -84,-265 -132,-527 -211,-794 -214,-724 -24,-1685 210,-1693 173,-6 -18,81 183,-27 131,-70 109,-121 186,-211l573 -327zm502 -441c283,126 297,-101 717,-54 -78,73 -16,42 -148,93l-518 129 -51 -168zm0 0c-333,87 -164,59 -167,98 -7,84 272,-86 -60,177l-275 166c65,-140 18,-40 71,-186 -482,136 -376,44 -719,333 -176,148 -404,234 -528,471 -457,873 -61,1731 103,2409 97,402 156,409 308,691 477,883 711,860 607,1226 433,-58 207,71 621,276 1118,553 1175,-187 1428,-1090 125,-446 297,-1002 510,-1436 167,-340 547,-985 568,-1328 -55,177 -312,171 -560,223 -494,105 -796,-150 -1781,-268 -56,-7 -129,-17 -187,-35 -108,-35 -69,-17 -133,-65 1454,-382 1131,-907 2629,-47 -136,-314 -743,-406 -857,-567l918 -130c49,85 38,24 35,171 0,15 -29,105 -35,129 216,-101 -3,-58 247,-220l-48 373c3,-101 129,-524 159,-667 29,-139 48,-281 33,-425 -8,-87 -13,-111 -47,-180 -91,-187 -353,-130 -706,-127 165,55 119,36 310,68 342,57 426,204 293,531 -49,121 -77,206 -185,270 -391,2 -820,123 -1071,150l-928 -209c239,-124 523,-150 762,-235 233,-82 529,-136 737,-210 -129,-57 32,-43 -200,-23l-623 149c-356,82 -471,-102 -888,-61 167,131 255,63 451,158l-81 42c-173,80 -351,133 -547,123 -164,-10 -442,-59 -568,-165 252,-276 529,-216 830,-296 273,-74 189,-105 452,-136l147 -15c66,-18 47,-56 208,-78 293,-39 45,100 432,-81 604,-281 1227,32 1422,32 -320,-637 -1568,-200 -1960,-118 -448,94 -533,-336 -1127,132z"/><path class="fil0" d="M37430 12826l-99 -44c110,-294 -27,-339 198,-712 150,-247 163,-400 418,-528 580,-293 937,16 1210,394 236,328 444,827 551,1292 116,509 234,1164 -192,1480 47,840 -306,1660 -573,2329 -396,-18 -922,262 -1214,406l-1054 520c-9,5 -24,19 -37,28 48,30 45,124 308,11 427,-183 1492,-910 1963,-874 -75,292 -86,243 -228,418 10,586 -363,708 -293,1054l468 -799 644 -1918c68,-269 127,-76 305,-972 178,-890 222,-1391 -92,-2200 -181,-468 -597,-1347 -1103,-1503 -321,-27 -913,247 -1031,457 -97,174 -154,336 -261,521 -183,315 -60,310 -114,668 -116,44 -167,59 -296,99 -292,91 -205,94 -248,141l508 -137c-77,260 -148,565 -146,867l-241 70c49,60 82,11 214,146l-121 649c-244,49 -271,32 -370,185 152,101 113,38 347,-28 -43,220 -117,390 -158,607 -137,728 -721,4458 -476,4658 437,357 1534,-355 1874,-1135 13,-28 50,-84 82,-153 -320,32 -348,253 -809,705 -167,164 -690,706 -1003,435 -9,-14 -22,-50 -25,-42l-38 -484c11,-218 65,-347 85,-505 49,-372 14,-697 93,-1070 69,-322 63,-690 136,-1026 69,-320 122,-705 158,-1019 180,-80 373,-153 595,-241 375,-148 883,-485 1577,-649 32,-8 173,-35 181,-38 130,-44 84,-26 156,-90 -987,9 -1590,634 -2469,825 92,-939 289,-907 791,-1147l1358 -618c-681,80 -1568,717 -1953,737l155 -795c371,-102 1709,-602 1929,-795 -441,33 -1304,568 -1918,685 11,-311 45,-689 258,-865z"/><path class="fil0" d="M22591 32996c14,-126 74,-111 131,-127l-131 127zm246 -363c-48,141 25,87 -150,89l150 -89zm285 -123l-154 78c15,-127 45,-100 154,-78zm-2101 -537c79,25 -1,43 90,16 251,-75 -37,-133 305,-301 425,-208 678,-293 1102,-2 625,429 -61,1193 -418,1519 35,16 385,23 -185,261 -644,269 -763,460 -1078,413 -244,-37 -380,-77 -549,-195 -107,-303 21,-685 145,-919 67,-125 158,-253 225,-338 179,-228 74,-61 90,-352l189 -143 84 41zm247 2152c194,-112 518,-133 658,-260l943 -950c253,-332 376,-139 409,-603l-298 43c-32,-532 -85,-436 -352,-722 -195,-207 -346,-310 -680,-267 -483,60 -1034,340 -1350,671 -144,151 -310,394 -373,630 -96,355 -651,1625 661,1382 295,-54 95,-11 382,76z"/><path class="fil0" d="M22079 46244c-802,-299 -1098,-2774 -1029,-3085 -242,-25 -174,75 -141,317 22,169 20,345 62,507 84,332 114,607 218,957 74,252 189,639 307,851 342,609 702,775 794,302 -136,108 -41,79 -211,151z"/><path class="fil0" d="M16282 45876c255,-7 197,58 318,-123 -87,-38 -76,3 -246,-1 -432,-550 -492,-806 -719,-1570l-347 -1863c-44,80 -9,-102 -44,108l110 884c64,320 116,639 204,965 381,1419 606,1326 724,1600z"/><path class="fil0" d="M18683 42551c-259,489 13,2545 160,3232 86,403 191,652 511,654l-103 -81c-56,-43 -22,1 -93,-72 -20,-20 -92,-135 -108,-170 -66,-142 -105,-300 -133,-423 -175,-780 -231,-1829 -192,-2658l-42 -482z"/><path class="fil0" d="M17503 33684c297,-257 1277,-441 1458,-558 -718,8 -1064,321 -1614,494 -164,-69 -131,-88 -350,-103 57,129 10,41 101,137l94 88c-243,79 -925,344 -945,644 182,-91 326,-225 482,-318 758,-452 578,-309 1241,11 -167,-331 -208,-193 -467,-395z"/><path class="fil0" d="M18313 46234c196,-107 74,-2 131,-146 -174,93 -170,41 -272,-152 -315,-599 -797,-2465 -748,-3025 -40,35 -88,-22 -129,184 -43,210 527,2698 1018,3139z"/><path class="fil0" d="M36790 16878c163,143 331,25 561,-92l1492 -617c189,-76 63,-8 163,-97 -426,23 -1311,365 -1684,574 -226,127 -438,104 -532,232z"/><path class="fil0" d="M20162 45529c18,-116 8,24 9,-100l-256 -1853c-38,-307 82,-469 -7,-650 -155,244 -130,308 -98,666 21,220 48,453 83,694 54,371 129,1043 237,1329l32 -86z"/><path class="fil0" d="M29441 22934c331,-43 350,-181 824,-432 356,-188 391,-157 679,-269l219 -137c-688,168 -1272,457 -1722,838z"/><path class="fil0" d="M33647 16484c405,4 602,-195 1019,-212l-158 132c-7,6 -22,19 -33,30 108,-39 453,-200 512,-280 -178,-70 -791,106 -1036,179 -1,0 -164,59 -167,60 -129,61 -110,66 -137,91z"/><path class="fil0" d="M36783 18818c225,-26 1199,-532 1338,-663 -264,49 -495,183 -718,298 -506,263 -553,116 -620,365z"/><path class="fil0" d="M25635 39738c19,25 -26,167 514,397 229,98 400,204 657,242 -186,-170 -636,-321 -856,-490 -141,-107 -119,-128 -315,-149z"/><path class="fil0" d="M27084 26780c334,26 239,-112 531,-26 -10,-240 -56,-105 -250,-104 -328,1 -862,-379 -1279,-367l1051 397c-93,55 -21,37 -53,100z"/><path class="fil0" d="M37430 12826c291,-36 1430,-537 1608,-669 -190,8 -1072,416 -1386,537l-222 132z"/><path class="fil0" d="M25820 42463c304,64 579,-6 868,-106 57,-20 66,-23 130,-58l80 -69c-105,19 -1056,222 -1078,233z"/><path class="fil0" d="M40336 21459c170,-128 181,-402 250,-598 -159,103 -296,391 -303,426 -56,258 31,138 53,172z"/><path class="fil0" d="M10555 38804c76,128 693,773 886,880 -77,-127 -721,-808 -886,-880z"/><path class="fil0" d="M39656 30695l59 -82c78,-233 171,-554 30,-776l-89 858z"/><path class="fil0" d="M13166 28898c-422,66 -418,507 1,334l-210 -111c49,-58 43,-46 106,-109l103 -114z"/><path class="fil0" d="M39578 14456c10,-355 8,-590 -107,-903 -43,176 68,768 107,903z"/><path class="fil0" d="M33003 18400c134,117 197,118 383,187 163,60 235,124 394,174 -111,-170 -544,-323 -777,-361z"/><path class="fil0" d="M38229 33275c51,-101 79,-197 149,-321 86,-154 113,-172 120,-363 -198,170 -189,363 -269,684z"/><path class="fil0" d="M35441 29948l235 216c178,181 60,135 151,262l19 -265 -405 -213z"/><path class="fil0" d="M26641 40972l458 -45c-47,-50 -103,-237 -458,45z"/><path class="fil0" d="M27866 20327c11,8 26,9 31,25 24,72 940,211 1049,212l-1080 -237z"/><path class="fil0" d="M31927 20101c121,109 374,187 566,244 -64,-75 -10,-79 -247,-163 -138,-48 -178,-65 -319,-81z"/><path class="fil0" d="M26641 40972c-213,-25 -199,-21 -342,55 45,23 -95,97 195,27 292,-71 74,-29 147,-82z"/><path class="fil0" d="M40565 9920c-41,-105 -79,-167 -133,-263 -4,-8 -61,-105 -62,-106 -51,-71 -46,-49 -85,-83 34,127 25,107 102,237 2,3 64,102 65,103 69,90 59,68 113,112z"/><path class="fil0" d="M34345 8864c24,18 2,41 130,75 268,70 146,-7 169,-19 -123,-71 -192,-102 -299,-56z"/><path class="fil0" d="M14330 32279c37,31 -58,54 149,102 281,67 70,6 152,-49l-301 -53z"/><path class="fil0" d="M26536 13822l95 61c49,-105 89,-156 109,-280l-204 219z"/><path class="fil0" d="M19659 25918l-153 -173c-120,-95 -136,-94 -292,-142l248 183c95,52 148,80 197,132z"/><path class="fil0" d="M21902 29733c75,5 105,47 235,-56 -190,-74 -220,45 -235,56z"/><path class="fil0" d="M27866 12767c194,-37 176,-3 213,-154 -146,81 -102,16 -213,154z"/><path class="fil0" d="M38388 18600c-169,85 -80,-18 -172,187 171,-87 60,77 172,-187z"/><path class="fil0" d="M27644 12481l-204 39c146,114 123,104 204,-39z"/><path class="fil0" d="M32935 19384l388 -115c-103,8 -144,4 -249,36 -153,48 -121,65 -139,79z"/><path class="fil0" d="M35880 24838c36,42 -63,58 85,76 135,16 20,14 102,-35l-187 -41z"/><path class="fil0" d="M34976 13597c6,17 189,79 100,-10 -31,-30 -151,-118 -100,10z"/><path class="fil0" d="M30198 37803c139,-30 199,-37 276,-148l-276 148z"/><path class="fil0" d="M33590 19532c-82,-86 -79,-122 -238,-121l238 121z"/><path class="fil0" d="M37602 35970l197 -188c-170,73 -67,-11 -197,188z"/><path class="fil0" d="M33459 17519c36,45 -111,22 124,111 -62,-124 28,-18 -124,-111z"/><path class="fil0" d="M34858 18405c-54,218 -133,159 -71,292l71 -292z"/><path class="fil0" d="M34713 15563c-57,-101 22,-73 -161,-135l161 135z"/><path class="fil0" d="M36194 37110c28,-61 54,-99 87,-213 -9,13 -25,16 -28,37l-42 71c-25,69 -15,39 -17,105z"/><path class="fil0" d="M37896 34181c71,-152 71,187 76,-132 -91,105 -16,-15 -76,132z"/><path class="fil0" d="M35321 37797c-99,74 -70,11 -101,170l101 -170z"/><path class="fil0" d="M37768 34362l-146 205c105,-99 70,-47 146,-205z"/><path class="fil0" d="M32395 19104c0,2 42,60 47,-5 2,-29 -69,-99 -47,5z"/><path class="fil0" d="M33974 17824c10,58 30,139 38,5 3,-52 -43,-37 -38,-5z"/><path class="fil0" d="M34613 34296c-36,72 46,-19 46,-20 13,-71 -10,-51 -46,20z"/><path class="fil0" d="M37768 34362l88 -94c-57,28 -44,43 -88,94z"/><path class="fil0" d="M39757 29800c112,-115 124,153 63,-64l-63 64z"/><polygon class="fil0" points="9832,41143 9873,41289 "/><polygon class="fil0" points="29133,31264 29226,31151 "/><polygon class="fil0" points="28256,22826 28508,22925 "/></g><text x="0" y="50815" fill="#000000" font-size="5px" font-weight="bold" font-family="'Helvetica Neue', Helvetica, Arial-Unicode, Arial, Sans-serif">Created by Alex Muravev</text><text x="0" y="50820" fill="#000000" font-size="5px" font-weight="bold" font-family="'Helvetica Neue', Helvetica, Arial-Unicode, Arial, Sans-serif">from the Noun Project</text></svg>