<?xml version="1.0" encoding="UTF-8"?>
<svg id="katman_2" data-name="katman 2" xmlns="http://www.w3.org/2000/svg" viewBox="0 0 82 82">
  <g id="katman_1" data-name="katman 1">
    <path d="M41,0C18.4,0,0,18.4,0,41s18.4,41,41,41,41-18.4,41-41S63.6,0,41,0ZM41,79c-21,0-38-17-38-38S20,3,41,3s38,17,38,38-17,38-38,38ZM53.9,16.9c-.1-.3-.3-.5-.5-.7v-3.8c0-1.3-.9-2.4-2-2.4h-20.8c-1.1,0-2,1-2,2.4v3.8c-.2.2-.3.4-.5.7l-2.9,7.3c-.2.3-.2.5-.2.8v44.9c0,1.1.9,2,1.9,2h28.2c1.1,0,1.9-.9,1.9-2V25c0-.3-.1-.6-.2-.8l-2.9-7.3ZM30.4,12.4c0-.3.1-.5.1-.5h20.8s.2.2.2.5v3.2h-21.1v-3.2ZM29.9,17.6l22.3.1,2.7,6.7h-27.8l2.8-6.8ZM55.1,69.9v.1h-28.1s-.1-.1-.1-.2V26.2h28.2s0,43.7,0,43.7Z"/>
  </g>
</svg>