<?xml version="1.0" encoding="UTF-8"?>
<svg id="katman_2" data-name="katman 2" xmlns="http://www.w3.org/2000/svg" viewBox="0 0 85 85">
  <defs>
    <style>
      .cls-1 {
        fill: none;
        stroke: #1d1d1b;
        stroke-miterlimit: 10;
        stroke-width: 3px;
      }
    </style>
  </defs>
  <g id="katman_1" data-name="katman 1">
    <g>
      <g>
        <path d="M54.39,34.94v-3.88c0-2.63-2.11-4.74-4.74-4.74h-1.83l-2.68-8.96c-.34-1.14-1.43-1.94-2.63-1.94s-2.28.8-2.63,1.94l-2.68,8.96h-1.83c-2.63,0-4.74,2.11-4.74,4.74v3.88c-2.11,1.48-3.42,3.88-3.42,6.45v.34l1.03,21.63c.17,3.48,3.02,6.22,6.56,6.22h15.35c3.48,0,6.39-2.74,6.56-6.22l1.03-21.63c.17-2.68-1.14-5.25-3.37-6.79ZM42.52,19.64l2,6.68h-4l2-6.68ZM33.79,31.06c0-.86.68-1.6,1.6-1.6h14.27c.86,0,1.6.68,1.6,1.6v2.68h-17.46v-2.68ZM53.59,63.25c-.11,1.83-1.6,3.25-3.37,3.25h-15.35c-1.83,0-3.31-1.43-3.42-3.25l-1.03-21.57c-.11-1.94,1.03-3.77,2.85-4.57l.4-.17h17.75l.4.17c1.77.8,2.91,2.63,2.85,4.57l-1.08,21.57Z"/>
        <circle cx="36.98" cy="60.73" r="2"/>
        <path d="M48.11,58.74c-1.08,0-2,.91-2,2s.91,2,2,2,2-.91,2-2c0-1.14-.91-2-2-2Z"/>
        <path d="M42.52,54.57c-1.08,0-2,.91-2,2s.91,2,2,2,2-.91,2-2-.86-2-2-2Z"/>
        <path d="M42.52,45.15c-1.08,0-2,.91-2,2s.91,2,2,2,2-.91,2-2-.86-2-2-2Z"/>
        <circle cx="36.98" cy="51.89" r="2"/>
        <path d="M48.11,49.89c-1.08,0-2,.91-2,2s.91,2,2,2,2-.91,2-2c0-1.14-.91-2-2-2Z"/>
        <circle cx="36.98" cy="43.04" r="2"/>
        <path d="M48.11,41.04c-1.08,0-2,.91-2,2s.91,2,2,2,2-.91,2-2c0-1.14-.91-2-2-2Z"/>
      </g>
      <circle class="cls-1" cx="42.5" cy="42.5" r="41"/>
    </g>
  </g>
</svg>