<svg xmlns="http://www.w3.org/2000/svg" xmlns:xlink="http://www.w3.org/1999/xlink" xml:space="preserve" version="1.1" style="shape-rendering:geometricPrecision;text-rendering:geometricPrecision;image-rendering:optimizeQuality;" viewBox="0 0 50800 63500" x="0px" y="0px" fill-rule="evenodd" clip-rule="evenodd"><g><path d="M28390 9604c735,485 3621,711 4552,647 1252,-87 737,-787 1940,-145 893,476 1083,386 1574,1318 -2381,-85 -5502,-867 -7841,-558 1821,1451 8235,901 8587,1023 468,315 1724,1543 1904,2030 -1342,-76 -8472,-360 -9214,81 751,631 3473,797 4566,781 872,-13 1795,94 2644,-91 664,-145 1888,-404 2505,-302 871,815 2276,4164 2833,5397 853,1891 1338,4766 1298,6885 -87,4618 -2222,8001 -5010,11377 -3601,4359 -8395,6536 -14108,6096 -2429,-187 -6900,-1746 -8983,-3327l437 -571c-639,-343 -463,49 -1037,-434l-153 261c-221,285 150,118 -242,230 -650,-634 -2468,-1596 -4083,-3818 -913,-1256 -384,-741 -682,-1986 691,21 1699,304 2291,-304 -354,-932 -3277,441 -3723,-2754 588,-4 1220,95 1523,-396 -1036,-604 -1732,452 -1949,-967 34,-21 91,-76 112,-42 21,35 84,-31 114,-39 846,-211 1908,-75 2085,-698 -527,-303 -1683,-250 -2322,-249 -253,-657 -268,-1398 -218,-2101 832,333 3014,927 3586,-6 -830,-529 -2479,-35 -3526,-476 -287,-1238 1474,-7745 2038,-9197 616,-1585 3996,-4769 5396,-5944 787,-660 381,-721 1460,-1271 2412,-1228 3960,-1501 6912,-1700 1611,-109 8767,414 9815,1331l-5081 -81zm16112 14193c19,-1770 186,-1790 -479,-4089 -331,-1142 -884,-2257 -1557,-3235 -2147,-3119 -1433,-2599 -4192,-5374 -1470,-1478 -926,-1133 -2880,-1903 -1231,-486 -2243,-895 -3540,-1242 -2086,-557 -6295,-985 -8400,-624 -3235,555 -7772,1614 -10064,4287 -2974,3467 -4165,3360 -5695,8668 -922,3197 -1059,5236 -817,8565 119,1636 265,2310 967,3786 1705,3580 1370,4935 5846,8509 824,658 5275,2902 6342,3228 5309,1620 3368,438 5895,634 813,64 1348,225 2195,105 1389,-198 2125,-910 3690,-1130 1288,-181 2284,-722 3377,-1406 974,-608 1859,-1305 2687,-2099 2410,-2309 2544,-1188 4267,-5305 576,-1375 2278,-2806 2547,-7023 196,-3087 -199,-3452 -189,-4352z"/><path d="M27050 31609c714,242 703,-59 1331,452 367,299 664,610 1155,751 1578,453 5110,371 6533,-298 631,-297 1816,-1213 1800,-1870 -510,-216 -1021,80 -1567,185 -1226,235 -3779,-661 -4804,-1200 -1992,-1049 -6481,-523 -4448,1980z"/><path d="M12169 31338c-177,1310 1585,1506 2593,1728 3197,705 3265,898 6776,-859 1275,-638 3664,337 3040,-1104 -268,-617 -1863,-1756 -2504,-1910 -2475,-597 -4470,1767 -6192,2407 -1942,722 -1997,-234 -3713,-262z"/><path d="M34858 18781c710,597 799,1672 1897,1430 339,-1639 -1795,-3222 -3248,-3419 -2242,-303 -3622,1862 -5373,1166 -1025,-408 -1676,-864 -891,880 395,879 1289,1127 2195,1244 2814,361 2746,-1911 5420,-1301z"/><path d="M22645 17300c1277,-1495 -2949,-2360 -4053,-2252 -805,79 -1773,494 -2553,859 -1154,540 -1177,778 -2019,1545 -1076,979 297,1564 1016,874 756,-725 922,-1098 2085,-1479 951,-311 1977,-588 2977,-455 793,105 2153,916 2547,908z"/><path d="M20539 20765c-1196,133 -1977,66 -2405,1347 -367,1097 408,1893 1453,2085 2533,465 2914,-3649 952,-3432z"/><path d="M31831 21127c-2804,494 -2030,3785 15,3521 2638,-339 1754,-3833 -15,-3521z"/><path d="M42117 25575c-781,-333 -5749,-460 -6868,-437 463,1333 6255,1749 6868,437z"/><path d="M27211 41007c-131,-200 98,-347 5,-550 -754,99 -1556,693 -587,1143 233,109 1809,138 2242,175 744,62 4168,134 4588,-204 -215,-826 -2100,-611 -2829,-612 -1152,-3 -2263,129 -3419,48z"/><path d="M28726 36923c323,600 1523,429 2177,436 802,7 1625,67 2461,71 1025,6 3696,-201 4534,-644 -29,-24 -80,-89 -99,-58 -19,32 -75,-43 -103,-52l-770 -112c-404,-10 -831,-2 -1237,13 -1109,43 -6594,195 -6963,346z"/><path d="M29103 39247c645,949 6434,815 7148,-152 -1429,-375 -3955,68 -5345,138 -486,25 -1551,-105 -1803,14z"/><path d="M30094 35026c770,639 6569,224 7654,-154l-726 -234c-1107,-139 -6364,31 -6928,388z"/><path d="M41898 23524c-1010,-514 -4711,-340 -6025,-327 539,792 2035,714 2957,779 833,59 2519,170 3068,-452z"/><path d="M34610 15184c591,994 4617,790 5463,129 -30,-22 -81,-82 -99,-51 -18,31 -76,-38 -102,-46l-2400 -280c-823,-33 -2305,-294 -2862,248z"/><path d="M35994 13040c-553,-427 -2606,-343 -3315,-373 -994,-43 -2527,-196 -3434,-76 501,973 5666,863 6749,449z"/><path d="M35818 26977c402,868 5326,836 6000,102 -589,-215 -2146,-192 -2847,-214 -433,-14 -2791,-102 -3153,112z"/><path d="M29141 42606c-717,6 -1496,171 -2211,201 -418,17 -1696,-302 -1041,614 589,822 2780,-107 3252,-815z"/><path d="M36478 21241c774,536 3070,797 3837,205 -114,-84 44,-75 -353,-156l-3042 -228c-621,88 -243,36 -442,179z"/><path d="M13569 36376c-296,-367 -763,-292 -1317,-368 -929,-127 -807,-302 -1312,-417 -460,1272 2116,1482 2629,785z"/><path d="M14895 38290c-514,-228 -800,-118 -1338,-170 -696,-67 -576,-278 -1097,-367 -153,1446 2088,1070 2435,537z"/><path d="M41279 18481l-2699 -430c431,603 2278,1226 2699,430z"/></g></svg>