<?xml version="1.0" encoding="UTF-8"?>
<svg id="katman_2" data-name="katman 2" xmlns="http://www.w3.org/2000/svg" viewBox="0 0 82 82">
  <g id="katman_1" data-name="katman 1">
    <g>
      <path d="M60.25,23.41c-2.35-1.15-5.1-1.11-7.74.12-2.57,1.2-4.73,3.39-6.1,6.17-1.23,2.51-1.69,5.3-1.28,7.86.07.48-.26.86-.62,1.03-1.11.51-2.14,1.2-3.08,2.03-.64-.76-1.34-1.45-2.1-2.06-.52-.42-.72-1.07-.49-1.61,1.19-2.85,1.45-6.2.73-9.45-.79-3.61-2.68-6.75-5.31-8.86-2.69-2.16-5.84-2.98-8.86-2.32-6.16,1.35-9.83,8.57-8.17,16.09.71,3.25,2.36,6.19,4.63,8.27.44.4.53,1.07.23,1.67-1.64,3.28-2.07,7.25-1.21,11.17,1.6,7.27,7.24,12.39,13.17,12.39.73,0,1.47-.08,2.2-.24,2.45-.54,4.59-1.93,6.21-4,1,.37,2.04.56,3.1.56,4.28,0,8.75-2.92,11.1-7.73,1.48-3.02,1.92-6.34,1.24-9.34h0c-.11-.47.07-.92.43-1.13,2.27-1.25,4.2-3.32,5.43-5.83,1.37-2.78,1.77-5.84,1.15-8.6-.64-2.84-2.29-5.04-4.64-6.19ZM59.92,25.4c.57,1.78.58,4,0,6.32-.72-.62-1.53-1.16-2.4-1.62l2.32-4.74s.05.03.07.04ZM53.22,36.61l-2.52,5.14c-.54-.27-1.07-.53-1.56-.78.7-1.07,1.15-2.31,1.25-3.59.05-.6.15-1.21.28-1.82.84.3,1.69.64,2.55,1.05ZM50.91,34.57c.27-.95.63-1.9,1.08-2.82.36-.74.78-1.44,1.23-2.1.99.17,1.99.47,2.98.9l-2.52,5.15c-.93-.44-1.85-.82-2.76-1.13ZM50.26,42.65l-2.52,5.14c-1.14-.59-2.2-1.25-3.13-1.95.87-1.2,1.84-2.26,2.93-3.12.36-.28.68-.6.98-.94.54.27,1.12.56,1.74.87ZM47.3,48.69l-2.52,5.15c-1.12-.6-2.13-1.35-2.98-2.21.29-1.03.68-2.08,1.19-3.11.32-.65.67-1.26,1.05-1.85.97.72,2.06,1.41,3.27,2.03ZM48.2,49.13c1.23.57,2.44,1.02,3.6,1.34-.23.66-.5,1.32-.82,1.96-.51,1.03-1.09,1.98-1.73,2.84-1.21-.14-2.41-.48-3.57-1l2.52-5.15ZM48.64,48.23l2.52-5.15c.62.3,1.21.59,1.75.85-.09.45-.14.9-.15,1.35-.01,1.38-.26,2.8-.67,4.22-1.12-.31-2.29-.74-3.46-1.28ZM51.6,42.19l2.52-5.15c.84.43,1.65.89,2.39,1.37-.41.48-.83.94-1.28,1.35-.94.86-1.66,1.97-2.07,3.19-.5-.24-1.03-.49-1.57-.76ZM54.56,36.14l2.52-5.15c.94.5,1.79,1.11,2.54,1.8-.24.75-.54,1.51-.91,2.26-.45.92-.98,1.79-1.57,2.58-.81-.52-1.67-1.02-2.59-1.49ZM58.89,24.89s.04.02.07.03l-2.33,4.74c-.91-.41-1.83-.71-2.76-.91,1.04-1.31,2.23-2.39,3.51-3.15.5-.3,1.01-.53,1.5-.71ZM53.32,25.25c1.11-.52,2.23-.77,3.31-.77.23,0,.46.01.69.04-.14.08-.29.14-.43.23-1.53.9-2.94,2.23-4.13,3.83-1.21-.14-2.39-.1-3.5.1,1.1-1.5,2.49-2.69,4.07-3.43ZM48.12,30.54c.11-.23.24-.45.36-.67,1.12-.33,2.35-.45,3.62-.36-.37.57-.71,1.17-1.02,1.8-.47.96-.85,1.95-1.13,2.95-1-.3-1.96-.52-2.85-.65.2-1.04.54-2.08,1.02-3.06ZM47.01,37.27c-.14-.86-.15-1.76-.06-2.66.87.13,1.8.33,2.77.63-.15.69-.27,1.38-.33,2.06-.09,1.15-.5,2.26-1.15,3.21-.69-.35-1.31-.68-1.89-.99.53-.62.79-1.43.66-2.26ZM45.31,40.32c.06-.03.12-.07.17-.1.62.33,1.32.69,2.11,1.09-.21.22-.43.44-.67.63-1.14.9-2.17,2.02-3.09,3.28-.86-.72-1.58-1.47-2.13-2.2,1.05-1.15,2.27-2.08,3.61-2.7ZM40.08,41.98c-.86.98-1.6,2.09-2.2,3.31-.02.03-.03.07-.04.1-.63-1.34-1.38-2.59-2.25-3.69-.26-.33-.48-.69-.69-1.07,1.08-.26,2.11-.51,3.06-.76.06.06.12.12.18.17.71.57,1.35,1.22,1.94,1.93ZM40.42,58.07c-2.02-2.23-2.7-5.77-1.78-9.34.51,1.15,1.21,2.22,2.06,3.17-.54,2.19-.62,4.31-.28,6.18ZM33.48,39.94c-.72.17-1.48.34-2.27.51l-1.53-6.95c1.2-.25,2.38-.43,3.51-.54-.02.8-.07,1.59-.19,2.36-.25,1.54-.07,3.15.47,4.62ZM29.47,32.53l-1.53-6.95c1.34-.25,2.67-.32,3.94-.22.35.92.64,1.88.86,2.88.27,1.24.42,2.5.46,3.72-1.21.11-2.46.3-3.74.56ZM28.49,32.74c-1.27.3-2.48.65-3.63,1.06-.48-1.13-.87-2.33-1.14-3.58-.22-1-.36-2-.42-2.98,1.11-.62,2.34-1.11,3.67-1.45l1.53,6.95ZM28.71,33.72l1.53,6.95c-.79.17-1.55.34-2.27.48-.12-1.56-.63-3.1-1.51-4.39-.43-.64-.81-1.34-1.16-2.06,1.08-.38,2.22-.71,3.41-.99ZM27.76,43.86c.13-.55.2-1.12.22-1.69.77-.16,1.59-.34,2.47-.53l1.53,6.95c-1.6.32-3.17.51-4.66.54-.09-1.83.05-3.61.44-5.27ZM32.19,49.57l1.53,6.95c-1.59.3-3.17.35-4.67.15-.51-1.21-.94-2.51-1.24-3.89-.2-.89-.33-1.78-.42-2.66,1.54-.04,3.16-.22,4.8-.56ZM33.17,49.36c1.27-.3,2.49-.67,3.63-1.11-.65,2.55-.6,5.11.11,7.33-.71.3-1.45.54-2.21.73l-1.53-6.95ZM32.95,48.38l-1.53-6.95c.84-.19,1.66-.37,2.46-.56.26.51.56,1,.91,1.45,1,1.27,1.82,2.75,2.49,4.36-.04.11-.08.23-.12.34-1.3.55-2.72,1.01-4.21,1.36ZM37.27,39.02c-.85.22-1.78.45-2.81.69-.52-1.34-.7-2.81-.47-4.23.14-.84.19-1.71.21-2.6,1.34-.08,2.6-.06,3.74.06-.15,1.14-.43,2.25-.86,3.27-.39.93-.29,1.94.2,2.8ZM37.71,27.9c.3,1.35.4,2.72.32,4.04-1.17-.12-2.45-.15-3.82-.07-.04-1.28-.2-2.57-.48-3.86-.19-.87-.44-1.72-.73-2.54,1.65.26,3.19.79,4.49,1.57.08.28.16.56.22.85ZM33.07,20.11c1.74,1.4,3.11,3.33,3.97,5.58-1.34-.65-2.85-1.09-4.46-1.28-.93-2.23-2.2-4.19-3.73-5.68-.26-.25-.53-.49-.8-.71,1.73.14,3.46.84,5.01,2.09ZM26.43,18.07c.59.38,1.16.83,1.72,1.38,1.33,1.3,2.46,2.97,3.31,4.88-1.21-.05-2.47.04-3.73.28l-1.43-6.51s.09-.02.13-.02ZM25.18,18.35s.09-.03.14-.04l1.43,6.51c-1.25.31-2.43.76-3.51,1.32-.03-2.09.29-4.08.96-5.82.28-.72.61-1.38.98-1.96ZM23.69,18.99c-.15.31-.29.63-.42.96-.77,2-1.1,4.31-1.01,6.73-1.38.84-2.56,1.88-3.51,3.03-.3-4.67,1.66-8.87,4.93-10.72ZM19.08,32c-.06-.29-.11-.58-.15-.86.86-1.26,2.02-2.38,3.42-3.31.08.86.21,1.74.41,2.61.28,1.29.68,2.53,1.18,3.71-1.27.5-2.43,1.06-3.44,1.66-.63-1.17-1.11-2.46-1.41-3.81ZM20.99,36.67c.98-.59,2.11-1.13,3.37-1.62.39.8.8,1.57,1.28,2.27.8,1.19,1.26,2.6,1.34,4.04-1.03.21-1.98.39-2.84.55.08-.98-.26-1.95-1-2.63-.82-.75-1.54-1.64-2.15-2.61ZM26.32,49.14c-1.19-.03-2.31-.15-3.33-.37-.22-.05-.41-.1-.62-.16.12-1.92.58-3.76,1.4-5.4.03-.07.06-.14.09-.21.9-.17,1.93-.37,3.1-.61-.03.42-.08.84-.18,1.25-.41,1.73-.56,3.59-.47,5.5ZM22.72,53.11c-.26-1.17-.37-2.34-.38-3.48.15.04.28.08.43.11,1.1.24,2.33.36,3.61.38.09.95.23,1.91.44,2.88.27,1.22.63,2.38,1.06,3.47-1.8-.39-3.45-1.12-4.85-2.12-.12-.41-.23-.82-.33-1.24ZM23.61,55.9c1.42.81,3.04,1.38,4.76,1.67,1.21,2.65,2.86,4.85,4.73,6.37-3.94-.43-7.61-3.53-9.48-8.04ZM34.81,63.97c-2.05-1.29-3.91-3.47-5.28-6.24.46.04.92.07,1.4.07.98,0,1.99-.11,3-.3l1.41,6.4c-.18.03-.35.06-.53.08ZM36.83,63.53c-.17.06-.34.1-.51.15l-1.41-6.39c.81-.2,1.59-.46,2.34-.77.36.87.83,1.67,1.4,2.38-.17.83-.4,1.64-.69,2.4-.32.83-.7,1.57-1.13,2.24ZM38.41,62.77c.17-.36.34-.73.49-1.12.23-.6.41-1.22.57-1.86.38.37.79.71,1.24,1.01-.68.8-1.45,1.46-2.29,1.98ZM39.51,48.24c-.15-.36-.28-.72-.39-1.08.14-.35.29-.7.46-1.04.41-.84.9-1.61,1.45-2.32.59.75,1.34,1.51,2.22,2.23-.42.65-.81,1.32-1.16,2.03-.43.88-.78,1.78-1.07,2.67-.61-.77-1.13-1.6-1.51-2.49ZM42.06,59.38c-.12-.07-.25-.14-.36-.21-.6-1.82-.67-4.07-.17-6.44.83.77,1.77,1.44,2.81,2l-2.28,4.65ZM42.95,59.82l2.28-4.66c1.08.48,2.19.81,3.31,1-1.57,1.85-3.39,3.18-5.2,3.82-.13-.04-.26-.1-.39-.15ZM45.01,60.31c1.68-.87,3.31-2.24,4.71-4.01.29.02.59.05.88.05.98,0,1.94-.12,2.88-.36-2.26,2.91-5.48,4.54-8.47,4.31ZM54.95,53.66c-.17.34-.35.68-.54,1-.35.13-.71.26-1.09.35-.94.24-1.91.35-2.9.34.53-.77,1.02-1.59,1.46-2.48.35-.71.64-1.43.9-2.16,1.11.25,2.16.38,3.11.38-.23.87-.53,1.73-.94,2.57ZM56.11,50.09c-.91,0-1.93-.1-3.02-.34.43-1.5.67-3,.68-4.46,0-.31.04-.61.08-.92.8.38,1.52.71,2.16,1,.01.07.01.13.03.2.33,1.45.34,2.98.07,4.51ZM57.4,42.37c-.73.4-1.22,1.1-1.38,1.91-.6-.27-1.24-.57-1.94-.89.35-1.09.98-2.11,1.83-2.88.51-.46.98-.98,1.43-1.53.83.58,1.57,1.19,2.2,1.8-.66.63-1.38,1.17-2.15,1.59ZM62.04,37.37c-.48.99-1.1,1.89-1.8,2.68-.65-.63-1.41-1.25-2.27-1.86.61-.83,1.17-1.74,1.64-2.7.31-.63.57-1.27.79-1.91.69.77,1.27,1.61,1.69,2.51.09.2.17.39.24.59-.1.23-.19.46-.31.69ZM62.82,35.32c-.53-1.02-1.23-1.98-2.07-2.83.6-2.16.73-4.26.41-6.1.9.94,1.55,2.17,1.88,3.62.38,1.69.3,3.52-.22,5.3Z"/>
      <path d="M41,0C18.39,0,0,18.39,0,41s18.39,41,41,41,41-18.39,41-41S63.61,0,41,0ZM41,79c-20.95,0-38-17.05-38-38S20.05,3,41,3s38,17.05,38,38-17.05,38-38,38Z"/>
    </g>
  </g>
</svg>