<svg xmlns="http://www.w3.org/2000/svg" xmlns:xlink="http://www.w3.org/1999/xlink" xml:space="preserve" version="1.1" style="shape-rendering:geometricPrecision;text-rendering:geometricPrecision;image-rendering:optimizeQuality;" viewBox="0 0 50800 63500" x="0px" y="0px" fill-rule="evenodd" clip-rule="evenodd"><defs><style type="text/css">
   
    .fil0 {fill:black}
   
  </style></defs><g><path class="fil0" d="M42515 21643c706,-262 472,-587 1568,-709l121 358c182,-64 214,-106 503,-103 647,7 288,42 439,114 31,95 326,-106 -68,546 -4,7 -104,122 -157,212l-77 172c-344,591 -1300,1278 -1855,1660 -271,187 147,92 -527,242l53 -2492zm-32240 -4358c2369,411 8376,-110 11620,-13 1810,55 3967,-122 5783,-194 1916,-77 3756,-69 5657,-159 169,59 -85,364 1879,328 689,-12 1449,12 2136,48l4269 207 133 551c9,486 278,885 369,2000 186,2308 -40,7811 -53,10431 -9,1742 -238,4991 -561,6538 -473,2273 -997,2553 -2361,3838l317 26c-1390,1976 -3103,2142 -3776,2422 -770,320 284,225 -778,475 -2122,501 -4341,517 -6536,654 -936,58 -1229,258 -2217,249 -812,-7 -1605,8 -2426,-18 533,-322 1025,-14 1652,-227 -134,-101 217,-76 -346,-128l-1522 38c-640,8 -1210,52 -1881,69 -1254,31 -2247,-274 -3420,-541 -2200,-500 -2993,-444 -4385,-1691 -515,-460 -583,-360 -1243,-632l-1464 -2817c-497,-1078 -801,-3871 -820,-5066 -42,-2771 -334,-7435 -226,-9802 65,-1405 309,-5528 200,-6586zm1176 -2636c406,-419 323,-714 605,-1250l2378 -3304c913,-1062 3379,-2458 4497,-2899 3490,-1376 2876,-858 6106,-1378 1891,-306 1848,108 3431,237 3284,269 5678,1103 8174,3067 2708,2130 4320,5242 5356,5813 897,494 2525,274 2565,1267 43,1098 -1804,1037 -2813,986 -630,-32 -3476,107 -3756,-240l-258 -278c-2744,-69 -5141,31 -7792,90 -1294,30 -2632,49 -3894,66 -1326,17 -2415,166 -3774,154 -1294,-12 -2745,-90 -4021,-29 -1260,62 -2471,206 -3771,165 -1172,-36 -2925,199 -3935,-98 -1375,-403 -2309,72 -2369,-1744 1068,-457 1856,-514 3271,-625zm12674 -9445c-20,-227 21,-178 57,-267 507,-140 246,233 906,-44 18,20 40,55 50,66 10,10 40,50 53,62l269 167c1961,-660 1476,-83 2886,329 395,-191 321,-290 769,-495l-43 737c-1012,158 -1346,-270 -2353,-352 -999,-82 -1693,184 -2491,147 -20,-63 -102,-343 -103,-350zm706 -475c169,-374 331,-361 671,-514 -165,481 -120,358 -671,514zm-1037 -461c278,-276 -449,-166 297,-285 -126,313 58,157 -297,285zm258 373c189,-460 -76,-185 374,-459 210,-129 293,-153 599,-230 -214,390 -328,582 -973,689zm1898 -498c218,-378 199,-284 604,-578 328,-238 372,-302 738,-452 -153,448 107,108 -280,424l-1062 606zm3502 -283c-221,498 -39,364 -537,633 88,-626 129,-586 398,-1042 -226,72 -385,141 -596,221 98,-299 107,-225 31,-372l-1068 274c20,-36 48,-80 63,-108l216 -454 1821 175c-119,351 -154,279 -328,673zm-4884 -918c232,-56 1715,-169 2098,18 256,125 101,70 248,177l-1349 522c231,-470 75,-130 374,-495 -572,-16 -1292,76 -1897,205 148,-313 -154,-263 526,-427zm-774 -52c-9,713 268,187 -70,702 -188,-161 -48,146 -225,-296 -121,-301 50,-108 -141,-445l222 2129c38,233 0,207 111,361l345 312c-2864,53 -5547,1303 -7912,2740 -1780,1081 -2598,2605 -3836,4204 -349,451 -692,1296 -1107,1674 -1419,455 -3178,-60 -3438,1778 157,298 112,280 380,472 42,30 539,334 542,336 494,222 1040,287 1621,403 -147,582 -196,750 -193,1491 -701,-109 -394,-245 -1008,-544 -445,-216 -772,-271 -1169,-489 -1698,-932 -3353,-533 -4784,629 -712,577 -888,1424 -977,2267 -320,3052 1838,4471 4467,5146 639,165 1741,328 2425,79 517,-188 142,-57 326,-262 -2252,57 -5308,-407 -6418,-2312 -747,-1281 -654,-3483 346,-4613 309,-350 1403,-908 1995,-938 1628,-82 2719,549 4111,1136l571 246c-75,1610 -128,3044 -197,4646 -70,1606 102,3079 46,4648 -48,1376 227,7763 514,8923 289,1172 754,2335 1410,3315 577,863 70,247 127,574 76,431 1077,729 1409,892 834,411 961,1067 2242,1404 315,83 637,130 896,229l343 186c25,13 52,36 77,48 572,272 1761,451 2464,583 3596,678 8063,112 11621,50 1595,-27 2726,-338 4155,-550 738,-110 2675,-1143 3273,-1569 1340,-956 1988,-1872 2655,-3269 405,-850 926,-2697 1040,-3728l206 -3483c212,-1425 225,-3214 173,-4772l324 -385c-167,-94 -189,139 -275,-368 -50,-294 53,-407 77,-655 44,-445 -76,-824 -59,-1391 387,221 722,45 1145,-218 267,-165 816,-408 1024,-606 442,-420 825,-1626 781,-2490 -256,-728 -1634,-835 -2343,-378 -523,337 69,319 -675,486l-87 -2024c553,-464 1023,-672 1902,-853l106 178c1,3 10,24 17,35 1139,-268 2341,-723 3354,487 1067,1273 335,2613 318,3673 -18,1076 -1144,1984 -1919,2518 -926,639 -2234,870 -3273,1243 137,304 -156,489 992,98 2355,-802 4687,-2097 4828,-5035 82,-1715 -510,-3129 -1970,-3588 -841,-264 -1710,-33 -2466,119l-1586 555c-615,306 -536,-59 -573,-1096 1046,12 2433,-15 2710,-923 421,-1376 -785,-1420 -1886,-1623 -695,-128 -77,58 -637,-286 -328,-202 -291,-169 -561,-452 -972,-1022 -1890,-2440 -3434,-4098 -322,-345 -557,-570 -939,-947 -416,-411 -1644,-1319 -2201,-1570 -753,-340 -1697,-955 -2614,-1173l-2741 -555c-84,-10 -332,-56 -454,-73l887 -2397c-322,-749 -247,-526 -1195,-625 -1561,-163 -3735,-549 -5215,84z"/><path class="fil0" d="M38766 23276c352,-274 886,-447 1403,-487l15 2021 -1474 156 56 -1690zm1351 -680l-1342 383c-8,-522 65,-2264 -399,-2402 101,739 210,1541 182,2445 -212,167 118,99 -389,160 40,12 125,39 148,51l171 101c21,12 62,43 93,65l-54 1507 -783 316 777 12 -314 5228c276,-1142 448,-3605 477,-5052 249,-335 71,-187 650,-284 283,-47 471,-70 841,-80l-12 2144c-90,60 -110,86 -277,166l277 119 -90 2730c394,-1137 253,-5045 299,-5147l367 -360 -394 -193 -8 -1887c301,-63 624,-127 779,-366l-838 199c-25,-750 -63,-2137 -325,-2623 -183,389 135,2114 164,2768z"/><path class="fil0" d="M9012 23103c-464,-405 -970,-97 -1938,-610 -1318,-698 -1313,-2658 729,-2496 961,76 1152,541 1896,777 -135,-629 -552,-719 -1173,-926 548,-348 737,109 1251,211 -671,-985 -1291,-311 -2294,-539 -182,-42 -1597,-866 -1884,941 -77,481 -13,881 188,1181 94,140 244,264 363,393 529,579 1262,1306 2469,1200 684,-60 163,1 393,-132z"/><path class="fil0" d="M37421 39088l-547 -356c255,-566 411,-868 817,-1282l77 -244c399,-791 775,-1670 1179,-2476 -405,100 -336,254 -741,1086 -232,478 -439,859 -608,1302 -666,-159 -1152,-633 -1454,-1066 252,-576 889,-1164 1057,-1689 -691,447 -635,951 -1246,1419 -391,-321 -82,-311 -612,-469 7,322 -119,102 142,442l278 292c-331,720 -1739,2016 -2079,2604 756,-418 1537,-1717 2264,-2346 502,231 925,728 1481,1018 -182,455 -533,962 -886,1284 -540,-135 -887,-412 -1557,-374 335,65 915,347 1266,498l-19 785c402,-268 231,-240 557,-573l631 145z"/><path class="fil0" d="M37421 39088c-16,26 -37,38 -46,78l-722 542c-338,228 -602,352 -954,545 -595,327 -1507,599 -2015,915 286,137 1140,-302 1474,-454 1023,-465 593,-343 1824,-414 -354,-109 -304,17 -596,-267 1092,-578 2078,-1547 2708,-1740 -184,488 -300,487 -513,914 200,-109 69,-45 189,-136l146 -116c22,-17 67,-46 86,-60 20,-14 60,-40 91,-59 -175,637 -1114,1763 -1515,2076 766,-323 1710,-1959 2140,-2755 261,-481 548,-682 721,-1052 -414,-171 -286,-149 -574,-454 -5,870 -337,1084 -914,1465 -513,340 -910,838 -1530,972z"/><path class="fil0" d="M45739 20118c339,-149 738,-299 1235,7 274,169 181,153 280,257 -46,703 -389,1109 -716,1574 -262,372 -836,1037 -969,1323 444,-133 475,-264 865,-387 -158,320 -282,443 -563,677 -513,430 -225,140 -543,682 -537,41 -460,47 -878,168 -761,219 -420,-36 -811,325 590,-92 914,-310 1404,-375 -347,425 -1058,709 -1285,1236 262,-137 795,-506 1057,-700 327,-243 1305,-866 1403,-1225 112,-407 -214,321 41,-223 450,-959 794,-105 418,-1489 395,-321 790,-1114 737,-1774 -435,-386 -1369,-797 -1675,-76z"/><path class="fil0" d="M31553 8211l60 341c1283,-402 2022,158 3027,1401 1014,1255 1267,2344 2156,2878l-2004 -3029c-408,-531 -758,-878 -1287,-1224 -394,-257 -957,-502 -1430,-507 -467,-5 -244,-29 -522,140z"/><path class="fil0" d="M41334 16446c-1384,44 -1921,-464 -2711,-958 188,645 1756,1509 2624,1014 734,-419 586,-94 968,-421 -1858,124 -2563,-1001 -3434,-1713 180,613 1173,1334 1745,1632 413,214 436,115 808,446z"/><path class="fil0" d="M38402 12449c-418,-1133 -2876,-3801 -4210,-4035 385,497 1762,1256 2332,1813 325,318 1649,2105 1878,2222z"/><path class="fil0" d="M32076 10116c396,499 338,36 1613,1755 489,661 925,1249 1403,1874 -54,-551 -2832,-4677 -3016,-3629z"/><path class="fil0" d="M24791 42019c-787,-315 -4819,-311 -5596,3l5596 -3z"/><path class="fil0" d="M42940 19983c652,-219 1057,-440 1810,-633 1048,-270 1113,-131 1834,243 -413,-1000 -1890,-507 -2795,-205 -565,189 -657,102 -849,595z"/><path class="fil0" d="M28652 42513c-1144,-55 -5471,-130 -6206,296l6206 -296z"/><path class="fil0" d="M13661 38626c-83,-415 -179,-537 -287,-975 -83,-338 -189,-744 -267,-1099 -156,-718 -173,-1799 -407,-2307 -273,901 497,3929 961,4381z"/><path class="fil0" d="M35024 28338c10,-399 -53,-724 -55,-952l-28 -2163c0,-564 116,-666 -418,-698 156,776 185,1022 239,1956 23,381 184,1600 262,1857z"/><path class="fil0" d="M11588 31751l43 -4815c-319,858 -276,3849 -43,4815z"/><path class="fil0" d="M36630 27450l-211 -5432c-438,1183 162,4254 211,5432z"/><path class="fil0" d="M11185 22957l244 -2819c53,-370 176,-592 8,-850 -234,699 -480,3153 -252,3669z"/><path class="fil0" d="M31992 13087c-111,-445 -246,-733 -482,-1084 -618,-918 -210,-657 -605,-895 -131,175 -152,-89 -108,234 34,254 341,525 499,747 290,409 405,617 696,998z"/><path class="fil0" d="M31801 41115l-1826 -93c-513,206 153,62 -595,262l-559 178 2980 -347z"/><path class="fil0" d="M40461 14758c164,309 1262,941 1670,777 -266,-212 -543,-282 -898,-469 -137,-72 -305,-197 -389,-249 -208,-129 9,-256 -383,-59z"/><path class="fil0" d="M10045 16082l1565 251c100,2 265,7 362,-7 195,-27 190,-59 243,-87 -423,-174 -1861,-300 -2170,-157z"/><path class="fil0" d="M14067 12866c284,-179 501,-683 764,-965 214,-229 655,-529 792,-808 -601,294 -1300,1140 -1556,1773z"/><path class="fil0" d="M9909 15414l2033 -333c-684,-113 -1530,88 -2033,333z"/><path class="fil0" d="M42756 19509c463,-539 819,-503 1371,-910 -515,188 -1268,329 -1371,910z"/><path class="fil0" d="M14483 13923c82,-281 562,-809 756,-1100 -248,382 -662,488 -756,1100z"/><path class="fil0" d="M43221 16116l-418 -315c204,399 -12,92 418,315z"/></g><text x="0" y="50815" fill="#000000" font-size="5px" font-weight="bold" font-family="'Helvetica Neue', Helvetica, Arial-Unicode, Arial, Sans-serif">Created by Alex Muravev</text><text x="0" y="50820" fill="#000000" font-size="5px" font-weight="bold" font-family="'Helvetica Neue', Helvetica, Arial-Unicode, Arial, Sans-serif">from the Noun Project</text></svg>