<svg xmlns="http://www.w3.org/2000/svg" xmlns:xlink="http://www.w3.org/1999/xlink" xml:space="preserve" version="1.1" style="shape-rendering:geometricPrecision;text-rendering:geometricPrecision;image-rendering:optimizeQuality;" viewBox="0 0 50800 63500" x="0px" y="0px" fill-rule="evenodd" clip-rule="evenodd"><defs><style type="text/css">
   
    .fil0 {fill:black}
   
  </style></defs><g><path class="fil0" d="M38518 46220c175,-188 253,-94 832,-82 1111,24 2232,-237 2548,322 -376,233 -2174,140 -2748,63 -315,-42 -618,3 -632,-303zm-5672 -5173c85,204 294,872 67,926 -383,91 -436,-526 -465,-776l398 -150zm-13591 -1251l223 10c78,283 45,536 -53,809 -115,-115 -92,-112 -134,-366 -31,-187 -51,-258 -36,-453zm-207 -719c26,-22 -78,-171 271,-42 328,120 135,16 179,230l-450 -188zm10737 -89c-51,341 -203,803 -287,1155l-348 2453c1,174 79,512 7,630 -464,755 -570,-2655 -566,-2727 77,-1560 183,-3242 1027,-4621 330,-539 716,-1251 1086,-1730 686,-887 1781,-3165 2098,-3468l59 776c-205,118 -198,2 -398,193l319 141 -71 376c-240,52 -235,-14 -421,144l381 135c-10,651 -98,422 -373,594 63,187 336,418 -6,730 -188,172 -511,96 -742,312 104,78 -32,29 141,54 131,19 -5,15 157,-6 65,-9 211,-51 312,-65 -154,721 -826,351 -1086,802 321,128 388,-152 783,-98l-350 706c-328,-50 -673,-47 -922,179l182 60c124,3 96,-14 207,-43 205,-54 129,-62 393,-48l-408 678c-311,-60 -651,-97 -890,198 201,157 357,-104 763,-67 -214,1126 -820,568 -1296,1054 234,159 399,-80 856,-128 -188,934 -338,635 -628,845 84,110 151,130 151,130 274,384 -422,411 -524,824l394 -168zm-10264 -58c-708,-248 -425,-98 -811,-652 -393,-565 -1456,-2112 -1619,-2579 -301,-865 -1211,-3876 -863,-4635 192,0 281,-24 312,218 49,370 44,52 -171,308 215,221 218,39 339,395 -127,257 -61,43 -285,262 111,87 -32,7 149,53 300,75 209,-67 340,124 140,205 -32,280 -119,411 415,205 299,-50 525,518 -254,145 -118,-100 -362,137 89,68 835,118 1074,1019 -294,-44 -608,-176 -780,37 410,339 908,-168 1196,632 -296,-33 -963,-191 -1102,81 347,184 1402,-295 1659,927 -291,-18 -688,-155 -932,-10 117,260 523,-5 1092,393 -315,259 -526,-219 -723,135 366,228 810,-94 837,499 -271,14 -366,-34 -628,86 127,126 26,51 262,87 156,24 423,-95 489,534 -545,-136 -452,-148 -627,-21 152,178 359,75 653,308 -159,115 -438,71 -548,140 367,275 664,-1 643,593zm-3380 -8191c158,-60 -3,-106 196,16 -76,70 51,44 -109,48 -249,7 87,86 -87,-64zm18 -1437c-121,-174 -119,-279 0,-458 89,209 101,275 0,458zm23308 -8312c81,448 257,879 200,1343 -290,-3 -527,-51 -737,143 190,264 318,-101 744,81 203,615 106,3106 -260,3606 -292,96 -1097,-19 -1284,121 122,329 637,-17 1251,99 19,319 -130,499 -209,784 -258,-76 -769,-213 -933,31 302,255 1282,-371 587,894 -392,-11 -1156,-50 -1437,166 226,228 895,-70 1348,9 -16,260 -787,1951 -927,2119 -184,18 -362,-48 -696,11 -235,42 -548,67 -733,145 97,179 -17,152 323,115 219,-23 596,-168 1007,-186 -207,498 -1053,2071 -1364,2505l-1534 2278c-312,-83 -874,-197 -1197,117 180,100 792,-93 1120,-51l-889 1718c-257,-62 -431,-177 -651,-11 169,150 228,61 514,152 14,709 -440,357 -763,576 107,107 -48,3 135,64 383,128 -336,-83 101,25 148,36 -16,-64 214,48l-279 701c-265,-56 -220,-186 -431,14 178,218 -14,1 276,138l94 54c-172,507 -182,797 -186,1327 -252,-132 -102,-184 -316,-79 89,209 95,120 344,240l-65 640 -463 8c-318,-1804 -42,-4013 580,-5724 605,-1661 1328,-2914 2167,-4446 558,-1021 1898,-3360 2270,-4343 705,-1867 983,-3463 1227,-5408l852 -24zm-774 -1649l297 23c-30,305 -14,-21 -190,306 478,341 507,327 170,653 284,187 365,44 444,468l-764 94 43 -1544zm2 -74c-131,-342 -75,-668 -50,-1030 89,159 153,375 207,569 80,288 91,294 -157,461zm-14700 -10732c49,-410 105,-242 523,-280 -122,-172 -173,-120 -344,-195l-94 -48c8,-416 69,-777 70,-1249 1,-328 -121,-930 1,-1109 405,529 631,3207 399,3866 -257,99 -287,-23 -442,221l445 -11 -85 505c-252,-92 -325,-136 -529,1 139,104 287,131 490,176 -10,526 -104,659 -209,1131 -250,-42 -294,-137 -511,3 100,194 120,26 424,218 16,247 -31,405 -124,626 -239,-136 -551,-254 -724,6 16,9 40,12 52,15l164 35c174,36 338,101 394,279 -319,201 -477,-97 -697,196 309,184 202,-23 520,111 66,220 37,227 -71,439 -250,15 -321,-186 -576,98 17,12 41,18 56,23 184,70 179,16 369,126 25,497 -452,1641 -668,2140 -227,-123 -559,-189 -673,66 210,135 211,-38 529,38 249,791 -404,304 -809,551 101,221 328,56 707,111l-214 556c-301,-56 -385,-186 -774,0 121,262 189,15 673,170l-209 542c-322,-26 -905,-76 -1113,192 213,136 575,-102 1031,-43 -43,301 -701,1847 -872,2187 -246,489 -354,1884 -561,2524 -291,-76 -1204,-165 -1340,192 239,112 811,-166 1141,-118 265,39 51,-6 169,51 -1,241 -119,451 -180,701 -282,-8 -819,-205 -963,10 442,387 1161,-376 948,964 -353,-12 -650,-159 -999,37 94,166 588,42 1029,85l86 844c-310,-50 -1019,-188 -1189,111 109,53 999,-20 1249,-18l156 916c-299,-41 -857,-225 -1061,-46 307,237 895,-26 1143,270 2,2 406,876 461,984 161,314 377,582 525,916l1202 2991c217,598 445,444 539,922 74,375 202,749 242,1119l-926 63c-218,13 -45,-3 -176,28l-101 48c302,269 766,-77 1074,65 -225,392 -540,167 -589,516 207,126 327,94 568,58 -88,-226 -56,-43 -169,-238l364 -260c255,372 180,1151 167,1616 -300,-66 -372,-131 -672,-59l373 152c141,41 201,48 335,116l13 405 -569 130c109,212 204,69 428,77 180,7 36,-29 146,34 -85,305 -117,141 -456,265 193,249 170,19 458,124 162,463 145,1962 115,2500 -18,314 27,2048 -447,2141 -171,-335 -23,-1251 -46,-1689l302 -147c-8,-20 -111,-234 -114,-238l-55 -52c-287,-272 236,212 -67,-55 -116,-102 -20,80 -107,-110l337 -182 -326 -68c-85,-688 49,-110 252,-454 -204,-145 -158,-23 -284,-263 118,-330 10,-50 269,-260 -228,-135 -253,83 -299,-207 -48,-299 14,-130 269,-253 -218,-151 -119,-15 -336,-127 -307,-1379 -955,-2269 -1709,-3407 -343,-517 -673,-1017 -1025,-1530 -351,-512 -568,-997 -960,-1529 -777,-1058 -1360,-2155 -1676,-3440 -301,-1223 -459,-3268 -95,-4472 799,-2643 319,-1342 1517,-3588 300,-564 634,-1083 891,-1664 219,-497 561,-1194 841,-1651l1549 -3493c225,-613 449,-1266 662,-1884 238,-693 334,-1304 540,-1974 227,14 385,72 500,2 -94,-214 -278,-106 -472,-194zm8724 -5556c-13,303 82,303 -226,356l226 -356zm38 -150c83,-310 346,-736 608,-916l-262 1105 -346 -189zm-3190 29656c781,-1447 1402,-2989 1943,-4542 101,-290 269,-574 371,-874 522,-1541 729,-2704 1155,-4019 164,-507 63,-546 151,-1031 301,-1658 271,-1698 81,-3483 -82,-771 -169,-1565 -285,-2331 -36,-242 -3,-381 -18,-537 -6,-74 -116,-289 -147,-465l-436 -3461 190 -5011c121,-693 347,-1471 433,-2126 140,-1065 420,-2097 750,-3112 143,-440 455,-473 331,-853 -279,18 -184,143 -369,359 -292,341 -776,1186 -1074,1288 101,327 95,265 -66,587l-750 1609c-181,409 -296,690 -455,1115 -386,1032 -721,2746 -858,3851 -60,487 -143,2346 -45,2787 89,-830 49,-1727 123,-2570 189,-2171 908,-4251 1825,-6155l495 70c59,286 -74,941 -154,1244 -287,47 -543,-72 -733,112 145,241 304,22 682,149 -51,518 -263,1325 -365,1875 -140,749 -15,1472 -66,2240 -302,-14 -503,-161 -704,3 123,221 326,54 641,245 78,405 13,736 12,1142 -281,-94 -314,-262 -599,-91 85,204 -90,67 239,150 116,30 195,54 311,84l-19 692c-303,-36 -506,-166 -691,54 211,152 43,71 347,89 196,11 135,-4 352,51l71 934c-264,-33 -501,-234 -777,-91 69,227 484,132 838,317l106 840c-263,-124 -527,-268 -744,-44 168,109 542,137 805,158l131 996 -819 -271c-39,377 454,302 805,458l102 574c-252,2 -606,-86 -805,62 158,233 503,91 840,140l142 1022c-261,-57 -776,-166 -946,6 183,159 663,81 959,144l141 998c-328,-17 -611,-206 -790,-85 132,213 564,194 780,309 91,173 215,726 206,941 -274,-36 -763,-176 -946,50l268 93c49,2 194,-16 269,-15 215,4 264,20 436,127 165,1033 -79,2258 -317,3264 -252,1 -830,-132 -1019,60 147,80 699,62 920,69 -27,410 -53,921 -238,1290 -363,68 -909,-34 -1217,157 149,295 661,-72 1132,40 38,354 -658,2690 -846,3073 -278,47 -789,146 -997,298 220,223 521,-41 865,-103l-391 1114c-266,44 -863,72 -1013,281 268,193 466,-65 874,-79 -115,775 -1512,3714 -2011,4525 -101,163 -142,302 -224,432 -88,140 -189,208 -279,380 -323,626 -432,1119 -853,1704 -232,-27 -444,-92 -627,113 189,82 294,15 529,4 -57,277 -240,525 -373,782 -259,504 -450,124 -651,471 211,104 162,48 409,-15 -57,377 -173,389 -252,682 -148,547 -145,147 -456,439l311 135c-52,337 -133,319 -382,527 83,105 152,73 249,131l6 3150c1,45 1,147 -5,188 -14,109 -38,106 -51,128 -220,-151 -178,-674 -235,-961 -366,-1855 -421,-3318 -216,-5217 81,-755 340,-1130 495,-1806 359,-1562 1254,-3444 2034,-4850 557,-1004 874,-2236 1399,-3249 330,-638 377,-1048 648,-1650 335,-741 651,-2957 746,-3821 90,-813 -158,-3399 -298,-4266 -104,-640 -257,-1375 -292,-2013 -11,-192 -120,-2149 -129,-2150l87 2118c165,1390 461,2759 415,4160 -16,484 70,567 121,988 140,1159 -335,3897 -787,4912 -208,467 -127,590 -251,931 -85,234 -310,504 -403,711 -457,1025 -818,2171 -1356,3164 -259,478 -571,1013 -787,1508 -486,1114 -1605,3815 -1789,5031 -165,1090 -199,2224 -178,3323 20,986 445,1965 401,2934 -128,-18 -1883,-684 -1958,-738 -41,-230 194,-755 212,-1083 25,-449 2,-869 43,-1338 45,-519 -194,-4590 -294,-5151 -140,-791 -429,-1370 -590,-2094l-58 -12c-168,-61 113,94 -59,-20 -130,-87 -157,-275 -202,-422l-1229 -2914c-322,-826 -475,-724 -522,-1037 -99,-665 -460,-1276 -625,-1948 -476,-1931 357,-5071 1211,-6851 464,-966 795,-2038 1144,-3047 545,-1576 1185,-3051 1526,-4697l253 -2698c-20,-348 -80,-606 -110,-925 -78,-818 -40,-925 -323,-1733l-346 -75c-129,432 76,785 34,1331 -19,259 9,501 -14,749 -20,218 -94,396 -124,613 -333,2361 -1351,4620 -2353,6764 -299,642 -670,1442 -1038,2039 -195,315 -305,698 -478,1028 -463,878 -1093,1741 -1619,2900 -1047,2307 -1135,5158 -245,7550 307,827 590,1233 1076,1936 204,295 417,589 625,882 244,344 355,646 563,944 519,743 2071,3032 2328,3762 341,971 575,1351 581,2433 6,1011 75,1832 -13,2866 -272,-32 -637,-116 -922,-171 -1582,-303 -1748,16 -2856,58 8,-427 101,-793 119,-1246 124,-3020 -477,-3924 -1891,-6160 -273,-431 -294,-439 -288,-895 -540,-415 -261,-161 -266,-645 -369,-252 -340,-245 -453,-719 -75,-322 -149,-659 -211,-982 -68,-360 -78,-716 -111,-1068 -40,-435 -180,-520 -62,-993l-152 -118c-9,-9 -22,-25 -31,-33 -89,-84 -17,-58 -140,-118 -364,234 -170,1432 -133,1848 56,617 25,1408 96,2012 120,1009 395,2427 726,3385 249,719 705,1360 1184,1963 119,149 332,456 429,621 269,461 550,912 626,1457 83,598 171,1247 235,1847 -527,182 -905,265 -1419,531 -822,426 -2523,1100 -3167,1616 -247,198 -201,222 -524,394 -738,390 -1534,1064 -2236,1563 -546,389 -1790,1145 -1950,1811 125,-9 990,-932 1299,-1150 2739,-1931 2974,-2337 6166,-3797 1096,-502 2579,-1293 3853,-1124 477,63 1757,105 2058,412 -253,6 -667,-59 -804,162 360,23 608,-98 888,102l82 61c432,-42 920,-187 1242,171l-415 204c90,50 160,111 221,171 410,-122 1110,-241 1393,172 -415,19 -404,77 -697,138 163,18 325,26 488,14 98,-6 126,-3 195,-38l106 -90c6,-24 26,-26 41,-38 515,327 1388,302 1586,628 5,9 19,53 23,43 3,-10 13,29 22,42 326,-67 381,-12 627,155l-574 242c-246,-157 -402,-472 -616,-194 181,191 242,63 458,262 -715,408 -637,-87 -1086,-28l238 332c-351,46 -533,-194 -823,-42 189,198 150,32 371,196 -382,280 -581,83 -965,-98 -350,204 -385,32 -547,229 180,186 584,151 844,159 -376,386 -671,-55 -980,197 70,188 51,13 262,142 -254,176 -222,37 -540,105l108 315c246,-95 194,-80 473,-51 40,-323 284,-316 598,-455 249,-110 469,-226 715,-330 482,-202 999,-358 1481,-552 510,-205 983,-386 1512,-580 1133,-416 2394,-1269 3900,-1214 140,5 501,-115 821,-122 318,-6 687,-26 968,111 724,350 1518,127 2124,986 -367,19 -1280,-305 -1494,-152 423,405 2064,103 2468,741 -696,3 -1317,-256 -1931,-453 189,613 1934,525 2403,684 386,131 1611,924 1760,1244 -483,15 -2424,67 -2752,-80l2067 -105c-243,-135 -1433,-32 -1813,-39 -1117,-21 -1401,-210 -1694,-229 118,202 344,237 569,291 265,64 300,160 550,227 1422,386 3308,-512 4068,750 -1037,32 -2136,61 -3165,-91 -615,-91 -366,-87 -751,-344 77,523 605,455 1058,510 -69,194 -78,132 -42,365 1139,693 3950,-346 4507,707 -718,2 -1437,-1 -2155,-10 -1715,-21 -1204,-114 -1760,-311 75,477 576,390 980,402 418,13 817,36 1241,40 713,7 1959,-117 2561,157 -94,83 126,52 -465,135 -181,25 -333,60 -520,74 -314,23 -831,-84 -1088,52 285,178 1737,15 2133,-106l93 141c88,111 -42,15 79,62 427,-488 -543,-626 -861,-784 -655,-326 -1213,-953 -1605,-1149 -264,-133 -648,-327 -560,-616 -452,-68 -714,-386 -1031,-673 -753,-681 -2391,-1176 -3036,-1918l175 -138c-619,-165 -1150,-410 -1744,-548 -658,-153 -1739,-3 -2065,-89 -429,-1558 -140,-3209 672,-4589 371,-632 562,-1192 988,-1827 354,-530 798,-1121 1084,-1667 124,-235 429,-584 599,-842l1474 -2721c364,-708 589,-1183 892,-1921 199,-487 491,-1663 788,-1970 -131,-410 71,-794 119,-1242 148,-1387 80,-2693 -181,-4053l318 -146c-172,-138 -157,-91 -396,-127l-419 -1376 272 -262c-282,-272 -290,117 -433,-331 -187,-589 -271,-1210 -426,-1802 -590,252 -170,872 -167,1476 4,596 86,1353 35,1918 -105,1178 -252,2411 -495,3577 -414,1997 -1454,3995 -2444,5754 -488,866 -1026,1739 -1509,2614 -576,1040 -825,1723 -1252,2810 -701,1786 -729,3372 -684,5276 14,611 289,1102 350,1597 -513,167 -1029,256 -1573,456 -441,162 -975,467 -1423,569 -303,-760 225,-2867 455,-3695 818,-2952 1423,-2996 2131,-4487 108,-226 261,-532 375,-742 219,-405 129,-373 268,-773 153,-441 322,-1373 373,-1848 33,-308 -56,-1643 -188,-1802 -246,148 -168,601 -281,866l-1221 2250c-274,458 -672,948 -947,1413 -1623,2750 -1311,1763 -1911,5025 -92,500 -186,1693 -101,2174 116,662 187,1336 352,1957 -458,-4 -387,-253 -935,-390 -338,-84 -710,-67 -980,-277 -320,-841 -256,-1744 -118,-2625 137,-876 138,-1753 369,-2629 131,-495 680,-1675 1064,-1955 302,-221 1063,-1474 1086,-1865 -117,257 -299,461 -567,558l904 -1728z"/><path class="fil0" d="M40167 4106c226,-170 191,-82 440,-208 346,-175 695,-272 1142,-180 -57,201 -134,63 -252,388 387,-116 1428,-413 1791,-159 -366,166 -1062,87 -1377,332 324,248 -391,-247 227,99l113 79c10,8 23,23 34,30 10,8 23,22 34,30 322,211 1408,-15 1609,-111 -93,-77 -29,-47 -195,-68 -331,-41 -932,239 -1322,2 180,-119 343,-114 588,-155 356,-59 315,-109 547,-183 637,293 1041,628 1246,1318 359,1214 -895,2657 -1863,3122 -1302,625 -2626,1156 -3919,169 -444,-339 -1032,-855 -1126,-1452 -190,-1209 860,-2771 2047,-3063 -68,296 -1688,1329 -1112,1868 166,-186 386,-1412 1334,-1447 -123,264 -350,443 -539,677 -582,722 -448,266 -583,614l467 43c289,-920 871,-973 903,-1324 36,-390 -176,-190 -234,-421zm1111 -559c-1715,337 -3291,1104 -3561,3023 -137,970 445,1584 1147,2120 886,677 1441,748 2534,515 1586,-338 3150,-1390 3551,-2994 141,-561 9,-888 -180,-1394 -370,-988 -2606,-1443 -3491,-1270z"/><path class="fil0" d="M16496 9478c-60,2 -82,-16 -222,78 -54,36 -201,160 -261,206 -488,375 -858,837 -1817,866 -1230,36 -1854,226 -2764,-710 -749,-770 -1074,-1483 -831,-2558 107,-469 297,-808 587,-1177 25,-32 773,-790 1096,-598 -282,230 -1015,619 -948,1086 141,-42 494,-508 655,-667 111,-110 275,-223 407,-315 225,-158 239,-104 356,-156 130,-57 34,0 120,-79 -127,-69 -395,-40 -601,-97 364,-433 2764,-1118 3301,-558 -308,163 -1018,59 -1252,314 271,136 1264,-153 1505,-257 184,65 836,465 988,598 139,119 531,906 555,1109 132,1136 -593,2278 -684,2618 534,-260 860,-1869 889,-2432 66,-1311 -1784,-2404 -2660,-2356 -458,25 -1106,8 -1529,187 -1658,702 -3200,1716 -2977,3748 110,997 328,1293 1311,2089 404,326 624,436 1161,443 409,5 1265,11 1641,-31 586,-65 2026,-1052 1974,-1351z"/><path class="fil0" d="M6262 25930c-466,-277 -48,-1049 267,-1325 208,270 91,387 -97,667 -277,413 -41,463 -170,658zm1981 1084c-319,502 -1128,267 -1278,868 160,-42 334,-314 640,-389 696,-172 1534,-861 1779,-1568 609,-1754 -1202,-2668 -1756,-2119 306,122 874,-19 1233,448 -156,104 -357,127 -561,135 -112,4 -227,-10 -334,-10 -79,-1 -108,-10 -188,7 -123,26 -66,20 -138,69 392,325 1017,-49 1431,-58 277,508 354,1214 46,1723 -551,910 -503,515 -1328,834 -490,190 -1093,632 -1592,189 -442,-392 -687,-1038 -326,-1573l184 510 551 -47c-162,-373 -239,-301 179,-999 227,-378 289,-312 80,-712 -299,4 -265,24 -517,128 81,-212 268,-377 455,-511 94,-67 189,-133 299,-164 192,-55 250,14 420,-80 -870,-578 -1902,1354 -1947,2457 -23,555 389,1205 923,1335 471,115 1261,-361 1745,-473z"/><path class="fil0" d="M43806 31273c74,-189 11,-136 258,-210 -107,183 -61,138 -258,210zm453 -811c30,233 57,246 -61,460 -169,-198 -301,-376 61,-460zm-2105 279c3,-377 152,-487 526,-439 -63,267 -269,393 -526,439zm1600 -998l-201 328c90,72 23,28 135,72l151 52c12,5 34,14 50,23 -60,55 -809,391 -335,580 161,65 147,-27 337,74 -249,197 -326,136 -538,260 137,217 135,46 139,208l-405 105c-70,211 -49,299 -333,319 -712,51 -943,-410 -930,-1067l276 226c401,3 964,-384 787,-828 -255,-138 -274,-31 -579,-8 368,-407 928,-248 1128,-446l-50 -176c-3096,542 -1479,3279 32,2327 245,-154 520,-313 727,-516 563,-554 173,-1416 -391,-1533z"/><path class="fil0" d="M10086 34172c149,-55 322,-90 445,-156 176,-96 131,-137 366,-169 -137,275 -557,396 -811,325zm-327 -223c48,-43 -87,-62 122,-77 325,-22 138,35 175,64 -179,105 -122,130 -297,13zm994 -375c-149,-238 -31,-280 -31,-280 192,61 107,-115 128,121 10,105 -34,89 -97,159zm-1085 -268c65,-223 42,-209 260,-284 -53,239 -8,156 -260,284zm959 -242c-37,-7 -162,-60 -183,-66 125,-152 279,-112 429,-35 -66,114 87,160 -246,101zm336 425c54,-337 163,-334 60,-696 -148,-189 -1287,105 -1287,105 -746,340 -92,1941 804,1522 470,-219 465,-386 693,-797 -12,-9 -30,-19 -38,-23 -187,-100 -152,-8 -182,-88 -8,-22 -34,-14 -50,-23z"/><path class="fil0" d="M28261 15311l-39 -106c-5,-12 -12,-38 -18,-52 -5,-14 -12,-38 -17,-51l-38 -96c-312,-77 -670,-155 -715,206 321,183 508,-276 752,199 -434,243 -629,13 -762,324 230,90 457,-80 734,-101 430,-33 403,59 669,272 6,918 -187,1382 -1031,1774 -915,426 -1038,706 -1944,-39 -277,-228 -486,-473 -516,-859 -19,-248 130,-974 275,-1155 159,-198 601,-428 836,-538 574,-268 608,109 1070,-241 -600,-63 -816,-72 -1363,208 -369,188 -712,391 -837,805 -387,1280 -59,1486 832,2203 605,486 1831,-203 2293,-655 572,-560 632,-913 270,-1709 -159,-349 -126,-212 -451,-389z"/><path class="fil0" d="M44506 16481c367,-8 649,-9 872,305 -248,224 -326,29 -525,252 91,65 -116,78 189,74 57,-1 149,-39 205,-58 984,-335 355,1022 -51,1239 -236,29 -217,-16 -444,34 -100,22 -233,73 -354,100l110 287c-564,-12 -901,171 -1465,-115 -1171,-595 -419,-1905 779,-2321 374,-129 271,39 666,61 -583,-661 -1610,157 -1974,729 -830,1299 852,2406 2353,1633 258,-132 740,-518 883,-758 513,-856 -590,-1988 -1244,-1462z"/><path class="fil0" d="M36689 36359c108,-141 150,-191 326,-211 -170,138 -55,172 -326,211zm299 -530c333,-80 295,-225 686,58 160,721 -1005,1505 -1270,681 506,207 760,242 1074,-260 -96,-327 -169,-272 -447,-448 -10,-6 -30,-19 -43,-31zm-954 89c-25,448 83,966 542,1136 454,168 841,-121 1099,-457 829,-1078 -995,-1368 -1641,-679z"/><path class="fil0" d="M13693 19662c219,117 886,216 1149,399 -253,320 -523,78 -764,262 362,308 652,-150 959,-82 212,85 718,1251 106,1752 -293,238 -329,162 -687,167 -192,223 -358,501 -1053,259 -344,-120 -663,-296 -784,-647 -354,-1030 911,-1682 1022,-1871 -1288,173 -2014,2381 -62,2752 484,92 1523,-291 1823,-663 323,-401 143,-1149 -30,-1599 -60,-154 -38,-85 -120,-206l-56 -79c-9,-13 -20,-32 -28,-44l-57 -91c-449,-51 -1236,-631 -1418,-309z"/><path class="fil0" d="M33999 27270c169,-326 321,-156 542,-295 274,-173 -50,-210 338,-404 -31,335 -542,673 -880,699zm-641 -396c153,-189 48,-31 279,-208 75,-57 200,-223 319,-168 11,5 35,17 49,23 13,5 32,17 46,23 165,66 127,57 314,-44 -263,523 -441,271 -694,581 108,310 38,-51 156,219 -289,-20 -394,-155 -469,-426zm677 -964c199,241 778,37 845,485 -219,-45 -57,17 -247,-172 -316,-6 -621,-144 -783,-125 -876,101 -928,1592 160,1390 887,-165 1436,-1093 761,-1474l-541 -178c-318,1 -79,-12 -195,74z"/><path class="fil0" d="M13134 40412c219,-103 290,-63 401,163 -289,20 -241,64 -401,-163zm863 -197c-61,-118 -18,-129 13,-332 -210,-90 -173,-74 -225,-291 294,109 394,358 212,623zm-649 -880c-152,276 54,211 -210,503 -600,663 148,1141 634,829 930,-597 334,-1433 -424,-1332z"/><path class="fil0" d="M28880 22957c-16,-198 44,-98 71,-32 50,119 -70,54 -71,32zm-767 90c-67,-299 51,-584 357,-431 -148,276 -77,-43 -269,264 105,71 -40,41 138,58 221,21 124,-101 352,31l-578 78zm551 -583c253,77 145,-15 242,246 -359,-48 -222,89 -242,-246zm-123 -283c-275,314 77,109 -361,275 -183,70 -254,157 -285,368 -55,378 223,676 588,688 410,13 1201,-640 58,-1331z"/><path class="fil0" d="M37221 39713c151,110 195,80 310,128 130,54 79,32 159,125 -402,243 -473,-320 -831,140 -236,303 -100,557 198,722 478,17 971,-337 906,-848 -185,-228 -481,-379 -742,-267z"/><path class="fil0" d="M23891 28398c-9,-403 165,-542 520,-680 1111,-431 740,1100 201,530 -116,483 -421,375 -721,150zm517 545c301,-204 765,-405 838,-777 107,-542 -454,-768 -906,-755 -179,212 -606,497 -654,782 -63,377 435,637 722,750z"/><path class="fil0" d="M42963 17693c537,76 190,-22 673,-422 241,-200 370,-241 270,-589l-429 -133c-367,300 -748,651 -514,1144z"/><path class="fil0" d="M25977 16755c-372,-201 102,-1047 434,-1051 -60,187 -153,305 -241,479 -115,226 -115,438 -193,572zm-59 227l303 -91c53,-393 10,-415 211,-771 160,-283 321,-364 258,-694 -775,-136 -1445,1223 -772,1556z"/><path class="fil0" d="M11311 8518c-473,-336 -56,-851 388,-971l-388 971zm207 212c83,-230 65,-410 200,-709 124,-273 253,-393 220,-704 -370,-78 -883,267 -969,539 -127,403 55,1093 549,874z"/><path class="fil0" d="M12958 21165c15,-234 23,-490 273,-468 -23,209 -133,328 -273,468zm-203 337c412,-12 786,-497 744,-1217 -393,-10 -469,12 -614,373 -122,307 -195,515 -130,844z"/><path class="fil0" d="M38481 7280c-182,-463 -292,-683 308,-882 -117,299 -330,394 -160,690 208,-109 58,-130 256,-397 147,-198 188,-158 173,-422 -839,-387 -1329,1056 -577,1011z"/><path class="fil0" d="M35595 44007c63,56 -33,217 673,276l2597 58c-787,-262 -2254,-121 -3270,-334z"/><path class="fil0" d="M42348 5378c222,696 1679,164 2143,26 -95,-53 -22,-45 -141,-51 -558,-29 -517,379 -2002,25z"/><path class="fil0" d="M14871 5853c261,329 1723,165 1989,-134 -148,-110 -628,93 -897,125 -289,34 -933,-103 -1092,9z"/><path class="fil0" d="M16932 6440c-304,-127 -1224,365 -1655,-38 -139,-129 56,-23 -166,-163 -319,635 1641,575 1821,201z"/><path class="fil0" d="M14624 8308c131,475 1746,193 1909,-152 -322,87 -579,163 -930,213 -516,74 -734,-78 -979,-61z"/><path class="fil0" d="M42386 6140c-153,628 1574,22 1801,-219 -560,70 -1271,555 -1801,219z"/><path class="fil0" d="M11161 6959c262,180 1075,-78 1230,-261 -262,-177 -342,-27 -671,83 -442,149 -448,-175 -559,178z"/><path class="fil0" d="M16152 9073c-796,110 -733,214 -1553,-7 47,324 458,326 744,284 249,-37 715,-63 809,-277z"/><path class="fil0" d="M14545 5572c258,160 1333,-76 1584,-249 -129,-81 -1428,125 -1584,249z"/><path class="fil0" d="M14914 7334c155,506 1406,152 1634,-46 -728,-11 -729,280 -1634,46z"/><path class="fil0" d="M42390 4996c227,292 1245,125 1528,-66 -162,-96 -486,17 -718,42 -248,27 -649,-93 -810,24z"/><path class="fil0" d="M20288 29884l1378 -9c221,-11 63,25 180,-53 -267,-139 -515,-126 -809,-93 -544,60 -640,-160 -749,155z"/><path class="fil0" d="M14403 20606c20,217 -13,49 96,189l60 71c61,89 -15,69 97,177 177,171 389,70 514,-64 -261,-93 -199,56 -483,-132 195,-205 214,-87 445,-262 -106,-62 11,-76 -291,-23 -201,35 -243,30 -438,44z"/><path class="fil0" d="M20942 30608c92,290 351,208 654,217 261,7 449,125 650,45 -185,-160 -1143,-318 -1304,-262z"/><path class="fil0" d="M20130 28643c237,142 374,46 678,129 260,71 383,180 616,268 -168,-402 -900,-548 -1195,-457 -18,6 -38,22 -51,27 -14,6 -33,21 -48,33z"/><path class="fil0" d="M42221 7082c380,201 1014,23 1359,-187l-1217 113c-205,32 -45,-4 -142,74z"/><path class="fil0" d="M12379 6552c232,-72 170,-211 339,-412 219,-259 377,-166 345,-469 -344,54 -661,524 -684,881z"/><path class="fil0" d="M34712 33558c171,82 734,20 883,-77 -149,-239 -837,-211 -883,77z"/><path class="fil0" d="M35621 31656c138,210 793,16 1064,16 -177,-334 -1015,-50 -1064,-16z"/><path class="fil0" d="M37199 29165c82,322 546,162 946,232 -130,-242 -117,-202 -433,-222 -256,-17 -347,-100 -513,-10z"/><path class="fil0" d="M7691 25762c229,287 1118,-237 1239,-383 -306,33 -445,182 -870,269l-369 114z"/><path class="fil0" d="M21992 31715c174,4 338,48 509,55 -166,-317 -886,-261 -1122,-114 233,176 274,51 613,59z"/><path class="fil0" d="M34242 34537c99,47 467,-66 869,31 -121,-291 -365,-334 -670,-222 -314,114 -147,27 -199,191z"/><path class="fil0" d="M24112 28229c277,21 674,-177 766,-414 -276,34 -765,75 -766,414z"/><path class="fil0" d="M17035 34007c8,6 751,348 771,353 -26,-253 -33,-246 -304,-378 -216,-105 -366,-201 -467,25z"/><path class="fil0" d="M18379 35789c293,47 100,219 375,43 -121,-311 -712,-354 -842,-51 171,96 213,-34 467,8z"/><path class="fil0" d="M29567 30149c57,39 -6,221 492,-54 186,-102 319,-131 445,-273 -244,-86 -736,197 -937,327z"/><path class="fil0" d="M27631 16524c248,91 788,-15 999,-131 -128,-89 94,-64 -218,-75 -222,-8 -671,52 -781,206z"/><path class="fil0" d="M21773 32376c226,124 876,103 1099,0 -214,-126 -886,-147 -1099,0z"/><path class="fil0" d="M8701 24893c-169,44 -307,119 -476,131 -295,20 -263,-64 -483,-85 7,414 785,314 959,-46z"/><path class="fil0" d="M35208 32704c231,117 166,26 441,-28 341,-67 219,77 446,-38 -183,-304 -764,-126 -887,66z"/><path class="fil0" d="M27438 43316c-258,-270 -595,-170 -929,-92 118,136 0,97 258,94 771,-7 365,204 671,-2z"/><path class="fil0" d="M38588 25294c174,107 97,34 332,-19 223,-49 323,1 516,-104 -207,-151 -757,-167 -848,123z"/><path class="fil0" d="M19335 22092c127,135 784,107 925,0 -208,-135 -747,-160 -925,0z"/><path class="fil0" d="M20103 27678c169,157 672,45 937,78 -132,-136 119,-33 -184,-143l-510 -35c-358,35 -157,19 -243,100z"/><path class="fil0" d="M38604 24188c92,70 -131,151 464,41 244,-45 244,15 404,-106 -213,-164 -679,-63 -868,65z"/><path class="fil0" d="M14567 9884c197,316 810,65 1058,-91l-1058 91z"/><path class="fil0" d="M42739 7820c-567,-80 -385,-16 -880,-244 35,389 642,467 880,244z"/><path class="fil0" d="M27713 16000c155,156 162,96 428,59 234,-33 305,-4 475,-124 -195,-114 -688,-66 -903,65z"/><path class="fil0" d="M28365 32822c347,43 254,15 522,-166 235,-158 269,-87 381,-300 -385,66 -609,263 -903,466z"/><path class="fil0" d="M32015 21568c196,151 540,99 804,98 -129,-178 -49,-144 -344,-179 -274,-32 -304,-63 -460,81z"/><path class="fil0" d="M20895 18546c169,131 86,75 351,44 331,-39 265,9 398,-90 -224,-184 -527,-177 -749,46z"/><path class="fil0" d="M30899 26615c216,79 569,-92 765,-203 -16,-14 108,-157 -386,-14 -256,73 -294,31 -379,217z"/><path class="fil0" d="M22285 32934c219,205 79,98 425,137 209,23 324,98 499,26 -150,-201 -677,-194 -924,-163z"/><path class="fil0" d="M20069 20323c226,107 164,58 413,46 276,-12 317,30 458,-46 -178,-118 -767,-212 -871,0z"/><path class="fil0" d="M14371 21603c24,44 -28,254 485,35 176,-76 247,-87 304,-240l-789 205z"/><path class="fil0" d="M20438 19454l852 -100c-106,-256 -757,-115 -852,100z"/><path class="fil0" d="M23234 34918c-189,-222 37,-86 -207,-179l-96 192c189,176 556,206 736,38l-433 -51z"/><path class="fil0" d="M32202 20454c140,93 522,130 722,148 -71,-148 -47,-165 -260,-218 -32,-7 -234,-30 -260,-27 -241,29 -72,-17 -202,97z"/><path class="fil0" d="M33237 36307c184,86 501,-7 760,-46 -102,-234 -631,-124 -760,46z"/><path class="fil0" d="M22515 14884c195,117 500,-50 619,-128 -191,-203 -510,-92 -619,128z"/><path class="fil0" d="M27191 17379c131,94 596,26 790,-89 -133,-105 -643,-94 -790,89z"/><path class="fil0" d="M7743 26397c239,143 660,-75 823,-264 -247,41 -680,134 -823,264z"/><path class="fil0" d="M19754 21306c98,76 -37,109 360,34 170,-32 286,-30 418,-99 -208,-151 -586,-71 -778,65z"/><path class="fil0" d="M22814 14157c126,221 -133,54 453,170l2 -240c-212,-64 -318,-92 -455,70z"/><path class="fil0" d="M29143 31268c272,46 489,17 701,-138 -190,-142 -568,-37 -701,138z"/><path class="fil0" d="M22176 15408c185,131 490,29 632,-67 -222,-171 -443,-130 -632,67z"/><path class="fil0" d="M44592 17965c131,118 -147,49 138,90 135,19 112,9 226,-40 87,-37 193,-129 260,-181 -169,-97 -83,2 -312,25 -255,26 -162,-156 -312,106z"/><path class="fil0" d="M27291 16890c151,271 669,157 753,-3l-753 3z"/><path class="fil0" d="M27836 34145c166,115 513,-78 629,-196 -222,-90 -469,32 -629,196z"/><path class="fil0" d="M23619 11017c12,9 63,154 401,79 133,-30 102,-41 160,-77 -182,-118 -392,-193 -561,-2z"/><path class="fil0" d="M31647 8353c78,168 -25,85 192,86 175,2 194,17 328,-37 -142,-220 -339,-234 -520,-49z"/><path class="fil0" d="M44726 17512c135,207 480,54 644,-71 -123,-62 -116,-56 -450,6l-194 65z"/><path class="fil0" d="M38969 23266c184,147 320,156 501,-2 -111,-171 -384,-135 -501,2z"/><path class="fil0" d="M41653 8467c212,121 423,26 644,-77 -97,-60 162,-46 -183,-50 -205,-3 -344,29 -461,127z"/><path class="fil0" d="M29070 39712c6,4 38,277 452,-64 -32,-25 85,-130 -248,-64 -106,20 -150,60 -204,128z"/><path class="fil0" d="M31418 25494l555 -168c-236,-165 -491,-137 -555,168z"/><path class="fil0" d="M32001 5713c125,90 -192,95 207,81 336,-12 117,-26 199,-80 -177,-306 -276,-120 -406,-1z"/><path class="fil0" d="M31775 7540c110,87 227,137 456,7 -82,-71 -85,-112 -230,-128 -292,-32 -201,88 -226,121z"/><path class="fil0" d="M31837 6454c101,122 256,147 408,149l-59 -206c-217,-66 -174,-100 -349,57z"/><path class="fil0" d="M28747 41531c116,219 206,182 392,21 -87,-68 130,-73 -205,-92 -157,-10 -156,51 -187,71z"/><path class="fil0" d="M14402 22085c231,12 314,-104 479,-294 -216,23 -408,90 -479,294z"/><path class="fil0" d="M24164 9188l383 148c-61,-253 -254,-407 -383,-148z"/><path class="fil0" d="M29143 41277c-252,-341 -258,-61 -266,-54 48,43 -76,75 126,111 282,51 -1,31 140,-57z"/><path class="fil0" d="M32822 39317c-138,-124 -138,-170 -289,-19 113,118 -62,63 138,98 309,53 33,14 151,-79z"/><path class="fil0" d="M28939 40495c143,102 89,114 306,10 -125,-165 -198,-191 -306,-10z"/><path class="fil0" d="M32585 4380c18,-290 62,-101 -116,-189 -55,173 -96,159 116,189z"/><path class="fil0" d="M39199 21765l187 26c-203,-222 -110,-80 -187,-26z"/><path class="fil0" d="M24232 7878c1,37 121,111 83,-5 -27,-83 -86,-154 -83,5z"/></g><text x="0" y="50815" fill="#000000" font-size="5px" font-weight="bold" font-family="'Helvetica Neue', Helvetica, Arial-Unicode, Arial, Sans-serif">Created by Alex Muravev</text><text x="0" y="50820" fill="#000000" font-size="5px" font-weight="bold" font-family="'Helvetica Neue', Helvetica, Arial-Unicode, Arial, Sans-serif">from the Noun Project</text></svg>