<?xml version="1.0" encoding="UTF-8"?>
<svg id="katman_2" data-name="katman 2" xmlns="http://www.w3.org/2000/svg" viewBox="0 0 82 82">
  <g id="katman_1" data-name="katman 1">
    <g>
      <path d="M41,82c-10.95,0-21.25-4.26-28.99-12.01C4.26,62.25,0,51.95,0,41S4.26,19.75,12.01,12.01C19.75,4.26,30.05,0,41,0s21.25,4.26,28.99,12.01c7.74,7.74,12.01,18.04,12.01,28.99s-4.26,21.25-12.01,28.99c-7.74,7.74-18.04,12.01-28.99,12.01ZM41,3.42C20.28,3.42,3.42,20.28,3.42,41s16.86,37.58,37.58,37.58,37.58-16.86,37.58-37.58S61.72,3.42,41,3.42Z"/>
      <path d="M56.11,64.92h0c-2.67,0-5.18-1.04-7.06-2.92-2.63-2.63-3.58-6.46-2.48-10.01.17-.54.59-.96,1.13-1.13.96-.29,1.95-.44,2.95-.44,2.67,0,5.18,1.04,7.06,2.93,2.63,2.63,3.58,6.46,2.48,10.01-.17.54-.59.96-1.13,1.13-.96.29-1.95.44-2.95.44ZM49.62,53.9c-.33,2.06.34,4.17,1.84,5.68,1.24,1.24,2.89,1.92,4.65,1.92h0c.35,0,.69-.03,1.03-.08.33-2.06-.34-4.17-1.84-5.67-1.24-1.24-2.89-1.92-4.65-1.92-.35,0-.69.03-1.03.08Z"/>
      <path d="M48,32.46h0c-2.67,0-5.18-1.04-7.06-2.92-2.63-2.63-3.58-6.46-2.48-10.01.17-.54.59-.96,1.13-1.13.96-.29,1.95-.44,2.95-.44,2.67,0,5.18,1.04,7.06,2.92,2.63,2.63,3.58,6.46,2.48,10.01-.17.54-.59.96-1.13,1.13-.96.29-1.95.44-2.95.44ZM41.51,21.44c-.33,2.06.34,4.17,1.84,5.67,1.24,1.24,2.89,1.92,4.65,1.92h0c.35,0,.69-.03,1.03-.08.33-2.06-.34-4.17-1.84-5.68-1.24-1.24-2.89-1.92-4.65-1.92-.35,0-.69.03-1.03.08Z"/>
      <path d="M24.52,45.26s0,0,0,0c-2.67,0-5.18-1.04-7.06-2.93-2.63-2.63-3.58-6.46-2.48-10.01.17-.54.59-.96,1.13-1.13.96-.29,1.95-.44,2.95-.44,2.67,0,5.18,1.04,7.06,2.92,2.63,2.63,3.58,6.46,2.48,10.01-.17.54-.59.96-1.13,1.13-.96.29-1.95.44-2.95.44ZM18.02,34.25c-.33,2.06.34,4.17,1.84,5.67,1.24,1.24,2.89,1.92,4.65,1.92.35,0,.69-.03,1.03-.08.33-2.06-.34-4.17-1.84-5.68-1.24-1.24-2.89-1.92-4.65-1.92-.35,0-.69.03-1.03.08Z"/>
      <path d="M68.93,46.12h0c-2.67,0-5.18-1.04-7.06-2.92-2.63-2.63-3.58-6.46-2.48-10.01.17-.54.59-.96,1.13-1.13.96-.29,1.95-.44,2.95-.44,2.67,0,5.18,1.04,7.06,2.92,2.63,2.63,3.58,6.46,2.48,10.01-.17.54-.59.96-1.13,1.13-.96.29-1.95.44-2.95.44ZM62.44,35.11c-.33,2.06.34,4.17,1.84,5.67,1.24,1.24,2.89,1.92,4.65,1.92h0c.35,0,.69-.03,1.03-.08.33-2.06-.34-4.17-1.84-5.67-1.24-1.24-2.89-1.92-4.65-1.92-.35,0-.69.03-1.03.08Z"/>
      <path d="M33.06,68.33h0c-2.67,0-5.18-1.04-7.06-2.92-2.63-2.63-3.58-6.46-2.48-10.01.17-.54.59-.96,1.13-1.13.96-.29,1.95-.44,2.95-.44,2.67,0,5.18,1.04,7.06,2.93,2.63,2.63,3.58,6.46,2.48,10.01-.17.54-.59.96-1.13,1.13-.96.29-1.95.44-2.95.44ZM26.57,57.32c-.33,2.06.34,4.17,1.84,5.68,1.24,1.24,2.89,1.92,4.65,1.92h0c.35,0,.69-.03,1.03-.08.33-2.06-.34-4.17-1.84-5.67-1.24-1.24-2.89-1.92-4.65-1.92-.35,0-.69.03-1.03.08Z"/>
      <path d="M39.55,50.4h0c-1,0-2-.15-2.95-.44-.54-.17-.96-.59-1.13-1.13-1.09-3.55-.14-7.39,2.48-10.01,1.89-1.89,4.39-2.92,7.06-2.92,1,0,2,.15,2.95.44.54.17.96.59,1.13,1.13,1.09,3.55.14,7.39-2.48,10.01-1.89,1.89-4.39,2.93-7.06,2.93ZM38.52,46.91c.34.05.68.08,1.03.08h0c1.76,0,3.41-.68,4.65-1.92,1.5-1.5,2.17-3.61,1.84-5.67-.34-.05-.68-.08-1.03-.08-1.76,0-3.41.68-4.65,1.92-1.5,1.5-2.17,3.61-1.84,5.68Z"/>
      <path d="M25.89,26.49s0,0,0,0c-1,0-2-.15-2.95-.44-.54-.17-.96-.59-1.13-1.13-1.09-3.55-.14-7.39,2.48-10.01,1.89-1.89,4.39-2.92,7.06-2.92,1,0,2,.15,2.95.44.54.17.96.59,1.13,1.13,1.09,3.55.14,7.39-2.48,10.01-1.89,1.89-4.39,2.92-7.06,2.92ZM24.86,22.99c.34.05.68.08,1.03.08,1.76,0,3.41-.68,4.65-1.92,1.5-1.5,2.17-3.61,1.84-5.67-.34-.05-.68-.08-1.03-.08-1.76,0-3.41.68-4.65,1.92-1.5,1.5-2.17,3.61-1.84,5.67Z"/>
    </g>
  </g>
</svg>