<?xml version="1.0" encoding="UTF-8"?>
<svg id="katman_2" data-name="katman 2" xmlns="http://www.w3.org/2000/svg" viewBox="0 0 82 82">
  <g id="katman_1" data-name="katman 1">
    <g>
      <path d="M41,0C18.39,0,0,18.39,0,41s18.39,41,41,41,41-18.39,41-41S63.61,0,41,0ZM41,79.17c-21.05,0-38.17-17.12-38.17-38.17S19.95,2.83,41,2.83s38.17,17.12,38.17,38.17-17.12,38.17-38.17,38.17Z"/>
      <path d="M60.64,27.49c.22-.44.2-.96-.06-1.38s-.71-.67-1.2-.67h-4.38c-.66-3.22-3.51-5.66-6.93-5.66h-16.97c-.78,0-1.41.63-1.41,1.41s.63,1.41,1.41,1.41h16.97c1.84,0,3.4,1.19,3.98,2.83h-16.71c-4.66,0-8.88,1.89-11.95,4.94-.01.01-.03.02-.04.03s-.02.03-.03.04c-3.05,3.07-4.94,7.3-4.94,11.96,0,6.29,3.45,11.78,8.55,14.71.03.02.06.04.09.06,2.46,1.39,5.3,2.2,8.32,2.2h11.31c4.87,0,9.52-2.33,12.44-6.22.32-.43.37-1,.13-1.48-.24-.48-.73-.78-1.27-.78h-19.79c-3.12,0-5.66-2.54-5.66-5.66,0-2.14,1.2-3.98,2.96-4.94l1.28,1.28v3.66c0,.78.63,1.41,1.41,1.41s1.41-.63,1.41-1.41v-4.24c0-.38-.15-.74-.41-1l-.41-.41h3.66c12.05,0,17.98-11.6,18.23-12.09ZM42.41,36.76h-2.83v-8.48h17.25c-2.15,3.06-7.01,8.48-14.42,8.48ZM36.76,28.28v8.61c-.5.08-.99.21-1.46.38-.03.01-.07.02-.1.04-.69.26-1.34.61-1.93,1.03l-6.86-6.86c2.44-2,5.55-3.2,8.94-3.2h1.41ZM24.4,33.47l6.86,6.86c-.73,1.02-1.23,2.21-1.45,3.49h-8.54c-.05-.47-.07-.94-.07-1.41,0-3.39,1.2-6.5,3.2-8.94ZM21.86,46.66h7.96c.22,1.29.72,2.47,1.45,3.49l-3.91,3.91c-2.57-1.77-4.53-4.37-5.49-7.41ZM29.94,55.47l3.33-3.33c1.02.73,2.21,1.23,3.49,1.45v2.95h-1.41c-1.91,0-3.74-.39-5.4-1.08ZM46.66,56.55h-7.07v-2.83h15.06c-2.24,1.8-5.07,2.83-7.99,2.83Z"/>
      <path d="M46.66,29.69h-1.41c-.78,0-1.41.63-1.41,1.41s.63,1.41,1.41,1.41h1.41c.78,0,1.41-.63,1.41-1.41s-.63-1.41-1.41-1.41Z"/>
    </g>
  </g>
</svg>