<?xml version="1.0" encoding="UTF-8"?>
<svg id="katman_2" data-name="katman 2" xmlns="http://www.w3.org/2000/svg" viewBox="0 0 85 85">
  <defs>
    <style>
      .cls-1 {
        fill: none;
        stroke: #1d1d1b;
        stroke-miterlimit: 10;
        stroke-width: 3px;
      }

      .cls-2 {
        fill-rule: evenodd;
      }
    </style>
  </defs>
  <g id="katman_1" data-name="katman 1">
    <g>
      <g>
        <path class="cls-2" d="M57.04,66.66c-1.97,0-7.45-1.19-10.74-4.12-2.65-2.38-3.54-5.51-2.65-9.08-.92-.34-2.31-.95-3.43-2.14-.41-.41-.37-1.02,0-1.43.41-.41,1.05-.37,1.46.03,1.43,1.46,3.4,1.8,3.4,1.8.31.07.58.24.71.48.17.27.2.58.1.85-.92,2.69-.68,4.9.68,6.73,2.58,3.54,8.53,4.63,10.2,4.8.95-1.39,3.84-6.7,2.79-10.95-.58-2.21-2.14-3.77-4.8-4.76-.27-.1-.51-.34-.61-.61-.1-.31-.07-.61.1-.85,0-.03,1.33-2.45.51-4.86-.58-1.73-2.11-3.13-4.49-4.15-.51-.2-.75-.71-.58-1.22.61-2.07.41-3.88-.61-5.54-2.38-3.95-8.74-5.75-10.88-6.29-.27.58-.68,1.46-1.09,2.52-.2.54-.78.82-1.33.61-.51-.2-.78-.78-.58-1.33.75-2.01,1.5-3.4,1.53-3.43.14-.2.31-.37.48-.44.27-.1.58-.14.85,0,2.11.27,7.51,2.07,10.64,4.8,2.79,2.45,3.88,5.48,3.16,8.84,2.52,1.22,4.15,2.92,4.83,5,.75,2.21.24,4.29-.2,5.48,3.33,1.56,5.17,4.25,5.31,7.82.2,5.1-3.2,10.95-4.08,11.36-.14.07-.34.1-.68.1h0Z"/>
        <path class="cls-2" d="M32.87,71.52c-.95,0-6.56-3.84-8.57-8.53-1.39-3.26-.88-6.49,1.46-9.35-.92-.88-2.24-2.55-2.52-4.83-.27-2.18.48-4.42,2.21-6.6-1.43-1.87-2.01-3.95-1.77-6.15.68-6.49,8.26-12,8.6-12.24.17-.14.37-.2.58-.2.88,0,6.29,4.66,8.3,9.15,1.53,3.47,1.22,6.7-.88,9.45,1.73,2.18,2.52,4.42,2.24,6.6-.27,2.28-1.63,3.95-2.55,4.83,2.35,2.86,2.86,6.09,1.46,9.35-1.97,4.69-7.58,8.53-8.57,8.53h0ZM32.87,25.93c-1.73,1.39-6.66,5.75-7.17,10.34-.2,1.94.41,3.67,1.87,5.27.34.37.34.95,0,1.36-1.73,1.94-2.52,3.84-2.31,5.65.31,2.55,2.55,4.15,2.55,4.18.27.17.41.44.44.75.03.27-.07.58-.27.78-1.97,2.04-2.72,4.12-2.28,6.39.82,4.29,5.75,7.85,7.17,8.7,1.43-.85,6.36-4.42,7.21-8.7.41-2.24-.31-4.35-2.28-6.39-.2-.2-.31-.51-.31-.78.03-.31.2-.58.44-.75.03-.03,2.24-1.6,2.55-4.18.2-1.8-.58-3.67-2.31-5.65-.34-.41-.34-.99.03-1.36,1.43-1.6,2.04-3.33,1.84-5.27-.48-4.59-5.44-8.94-7.17-10.34h0Z"/>
        <path class="cls-2" d="M33.61,42.21c-.31,0-.58-.07-.88-.17-1.8-.65-3.95-3.33-4.32-6.49v-.24c.37-3.13,2.52-5.81,4.32-6.46.82-.31,1.56-.2,2.11.27.71.68.85,1.9.34,3.71-.03.07-.03.14-.07.2-.58,1.12-.58,3.67,0,4.83.03.03.03.1.07.17.51,1.8.37,3.03-.34,3.71-.34.31-.78.48-1.22.48h0ZM30.45,35.45c.37,2.58,2.21,4.42,2.99,4.69,0-.2,0-.65-.2-1.46-.82-1.7-.82-4.76,0-6.46.2-.82.2-1.26.2-1.46-.78.24-2.62,2.11-2.99,4.69h0Z"/>
        <path class="cls-2" d="M33.72,67.37c-.27,0-.58-.03-.85-.17-1.8-.65-3.95-3.33-4.32-6.46v-.24c.37-3.16,2.52-5.85,4.32-6.49.78-.31,1.56-.2,2.07.27.75.71.85,1.9.34,3.74,0,.07-.03.1-.07.17-.54,1.12-.54,3.71,0,4.83.03.07.07.14.07.17.51,1.84.41,3.03-.34,3.74-.34.31-.75.44-1.22.44h0ZM30.59,60.61c.34,2.58,2.21,4.46,2.96,4.69.03-.2.03-.65-.2-1.46-.78-1.7-.78-4.76,0-6.46.24-.82.24-1.26.2-1.46-.75.27-2.62,2.11-2.96,4.69h0Z"/>
        <path class="cls-2" d="M32.87,50.58c-1.63,0-2.99-1.36-2.99-3.03s1.36-2.99,2.99-2.99,3.03,1.36,3.03,2.99-1.36,3.03-3.03,3.03ZM32.87,46.6c-.51,0-.95.44-.95.95,0,.54.44.99.95.99.54,0,.99-.44.99-.99,0-.51-.44-.95-.99-.95Z"/>
        <path class="cls-2" d="M31.13,27.08c-.31,0-.58-.14-.78-.37-.2-.24-.41-.51-.58-.75h-.03c-1.22-1.67-2.38-3.64-2.04-5.14v-.07c.27-1.16.78-1.9,1.53-2.24h.07c.85-.34,1.7-.07,2.48.34-.03-.51-.07-1.02-.07-1.5,0-1.73.34-3.37,1.63-3.77l.07-.03c.07-.03.1-.03.17-.07h.24c1.73-.03,2.75,2.28,3.33,4.35.58-.65,1.29-1.19,2.18-1.19s1.67.51,2.35,1.56c.34.51.48,1.26.48,2.04,0,1.87-.71,4.12-1.02,4.93-.2.54-.78.82-1.33.61-.41-.14-.68-.54-.68-.95,0-.1.03-.24.07-.34.54-1.46.92-3.26.92-4.35,0-.37-.03-.65-.14-.82-.34-.54-.58-.65-.65-.65-.37,0-1.16,1.22-1.46,1.7-.14.17-.27.37-.37.54-.24.34-.65.48-1.05.41-.41-.1-.71-.44-.78-.85-.37-2.14-1.16-4.39-1.7-4.86-.14.27-.2.85-.2,1.56,0,1.02.14,2.35.37,3.6.03.07.03.14.03.2,0,.34-.17.65-.44.85-.37.24-.82.24-1.16,0-.17-.1-.34-.24-.51-.37-.48-.34-1.67-1.19-2.01-1.05-.03,0-.24.2-.37.82-.1.54.65,2.21,2.24,4.15v.03c.17.2.24.41.24.65,0,.31-.14.61-.37.78-.17.17-.41.24-.65.24h0Z"/>
        <path class="cls-2" d="M48.47,48.26c-1.84,0-3.33-1.5-3.33-3.33s1.5-3.33,3.33-3.33,3.37,1.5,3.37,3.33-1.5,3.33-3.37,3.33ZM48.47,43.64c-.71,0-1.29.58-1.29,1.29s.58,1.29,1.29,1.29,1.33-.58,1.33-1.29-.61-1.29-1.33-1.29Z"/>
        <path class="cls-2" d="M52.76,60.74c-1.84,0-3.33-1.5-3.33-3.33s1.5-3.33,3.33-3.33,3.37,1.5,3.37,3.33-1.5,3.33-3.37,3.33ZM52.76,56.12c-.71,0-1.29.58-1.29,1.29s.58,1.29,1.29,1.29,1.33-.58,1.33-1.29-.61-1.29-1.33-1.29Z"/>
        <path class="cls-2" d="M45.82,36.36c-1.67,0-3.03-1.36-3.03-3.03s1.36-3.03,3.03-3.03,2.99,1.36,2.99,3.03-1.33,3.03-2.99,3.03ZM45.82,32.35c-.54,0-.99.44-.99.99s.44.99.99.99c.51,0,.95-.44.95-.99s-.44-.99-.95-.99Z"/>
      </g>
      <circle class="cls-1" cx="42.5" cy="42.5" r="41"/>
    </g>
  </g>
</svg>