<?xml version="1.0" encoding="UTF-8"?>
<svg id="katman_2" data-name="katman 2" xmlns="http://www.w3.org/2000/svg" viewBox="0 0 558.4 323.94">
  <defs>
    <style>
      .cls-1 {
        letter-spacing: -.01em;
      }

      .cls-2 {
        letter-spacing: -.02em;
      }

      .cls-3 {
        letter-spacing: -.02em;
      }

      .cls-4 {
        letter-spacing: -.02em;
      }

      .cls-5 {
        letter-spacing: 0em;
      }

      .cls-6 {
        letter-spacing: -.02em;
      }

      .cls-7 {
        letter-spacing: 0em;
      }

      .cls-8 {
        letter-spacing: -.06em;
      }

      .cls-9 {
        letter-spacing: 0em;
      }

      .cls-10 {
        letter-spacing: 0em;
      }

      .cls-11 {
        letter-spacing: -.03em;
      }

      .cls-12 {
        font-size: 16px;
      }

      .cls-12, .cls-13 {
        font-family: Montserrat-SemiBold, Montserrat;
        font-weight: 600;
      }

      .cls-13 {
        font-size: 24px;
      }

      .cls-14 {
        letter-spacing: -.02em;
      }

      .cls-15 {
        fill: none;
        stroke: #1d1d1b;
        stroke-miterlimit: 10;
        stroke-width: 3px;
      }

      .cls-16 {
        fill-rule: evenodd;
      }

      .cls-17 {
        letter-spacing: .02em;
      }

      .cls-18 {
        letter-spacing: -.01em;
      }
    </style>
  </defs>
  <g id="katman_1" data-name="katman 1">
    <g>
      <g>
        <g>
          <g id="katman_1-2" data-name="katman 1">
            <g>
              <g>
                <path d="M527.79,88.33v-3.88c0-2.63-2.11-4.74-4.74-4.74h-1.83l-2.68-8.96c-.34-1.14-1.43-1.94-2.63-1.94s-2.28.8-2.63,1.94l-2.68,8.96h-1.83c-2.63,0-4.74,2.11-4.74,4.74v3.88c-2.11,1.48-3.42,3.88-3.42,6.45v.34l1.03,21.63c.17,3.48,3.02,6.22,6.56,6.22h15.35c3.48,0,6.39-2.74,6.56-6.22l1.03-21.63c.17-2.68-1.14-5.25-3.37-6.79h.02ZM515.92,73.03l2,6.68h-4l2-6.68ZM507.19,84.45c0-.86.68-1.6,1.6-1.6h14.27c.86,0,1.6.68,1.6,1.6v2.68h-17.46v-2.68h0ZM526.99,116.64c-.11,1.83-1.6,3.25-3.37,3.25h-15.35c-1.83,0-3.31-1.43-3.42-3.25l-1.03-21.57c-.11-1.94,1.03-3.77,2.85-4.57l.4-.17h17.75l.4.17c1.77.8,2.91,2.63,2.85,4.57l-1.08,21.57Z"/>
                <circle cx="510.38" cy="114.12" r="2"/>
                <path d="M521.51,112.13c-1.08,0-2,.91-2,2s.91,2,2,2,2-.91,2-2-.91-2-2-2Z"/>
                <path d="M515.92,107.96c-1.08,0-2,.91-2,2s.91,2,2,2,2-.91,2-2-.86-2-2-2Z"/>
                <path d="M515.92,98.54c-1.08,0-2,.91-2,2s.91,2,2,2,2-.91,2-2-.86-2-2-2Z"/>
                <circle cx="510.38" cy="105.28" r="2"/>
                <path d="M521.51,103.28c-1.08,0-2,.91-2,2s.91,2,2,2,2-.91,2-2-.91-2-2-2Z"/>
                <circle cx="510.38" cy="96.43" r="2"/>
                <path d="M521.51,94.43c-1.08,0-2,.91-2,2s.91,2,2,2,2-.91,2-2-.91-2-2-2Z"/>
              </g>
              <circle class="cls-15" cx="515.9" cy="95.89" r="41"/>
            </g>
          </g>
          <g id="katman_1-3" data-name="katman 1">
            <g>
              <path d="M160.05,136.89c-10.95,0-21.25-4.26-28.99-12.01-7.75-7.74-12.01-18.04-12.01-28.99s4.26-21.25,12.01-28.99c7.74-7.75,18.04-12.01,28.99-12.01s21.25,4.26,28.99,12.01c7.74,7.74,12.01,18.04,12.01,28.99s-4.26,21.25-12.01,28.99c-7.74,7.74-18.04,12.01-28.99,12.01ZM160.05,58.31c-20.72,0-37.58,16.86-37.58,37.58s16.86,37.58,37.58,37.58,37.58-16.86,37.58-37.58-16.86-37.58-37.58-37.58Z"/>
              <path d="M175.16,119.81h0c-2.67,0-5.18-1.04-7.06-2.92-2.63-2.63-3.58-6.46-2.48-10.01.17-.54.59-.96,1.13-1.13.96-.29,1.95-.44,2.95-.44,2.67,0,5.18,1.04,7.06,2.93,2.63,2.63,3.58,6.46,2.48,10.01-.17.54-.59.96-1.13,1.13-.96.29-1.95.44-2.95.44h0ZM168.67,108.79c-.33,2.06.34,4.17,1.84,5.68,1.24,1.24,2.89,1.92,4.65,1.92h0c.35,0,.69-.03,1.03-.08.33-2.06-.34-4.17-1.84-5.67-1.24-1.24-2.89-1.92-4.65-1.92-.35,0-.69.03-1.03.08h0Z"/>
              <path d="M167.05,87.35h0c-2.67,0-5.18-1.04-7.06-2.92-2.63-2.63-3.58-6.46-2.48-10.01.17-.54.59-.96,1.13-1.13.96-.29,1.95-.44,2.95-.44,2.67,0,5.18,1.04,7.06,2.92,2.63,2.63,3.58,6.46,2.48,10.01-.17.54-.59.96-1.13,1.13-.96.29-1.95.44-2.95.44ZM160.56,76.33c-.33,2.06.34,4.17,1.84,5.67,1.24,1.24,2.89,1.92,4.65,1.92h0c.35,0,.69-.03,1.03-.08.33-2.06-.34-4.17-1.84-5.68-1.24-1.24-2.89-1.92-4.65-1.92-.35,0-.69.03-1.03.08h0Z"/>
              <path d="M143.57,100.15h0c-2.67,0-5.18-1.04-7.06-2.93-2.63-2.63-3.58-6.46-2.48-10.01.17-.54.59-.96,1.13-1.13.96-.29,1.95-.44,2.95-.44,2.67,0,5.18,1.04,7.06,2.92,2.63,2.63,3.58,6.46,2.48,10.01-.17.54-.59.96-1.13,1.13-.96.29-1.95.44-2.95.44h0ZM137.07,89.14c-.33,2.06.34,4.17,1.84,5.67,1.24,1.24,2.89,1.92,4.65,1.92.35,0,.69-.03,1.03-.08.33-2.06-.34-4.17-1.84-5.68-1.24-1.24-2.89-1.92-4.65-1.92-.35,0-.69.03-1.03.08h0Z"/>
              <path d="M187.98,101.01h0c-2.67,0-5.18-1.04-7.06-2.92-2.63-2.63-3.58-6.46-2.48-10.01.17-.54.59-.96,1.13-1.13.96-.29,1.95-.44,2.95-.44,2.67,0,5.18,1.04,7.06,2.92,2.63,2.63,3.58,6.46,2.48,10.01-.17.54-.59.96-1.13,1.13-.96.29-1.95.44-2.95.44ZM181.49,90c-.33,2.06.34,4.17,1.84,5.67,1.24,1.24,2.89,1.92,4.65,1.92h0c.35,0,.69-.03,1.03-.08.33-2.06-.34-4.17-1.84-5.67-1.24-1.24-2.89-1.92-4.65-1.92-.35,0-.69.03-1.03.08Z"/>
              <path d="M152.11,123.22h0c-2.67,0-5.18-1.04-7.06-2.92-2.63-2.63-3.58-6.46-2.48-10.01.17-.54.59-.96,1.13-1.13.96-.29,1.95-.44,2.95-.44,2.67,0,5.18,1.04,7.06,2.93,2.63,2.63,3.58,6.46,2.48,10.01-.17.54-.59.96-1.13,1.13-.96.29-1.95.44-2.95.44h0ZM145.62,112.21c-.33,2.06.34,4.17,1.84,5.68,1.24,1.24,2.89,1.92,4.65,1.92h0c.35,0,.69-.03,1.03-.08.33-2.06-.34-4.17-1.84-5.67-1.24-1.24-2.89-1.92-4.65-1.92-.35,0-.69.03-1.03.08h0Z"/>
              <path d="M158.6,105.29h0c-1,0-2-.15-2.95-.44-.54-.17-.96-.59-1.13-1.13-1.09-3.55-.14-7.39,2.48-10.01,1.89-1.89,4.39-2.92,7.06-2.92,1,0,2,.15,2.95.44.54.17.96.59,1.13,1.13,1.09,3.55.14,7.39-2.48,10.01-1.89,1.89-4.39,2.93-7.06,2.93h0ZM157.57,101.8c.34.05.68.08,1.03.08h0c1.76,0,3.41-.68,4.65-1.92,1.5-1.5,2.17-3.61,1.84-5.67-.34-.05-.68-.08-1.03-.08-1.76,0-3.41.68-4.65,1.92-1.5,1.5-2.17,3.61-1.84,5.68h0Z"/>
              <path d="M144.94,81.38h0c-1,0-2-.15-2.95-.44-.54-.17-.96-.59-1.13-1.13-1.09-3.55-.14-7.39,2.48-10.01,1.89-1.89,4.39-2.92,7.06-2.92,1,0,2,.15,2.95.44.54.17.96.59,1.13,1.13,1.09,3.55.14,7.39-2.48,10.01-1.89,1.89-4.39,2.92-7.06,2.92ZM143.91,77.88c.34.05.68.08,1.03.08,1.76,0,3.41-.68,4.65-1.92,1.5-1.5,2.17-3.61,1.84-5.67-.34-.05-.68-.08-1.03-.08-1.76,0-3.41.68-4.65,1.92-1.5,1.5-2.17,3.61-1.84,5.67Z"/>
            </g>
          </g>
          <g id="katman_1-4" data-name="katman 1">
            <path d="M397.88,54.89c-22.6,0-41,18.4-41,41s18.4,41,41,41,41-18.4,41-41-18.4-41-41-41ZM397.88,133.89c-21,0-38-17-38-38s17-38,38-38,38,17,38,38-17,38-38,38ZM410.78,71.79c-.1-.3-.3-.5-.5-.7v-3.8c0-1.3-.9-2.4-2-2.4h-20.8c-1.1,0-2,1-2,2.4v3.8c-.2.2-.3.4-.5.7l-2.9,7.3c-.2.3-.2.5-.2.8v44.9c0,1.1.9,2,1.9,2h28.2c1.1,0,1.9-.9,1.9-2v-44.9c0-.3-.1-.6-.2-.8,0,0-2.9-7.3-2.9-7.3ZM387.28,67.29c0-.3.1-.5.1-.5h20.8s.2.2.2.5v3.2h-21.1v-3.2ZM386.78,72.49l22.3.1,2.7,6.7h-27.8s2.8-6.8,2.8-6.8ZM411.98,124.79v.1h-28.1s-.1-.1-.1-.2v-43.6h28.2v43.7Z"/>
          </g>
          <g id="katman_1-5" data-name="katman 1">
            <path d="M280.06,89.89c-1.3-8.1-6.7-14.2-13.1-14.2-7.4,0-13.4,8.1-13.4,18s6,18,13.4,18c2,0,3.8-.6,5.5-1.6.2.5.5.9.8,1.3,2.2,3,5.9,4.6,10.1,4.6s8.5-1.4,12.4-4.3c8-5.8,11-15.5,6.6-21.5-4.3-5.9-14.3-6-22.3-.3ZM271.96,100.49c-.9,2.8-.9,5.5-.2,7.8-1.5.9-3.1,1.5-4.8,1.5-6.4,0-11.5-7.2-11.5-16.1s5.2-16.1,11.5-16.1c5.8,0,10.5,5.9,11.4,13.6-3,2.7-5.3,5.9-6.4,9.3ZM294.66,110.19c-7.2,5.2-16.1,5.3-19.8.1-1.8-2.4-2.1-5.7-1-9.2,1.2-3.6,3.7-7,7.2-9.6,7.2-5.2,16.1-5.3,19.8-.1s.9,13.6-6.2,18.8ZM296.56,91.89c-.2.5-.7.8-1.2.6-.6-.2-1.3-.3-2.1-.4-1.1,0-2.3.1-3.6.4h-.2c-.4,0-.8-.3-.9-.7-.1-.5.2-1,.7-1.2,1.4-.4,2.8-.5,4.1-.5.9,0,1.8.2,2.6.4.5.3.7.9.6,1.4ZM286.26,92.79c.3.5.1,1-.4,1.3-.7.4-1.4.8-2,1.3-.2.1-.4.2-.6.2-.3,0-.6-.1-.8-.4-.3-.4-.2-1,.2-1.3.7-.5,1.5-1,2.2-1.4.5-.3,1.1-.2,1.4.3ZM278.96,54.89c-22.6,0-41,18.4-41,41s18.4,41,41,41,41-18.4,41-41-18.4-41-41-41ZM278.96,133.89c-21,0-38-17-38-38s17-38,38-38,38,17,38,38-17,38-38,38Z"/>
          </g>
          <g>
            <path d="M25.89,73.83c2.64,2.64,3.1,6.47,1.92,7.65s-4.79.5-7.43-2.14-3.39-6.16-2.14-7.43,5.01-.72,7.65,1.92Z"/>
            <path d="M37.99,78.01c.26,3.95-1.76,7.59-3.32,7.91s-3.72-2.5-3.97-6.42,1.34-7.51,3.03-7.84,4,2.38,4.25,6.36Z"/>
            <path d="M45.84,85.87c.26,3.95-1.76,7.59-3.32,7.91s-3.67-2.51-3.97-6.44,1.34-7.51,3.03-7.84,4,2.43,4.25,6.38Z"/>
            <path d="M53.77,93.79c.26,3.94-1.76,7.58-3.32,7.9s-3.72-2.49-3.98-6.43,1.34-7.51,3.03-7.84,4,2.43,4.26,6.38Z"/>
            <path d="M62.22,102.27c.26,3.95-1.77,7.59-3.33,7.91s-3.72-2.5-3.97-6.43,1.34-7.55,3.07-7.85,3.96,2.4,4.23,6.38Z"/>
            <path d="M24.51,91.5c3.95.26,7.59-1.77,7.9-3.33s-2.49-3.72-6.43-3.97-7.5,1.34-7.84,3.03,2.43,4,6.38,4.26Z"/>
            <path d="M32.36,99.35c3.95.26,7.59-1.76,7.9-3.33s-2.49-3.72-6.43-3.97-7.5,1.34-7.84,3.03,2.43,4,6.38,4.26Z"/>
            <path d="M40.28,107.27c3.95.26,7.59-1.76,7.91-3.32s-2.5-3.72-6.43-3.98-7.51,1.38-7.84,3.03,2.43,4,6.37,4.26Z"/>
            <path d="M48.72,115.72c3.95.26,7.59-1.76,7.9-3.32s-2.49-3.75-6.43-3.98-7.5,1.34-7.84,3.03,2.43,4,6.38,4.26Z"/>
            <rect x="61.37" y="111.01" width="4.29" height="11.22" rx="2.12" ry="2.12" transform="translate(-63.86 79.07) rotate(-45)"/>
            <path d="M42.5,54.89C19.86,54.89,1.5,73.25,1.5,95.89s18.36,41,41,41,41-18.36,41-41c-.03-22.63-18.37-40.97-41-41ZM42.5,133.19c-20.6,0-37.3-16.7-37.3-37.3,0-20.6,16.7-37.3,37.3-37.3,20.6,0,37.3,16.7,37.3,37.3-.03,20.59-16.71,37.27-37.3,37.3Z"/>
          </g>
        </g>
        <text class="cls-12" transform="translate(243.07 160.65)"><tspan class="cls-11" x="0" y="0">Y</tspan><tspan class="cls-7" x="10.02" y="0">umu</tspan><tspan class="cls-17" x="48.66" y="0">r</tspan><tspan class="cls-14" x="55.62" y="0">t</tspan><tspan x="62.1" y="0">a</tspan></text>
        <text class="cls-12" transform="translate(383.71 160.65)"><tspan x="0" y="0">Süt</tspan></text>
        <text class="cls-12" transform="translate(488.6 160.65)"><tspan x="0" y="0">Ha</tspan><tspan class="cls-18" x="22.67" y="0">r</tspan><tspan x="29.23" y="0">dal</tspan></text>
        <text class="cls-12" transform="translate(133.45 160.65)"><tspan x="0" y="0">Susam</tspan></text>
        <text class="cls-12" transform="translate(13.41 160.65)"><tspan x="0" y="0">Glu</tspan><tspan class="cls-6" x="27.87" y="0">t</tspan><tspan x="34.37" y="0">en</tspan></text>
      </g>
      <g>
        <g>
          <g id="katman_1-6" data-name="katman 1">
            <path d="M310.14,239.06c.05-.29-.04-.58-.23-.79-.19-.21-.47-.33-.76-.31-4.45.29-9.24,4.94-12,8.1-5.83-3.59-16.16-9.09-24.74-9.09s-18.95,5.72-23.1,9.58c-.98.91-1.54,2.27-1.54,3.71s.56,2.8,1.54,3.71c4.15,3.86,14.36,9.58,23.1,9.58s18.91-5.5,24.74-9.09c2.76,3.16,7.55,7.81,12,8.1.29.02.57-.09.76-.31.19-.21.28-.5.23-.79-.01-.08-1.35-8.38-1.36-11.2.01-2.83,1.35-11.12,1.36-11.2ZM249.67,250.26c0-.92.34-1.76.94-2.32,1.96-1.82,5.33-4.08,9.24-5.89.71.2,2.17,2.98,2.17,8.2s-1.46,8-2.17,8.2c-3.91-1.81-7.28-4.06-9.24-5.88-.6-.56-.94-1.4-.94-2.32h0ZM308.06,260.46c-3.92-1.06-8.22-5.73-10-7.84-.3-.36-.83-.44-1.23-.19-5.49,3.45-15.97,9.23-24.42,9.23-3.48,0-7.21-.97-10.66-2.37,1.43-1.76,2.17-5.4,2.17-9.02s-.74-7.26-2.17-9.02c3.45-1.4,7.18-2.37,10.66-2.37,8.45,0,18.93,5.78,24.42,9.23.4.25.93.17,1.23-.19,1.78-2.11,6.08-6.78,10-7.84-.38,2.5-1.17,7.9-1.18,10.2,0,2.29.8,7.69,1.18,10.19h0ZM258.28,248.69c0,1.16-.94,2.1-2.1,2.1s-2.1-.94-2.1-2.1.94-2.1,2.1-2.1,2.1.94,2.1,2.1ZM278.96,209.26c-22.61,0-41,18.39-41,41s18.39,41,41,41,41-18.39,41-41-18.39-41-41-41ZM278.96,288.26c-20.95,0-38-17.05-38-38s17.05-38,38-38,38,17.05,38,38-17.05,38-38,38Z"/>
          </g>
          <g id="katman_1-7" data-name="katman 1">
            <g>
              <path d="M160.05,209.26c-22.61,0-41,18.39-41,41s18.39,41,41,41,41-18.39,41-41-18.39-41-41-41ZM160.05,288.43c-21.05,0-38.17-17.12-38.17-38.17s17.12-38.17,38.17-38.17,38.17,17.12,38.17,38.17-17.12,38.17-38.17,38.17Z"/>
              <path d="M179.69,236.75c.22-.44.2-.96-.06-1.38s-.71-.67-1.2-.67h-4.38c-.66-3.22-3.51-5.66-6.93-5.66h-16.97c-.78,0-1.41.63-1.41,1.41s.63,1.41,1.41,1.41h16.97c1.84,0,3.4,1.19,3.98,2.83h-16.71c-4.66,0-8.88,1.89-11.95,4.94-.01.01-.03.02-.04.03s-.02.03-.03.04c-3.05,3.07-4.94,7.3-4.94,11.96,0,6.29,3.45,11.78,8.55,14.71.03.02.06.04.09.06,2.46,1.39,5.3,2.2,8.32,2.2h11.31c4.87,0,9.52-2.33,12.44-6.22.32-.43.37-1,.13-1.48-.24-.48-.73-.78-1.27-.78h-19.79c-3.12,0-5.66-2.54-5.66-5.66,0-2.14,1.2-3.98,2.96-4.94l1.28,1.28v3.66c0,.78.63,1.41,1.41,1.41s1.41-.63,1.41-1.41v-4.24c0-.38-.15-.74-.41-1l-.41-.41h3.66c12.05,0,17.98-11.6,18.23-12.09h.01ZM161.46,246.02h-2.83v-8.48h17.25c-2.15,3.06-7.01,8.48-14.42,8.48ZM155.81,237.54v8.61c-.5.08-.99.21-1.46.38-.03,0-.07.02-.1.04-.69.26-1.34.61-1.93,1.03l-6.86-6.86c2.44-2,5.55-3.2,8.94-3.2,0,0,1.41,0,1.41,0ZM143.45,242.73l6.86,6.86c-.73,1.02-1.23,2.21-1.45,3.49h-8.54c-.05-.47-.07-.94-.07-1.41,0-3.39,1.2-6.5,3.2-8.94ZM140.91,255.92h7.96c.22,1.29.72,2.47,1.45,3.49l-3.91,3.91c-2.57-1.77-4.53-4.37-5.49-7.41h-.01ZM148.99,264.73l3.33-3.33c1.02.73,2.21,1.23,3.49,1.45v2.95h-1.41c-1.91,0-3.74-.39-5.4-1.08h-.01ZM165.71,265.81h-7.07v-2.83h15.06c-2.24,1.8-5.07,2.83-7.99,2.83Z"/>
              <path d="M165.71,238.95h-1.41c-.78,0-1.41.63-1.41,1.41s.63,1.41,1.41,1.41h1.41c.78,0,1.41-.63,1.41-1.41s-.63-1.41-1.41-1.41Z"/>
            </g>
          </g>
          <g id="katman_1-8" data-name="katman 1">
            <g>
              <g>
                <path d="M518.07,223.54c-.61-.03-1.29.16-1.84.57-1.4,1.05-1.61,2.7-1.47,3.86.02.17.05.33.08.49-.09.01-.17.02-.25.03-.5.09-1.04.25-1.57.59-.52.33-1.03.89-1.23,1.62-.22.81.07,1.61.47,2.15s.89.91,1.37,1.21c.4.25.79.45,1.12.6-.07.89-.18,2.61-.19,4.36-.31,1.31-.22,2.61.25,3.71.49,1.15,1.43,2.11,2.69,2.44h0c.19.05.39.05.59,0,5.36-1.43,8.01-6.18,8.31-10.18.38-.18.86-.43,1.34-.76.5-.34,1.02-.75,1.42-1.32.4-.57.69-1.4.47-2.24-.2-.75-.73-1.34-1.29-1.65s-1.13-.42-1.64-.45h0c.03-.13.06-.26.08-.4.1-.6.14-1.28-.05-1.99s-.67-1.45-1.45-1.89c-.78-.45-1.66-.49-2.38-.31-.72.19-1.3.56-1.78.94-.16.13-.31.26-.45.39-.11-.16-.24-.33-.37-.49-.4-.46-.91-.93-1.65-1.17-.18-.06-.38-.09-.59-.1h0ZM517.84,225.77s.08.01.14.03c.12.04.37.21.61.49.48.55.83,1.36.83,1.36.16.38.51.64.92.69.41.05.81-.14,1.05-.47,0,0,.49-.67,1.14-1.19.33-.26.68-.45.95-.53.27-.07.43-.07.68.08s.33.27.39.53.07.63,0,1.03c-.13.79-.49,1.51-.49,1.51h0c-.2.39-.15.86.12,1.2s.72.5,1.14.4c0,0,.62-.13,1.21-.09.3.02.56.09.7.17s.17.09.21.27h0c.02.09.03.13-.13.35-.15.22-.48.51-.85.76-.74.5-1.57.83-1.57.83-.44.17-.73.59-.73,1.05,0,3.09-1.99,7.31-6.35,8.65-.39-.19-.71-.53-.93-1.05-.27-.64-.35-1.5-.11-2.4.03-.09.04-.19.04-.29,0-2.13.24-5.13.24-5.13.04-.51-.27-.99-.75-1.16,0,0-.78-.28-1.46-.71-.34-.21-.64-.47-.77-.65s-.11-.17-.1-.22h0c.03-.13.08-.19.25-.3.17-.11.47-.21.79-.28.63-.12,1.27-.08,1.27-.08h0c.41.03.79-.16,1.02-.49.23-.34.25-.77.07-1.13,0,0-.29-.6-.38-1.31s-.04-1.29.58-1.76c.14-.1.21-.14.25-.15h.02Z"/>
                <path d="M520.63,232.24c-.62-.07-1.18.37-1.25.99-1.09,9.51-4.22,12.88-7.86,16.27s-7.92,6.8-10.22,15.38c-.08.29-.04.6.11.85.15.26.4.45.69.53.29.08.6.04.86-.11s.45-.4.53-.69c2.16-8.07,5.83-10.83,9.57-14.31s7.43-7.7,8.57-17.67h0c.03-.3-.05-.59-.24-.83-.19-.23-.46-.39-.75-.42h0Z"/>
                <path d="M533.6,238.39c-1.11,0-2.17.16-2.95.37-1.56.42-4.24,1.43-6.57,2.85-1.17.71-2.25,1.52-3.04,2.48-.79.97-1.33,2.2-1.03,3.5,0,0,0,.03,0,.04.67,2.52,3.6,3.64,6.31,2.91.56-.15,1.71-.4,2.27-.51.83.55,2.77,1.73,5.06,2.34.91.25,1.95,0,2.48-.64.53-.65.59-1.36.59-1.98,0-.27-.02-.53-.04-.78h.65c.61-.03,1.28-.13,1.93-.45s1.29-.95,1.52-1.81c.27-1.01-.28-1.98-.91-2.53-.63-.55-1.37-.91-2.11-1.2-.17-.07-.34-.13-.51-.19.15-.18.3-.38.41-.63.27-.58.28-1.43-.1-2.08-.76-1.31-2.22-1.62-3.49-1.69-.16,0-.32-.01-.48-.01h0ZM533.21,240.66c.25,0,.5,0,.73,0,.95.05,1.55.35,1.67.57h0c-.03.06-.16.24-.38.4-.44.33-1.04.57-1.04.57h0c-.47.18-.77.65-.73,1.15.04.51.41.92.91,1.02,0,0,1.35.26,2.56.74.61.24,1.17.55,1.45.79.28.25.23.2.21.25-.05.2-.11.25-.34.37-.23.11-.63.2-1.05.22-.85.04-1.7-.14-1.7-.14h0c-.39-.09-.8.04-1.07.33s-.37.71-.25,1.09c0,0,.27,1,.27,1.74,0,.29-.05.45-.07.51-.03,0-.03-.02-.16-.05-2.53-.68-4.74-2.28-4.74-2.28-.26-.19-.58-.26-.89-.2,0,0-1.95.4-2.87.65-1.77.47-3.26-.29-3.54-1.29-.09-.44.05-.91.58-1.55.53-.65,1.43-1.36,2.47-1.99,2.07-1.27,4.71-2.26,5.99-2.6h0c.48-.13,1.23-.25,1.98-.29h0Z"/>
                <path d="M531.68,243.54c-5.16.59-8.85,1.14-11.1,3.39-3.02,3.02-6.68,8.94-16.36,11.54-.29.08-.53.27-.68.53s-.19.57-.11.86.27.54.53.69c.26.15.57.19.86.11,10.39-2.78,14.8-9.55,17.37-12.12,1.44-1.44,4.67-2.16,9.76-2.74h0c.3-.03.57-.18.76-.42.19-.23.27-.53.24-.83-.03-.3-.19-.57-.42-.75-.23-.19-.53-.27-.83-.24h0l-.02-.02Z"/>
                <path d="M523.46,248.49c-.4,0-.77.21-.98.56-2.19,3.79-9.06,12.4-22.83,16.09h0c-.6.16-.96.78-.8,1.38.08.29.27.53.53.69.26.15.57.19.86.11,14.43-3.86,21.73-12.86,24.2-17.14.15-.26.19-.57.11-.86-.08-.29-.27-.53-.53-.68-.17-.1-.37-.15-.56-.15h0Z"/>
                <path d="M526.1,251.61c-.73.03-1.41.15-1.94.29-4.69,1.26-8.75,5.17-8.75,5.17h0c-.38.35-.46.92-.21,1.37s.78.67,1.28.54c2.16-.58,3.15-.39,3.77-.08.62.32,1.04.94,1.81,1.71.85.85,1.46,1.33,2.15,1.59s1.23.3,2.23.57c.75.2,1.7,0,2.16-.58s.51-1.17.51-1.67c0-.11,0-.22,0-.32h.21c.49-.02,1.03-.1,1.58-.37.55-.27,1.1-.82,1.3-1.55.23-.88-.25-1.74-.77-2.19-.51-.45-1.11-.73-1.68-.96-.02,0-.04,0-.06-.02.05-.07.09-.15.13-.23.23-.5.24-1.27-.09-1.83h0c-.65-1.12-1.86-1.36-2.87-1.42-.25,0-.5-.02-.75,0h0v-.02ZM526.19,253.87h.53c.43.03.72.13.89.2-.02,0-.03.03-.05.04-.29.22-.72.39-.72.39h0c-.48.18-.78.65-.73,1.15.04.51.41.92.91,1.01,0,0,1,.2,1.9.55.45.18.85.4,1.02.55t-.03.02c-.12.06-.39.12-.69.14-.6.03-1.22-.1-1.22-.1h0c-.39-.09-.8.04-1.07.33s-.37.71-.25,1.09c0,0,.2.74.19,1.24v.04c-.98-.26-1.56-.35-1.84-.46-.31-.12-.58-.29-1.36-1.07h0c-.54-.54-1.15-1.49-2.38-2.12-.4-.2-.86-.35-1.37-.43,1.4-.94,3.12-1.92,4.84-2.38.34-.09.9-.18,1.44-.21h0v.02Z"/>
                <path d="M515.48,239.21c-.41,0-.78.21-.98.56-3.53,6.11-7.14,8.6-10.7,11.98-3.48,3.3-6.76,7.45-9.18,16.1-.38.12-.88.29-1.39.52-.52.23-1.07.52-1.56.91-.49.4-.99.95-1.08,1.76-.18,1.6.66,3.03,1.75,4.09s2.51,1.83,4.04,1.83c.77,0,1.36-.36,1.83-.75s.87-.84,1.21-1.28c.4-.53.68-.97.87-1.31,8.82-2.51,16.47-8.87,21.83-14.66h0c.2-.22.31-.51.3-.81,0-.3-.14-.58-.36-.79-.46-.42-1.17-.4-1.59.06-5.29,5.71-12.88,11.91-21.22,14.14h0c-.3.08-.56.29-.71.57,0,0-.39.72-.92,1.43-.27.35-.57.69-.83.9s-.44.24-.41.24c-.68,0-1.72-.47-2.47-1.2-.75-.73-1.15-1.63-1.08-2.22h0c0,.06.01-.07.26-.26s.64-.42,1.06-.61c.83-.37,1.67-.58,1.67-.58.4-.1.71-.41.81-.8,2.35-8.76,5.33-12.44,8.73-15.67s7.37-6.03,11.1-12.49h0c.31-.54.13-1.23-.41-1.54-.17-.1-.37-.15-.56-.15h0v.03ZM528.32,247.98c-.4,0-.78.21-.98.56-.53.91-1.34,2.14-2.37,3.54h0c-.37.5-.27,1.21.23,1.58.24.18.54.25.84.21s.56-.2.74-.44c1.08-1.45,1.93-2.74,2.52-3.75.15-.26.19-.57.11-.86-.08-.29-.27-.53-.53-.69-.17-.1-.37-.15-.56-.15h0Z"/>
                <path d="M505.39,235.56c-.11,0-.22.03-.33.06-.73.19-1.28.75-1.54,1.3-.27.55-.34,1.09-.37,1.58v.21c-.11,0-.21-.01-.33,0-.5,0-1.09.04-1.67.51s-.78,1.41-.58,2.16h0c.27,1,.31,1.54.57,2.23s.73,1.3,1.59,2.15c.77.77,1.39,1.19,1.71,1.81.32.62.5,1.61-.08,3.77h0c-.13.49.09,1.02.54,1.27s1.01.17,1.37-.21c0,0,3.91-4.06,5.17-8.74.19-.71.34-1.68.28-2.69s-.3-2.22-1.42-2.87h0c-.57-.33-1.33-.33-1.83-.09-.09.04-.16.09-.23.13,0-.02,0-.04-.02-.06-.23-.58-.51-1.17-.96-1.68-.4-.45-1.11-.88-1.87-.83h0ZM505.56,237.88c.15.17.38.58.55,1.02.35.89.55,1.9.55,1.9h0c.1.49.51.87,1.02.91.51.04.97-.26,1.15-.73,0,0,.17-.43.39-.72,0-.02.03-.03.04-.05.08.17.18.45.2.89.04.68-.08,1.52-.21,1.97h0c-.46,1.72-1.44,3.44-2.38,4.84-.09-.51-.23-.97-.43-1.37-.63-1.23-1.58-1.84-2.12-2.38-.78-.78-.96-1.05-1.08-1.36-.11-.29-.2-.86-.46-1.84h.04c.5,0,1.24.19,1.24.19h0c.38.12.8.02,1.09-.25s.42-.68.34-1.07c0,0-.13-.62-.1-1.22.01-.3.08-.57.14-.69,0-.02,0-.02,0-.03h.02Z"/>
                <path d="M509.1,227.64c-.12,0-.24.03-.37.06-.83.22-1.45.85-1.76,1.49-.31.63-.41,1.29-.43,1.88,0,.2,0,.39,0,.58-.23-.02-.46-.04-.7-.04-.6,0-1.29.05-1.93.57s-.87,1.55-.63,2.43c.35,1.29.4,1.97.71,2.8.11.28.32.51.59.63.27.12.58.13.86.03.58-.22.87-.87.65-1.46-.17-.44-.26-1.17-.64-2.58,0-.06-.02-.08-.03-.11.09-.02.23-.05.43-.05.7,0,1.65.26,1.65.26h0c.38.11.8.02,1.09-.26.29-.27.42-.68.33-1.07,0,0-.17-.82-.13-1.62.02-.4.1-.78.21-.99.1-.21.14-.25.32-.3.03,0-.04-.07.19.19s.53.8.76,1.38c.46,1.17.71,2.45.71,2.45.09.5.51.87,1.01.91.51.04.98-.26,1.15-.73,0,0,.23-.58.54-.99h0c.18-.24.25-.54.21-.84-.04-.29-.2-.56-.44-.74-.25-.17-.55-.23-.84-.17-.08-.24-.16-.47-.25-.72-.28-.71-.63-1.44-1.16-2.04-.47-.53-1.25-1.01-2.1-.95h0Z"/>
                <path d="M535.39,246.59h-.14c-.35,0-.67.18-.88.46-.21.28-.27.65-.17.98.03.08.28,1.06.27,1.77,0,.27-.05.41-.07.47-.03,0-.03-.02-.17-.05-1.52-.41-2.94-1.15-3.82-1.69h0c-.35-.21-.78-.22-1.14-.02-2.81,1.58-4.89,3.54-4.89,3.54-.38.35-.47.92-.21,1.37.25.45.78.67,1.28.54,2.16-.58,3.15-.39,3.77-.08.62.32,1.04.94,1.81,1.71.85.85,1.46,1.33,2.15,1.59.69.26,1.23.3,2.23.57.75.2,1.7,0,2.16-.58.47-.58.51-1.17.51-1.67,0-.11,0-.22-.01-.32h.21c.49-.02,1.03-.1,1.58-.37s1.1-.82,1.3-1.55c.24-.88-.25-1.74-.77-2.19-.51-.45-1.11-.73-1.68-.96-.02,0-.04,0-.06-.02.05-.07.09-.15.13-.23.23-.5.24-1.27-.09-1.83h0c-.1-.17-.22-.33-.35-.47h0c-.42-.43-.93-.65-1.43-.79h0c-.08-.02-.16-.03-.24-.04-.51-.02-.91-.09-1.06-.12-.07,0-.14-.02-.21-.02h-.01ZM529.85,250.8c.98.55,2.3,1.19,3.81,1.59.9.24,1.92.03,2.46-.61.02-.03.04-.05.06-.08.24.05.95.21,1.71.51.45.18.85.41,1.02.55t-.03.02c-.12.06-.39.12-.69.14-.6.03-1.22-.1-1.22-.1h0c-.39-.09-.8.04-1.07.33s-.37.71-.25,1.09c0,0,.2.74.19,1.24v.04c-.98-.26-1.56-.35-1.84-.46-.31-.12-.58-.29-1.36-1.07-.54-.54-1.15-1.5-2.38-2.12-.41-.21-.88-.35-1.4-.44.31-.21.65-.42,1-.63h0Z"/>
                <path d="M530.74,227c-.69-.01-1.35.21-1.92.52-.76.41-1.42.99-2,1.6-.25.27-.36.64-.29,1s.31.66.65.81c.2.09.23.1.28.31.02.09.03.13-.13.35-.15.22-.48.51-.85.76-.74.5-1.57.83-1.57.83h0c-.44.17-.72.59-.72,1.05,0,1.72-.63,3.84-1.93,5.56h0c-.1.14-.18.3-.21.47-.27,1.45-.43,2.72-.52,3.68h0c-.05.46.2.91.61,1.11.42.21.92.14,1.27-.17.61-.56,1.43-1.11,2.31-1.62h0c.07-.04.14-.09.2-.14.96-.87,1.72-1.14,2.53-1.24.1,0,.19-.04.29-.07.99-.41,1.9-.71,2.5-.87h0c.97-.26,3.08-.4,3.93-.05.34.14.72.11,1.03-.09.5-.31,1.03-.67,1.84-1.14.89-.51,1.48-1.47,1.39-2.34-.09-.88-.59-1.47-1.06-1.95-.25-.25-.51-.47-.76-.67.2-.19.41-.39.62-.62.45-.5.9-1.1,1.15-1.84s.26-1.7-.21-2.52h0c-.1-.18-.23-.34-.37-.49h0c-.73-.74-1.75-.81-2.59-.69-.85.12-1.67.43-2.42.77-.18.08-.34.17-.51.25,0-.32-.05-.65-.18-.99-.23-.64-.85-1.27-1.64-1.49-.24-.06-.47-.09-.71-.1h0v.02ZM530.68,229.26c.07,0,.12,0,.18.02.16.04.08,0,.11.08.03.09.06.36,0,.68-.09.63-.39,1.31-.39,1.31h0c-.21.46-.09,1,.3,1.33s.94.36,1.36.07c0,0,1.16-.78,2.45-1.37.65-.29,1.32-.53,1.81-.59.49-.07.65.02.67.04l.02.03c.13.23.13.37.03.67-.1.3-.36.69-.69,1.05-.65.72-1.48,1.26-1.48,1.26h0c-.34.21-.54.59-.52.99,0,.4.24.76.59.95,0,0,1.02.57,1.62,1.18.3.31.42.6.42.59,0,0,.16-.09-.27.16-.63.36-1.07.65-1.46.89-1.71-.49-3.59-.18-4.8.15-.7.19-1.62.5-2.64.91-1.11.17-2.33.66-3.5,1.69-.13.08-.27.16-.4.24.04-.23.08-.47.12-.7,1.33-1.85,2.04-3.96,2.19-5.93.38-.18.86-.43,1.34-.76.5-.34,1.02-.75,1.42-1.32.4-.57.69-1.4.47-2.24h0c-.07-.28-.19-.52-.34-.75.2-.16.41-.3.59-.4.34-.18.6-.25.79-.25h0v.02Z"/>
              </g>
              <circle class="cls-15" cx="515.9" cy="250.26" r="41"/>
            </g>
          </g>
          <g id="katman_1-9" data-name="katman 1">
            <g>
              <g>
                <path class="cls-16" d="M57.04,274.42c-1.97,0-7.45-1.19-10.74-4.12-2.65-2.38-3.54-5.51-2.65-9.08-.92-.34-2.31-.95-3.43-2.14-.41-.41-.37-1.02,0-1.43.41-.41,1.05-.37,1.46.03,1.43,1.46,3.4,1.8,3.4,1.8.31.07.58.24.71.48.17.27.2.58.1.85-.92,2.69-.68,4.9.68,6.73,2.58,3.54,8.53,4.63,10.2,4.8.95-1.39,3.84-6.7,2.79-10.95-.58-2.21-2.14-3.77-4.8-4.76-.27-.1-.51-.34-.61-.61-.1-.31-.07-.61.1-.85,0-.03,1.33-2.45.51-4.86-.58-1.73-2.11-3.13-4.49-4.15-.51-.2-.75-.71-.58-1.22.61-2.07.41-3.88-.61-5.54-2.38-3.95-8.74-5.75-10.88-6.29-.27.58-.68,1.46-1.09,2.52-.2.54-.78.82-1.33.61-.51-.2-.78-.78-.58-1.33.75-2.01,1.5-3.4,1.53-3.43.14-.2.31-.37.48-.44.27-.1.58-.14.85,0,2.11.27,7.51,2.07,10.64,4.8,2.79,2.45,3.88,5.48,3.16,8.84,2.52,1.22,4.15,2.92,4.83,5,.75,2.21.24,4.29-.2,5.48,3.33,1.56,5.17,4.25,5.31,7.82.2,5.1-3.2,10.95-4.08,11.36-.14.07-.34.1-.68.1h0v-.02Z"/>
                <path class="cls-16" d="M32.87,279.28c-.95,0-6.56-3.84-8.57-8.53-1.39-3.26-.88-6.49,1.46-9.35-.92-.88-2.24-2.55-2.52-4.83-.27-2.18.48-4.42,2.21-6.6-1.43-1.87-2.01-3.95-1.77-6.15.68-6.49,8.26-12,8.6-12.24.17-.14.37-.2.58-.2.88,0,6.29,4.66,8.3,9.15,1.53,3.47,1.22,6.7-.88,9.45,1.73,2.18,2.52,4.42,2.24,6.6-.27,2.28-1.63,3.95-2.55,4.83,2.35,2.86,2.86,6.09,1.46,9.35-1.97,4.69-7.58,8.53-8.57,8.53h0ZM32.87,233.69c-1.73,1.39-6.66,5.75-7.17,10.34-.2,1.94.41,3.67,1.87,5.27.34.37.34.95,0,1.36-1.73,1.94-2.52,3.84-2.31,5.65.31,2.55,2.55,4.15,2.55,4.18.27.17.41.44.44.75.03.27-.07.58-.27.78-1.97,2.04-2.72,4.12-2.28,6.39.82,4.29,5.75,7.85,7.17,8.7,1.43-.85,6.36-4.42,7.21-8.7.41-2.24-.31-4.35-2.28-6.39-.2-.2-.31-.51-.31-.78.03-.31.2-.58.44-.75.03-.03,2.24-1.6,2.55-4.18.2-1.8-.58-3.67-2.31-5.65-.34-.41-.34-.99.03-1.36,1.43-1.6,2.04-3.33,1.84-5.27-.48-4.59-5.44-8.94-7.17-10.34h0Z"/>
                <path class="cls-16" d="M33.61,249.97c-.31,0-.58-.07-.88-.17-1.8-.65-3.95-3.33-4.32-6.49v-.24c.37-3.13,2.52-5.81,4.32-6.46.82-.31,1.56-.2,2.11.27.71.68.85,1.9.34,3.71-.03.07-.03.14-.07.2-.58,1.12-.58,3.67,0,4.83.03.03.03.1.07.17.51,1.8.37,3.03-.34,3.71-.34.31-.78.48-1.22.48h0ZM30.45,243.21c.37,2.58,2.21,4.42,2.99,4.69,0-.2,0-.65-.2-1.46-.82-1.7-.82-4.76,0-6.46.2-.82.2-1.26.2-1.46-.78.24-2.62,2.11-2.99,4.69h0Z"/>
                <path class="cls-16" d="M33.72,275.13c-.27,0-.58-.03-.85-.17-1.8-.65-3.95-3.33-4.32-6.46v-.24c.37-3.16,2.52-5.85,4.32-6.49.78-.31,1.56-.2,2.07.27.75.71.85,1.9.34,3.74,0,.07-.03.1-.07.17-.54,1.12-.54,3.71,0,4.83.03.07.07.14.07.17.51,1.84.41,3.03-.34,3.74-.34.31-.75.44-1.22.44h0ZM30.59,268.37c.34,2.58,2.21,4.46,2.96,4.69.03-.2.03-.65-.2-1.46-.78-1.7-.78-4.76,0-6.46.24-.82.24-1.26.2-1.46-.75.27-2.62,2.11-2.96,4.69h0Z"/>
                <path class="cls-16" d="M32.87,258.34c-1.63,0-2.99-1.36-2.99-3.03s1.36-2.99,2.99-2.99,3.03,1.36,3.03,2.99-1.36,3.03-3.03,3.03ZM32.87,254.36c-.51,0-.95.44-.95.95,0,.54.44.99.95.99.54,0,.99-.44.99-.99,0-.51-.44-.95-.99-.95Z"/>
                <path class="cls-16" d="M31.13,234.84c-.31,0-.58-.14-.78-.37-.2-.24-.41-.51-.58-.75h-.03c-1.22-1.67-2.38-3.64-2.04-5.14v-.07c.27-1.16.78-1.9,1.53-2.24h.07c.85-.34,1.7-.07,2.48.34-.03-.51-.07-1.02-.07-1.5,0-1.73.34-3.37,1.63-3.77l.07-.03c.07-.03.1-.03.17-.07h.24c1.73-.03,2.75,2.28,3.33,4.35.58-.65,1.29-1.19,2.18-1.19s1.67.51,2.35,1.56c.34.51.48,1.26.48,2.04,0,1.87-.71,4.12-1.02,4.93-.2.54-.78.82-1.33.61-.41-.14-.68-.54-.68-.95,0-.1.03-.24.07-.34.54-1.46.92-3.26.92-4.35,0-.37-.03-.65-.14-.82-.34-.54-.58-.65-.65-.65-.37,0-1.16,1.22-1.46,1.7-.14.17-.27.37-.37.54-.24.34-.65.48-1.05.41-.41-.1-.71-.44-.78-.85-.37-2.14-1.16-4.39-1.7-4.86-.14.27-.2.85-.2,1.56,0,1.02.14,2.35.37,3.6.03.07.03.14.03.2,0,.34-.17.65-.44.85-.37.24-.82.24-1.16,0-.17-.1-.34-.24-.51-.37-.48-.34-1.67-1.19-2.01-1.05-.03,0-.24.2-.37.82-.1.54.65,2.21,2.24,4.15v.03c.17.2.24.41.24.65,0,.31-.14.61-.37.78-.17.17-.41.24-.65.24h0Z"/>
                <path class="cls-16" d="M48.47,256.02c-1.84,0-3.33-1.5-3.33-3.33s1.5-3.33,3.33-3.33,3.37,1.5,3.37,3.33-1.5,3.33-3.37,3.33ZM48.47,251.4c-.71,0-1.29.58-1.29,1.29s.58,1.29,1.29,1.29,1.33-.58,1.33-1.29-.61-1.29-1.33-1.29Z"/>
                <path class="cls-16" d="M52.76,268.5c-1.84,0-3.33-1.5-3.33-3.33s1.5-3.33,3.33-3.33,3.37,1.5,3.37,3.33-1.5,3.33-3.37,3.33ZM52.76,263.88c-.71,0-1.29.58-1.29,1.29s.58,1.29,1.29,1.29,1.33-.58,1.33-1.29-.61-1.29-1.33-1.29Z"/>
                <path class="cls-16" d="M45.82,244.12c-1.67,0-3.03-1.36-3.03-3.03s1.36-3.03,3.03-3.03,2.99,1.36,2.99,3.03-1.33,3.03-2.99,3.03ZM45.82,240.11c-.54,0-.99.44-.99.99s.44.99.99.99c.51,0,.95-.44.95-.99s-.44-.99-.95-.99Z"/>
              </g>
              <circle class="cls-15" cx="42.5" cy="250.26" r="41"/>
            </g>
          </g>
          <g id="katman_1-10" data-name="katman 1">
            <g>
              <path d="M417.13,232.67c-2.35-1.15-5.1-1.11-7.74.12-2.57,1.2-4.73,3.39-6.1,6.17-1.23,2.51-1.69,5.3-1.28,7.86.07.48-.26.86-.62,1.03-1.11.51-2.14,1.2-3.08,2.03-.64-.76-1.34-1.45-2.1-2.06-.52-.42-.72-1.07-.49-1.61,1.19-2.85,1.45-6.2.73-9.45-.79-3.61-2.68-6.75-5.31-8.86-2.69-2.16-5.84-2.98-8.86-2.32-6.16,1.35-9.83,8.57-8.17,16.09.71,3.25,2.36,6.19,4.63,8.27.44.4.53,1.07.23,1.67-1.64,3.28-2.07,7.25-1.21,11.17,1.6,7.27,7.24,12.39,13.17,12.39.73,0,1.47-.08,2.2-.24,2.45-.54,4.59-1.93,6.21-4,1,.37,2.04.56,3.1.56,4.28,0,8.75-2.92,11.1-7.73,1.48-3.02,1.92-6.34,1.24-9.34h0c-.11-.47.07-.92.43-1.13,2.27-1.25,4.2-3.32,5.43-5.83,1.37-2.78,1.77-5.84,1.15-8.6-.64-2.84-2.29-5.04-4.64-6.19h-.02ZM416.8,234.66c.57,1.78.58,4,0,6.32-.72-.62-1.53-1.16-2.4-1.62l2.32-4.74s.05.03.07.04h.01ZM410.1,245.87l-2.52,5.14c-.54-.27-1.07-.53-1.56-.78.7-1.07,1.15-2.31,1.25-3.59.05-.6.15-1.21.28-1.82.84.3,1.69.64,2.55,1.05ZM407.79,243.83c.27-.95.63-1.9,1.08-2.82.36-.74.78-1.44,1.23-2.1.99.17,1.99.47,2.98.9l-2.52,5.15c-.93-.44-1.85-.82-2.76-1.13h-.01ZM407.14,251.91l-2.52,5.14c-1.14-.59-2.2-1.25-3.13-1.95.87-1.2,1.84-2.26,2.93-3.12.36-.28.68-.6.98-.94.54.27,1.12.56,1.74.87ZM404.18,257.95l-2.52,5.15c-1.12-.6-2.13-1.35-2.98-2.21.29-1.03.68-2.08,1.19-3.11.32-.65.67-1.26,1.05-1.85.97.72,2.06,1.41,3.27,2.03h0ZM405.08,258.39c1.23.57,2.44,1.02,3.6,1.34-.23.66-.5,1.32-.82,1.96-.51,1.03-1.09,1.98-1.73,2.84-1.21-.14-2.41-.48-3.57-1l2.52-5.15h0ZM405.52,257.49l2.52-5.15c.62.3,1.21.59,1.75.85-.09.45-.14.9-.15,1.35,0,1.38-.26,2.8-.67,4.22-1.12-.31-2.29-.74-3.46-1.28h0ZM408.48,251.45l2.52-5.15c.84.43,1.65.89,2.39,1.37-.41.48-.83.94-1.28,1.35-.94.86-1.66,1.97-2.07,3.19-.5-.24-1.03-.49-1.57-.76h0ZM411.44,245.4l2.52-5.15c.94.5,1.79,1.11,2.54,1.8-.24.75-.54,1.51-.91,2.26-.45.92-.98,1.79-1.57,2.58-.81-.52-1.67-1.02-2.59-1.49h0ZM415.77,234.15s.04.02.07.03l-2.33,4.74c-.91-.41-1.83-.71-2.76-.91,1.04-1.31,2.23-2.39,3.51-3.15.5-.3,1.01-.53,1.5-.71h.01ZM410.2,234.51c1.11-.52,2.23-.77,3.31-.77.23,0,.46.01.69.04-.14.08-.29.14-.43.23-1.53.9-2.94,2.23-4.13,3.83-1.21-.14-2.39-.1-3.5.1,1.1-1.5,2.49-2.69,4.07-3.43h0ZM405,239.8c.11-.23.24-.45.36-.67,1.12-.33,2.35-.45,3.62-.36-.37.57-.71,1.17-1.02,1.8-.47.96-.85,1.95-1.13,2.95-1-.3-1.96-.52-2.85-.65.2-1.04.54-2.08,1.02-3.06h0ZM403.89,246.53c-.14-.86-.15-1.76-.06-2.66.87.13,1.8.33,2.77.63-.15.69-.27,1.38-.33,2.06-.09,1.15-.5,2.26-1.15,3.21-.69-.35-1.31-.68-1.89-.99.53-.62.79-1.43.66-2.26h0ZM402.19,249.58c.06-.03.12-.07.17-.1.62.33,1.32.69,2.11,1.09-.21.22-.43.44-.67.63-1.14.9-2.17,2.02-3.09,3.28-.86-.72-1.58-1.47-2.13-2.2,1.05-1.15,2.27-2.08,3.61-2.7ZM396.96,251.24c-.86.98-1.6,2.09-2.2,3.31-.02.03-.03.07-.04.1-.63-1.34-1.38-2.59-2.25-3.69-.26-.33-.48-.69-.69-1.07,1.08-.26,2.11-.51,3.06-.76.06.06.12.12.18.17.71.57,1.35,1.22,1.94,1.93h0ZM397.3,267.33c-2.02-2.23-2.7-5.77-1.78-9.34.51,1.15,1.21,2.22,2.06,3.17-.54,2.19-.62,4.31-.28,6.18h0ZM390.36,249.2c-.72.17-1.48.34-2.27.51l-1.53-6.95c1.2-.25,2.38-.43,3.51-.54-.02.8-.07,1.59-.19,2.36-.25,1.54-.07,3.15.47,4.62h0ZM386.35,241.79l-1.53-6.95c1.34-.25,2.67-.32,3.94-.22.35.92.64,1.88.86,2.88.27,1.24.42,2.5.46,3.72-1.21.11-2.46.3-3.74.56h.01ZM385.37,242c-1.27.3-2.48.65-3.63,1.06-.48-1.13-.87-2.33-1.14-3.58-.22-1-.36-2-.42-2.98,1.11-.62,2.34-1.11,3.67-1.45l1.53,6.95h-.01ZM385.59,242.98l1.53,6.95c-.79.17-1.55.34-2.27.48-.12-1.56-.63-3.1-1.51-4.39-.43-.64-.81-1.34-1.16-2.06,1.08-.38,2.22-.71,3.41-.99h0ZM384.64,253.12c.13-.55.2-1.12.22-1.69.77-.16,1.59-.34,2.47-.53l1.53,6.95c-1.6.32-3.17.51-4.66.54-.09-1.83.05-3.61.44-5.27ZM389.07,258.83l1.53,6.95c-1.59.3-3.17.35-4.67.15-.51-1.21-.94-2.51-1.24-3.89-.2-.89-.33-1.78-.42-2.66,1.54-.04,3.16-.22,4.8-.56h0ZM390.05,258.62c1.27-.3,2.49-.67,3.63-1.11-.65,2.55-.6,5.11.11,7.33-.71.3-1.45.54-2.21.73,0,0-1.53-6.95-1.53-6.95ZM389.83,257.64l-1.53-6.95c.84-.19,1.66-.37,2.46-.56.26.51.56,1,.91,1.45,1,1.27,1.82,2.75,2.49,4.36-.04.11-.08.23-.12.34-1.3.55-2.72,1.01-4.21,1.36ZM394.15,248.28c-.85.22-1.78.45-2.81.69-.52-1.34-.7-2.81-.47-4.23.14-.84.19-1.71.21-2.6,1.34-.08,2.6-.06,3.74.06-.15,1.14-.43,2.25-.86,3.27-.39.93-.29,1.94.2,2.8h0ZM394.59,237.16c.3,1.35.4,2.72.32,4.04-1.17-.12-2.45-.15-3.82-.07-.04-1.28-.2-2.57-.48-3.86-.19-.87-.44-1.72-.73-2.54,1.65.26,3.19.79,4.49,1.57.08.28.16.56.22.85h0ZM389.95,229.37c1.74,1.4,3.11,3.33,3.97,5.58-1.34-.65-2.85-1.09-4.46-1.28-.93-2.23-2.2-4.19-3.73-5.68-.26-.25-.53-.49-.8-.71,1.73.14,3.46.84,5.01,2.09h0ZM383.31,227.33c.59.38,1.16.83,1.72,1.38,1.33,1.3,2.46,2.97,3.31,4.88-1.21-.05-2.47.04-3.73.28l-1.43-6.51s.09-.02.13-.02h0ZM382.06,227.61s.09-.03.14-.04l1.43,6.51c-1.25.31-2.43.76-3.51,1.32-.03-2.09.29-4.08.96-5.82.28-.72.61-1.38.98-1.96h0ZM380.57,228.25c-.15.31-.29.63-.42.96-.77,2-1.1,4.31-1.01,6.73-1.38.84-2.56,1.88-3.51,3.03-.3-4.67,1.66-8.87,4.93-10.72h.01ZM375.96,241.26c-.06-.29-.11-.58-.15-.86.86-1.26,2.02-2.38,3.42-3.31.08.86.21,1.74.41,2.61.28,1.29.68,2.53,1.18,3.71-1.27.5-2.43,1.06-3.44,1.66-.63-1.17-1.11-2.46-1.41-3.81h-.01ZM377.87,245.93c.98-.59,2.11-1.13,3.37-1.62.39.8.8,1.57,1.28,2.27.8,1.19,1.26,2.6,1.34,4.04-1.03.21-1.98.39-2.84.55.08-.98-.26-1.95-1-2.63-.82-.75-1.54-1.64-2.15-2.61ZM383.2,258.4c-1.19-.03-2.31-.15-3.33-.37-.22-.05-.41-.1-.62-.16.12-1.92.58-3.76,1.4-5.4.03-.07.06-.14.09-.21.9-.17,1.93-.37,3.1-.61-.03.42-.08.84-.18,1.25-.41,1.73-.56,3.59-.47,5.5h.01ZM379.6,262.37c-.26-1.17-.37-2.34-.38-3.48.15.04.28.08.43.11,1.1.24,2.33.36,3.61.38.09.95.23,1.91.44,2.88.27,1.22.63,2.38,1.06,3.47-1.8-.39-3.45-1.12-4.85-2.12-.12-.41-.23-.82-.33-1.24h.02ZM380.49,265.16c1.42.81,3.04,1.38,4.76,1.67,1.21,2.65,2.86,4.85,4.73,6.37-3.94-.43-7.61-3.53-9.48-8.04h-.01ZM391.69,273.23c-2.05-1.29-3.91-3.47-5.28-6.24.46.04.92.07,1.4.07.98,0,1.99-.11,3-.3l1.41,6.4c-.18.03-.35.06-.53.08h0ZM393.71,272.79c-.17.06-.34.1-.51.15l-1.41-6.39c.81-.2,1.59-.46,2.34-.77.36.87.83,1.67,1.4,2.38-.17.83-.4,1.64-.69,2.4-.32.83-.7,1.57-1.13,2.24h0ZM395.29,272.03c.17-.36.34-.73.49-1.12.23-.6.41-1.22.57-1.86.38.37.79.71,1.24,1.01-.68.8-1.45,1.46-2.29,1.98h-.01ZM396.39,257.5c-.15-.36-.28-.72-.39-1.08.14-.35.29-.7.46-1.04.41-.84.9-1.61,1.45-2.32.59.75,1.34,1.51,2.22,2.23-.42.65-.81,1.32-1.16,2.03-.43.88-.78,1.78-1.07,2.67-.61-.77-1.13-1.6-1.51-2.49ZM398.94,268.64c-.12-.07-.25-.14-.36-.21-.6-1.82-.67-4.07-.17-6.44.83.77,1.77,1.44,2.81,2,0,0-2.28,4.65-2.28,4.65ZM399.83,269.08l2.28-4.66c1.08.48,2.19.81,3.31,1-1.57,1.85-3.39,3.18-5.2,3.82-.13-.04-.26-.1-.39-.15h0ZM401.89,269.57c1.68-.87,3.31-2.24,4.71-4.01.29.02.59.05.88.05.98,0,1.94-.12,2.88-.36-2.26,2.91-5.48,4.54-8.47,4.31h0ZM411.83,262.92c-.17.34-.35.68-.54,1-.35.13-.71.26-1.09.35-.94.24-1.91.35-2.9.34.53-.77,1.02-1.59,1.46-2.48.35-.71.64-1.43.9-2.16,1.11.25,2.16.38,3.11.38-.23.87-.53,1.73-.94,2.57ZM412.99,259.35c-.91,0-1.93-.1-3.02-.34.43-1.5.67-3,.68-4.46,0-.31.04-.61.08-.92.8.38,1.52.71,2.16,1,0,.07,0,.13.03.2.33,1.45.34,2.98.07,4.51h0ZM414.28,251.63c-.73.4-1.22,1.1-1.38,1.91-.6-.27-1.24-.57-1.94-.89.35-1.09.98-2.11,1.83-2.88.51-.46.98-.98,1.43-1.53.83.58,1.57,1.19,2.2,1.8-.66.63-1.38,1.17-2.15,1.59h0ZM418.92,246.63c-.48.99-1.1,1.89-1.8,2.68-.65-.63-1.41-1.25-2.27-1.86.61-.83,1.17-1.74,1.64-2.7.31-.63.57-1.27.79-1.91.69.77,1.27,1.61,1.69,2.51.09.2.17.39.24.59-.1.23-.19.46-.31.69h.02ZM419.7,244.58c-.53-1.02-1.23-1.98-2.07-2.83.6-2.16.73-4.26.41-6.1.9.94,1.55,2.17,1.88,3.62.38,1.69.3,3.52-.22,5.3h0Z"/>
              <path d="M397.88,209.26c-22.61,0-41,18.39-41,41s18.39,41,41,41,41-18.39,41-41-18.39-41-41-41ZM397.88,288.26c-20.95,0-38-17.05-38-38s17.05-38,38-38,38,17.05,38,38-17.05,38-38,38Z"/>
            </g>
          </g>
        </g>
        <text class="cls-12" transform="translate(258.32 316.42)"><tspan x="0" y="0">Balık</tspan></text>
        <text class="cls-12" transform="translate(372.94 316.42)"><tspan class="cls-8" x="0" y="0">Y</tspan><tspan x="9.62" y="0">emiş</tspan></text>
        <text class="cls-12" transform="translate(485.89 316.42)"><tspan class="cls-2" x="0" y="0">K</tspan><tspan x="11.3" y="0">e</tspan><tspan class="cls-10" x="21.25" y="0">re</tspan><tspan x="37.6" y="0">viz</tspan></text>
        <text class="cls-12" transform="translate(126.97 316.42)"><tspan class="cls-1" x="0" y="0">K</tspan><tspan x="11.46" y="0">abuklu</tspan></text>
        <text class="cls-12" transform="translate(21.68 316.42)"><tspan x="0" y="0">S</tspan><tspan class="cls-3" x="10.06" y="0">o</tspan><tspan class="cls-4" x="20.14" y="0">y</tspan><tspan x="29.02" y="0">a</tspan></text>
      </g>
      <text class="cls-13" transform="translate(1.62 20.4)"><tspan x="0" y="0">Alerjenle</tspan><tspan class="cls-5" x="110.23" y="0">r</tspan><tspan class="cls-9" x="120.33" y="0">:</tspan></text>
    </g>
  </g>
</svg>